%TF.GenerationSoftware,KiCad,Pcbnew,(7.0.0)*%
%TF.CreationDate,2023-05-16T07:50:31+02:00*%
%TF.ProjectId,MamaGeburtstag2023,4d616d61-4765-4627-9572-747374616732,rev?*%
%TF.SameCoordinates,Original*%
%TF.FileFunction,Soldermask,Bot*%
%TF.FilePolarity,Negative*%
%FSLAX46Y46*%
G04 Gerber Fmt 4.6, Leading zero omitted, Abs format (unit mm)*
G04 Created by KiCad (PCBNEW (7.0.0)) date 2023-05-16 07:50:31*
%MOMM*%
%LPD*%
G01*
G04 APERTURE LIST*
%ADD10R,1.800000X1.800000*%
%ADD11C,1.800000*%
%ADD12R,1.700000X1.700000*%
%ADD13O,1.700000X1.700000*%
%ADD14C,1.950000*%
%ADD15C,1.815000*%
G04 APERTURE END LIST*
D10*
%TO.C,D312*%
X137999999Y-141999999D03*
D11*
X135460000Y-142000000D03*
%TD*%
D10*
%TO.C,D305*%
X148999999Y-149999999D03*
D11*
X146460000Y-150000000D03*
%TD*%
D10*
%TO.C,D302*%
X122999999Y-91999999D03*
D11*
X125540000Y-92000000D03*
%TD*%
D12*
%TO.C,J201*%
X179299999Y-116224999D03*
D13*
X179299999Y-118764999D03*
X176759999Y-116224999D03*
X176759999Y-118764999D03*
X174219999Y-116224999D03*
X174219999Y-118764999D03*
%TD*%
D10*
%TO.C,D315*%
X179999999Y-99999999D03*
D11*
X182540000Y-100000000D03*
%TD*%
D10*
%TO.C,D311*%
X116999999Y-122999999D03*
D11*
X114460000Y-123000000D03*
%TD*%
D10*
%TO.C,D316*%
X157459999Y-94999999D03*
D11*
X160000000Y-95000000D03*
%TD*%
D10*
%TO.C,D303*%
X109959999Y-112499999D03*
D11*
X112500000Y-112500000D03*
%TD*%
D10*
%TO.C,D304*%
X125999999Y-132999999D03*
D11*
X128540000Y-133000000D03*
%TD*%
D10*
%TO.C,D314*%
X179999999Y-122999999D03*
D11*
X177460000Y-123000000D03*
%TD*%
D10*
%TO.C,D306*%
X169539999Y-132999999D03*
D11*
X167000000Y-133000000D03*
%TD*%
D10*
%TO.C,D310*%
X112459999Y-99999999D03*
D11*
X115000000Y-100000000D03*
%TD*%
D12*
%TO.C,J102*%
X156849999Y-131724999D03*
D13*
X156849999Y-134264999D03*
%TD*%
D10*
%TO.C,D307*%
X184999999Y-112499999D03*
D11*
X182460000Y-112500000D03*
%TD*%
D10*
%TO.C,D308*%
X170459999Y-91999999D03*
D11*
X173000000Y-92000000D03*
%TD*%
D10*
%TO.C,D313*%
X159539999Y-141999999D03*
D11*
X157000000Y-142000000D03*
%TD*%
D10*
%TO.C,D301*%
X146459999Y-102999999D03*
D11*
X149000000Y-103000000D03*
%TD*%
D10*
%TO.C,D309*%
X135459999Y-94999999D03*
D11*
X138000000Y-95000000D03*
%TD*%
D14*
%TO.C,J101*%
X144950000Y-141250000D03*
X150550000Y-141250000D03*
D15*
X147750000Y-143399000D03*
%TD*%
M02*
