%TF.GenerationSoftware,KiCad,Pcbnew,(7.0.0)*%
%TF.CreationDate,2023-05-16T07:50:31+02:00*%
%TF.ProjectId,MamaGeburtstag2023,4d616d61-4765-4627-9572-747374616732,rev?*%
%TF.SameCoordinates,Original*%
%TF.FileFunction,Soldermask,Top*%
%TF.FilePolarity,Negative*%
%FSLAX46Y46*%
G04 Gerber Fmt 4.6, Leading zero omitted, Abs format (unit mm)*
G04 Created by KiCad (PCBNEW (7.0.0)) date 2023-05-16 07:50:31*
%MOMM*%
%LPD*%
G01*
G04 APERTURE LIST*
G04 Aperture macros list*
%AMRoundRect*
0 Rectangle with rounded corners*
0 $1 Rounding radius*
0 $2 $3 $4 $5 $6 $7 $8 $9 X,Y pos of 4 corners*
0 Add a 4 corners polygon primitive as box body*
4,1,4,$2,$3,$4,$5,$6,$7,$8,$9,$2,$3,0*
0 Add four circle primitives for the rounded corners*
1,1,$1+$1,$2,$3*
1,1,$1+$1,$4,$5*
1,1,$1+$1,$6,$7*
1,1,$1+$1,$8,$9*
0 Add four rect primitives between the rounded corners*
20,1,$1+$1,$2,$3,$4,$5,0*
20,1,$1+$1,$4,$5,$6,$7,0*
20,1,$1+$1,$6,$7,$8,$9,0*
20,1,$1+$1,$8,$9,$2,$3,0*%
G04 Aperture macros list end*
%ADD10RoundRect,0.225000X0.225000X0.250000X-0.225000X0.250000X-0.225000X-0.250000X0.225000X-0.250000X0*%
%ADD11RoundRect,0.225000X-0.250000X0.225000X-0.250000X-0.225000X0.250000X-0.225000X0.250000X0.225000X0*%
%ADD12R,1.800000X1.800000*%
%ADD13C,1.800000*%
%ADD14RoundRect,0.225000X0.250000X-0.225000X0.250000X0.225000X-0.250000X0.225000X-0.250000X-0.225000X0*%
%ADD15RoundRect,0.218750X-0.256250X0.218750X-0.256250X-0.218750X0.256250X-0.218750X0.256250X0.218750X0*%
%ADD16R,1.000000X1.000000*%
%ADD17RoundRect,0.200000X0.275000X-0.200000X0.275000X0.200000X-0.275000X0.200000X-0.275000X-0.200000X0*%
%ADD18R,1.700000X1.700000*%
%ADD19O,1.700000X1.700000*%
%ADD20RoundRect,0.200000X0.200000X0.275000X-0.200000X0.275000X-0.200000X-0.275000X0.200000X-0.275000X0*%
%ADD21R,1.600000X1.400000*%
%ADD22RoundRect,0.093750X0.093750X0.106250X-0.093750X0.106250X-0.093750X-0.106250X0.093750X-0.106250X0*%
%ADD23R,1.000000X1.600000*%
%ADD24RoundRect,0.200000X-0.275000X0.200000X-0.275000X-0.200000X0.275000X-0.200000X0.275000X0.200000X0*%
%ADD25R,1.500000X2.000000*%
%ADD26RoundRect,0.062500X0.350000X0.062500X-0.350000X0.062500X-0.350000X-0.062500X0.350000X-0.062500X0*%
%ADD27RoundRect,0.062500X0.062500X0.350000X-0.062500X0.350000X-0.062500X-0.350000X0.062500X-0.350000X0*%
%ADD28R,1.680000X1.680000*%
%ADD29RoundRect,0.150000X-0.587500X-0.150000X0.587500X-0.150000X0.587500X0.150000X-0.587500X0.150000X0*%
%ADD30RoundRect,0.250000X-0.650000X1.000000X-0.650000X-1.000000X0.650000X-1.000000X0.650000X1.000000X0*%
%ADD31RoundRect,0.250000X1.000000X0.650000X-1.000000X0.650000X-1.000000X-0.650000X1.000000X-0.650000X0*%
%ADD32R,1.600000X0.550000*%
%ADD33R,0.550000X1.600000*%
%ADD34RoundRect,0.200000X-0.200000X-0.275000X0.200000X-0.275000X0.200000X0.275000X-0.200000X0.275000X0*%
%ADD35RoundRect,0.225000X-0.225000X-0.250000X0.225000X-0.250000X0.225000X0.250000X-0.225000X0.250000X0*%
%ADD36R,0.620000X0.575000*%
%ADD37RoundRect,0.150000X0.587500X0.150000X-0.587500X0.150000X-0.587500X-0.150000X0.587500X-0.150000X0*%
%ADD38R,0.450000X1.500000*%
%ADD39C,1.950000*%
%ADD40C,1.815000*%
G04 APERTURE END LIST*
D10*
%TO.C,C207*%
X145525000Y-116000000D03*
X143975000Y-116000000D03*
%TD*%
D11*
%TO.C,C302*%
X130500000Y-116975000D03*
X130500000Y-118525000D03*
%TD*%
D12*
%TO.C,D312*%
X137999999Y-141999999D03*
D13*
X135460000Y-142000000D03*
%TD*%
D10*
%TO.C,C303*%
X135000000Y-116000000D03*
X133450000Y-116000000D03*
%TD*%
D11*
%TO.C,C208*%
X147000000Y-119225000D03*
X147000000Y-120775000D03*
%TD*%
D14*
%TO.C,C205*%
X150775000Y-117775000D03*
X150775000Y-116225000D03*
%TD*%
D12*
%TO.C,D305*%
X148999999Y-149999999D03*
D13*
X146460000Y-150000000D03*
%TD*%
D12*
%TO.C,D302*%
X122999999Y-91999999D03*
D13*
X125540000Y-92000000D03*
%TD*%
D15*
%TO.C,D101*%
X142350000Y-127937500D03*
X142350000Y-129512500D03*
%TD*%
D16*
%TO.C,TP217*%
X175274999Y-105999999D03*
%TD*%
%TO.C,TP216*%
X177474999Y-110799999D03*
%TD*%
D17*
%TO.C,R303*%
X112500000Y-117500000D03*
X112500000Y-115850000D03*
%TD*%
D18*
%TO.C,J201*%
X179299999Y-116224999D03*
D19*
X179299999Y-118764999D03*
X176759999Y-116224999D03*
X176759999Y-118764999D03*
X174219999Y-116224999D03*
X174219999Y-118764999D03*
%TD*%
D20*
%TO.C,R102*%
X153000000Y-138000000D03*
X151350000Y-138000000D03*
%TD*%
D21*
%TO.C,Y202*%
X157674999Y-114349999D03*
X153874999Y-114349999D03*
X153874999Y-116649999D03*
X157674999Y-116649999D03*
%TD*%
D10*
%TO.C,C101*%
X144125000Y-138000000D03*
X142575000Y-138000000D03*
%TD*%
D17*
%TO.C,R304*%
X132000000Y-133825000D03*
X132000000Y-132175000D03*
%TD*%
D12*
%TO.C,D315*%
X179999999Y-99999999D03*
D13*
X182540000Y-100000000D03*
%TD*%
D17*
%TO.C,R204*%
X120025000Y-111025000D03*
X120025000Y-109375000D03*
%TD*%
D22*
%TO.C,U202*%
X144887500Y-119550000D03*
X144887500Y-118900000D03*
X144887500Y-118250000D03*
X143112500Y-118250000D03*
X143112500Y-118900000D03*
X143112500Y-119550000D03*
D23*
X143999999Y-118899999D03*
%TD*%
D16*
%TO.C,TP211*%
X168874999Y-100499999D03*
%TD*%
D24*
%TO.C,R305*%
X143500000Y-148675000D03*
X143500000Y-150325000D03*
%TD*%
D12*
%TO.C,D311*%
X116999999Y-122999999D03*
D13*
X114460000Y-123000000D03*
%TD*%
D25*
%TO.C,LS201*%
X130974999Y-105199999D03*
X121074999Y-105199999D03*
X121074999Y-98799999D03*
X130974999Y-98799999D03*
%TD*%
D26*
%TO.C,U102*%
X149212500Y-134250000D03*
X149212500Y-133750000D03*
X149212500Y-133250000D03*
X149212500Y-132750000D03*
D27*
X148500000Y-132037500D03*
X148000000Y-132037500D03*
X147500000Y-132037500D03*
X147000000Y-132037500D03*
D26*
X146287500Y-132750000D03*
X146287500Y-133250000D03*
X146287500Y-133750000D03*
X146287500Y-134250000D03*
D27*
X147000000Y-134962500D03*
X147500000Y-134962500D03*
X148000000Y-134962500D03*
X148500000Y-134962500D03*
D28*
X147749999Y-133499999D03*
%TD*%
D11*
%TO.C,C206*%
X141000000Y-116975000D03*
X141000000Y-118525000D03*
%TD*%
D16*
%TO.C,TP218*%
X163274999Y-117499999D03*
%TD*%
D29*
%TO.C,Q201*%
X122287500Y-109650000D03*
X122287500Y-111550000D03*
X124162500Y-110600000D03*
%TD*%
D16*
%TO.C,TP212*%
X166774999Y-100499999D03*
%TD*%
D24*
%TO.C,R307*%
X182500000Y-107675000D03*
X182500000Y-109325000D03*
%TD*%
D20*
%TO.C,R302*%
X129500000Y-92000000D03*
X127850000Y-92000000D03*
%TD*%
D30*
%TO.C,D201*%
X141500000Y-109000000D03*
X141500000Y-113000000D03*
%TD*%
D17*
%TO.C,R306*%
X164000000Y-134170000D03*
X164000000Y-132520000D03*
%TD*%
D12*
%TO.C,D316*%
X157459999Y-94999999D03*
D13*
X160000000Y-95000000D03*
%TD*%
D20*
%TO.C,R205*%
X121650000Y-113600000D03*
X120000000Y-113600000D03*
%TD*%
D17*
%TO.C,R301*%
X152000000Y-103825000D03*
X152000000Y-102175000D03*
%TD*%
D12*
%TO.C,D303*%
X109959999Y-112499999D03*
D13*
X112500000Y-112500000D03*
%TD*%
D21*
%TO.C,SW203*%
X123809999Y-125599999D03*
X131009999Y-125599999D03*
X123809999Y-128599999D03*
X131009999Y-128599999D03*
%TD*%
D16*
%TO.C,TP213*%
X162774999Y-100499999D03*
%TD*%
D31*
%TO.C,D202*%
X131225000Y-110600000D03*
X127225000Y-110600000D03*
%TD*%
D20*
%TO.C,R202*%
X157625000Y-104900000D03*
X155975000Y-104900000D03*
%TD*%
D32*
%TO.C,U201*%
X161024999Y-106199999D03*
X161024999Y-106999999D03*
X161024999Y-107799999D03*
X161024999Y-108599999D03*
X161024999Y-109399999D03*
X161024999Y-110199999D03*
X161024999Y-110999999D03*
X161024999Y-111799999D03*
D33*
X162474999Y-113249999D03*
X163274999Y-113249999D03*
X164074999Y-113249999D03*
X164874999Y-113249999D03*
X165674999Y-113249999D03*
X166474999Y-113249999D03*
X167274999Y-113249999D03*
X168074999Y-113249999D03*
D32*
X169524999Y-111799999D03*
X169524999Y-110999999D03*
X169524999Y-110199999D03*
X169524999Y-109399999D03*
X169524999Y-108599999D03*
X169524999Y-107799999D03*
X169524999Y-106999999D03*
X169524999Y-106199999D03*
D33*
X168074999Y-104749999D03*
X167274999Y-104749999D03*
X166474999Y-104749999D03*
X165674999Y-104749999D03*
X164874999Y-104749999D03*
X164074999Y-104749999D03*
X163274999Y-104749999D03*
X162474999Y-104749999D03*
%TD*%
D20*
%TO.C,R103*%
X153000000Y-136000000D03*
X151350000Y-136000000D03*
%TD*%
D12*
%TO.C,D304*%
X125999999Y-132999999D03*
D13*
X128540000Y-133000000D03*
%TD*%
D12*
%TO.C,D314*%
X179999999Y-122999999D03*
D13*
X177460000Y-123000000D03*
%TD*%
D17*
%TO.C,R105*%
X140350000Y-133050000D03*
X140350000Y-131400000D03*
%TD*%
D12*
%TO.C,D306*%
X169539999Y-132999999D03*
D13*
X167000000Y-133000000D03*
%TD*%
D16*
%TO.C,TP205*%
X167774999Y-117499999D03*
%TD*%
D34*
%TO.C,R101*%
X142525000Y-136000000D03*
X144175000Y-136000000D03*
%TD*%
D12*
%TO.C,D310*%
X112459999Y-99999999D03*
D13*
X115000000Y-100000000D03*
%TD*%
D10*
%TO.C,C209*%
X157550000Y-110500000D03*
X156000000Y-110500000D03*
%TD*%
D18*
%TO.C,J102*%
X156849999Y-131724999D03*
D19*
X156849999Y-134264999D03*
%TD*%
D17*
%TO.C,R201*%
X164775000Y-101325000D03*
X164775000Y-99675000D03*
%TD*%
D16*
%TO.C,TP202*%
X145249999Y-113999999D03*
%TD*%
%TO.C,TP203*%
X137799999Y-104599999D03*
%TD*%
D22*
%TO.C,U301*%
X134387500Y-119550000D03*
X134387500Y-118900000D03*
X134387500Y-118250000D03*
X132612500Y-118250000D03*
X132612500Y-118900000D03*
X132612500Y-119550000D03*
D23*
X133499999Y-118899999D03*
%TD*%
D35*
%TO.C,C203*%
X172725000Y-109500000D03*
X174275000Y-109500000D03*
%TD*%
D12*
%TO.C,D307*%
X184999999Y-112499999D03*
D13*
X182460000Y-112500000D03*
%TD*%
D16*
%TO.C,TP210*%
X170974999Y-100499999D03*
%TD*%
%TO.C,TP206*%
X170024999Y-117499999D03*
%TD*%
%TO.C,TP209*%
X173074999Y-100499999D03*
%TD*%
D35*
%TO.C,C103*%
X151575000Y-130000000D03*
X153125000Y-130000000D03*
%TD*%
D16*
%TO.C,TP301*%
X133599999Y-113599999D03*
%TD*%
D21*
%TO.C,SW202*%
X164799999Y-125599999D03*
X171999999Y-125599999D03*
X164799999Y-128599999D03*
X171999999Y-128599999D03*
%TD*%
D16*
%TO.C,TP204*%
X165524999Y-117499999D03*
%TD*%
D12*
%TO.C,D308*%
X170459999Y-91999999D03*
D13*
X173000000Y-92000000D03*
%TD*%
D14*
%TO.C,C102*%
X144350000Y-133000000D03*
X144350000Y-131450000D03*
%TD*%
D36*
%TO.C,Q101*%
X153299999Y-131811999D03*
X151399999Y-131811999D03*
X152349999Y-134187999D03*
%TD*%
D35*
%TO.C,C202*%
X172725000Y-112000000D03*
X174275000Y-112000000D03*
%TD*%
D12*
%TO.C,D313*%
X159539999Y-141999999D03*
D13*
X157000000Y-142000000D03*
%TD*%
D16*
%TO.C,TP207*%
X175274999Y-103749999D03*
%TD*%
D11*
%TO.C,C301*%
X136250000Y-119225000D03*
X136250000Y-120775000D03*
%TD*%
D17*
%TO.C,R308*%
X176000000Y-92825000D03*
X176000000Y-91175000D03*
%TD*%
D20*
%TO.C,R203*%
X157625000Y-102900000D03*
X155975000Y-102900000D03*
%TD*%
D12*
%TO.C,D301*%
X146459999Y-102999999D03*
D13*
X149000000Y-103000000D03*
%TD*%
D16*
%TO.C,TP214*%
X160674999Y-100499999D03*
%TD*%
D37*
%TO.C,Q301*%
X156037500Y-100850000D03*
X156037500Y-98950000D03*
X154162500Y-99900000D03*
%TD*%
D16*
%TO.C,TP208*%
X175274999Y-101499999D03*
%TD*%
D15*
%TO.C,D102*%
X140350000Y-127937500D03*
X140350000Y-129512500D03*
%TD*%
D12*
%TO.C,D309*%
X135459999Y-94999999D03*
D13*
X138000000Y-95000000D03*
%TD*%
D16*
%TO.C,TP215*%
X158574999Y-100499999D03*
%TD*%
D10*
%TO.C,C201*%
X157550000Y-108500000D03*
X156000000Y-108500000D03*
%TD*%
D17*
%TO.C,R104*%
X142350000Y-133050000D03*
X142350000Y-131400000D03*
%TD*%
D11*
%TO.C,C204*%
X160775000Y-116225000D03*
X160775000Y-117775000D03*
%TD*%
D38*
%TO.C,J101*%
X146449999Y-141499999D03*
X147099999Y-141499999D03*
X147749999Y-141499999D03*
X148399999Y-141499999D03*
X149049999Y-141499999D03*
D39*
X144950000Y-141250000D03*
X150550000Y-141250000D03*
D40*
X147750000Y-143399000D03*
%TD*%
D16*
%TO.C,TP101*%
X151999999Y-122499999D03*
%TD*%
M02*
