%TF.GenerationSoftware,KiCad,Pcbnew,(7.0.0)*%
%TF.CreationDate,2023-05-16T07:50:38+02:00*%
%TF.ProjectId,MamaGeburtstag2023,4d616d61-4765-4627-9572-747374616732,rev?*%
%TF.SameCoordinates,Original*%
%TF.FileFunction,Drillmap*%
%TF.FilePolarity,Positive*%
%FSLAX45Y45*%
G04 Gerber Fmt 4.5, Leading zero omitted, Abs format (unit mm)*
G04 Created by KiCad (PCBNEW (7.0.0)) date 2023-05-16 07:50:38*
%MOMM*%
%LPD*%
G01*
G04 APERTURE LIST*
%ADD10C,1.984374*%
%ADD11C,0.200000*%
G04 APERTURE END LIST*
D10*
X16535000Y-14372830D02*
X16959380Y-14007783D01*
X18965174Y-10078250D02*
X18933068Y-9976289D01*
X18753140Y-12062116D02*
X18844328Y-11868031D01*
X17864472Y-8738726D02*
X17773281Y-8694872D01*
X11090966Y-9177053D02*
X11024051Y-9249109D01*
X18896313Y-9875872D02*
X18854864Y-9777183D01*
X15317067Y-15524576D02*
X15508220Y-15320731D01*
X11635662Y-8759211D02*
X11550634Y-8808843D01*
X11994799Y-8598326D02*
X11902435Y-8632676D01*
X12838699Y-8483606D02*
X12757276Y-8479803D01*
X13897479Y-8824139D02*
X13828828Y-8783498D01*
X16993568Y-8492331D02*
X16892682Y-8485999D01*
X10739248Y-9648466D02*
X10693201Y-9735367D01*
X15553476Y-8864460D02*
X15492823Y-8908381D01*
X14581891Y-15981376D02*
X14752416Y-16220261D01*
X14016467Y-15315158D02*
X14212888Y-15529788D01*
X14546410Y-9410252D02*
X14496644Y-9347321D01*
X12575501Y-8482279D02*
X12476245Y-8490339D01*
X13615147Y-8675669D02*
X13541560Y-8644586D01*
X12294758Y-13738805D02*
X13175311Y-14508572D01*
X14955864Y-15975538D02*
X15026431Y-15883948D01*
X18125116Y-8894284D02*
X18040579Y-8838462D01*
X14752416Y-16220261D02*
X14785317Y-16184164D01*
X18854864Y-9777183D02*
X18808675Y-9680409D01*
X19015627Y-10286060D02*
X18992679Y-10181569D01*
X13391229Y-8589998D02*
X13314614Y-8566591D01*
X14335373Y-9169428D02*
X14277838Y-9113925D01*
X13079748Y-8512495D02*
X13000000Y-8500000D01*
X15055484Y-9316669D02*
X15007861Y-9374447D01*
X16959380Y-14007783D02*
X17379053Y-13638476D01*
X11097026Y-12542260D02*
X11205080Y-12681872D01*
X19024706Y-11248645D02*
X19052546Y-11034751D01*
X18920229Y-11666769D02*
X18980478Y-11459812D01*
X14886538Y-16063546D02*
X14955864Y-15975538D01*
X14030532Y-8912177D02*
X13964736Y-8867048D01*
X14391061Y-9226861D02*
X14335373Y-9169428D01*
X15104837Y-9260331D02*
X15055484Y-9316669D01*
X15007861Y-9374447D02*
X14962038Y-9433641D01*
X17379053Y-13638476D02*
X17584516Y-13449656D01*
X11319754Y-12815965D02*
X11440619Y-12944163D01*
X13604927Y-14903407D02*
X13813470Y-15106686D01*
X16590024Y-8493036D02*
X16489772Y-8504159D01*
X12280289Y-8520332D02*
X12183862Y-8542042D01*
X10996019Y-12397503D02*
X11097026Y-12542260D01*
X13687598Y-8709215D02*
X13615147Y-8675669D01*
X15155849Y-9205458D02*
X15104837Y-9260331D01*
X14212888Y-15529788D02*
X14401705Y-15751539D01*
X11024051Y-9249109D02*
X10960271Y-9323920D01*
X10467679Y-10749489D02*
X10474680Y-10925064D01*
X13175311Y-14508572D02*
X13604927Y-14903407D01*
X18352876Y-12642642D02*
X18526377Y-12422818D01*
X18040579Y-8838462D02*
X17953635Y-8786599D01*
X11233656Y-9041652D02*
X11160881Y-9107863D01*
X13813470Y-15106686D02*
X14016467Y-15315158D01*
X10522233Y-11271656D02*
X10561929Y-11441924D01*
X14444840Y-9286174D02*
X14391061Y-9226861D01*
X17680253Y-8655067D02*
X17585577Y-8619342D01*
X15508220Y-15320731D02*
X15705498Y-15123010D01*
X10504832Y-10296548D02*
X10489367Y-10395661D01*
X10842666Y-9481357D02*
X10789115Y-9563759D01*
X16001820Y-8626954D02*
X15908222Y-8665159D01*
X15170480Y-15698585D02*
X15243557Y-15609091D01*
X18505024Y-9231739D02*
X18435380Y-9156569D01*
X15026431Y-15883948D02*
X15098037Y-15790917D01*
X14818654Y-16145834D02*
X14886538Y-16063546D01*
X18757701Y-9585734D02*
X18701894Y-9493344D01*
X16489772Y-8504159D02*
X16390153Y-8519721D01*
X12919629Y-8490354D02*
X12838699Y-8483606D01*
X14785317Y-16184164D02*
X14818654Y-16145834D01*
X18362377Y-9085208D02*
X18286205Y-9017687D01*
X17773281Y-8694872D02*
X17680253Y-8655067D01*
X10739559Y-11936113D02*
X10816858Y-12094054D01*
X10816858Y-12094054D02*
X10902487Y-12247976D01*
X18526377Y-12422818D02*
X18647034Y-12247539D01*
X15098037Y-15790917D02*
X15170480Y-15698585D01*
X16690720Y-8486321D02*
X16590024Y-8493036D01*
X14682831Y-9609267D02*
X14639567Y-9541273D01*
X16390153Y-8519721D02*
X16291359Y-8539751D01*
X18992679Y-10181569D02*
X18965174Y-10078250D01*
X18575602Y-9316161D02*
X18505024Y-9231739D01*
X12757276Y-8479803D02*
X12675423Y-8478995D01*
X14277838Y-9113925D02*
X14218523Y-9060400D01*
X18808675Y-9680409D02*
X18757701Y-9585734D01*
X10613118Y-9915299D02*
X10579356Y-10008107D01*
X13541560Y-8644586D02*
X13466899Y-8616013D01*
X15280270Y-15566078D02*
X15317067Y-15524576D01*
X17981481Y-13058551D02*
X18170896Y-12854210D01*
X15208451Y-9152075D02*
X15155849Y-9205458D01*
X10651112Y-9824348D02*
X10613118Y-9915299D01*
X10671020Y-11774527D02*
X10739559Y-11936113D01*
X14798165Y-9684078D02*
X14762404Y-9749978D01*
X19057593Y-10604714D02*
X19034065Y-10391538D01*
X14496644Y-9347321D02*
X14444840Y-9286174D01*
X11550634Y-8808843D02*
X11467783Y-8862016D01*
X14723798Y-9678851D02*
X14682831Y-9609267D01*
X12476245Y-8490339D02*
X12377795Y-8503061D01*
X11860274Y-13348449D02*
X12294758Y-13738805D01*
X18207055Y-8954036D02*
X18125116Y-8894284D01*
X12088653Y-8568077D02*
X11994799Y-8598326D01*
X10472432Y-10572897D02*
X10467679Y-10749489D01*
X13237120Y-8545839D02*
X13158810Y-8527791D01*
X14218523Y-9060400D02*
X14157490Y-9008902D01*
X16193578Y-8564280D02*
X16097002Y-8593338D01*
X14762404Y-9749978D02*
X14723798Y-9678851D01*
X10561929Y-11441924D02*
X10611667Y-11609673D01*
X11205080Y-12681872D02*
X11319754Y-12815965D01*
X18647034Y-12247539D02*
X18753140Y-12062116D01*
X13158810Y-8527791D02*
X13079748Y-8512495D01*
X14918087Y-9494226D02*
X14876077Y-9556177D01*
X17293565Y-8536940D02*
X17194199Y-8517831D01*
X15375084Y-9001116D02*
X15318139Y-9049879D01*
X14876077Y-9556177D02*
X14836080Y-9619469D01*
X10549963Y-10102659D02*
X10525076Y-10198843D01*
X18435380Y-9156569D02*
X18362377Y-9085208D01*
X11811700Y-8671015D02*
X11722730Y-8713231D01*
X13466899Y-8616013D02*
X13391229Y-8589998D01*
X16114258Y-14741834D02*
X16535000Y-14372830D01*
X10693201Y-9735367D02*
X10651112Y-9824348D01*
X14639567Y-9541273D02*
X14594072Y-9474919D01*
X18933068Y-9976289D02*
X18896313Y-9875872D01*
X11902435Y-8632676D02*
X11811700Y-8671015D01*
X11309156Y-8978533D02*
X11233656Y-9041652D01*
X15318139Y-9049879D02*
X15262571Y-9100207D01*
X15726540Y-8755453D02*
X15638836Y-8807603D01*
X14094806Y-8959478D02*
X14030532Y-8912177D01*
X15433335Y-8953942D02*
X15375084Y-9001116D01*
X18980478Y-11459812D02*
X19024706Y-11248645D01*
X18844328Y-11868031D02*
X18920229Y-11666769D01*
X16791669Y-8483985D02*
X16690720Y-8486321D01*
X13758846Y-8745174D02*
X13687598Y-8709215D01*
X12183862Y-8542042D02*
X12088653Y-8568077D01*
X10579356Y-10008107D02*
X10549963Y-10102659D01*
X18641210Y-9403425D02*
X18575602Y-9316161D01*
X17953635Y-8786599D02*
X17864472Y-8738726D01*
X18286205Y-9017687D02*
X18207055Y-8954036D01*
X15262571Y-9100207D02*
X15208451Y-9152075D01*
X10902487Y-12247976D02*
X10996019Y-12397503D01*
X15908222Y-8665159D02*
X15816399Y-8707982D01*
X17094137Y-8502951D02*
X16993568Y-8492331D01*
X10960271Y-9323920D02*
X10899763Y-9401374D01*
X16892682Y-8485999D02*
X16791669Y-8483985D01*
X13828828Y-8783498D02*
X13758846Y-8745174D01*
X10525076Y-10198843D02*
X10504832Y-10296548D01*
X11648078Y-13148529D02*
X11860274Y-13348449D01*
X11722730Y-8713231D02*
X11635662Y-8759211D01*
X11440619Y-12944163D02*
X11648078Y-13148529D01*
X18170896Y-12854210D02*
X18352876Y-12642642D01*
X14962038Y-9433641D02*
X14918087Y-9494226D01*
X10611667Y-11609673D02*
X10671020Y-11774527D01*
X12675425Y-8478995D02*
X12575501Y-8482279D01*
X15705498Y-15123010D02*
X15907859Y-14930387D01*
X15816399Y-8707982D02*
X15726540Y-8755453D01*
X11467783Y-8862016D02*
X11387244Y-8918616D01*
X13314614Y-8566591D02*
X13237120Y-8545839D01*
X10789115Y-9563759D02*
X10739248Y-9648466D01*
X14157490Y-9008902D02*
X14094806Y-8959478D01*
X14401705Y-15751539D02*
X14581891Y-15981376D01*
X17392043Y-8560248D02*
X17293565Y-8536940D01*
X17785673Y-13256690D02*
X17981481Y-13058551D01*
X15492823Y-8908381D02*
X15433335Y-8953942D01*
X11387244Y-8918616D02*
X11309156Y-8978533D01*
X15907859Y-14930387D02*
X16114258Y-14741834D01*
X10489367Y-10395661D02*
X10472432Y-10572897D01*
X15243557Y-15609091D02*
X15280270Y-15566078D01*
X13000000Y-8500000D02*
X12919629Y-8490354D01*
X14594072Y-9474919D02*
X14546410Y-9410252D01*
X19034065Y-10391538D02*
X19015627Y-10286060D01*
X10493008Y-11099244D02*
X10522233Y-11271656D01*
X17584516Y-13449656D02*
X17785673Y-13256690D01*
X19063631Y-10819612D02*
X19057593Y-10604714D01*
X11160881Y-9107863D02*
X11090966Y-9177053D01*
X16097002Y-8593338D02*
X16001820Y-8626954D01*
X12377795Y-8503061D02*
X12280289Y-8520332D01*
X14836080Y-9619469D02*
X14798165Y-9684078D01*
X18701894Y-9493344D02*
X18641210Y-9403425D01*
X19052546Y-11034751D02*
X19063631Y-10819612D01*
X17585577Y-8619342D02*
X17489444Y-8587725D01*
X10474680Y-10925064D02*
X10493008Y-11099244D01*
X13964736Y-8867048D02*
X13897479Y-8824139D01*
X16291359Y-8539751D02*
X16193578Y-8564280D01*
X17489444Y-8587725D02*
X17392043Y-8560248D01*
X17194199Y-8517831D02*
X17094137Y-8502951D01*
X15638836Y-8807603D02*
X15553476Y-8864460D01*
X10899763Y-9401374D02*
X10842666Y-9481357D01*
D11*
X10616080Y-16612956D02*
X10616080Y-16412956D01*
X10616080Y-16412956D02*
X10663699Y-16412956D01*
X10663699Y-16412956D02*
X10692270Y-16422480D01*
X10692270Y-16422480D02*
X10711318Y-16441527D01*
X10711318Y-16441527D02*
X10720841Y-16460575D01*
X10720841Y-16460575D02*
X10730365Y-16498670D01*
X10730365Y-16498670D02*
X10730365Y-16527242D01*
X10730365Y-16527242D02*
X10720841Y-16565337D01*
X10720841Y-16565337D02*
X10711318Y-16584384D01*
X10711318Y-16584384D02*
X10692270Y-16603432D01*
X10692270Y-16603432D02*
X10663699Y-16612956D01*
X10663699Y-16612956D02*
X10616080Y-16612956D01*
X10816080Y-16612956D02*
X10816080Y-16479623D01*
X10816080Y-16517718D02*
X10825603Y-16498670D01*
X10825603Y-16498670D02*
X10835127Y-16489146D01*
X10835127Y-16489146D02*
X10854175Y-16479623D01*
X10854175Y-16479623D02*
X10873222Y-16479623D01*
X10939889Y-16612956D02*
X10939889Y-16479623D01*
X10939889Y-16412956D02*
X10930365Y-16422480D01*
X10930365Y-16422480D02*
X10939889Y-16432004D01*
X10939889Y-16432004D02*
X10949413Y-16422480D01*
X10949413Y-16422480D02*
X10939889Y-16412956D01*
X10939889Y-16412956D02*
X10939889Y-16432004D01*
X11063699Y-16612956D02*
X11044651Y-16603432D01*
X11044651Y-16603432D02*
X11035127Y-16584384D01*
X11035127Y-16584384D02*
X11035127Y-16412956D01*
X11168460Y-16612956D02*
X11149413Y-16603432D01*
X11149413Y-16603432D02*
X11139889Y-16584384D01*
X11139889Y-16584384D02*
X11139889Y-16412956D01*
X11364651Y-16612956D02*
X11364651Y-16412956D01*
X11364651Y-16412956D02*
X11431318Y-16555813D01*
X11431318Y-16555813D02*
X11497984Y-16412956D01*
X11497984Y-16412956D02*
X11497984Y-16612956D01*
X11678937Y-16612956D02*
X11678937Y-16508194D01*
X11678937Y-16508194D02*
X11669413Y-16489146D01*
X11669413Y-16489146D02*
X11650365Y-16479623D01*
X11650365Y-16479623D02*
X11612270Y-16479623D01*
X11612270Y-16479623D02*
X11593222Y-16489146D01*
X11678937Y-16603432D02*
X11659889Y-16612956D01*
X11659889Y-16612956D02*
X11612270Y-16612956D01*
X11612270Y-16612956D02*
X11593222Y-16603432D01*
X11593222Y-16603432D02*
X11583698Y-16584384D01*
X11583698Y-16584384D02*
X11583698Y-16565337D01*
X11583698Y-16565337D02*
X11593222Y-16546289D01*
X11593222Y-16546289D02*
X11612270Y-16536765D01*
X11612270Y-16536765D02*
X11659889Y-16536765D01*
X11659889Y-16536765D02*
X11678937Y-16527242D01*
X11774175Y-16479623D02*
X11774175Y-16679623D01*
X11774175Y-16489146D02*
X11793222Y-16479623D01*
X11793222Y-16479623D02*
X11831318Y-16479623D01*
X11831318Y-16479623D02*
X11850365Y-16489146D01*
X11850365Y-16489146D02*
X11859889Y-16498670D01*
X11859889Y-16498670D02*
X11869413Y-16517718D01*
X11869413Y-16517718D02*
X11869413Y-16574861D01*
X11869413Y-16574861D02*
X11859889Y-16593908D01*
X11859889Y-16593908D02*
X11850365Y-16603432D01*
X11850365Y-16603432D02*
X11831318Y-16612956D01*
X11831318Y-16612956D02*
X11793222Y-16612956D01*
X11793222Y-16612956D02*
X11774175Y-16603432D01*
X11955127Y-16593908D02*
X11964651Y-16603432D01*
X11964651Y-16603432D02*
X11955127Y-16612956D01*
X11955127Y-16612956D02*
X11945603Y-16603432D01*
X11945603Y-16603432D02*
X11955127Y-16593908D01*
X11955127Y-16593908D02*
X11955127Y-16612956D01*
X11955127Y-16489146D02*
X11964651Y-16498670D01*
X11964651Y-16498670D02*
X11955127Y-16508194D01*
X11955127Y-16508194D02*
X11945603Y-16498670D01*
X11945603Y-16498670D02*
X11955127Y-16489146D01*
X11955127Y-16489146D02*
X11955127Y-16508194D01*
M02*
