%TF.GenerationSoftware,KiCad,Pcbnew,(7.0.0)*%
%TF.CreationDate,2023-05-16T07:50:31+02:00*%
%TF.ProjectId,MamaGeburtstag2023,4d616d61-4765-4627-9572-747374616732,rev?*%
%TF.SameCoordinates,Original*%
%TF.FileFunction,Copper,L3,Inr*%
%TF.FilePolarity,Positive*%
%FSLAX46Y46*%
G04 Gerber Fmt 4.6, Leading zero omitted, Abs format (unit mm)*
G04 Created by KiCad (PCBNEW (7.0.0)) date 2023-05-16 07:50:31*
%MOMM*%
%LPD*%
G01*
G04 APERTURE LIST*
%TA.AperFunction,ComponentPad*%
%ADD10R,1.800000X1.800000*%
%TD*%
%TA.AperFunction,ComponentPad*%
%ADD11C,1.800000*%
%TD*%
%TA.AperFunction,ComponentPad*%
%ADD12R,1.700000X1.700000*%
%TD*%
%TA.AperFunction,ComponentPad*%
%ADD13O,1.700000X1.700000*%
%TD*%
%TA.AperFunction,ComponentPad*%
%ADD14C,0.800000*%
%TD*%
%TA.AperFunction,ComponentPad*%
%ADD15C,0.900000*%
%TD*%
%TA.AperFunction,ComponentPad*%
%ADD16C,0.700000*%
%TD*%
%TA.AperFunction,ComponentPad*%
%ADD17C,1.950000*%
%TD*%
%TA.AperFunction,ComponentPad*%
%ADD18C,1.815000*%
%TD*%
%TA.AperFunction,ViaPad*%
%ADD19C,0.800000*%
%TD*%
G04 APERTURE END LIST*
D10*
%TO.N,Net-(D309-K)*%
%TO.C,D312*%
X137999999Y-141999999D03*
D11*
%TO.N,Net-(D304-K)*%
X135460000Y-142000000D03*
%TD*%
D10*
%TO.N,Net-(D305-K)*%
%TO.C,D305*%
X148999999Y-149999999D03*
D11*
%TO.N,Net-(D305-A)*%
X146460000Y-150000000D03*
%TD*%
D10*
%TO.N,Net-(D302-K)*%
%TO.C,D302*%
X122999999Y-91999999D03*
D11*
%TO.N,Net-(D302-A)*%
X125540000Y-92000000D03*
%TD*%
D12*
%TO.N,/Digital/PB4(MISO)*%
%TO.C,J201*%
X179299999Y-116224999D03*
D13*
%TO.N,VCC*%
X179299999Y-118764999D03*
%TO.N,/Digital/PB5(SCK)*%
X176759999Y-116224999D03*
%TO.N,/Digital/PB3(MOSI)*%
X176759999Y-118764999D03*
%TO.N,/Digital/PC6(NRST)*%
X174219999Y-116224999D03*
%TO.N,GND*%
X174219999Y-118764999D03*
%TD*%
D10*
%TO.N,Net-(D309-K)*%
%TO.C,D315*%
X179999999Y-99999999D03*
D11*
%TO.N,Net-(D307-K)*%
X182540000Y-100000000D03*
%TD*%
D14*
%TO.N,GND*%
%TO.C,U202*%
X144000000Y-119450000D03*
D15*
X144000000Y-118350000D03*
%TD*%
D10*
%TO.N,Net-(D309-K)*%
%TO.C,D311*%
X116999999Y-122999999D03*
D11*
%TO.N,Net-(D303-K)*%
X114460000Y-123000000D03*
%TD*%
D16*
%TO.N,GND*%
%TO.C,U102*%
X148150000Y-133900000D03*
X148150000Y-133100000D03*
X147350000Y-133900000D03*
X147350000Y-133100000D03*
%TD*%
D10*
%TO.N,Net-(D309-K)*%
%TO.C,D316*%
X157459999Y-94999999D03*
D11*
%TO.N,Net-(D308-K)*%
X160000000Y-95000000D03*
%TD*%
D10*
%TO.N,Net-(D303-K)*%
%TO.C,D303*%
X109959999Y-112499999D03*
D11*
%TO.N,Net-(D303-A)*%
X112500000Y-112500000D03*
%TD*%
D10*
%TO.N,Net-(D304-K)*%
%TO.C,D304*%
X125999999Y-132999999D03*
D11*
%TO.N,Net-(D304-A)*%
X128540000Y-133000000D03*
%TD*%
D10*
%TO.N,Net-(D309-K)*%
%TO.C,D314*%
X179999999Y-122999999D03*
D11*
%TO.N,Net-(D306-K)*%
X177460000Y-123000000D03*
%TD*%
D10*
%TO.N,Net-(D306-K)*%
%TO.C,D306*%
X169539999Y-132999999D03*
D11*
%TO.N,Net-(D306-A)*%
X167000000Y-133000000D03*
%TD*%
D10*
%TO.N,Net-(D309-K)*%
%TO.C,D310*%
X112459999Y-99999999D03*
D11*
%TO.N,Net-(D302-K)*%
X115000000Y-100000000D03*
%TD*%
D12*
%TO.N,GND*%
%TO.C,J102*%
X156849999Y-131724999D03*
D13*
%TO.N,/VBAT*%
X156849999Y-134264999D03*
%TD*%
D14*
%TO.N,GND*%
%TO.C,U301*%
X133500000Y-119450000D03*
X133500000Y-118350000D03*
%TD*%
D10*
%TO.N,Net-(D307-K)*%
%TO.C,D307*%
X184999999Y-112499999D03*
D11*
%TO.N,Net-(D307-A)*%
X182460000Y-112500000D03*
%TD*%
D10*
%TO.N,Net-(D308-K)*%
%TO.C,D308*%
X170459999Y-91999999D03*
D11*
%TO.N,Net-(D308-A)*%
X173000000Y-92000000D03*
%TD*%
D10*
%TO.N,Net-(D309-K)*%
%TO.C,D313*%
X159539999Y-141999999D03*
D11*
%TO.N,Net-(D305-K)*%
X157000000Y-142000000D03*
%TD*%
D10*
%TO.N,Net-(D301-K)*%
%TO.C,D301*%
X146459999Y-102999999D03*
D11*
%TO.N,Net-(D301-A)*%
X149000000Y-103000000D03*
%TD*%
D10*
%TO.N,Net-(D309-K)*%
%TO.C,D309*%
X135459999Y-94999999D03*
D11*
%TO.N,Net-(D301-K)*%
X138000000Y-95000000D03*
%TD*%
D17*
%TO.N,unconnected-(J101-PadMH1)*%
%TO.C,J101*%
X144950000Y-141250000D03*
%TO.N,unconnected-(J101-PadMH2)*%
X150550000Y-141250000D03*
D18*
%TO.N,unconnected-(J101-PadMH3)*%
X147750000Y-143399000D03*
%TD*%
D19*
%TO.N,GND*%
X123200000Y-113800000D03*
X168400000Y-128600000D03*
X141250000Y-136000000D03*
X150250000Y-132250000D03*
X146224500Y-130500000D03*
X141250000Y-138000000D03*
X154250000Y-138000000D03*
X175525000Y-112000000D03*
X131750000Y-115650000D03*
X175525000Y-109500000D03*
X159025000Y-109400000D03*
X145500000Y-120750000D03*
X144350000Y-130100000D03*
X151250000Y-114750000D03*
X159000000Y-107875500D03*
X155600000Y-97600000D03*
X148844000Y-138938000D03*
X154250000Y-136000000D03*
X171275000Y-108500000D03*
X154525000Y-108500000D03*
X148012500Y-130302000D03*
X142500000Y-116000000D03*
X147828000Y-137922000D03*
X127400000Y-128600000D03*
X147828000Y-138938000D03*
X134700000Y-120800000D03*
X147828000Y-136906000D03*
X123200000Y-112800000D03*
X148844000Y-137922000D03*
X160750000Y-119250000D03*
X154525000Y-110500000D03*
%TO.N,VD*%
X136500000Y-113000000D03*
X135250000Y-113000000D03*
X137750000Y-113000000D03*
X164000000Y-135500000D03*
X136500000Y-116750000D03*
X135250000Y-114250000D03*
X137750000Y-115500000D03*
X176000000Y-94000000D03*
X151500000Y-105000000D03*
X131000000Y-92000000D03*
X136500000Y-114250000D03*
X143500000Y-146500000D03*
X182000000Y-106000000D03*
X137750000Y-114250000D03*
X113000000Y-119000000D03*
X136500000Y-115500000D03*
X137750000Y-116750000D03*
X132000000Y-135000000D03*
%TO.N,/Digital/PD4(T0)*%
X154400000Y-106600000D03*
X118200000Y-112800000D03*
%TO.N,/Digital/PD6(AIN0)\u005CLIGHT*%
X127400000Y-125600000D03*
X163000000Y-115400000D03*
%TO.N,/Digital/PC6(NRST)*%
X164775000Y-102750000D03*
%TO.N,VCC*%
X136500000Y-107500000D03*
X167800000Y-111000000D03*
X162600000Y-108600000D03*
X137750000Y-107500000D03*
X137750000Y-110000000D03*
X136500000Y-110000000D03*
X167700000Y-109400000D03*
X136500000Y-108750000D03*
X151300000Y-108300000D03*
X137750000Y-108750000D03*
X164775000Y-98500000D03*
X139000000Y-108750000D03*
X162600000Y-110200000D03*
X139000000Y-107500000D03*
X139000000Y-110000000D03*
%TD*%
%TA.AperFunction,Conductor*%
%TO.N,VD*%
G36*
X127562009Y-85098436D02*
G01*
X127566521Y-85098564D01*
X128365264Y-85135866D01*
X128369724Y-85136157D01*
X129163699Y-85202364D01*
X129168066Y-85202808D01*
X129956613Y-85297449D01*
X129961030Y-85298059D01*
X130743478Y-85420653D01*
X130747774Y-85421404D01*
X131523703Y-85571521D01*
X131527942Y-85572420D01*
X132296448Y-85749536D01*
X132300639Y-85750579D01*
X132983340Y-85933398D01*
X133061268Y-85954266D01*
X133065417Y-85955455D01*
X133817474Y-86185225D01*
X133821502Y-86186532D01*
X134564395Y-86441930D01*
X134568379Y-86443377D01*
X134668950Y-86481866D01*
X135301434Y-86723922D01*
X135305363Y-86725503D01*
X136027904Y-87030705D01*
X136031732Y-87032399D01*
X136743261Y-87361846D01*
X136746974Y-87363642D01*
X137446750Y-87716820D01*
X137450392Y-87718736D01*
X137992268Y-88015484D01*
X138137719Y-88095137D01*
X138141322Y-88097189D01*
X138815614Y-88496364D01*
X138819108Y-88498511D01*
X139479833Y-88920050D01*
X139483215Y-88922289D01*
X140129554Y-89365603D01*
X140132875Y-89367963D01*
X140764257Y-89832618D01*
X140767522Y-89835105D01*
X140948635Y-89977904D01*
X141383318Y-90320629D01*
X141386510Y-90323233D01*
X141565667Y-90474404D01*
X141986051Y-90829120D01*
X141989099Y-90831778D01*
X142571841Y-91357632D01*
X142574830Y-91360421D01*
X143140017Y-91905652D01*
X143142947Y-91908576D01*
X143231595Y-92000000D01*
X143678593Y-92460996D01*
X143689918Y-92472675D01*
X143692759Y-92475704D01*
X144220986Y-93058298D01*
X144223733Y-93061432D01*
X144478632Y-93362298D01*
X144725008Y-93653104D01*
X144732537Y-93661990D01*
X144735185Y-93665225D01*
X144988630Y-93985718D01*
X145223937Y-94283275D01*
X145226491Y-94286620D01*
X145694531Y-94921642D01*
X145696984Y-94925092D01*
X146143704Y-95576633D01*
X146146052Y-95580186D01*
X146570845Y-96247803D01*
X146573083Y-96251460D01*
X146975276Y-96934604D01*
X146977401Y-96938361D01*
X147352802Y-97629984D01*
X147356696Y-97637803D01*
X147368996Y-97664850D01*
X147368998Y-97664852D01*
X147373754Y-97675311D01*
X147396552Y-97697613D01*
X147406086Y-97708070D01*
X147426189Y-97732823D01*
X147436164Y-97738522D01*
X147440803Y-97742461D01*
X147445850Y-97745837D01*
X147454064Y-97753872D01*
X147464627Y-97758397D01*
X147464628Y-97758398D01*
X147483366Y-97766426D01*
X147496054Y-97772742D01*
X147523734Y-97788559D01*
X147535094Y-97790270D01*
X147540833Y-97792264D01*
X147546769Y-97793591D01*
X147557331Y-97798116D01*
X147589183Y-97799237D01*
X147603289Y-97800542D01*
X147634828Y-97805294D01*
X147646044Y-97802784D01*
X147652112Y-97802570D01*
X147658121Y-97801664D01*
X147669608Y-97802069D01*
X147699723Y-97791604D01*
X147713349Y-97787727D01*
X147714038Y-97787572D01*
X147744464Y-97780767D01*
X147754017Y-97774374D01*
X147759605Y-97771980D01*
X147764875Y-97768967D01*
X147775731Y-97765196D01*
X147800037Y-97744554D01*
X147811331Y-97736025D01*
X147837836Y-97718292D01*
X147844435Y-97708879D01*
X147848773Y-97704635D01*
X147852604Y-97699917D01*
X147861368Y-97692476D01*
X147876575Y-97664451D01*
X147884025Y-97652417D01*
X147902335Y-97626305D01*
X147905087Y-97615147D01*
X147909844Y-97604687D01*
X147910382Y-97604931D01*
X147912292Y-97600000D01*
X154694540Y-97600000D01*
X154695219Y-97606460D01*
X154713646Y-97781795D01*
X154713647Y-97781803D01*
X154714326Y-97788256D01*
X154716331Y-97794428D01*
X154716333Y-97794435D01*
X154749827Y-97897517D01*
X154772821Y-97968284D01*
X154867467Y-98132216D01*
X154871811Y-98137041D01*
X154871813Y-98137043D01*
X154989779Y-98268057D01*
X154994129Y-98272888D01*
X155147270Y-98384151D01*
X155320197Y-98461144D01*
X155505354Y-98500500D01*
X155688143Y-98500500D01*
X155694646Y-98500500D01*
X155879803Y-98461144D01*
X156052730Y-98384151D01*
X156205871Y-98272888D01*
X156332533Y-98132216D01*
X156427179Y-97968284D01*
X156485674Y-97788256D01*
X156505460Y-97600000D01*
X156485674Y-97411744D01*
X156427179Y-97231716D01*
X156332533Y-97067784D01*
X156261169Y-96988527D01*
X156210220Y-96931942D01*
X156210219Y-96931941D01*
X156205871Y-96927112D01*
X156200613Y-96923292D01*
X156200611Y-96923290D01*
X156057988Y-96819669D01*
X156057987Y-96819668D01*
X156052730Y-96815849D01*
X156017632Y-96800222D01*
X155885745Y-96741501D01*
X155885740Y-96741499D01*
X155879803Y-96738856D01*
X155873444Y-96737504D01*
X155873440Y-96737503D01*
X155701008Y-96700852D01*
X155701005Y-96700851D01*
X155694646Y-96699500D01*
X155505354Y-96699500D01*
X155498995Y-96700851D01*
X155498991Y-96700852D01*
X155326559Y-96737503D01*
X155326552Y-96737505D01*
X155320197Y-96738856D01*
X155314262Y-96741498D01*
X155314254Y-96741501D01*
X155153207Y-96813205D01*
X155153202Y-96813207D01*
X155147270Y-96815849D01*
X155142016Y-96819665D01*
X155142011Y-96819669D01*
X154999388Y-96923290D01*
X154999381Y-96923295D01*
X154994129Y-96927112D01*
X154989784Y-96931937D01*
X154989779Y-96931942D01*
X154871813Y-97062956D01*
X154871808Y-97062962D01*
X154867467Y-97067784D01*
X154864222Y-97073404D01*
X154864218Y-97073410D01*
X154776069Y-97226089D01*
X154776066Y-97226094D01*
X154772821Y-97231716D01*
X154770815Y-97237888D01*
X154770813Y-97237894D01*
X154716333Y-97405564D01*
X154716331Y-97405573D01*
X154714326Y-97411744D01*
X154713648Y-97418194D01*
X154713646Y-97418204D01*
X154706007Y-97490894D01*
X154694540Y-97600000D01*
X147912292Y-97600000D01*
X147914144Y-97595220D01*
X147973491Y-97485856D01*
X148242398Y-96990316D01*
X148244401Y-96986768D01*
X148616439Y-96352793D01*
X148618525Y-96349368D01*
X148874331Y-95944578D01*
X156059500Y-95944578D01*
X156059501Y-95947872D01*
X156059853Y-95951150D01*
X156059854Y-95951161D01*
X156065079Y-95999768D01*
X156065080Y-95999773D01*
X156065909Y-96007483D01*
X156068619Y-96014749D01*
X156068620Y-96014753D01*
X156102217Y-96104831D01*
X156116204Y-96142331D01*
X156202454Y-96257546D01*
X156317669Y-96343796D01*
X156452517Y-96394091D01*
X156512127Y-96400500D01*
X158407872Y-96400499D01*
X158467483Y-96394091D01*
X158602331Y-96343796D01*
X158717546Y-96257546D01*
X158803796Y-96142331D01*
X158832454Y-96065493D01*
X158868404Y-96014280D01*
X158924785Y-95987141D01*
X158987239Y-95990988D01*
X159039863Y-96024840D01*
X159044739Y-96030136D01*
X159048216Y-96033913D01*
X159231374Y-96176470D01*
X159435497Y-96286936D01*
X159655019Y-96362298D01*
X159883951Y-96400500D01*
X160110916Y-96400500D01*
X160116049Y-96400500D01*
X160344981Y-96362298D01*
X160564503Y-96286936D01*
X160768626Y-96176470D01*
X160951784Y-96033913D01*
X161108979Y-95863153D01*
X161235924Y-95668849D01*
X161329157Y-95456300D01*
X161386134Y-95231305D01*
X161405300Y-95000000D01*
X161386134Y-94768695D01*
X161329157Y-94543700D01*
X161235924Y-94331151D01*
X161108979Y-94136847D01*
X160951784Y-93966087D01*
X160944197Y-93960182D01*
X160772672Y-93826679D01*
X160772671Y-93826678D01*
X160768626Y-93823530D01*
X160706210Y-93789752D01*
X160569007Y-93715501D01*
X160569002Y-93715499D01*
X160564503Y-93713064D01*
X160559657Y-93711400D01*
X160559654Y-93711399D01*
X160349834Y-93639368D01*
X160349833Y-93639367D01*
X160344981Y-93637702D01*
X160339931Y-93636859D01*
X160339922Y-93636857D01*
X160121111Y-93600344D01*
X160121102Y-93600343D01*
X160116049Y-93599500D01*
X159883951Y-93599500D01*
X159878898Y-93600343D01*
X159878888Y-93600344D01*
X159660077Y-93636857D01*
X159660065Y-93636859D01*
X159655019Y-93637702D01*
X159650169Y-93639366D01*
X159650165Y-93639368D01*
X159440345Y-93711399D01*
X159440337Y-93711402D01*
X159435497Y-93713064D01*
X159431001Y-93715496D01*
X159430992Y-93715501D01*
X159235882Y-93821090D01*
X159235878Y-93821092D01*
X159231374Y-93823530D01*
X159227334Y-93826674D01*
X159227327Y-93826679D01*
X159052263Y-93962936D01*
X159052255Y-93962943D01*
X159048216Y-93966087D01*
X159044751Y-93969850D01*
X159044740Y-93969861D01*
X159039859Y-93975164D01*
X158987234Y-94009013D01*
X158924782Y-94012857D01*
X158868403Y-93985718D01*
X158832454Y-93934506D01*
X158803796Y-93857669D01*
X158717546Y-93742454D01*
X158681541Y-93715501D01*
X158609431Y-93661519D01*
X158609430Y-93661518D01*
X158602331Y-93656204D01*
X158467483Y-93605909D01*
X158459770Y-93605079D01*
X158459767Y-93605079D01*
X158411180Y-93599855D01*
X158411169Y-93599854D01*
X158407873Y-93599500D01*
X158404550Y-93599500D01*
X156515439Y-93599500D01*
X156515420Y-93599500D01*
X156512128Y-93599501D01*
X156508850Y-93599853D01*
X156508838Y-93599854D01*
X156460231Y-93605079D01*
X156460225Y-93605080D01*
X156452517Y-93605909D01*
X156445252Y-93608618D01*
X156445246Y-93608620D01*
X156325980Y-93653104D01*
X156325978Y-93653104D01*
X156317669Y-93656204D01*
X156310572Y-93661516D01*
X156310568Y-93661519D01*
X156209550Y-93737141D01*
X156209546Y-93737144D01*
X156202454Y-93742454D01*
X156197144Y-93749546D01*
X156197141Y-93749550D01*
X156121519Y-93850568D01*
X156121516Y-93850572D01*
X156116204Y-93857669D01*
X156113104Y-93865978D01*
X156113104Y-93865980D01*
X156068620Y-93985247D01*
X156068619Y-93985250D01*
X156065909Y-93992517D01*
X156065079Y-94000227D01*
X156065079Y-94000232D01*
X156059855Y-94048819D01*
X156059854Y-94048831D01*
X156059500Y-94052127D01*
X156059500Y-94055448D01*
X156059500Y-94055449D01*
X156059500Y-95944560D01*
X156059500Y-95944578D01*
X148874331Y-95944578D01*
X149011147Y-95728079D01*
X149013308Y-95724779D01*
X149425825Y-95116447D01*
X149428019Y-95113318D01*
X149859740Y-94518211D01*
X149862020Y-94515169D01*
X150312288Y-93933506D01*
X150314595Y-93930618D01*
X150782724Y-93362664D01*
X150785028Y-93359952D01*
X151148903Y-92944578D01*
X169059500Y-92944578D01*
X169059501Y-92947872D01*
X169059853Y-92951150D01*
X169059854Y-92951161D01*
X169065079Y-92999768D01*
X169065080Y-92999773D01*
X169065909Y-93007483D01*
X169068619Y-93014749D01*
X169068620Y-93014753D01*
X169089619Y-93071053D01*
X169116204Y-93142331D01*
X169202454Y-93257546D01*
X169317669Y-93343796D01*
X169452517Y-93394091D01*
X169512127Y-93400500D01*
X171407872Y-93400499D01*
X171467483Y-93394091D01*
X171602331Y-93343796D01*
X171717546Y-93257546D01*
X171803796Y-93142331D01*
X171832454Y-93065493D01*
X171868404Y-93014280D01*
X171924785Y-92987141D01*
X171987239Y-92990988D01*
X172039863Y-93024840D01*
X172044739Y-93030136D01*
X172048216Y-93033913D01*
X172052262Y-93037062D01*
X172052263Y-93037063D01*
X172088717Y-93065436D01*
X172231374Y-93176470D01*
X172435497Y-93286936D01*
X172655019Y-93362298D01*
X172883951Y-93400500D01*
X173110916Y-93400500D01*
X173116049Y-93400500D01*
X173344981Y-93362298D01*
X173564503Y-93286936D01*
X173768626Y-93176470D01*
X173951784Y-93033913D01*
X174108979Y-92863153D01*
X174235924Y-92668849D01*
X174329157Y-92456300D01*
X174386134Y-92231305D01*
X174405300Y-92000000D01*
X174386134Y-91768695D01*
X174329157Y-91543700D01*
X174235924Y-91331151D01*
X174108979Y-91136847D01*
X173951784Y-90966087D01*
X173941905Y-90958398D01*
X173772672Y-90826679D01*
X173772671Y-90826678D01*
X173768626Y-90823530D01*
X173692240Y-90782192D01*
X173569007Y-90715501D01*
X173569002Y-90715499D01*
X173564503Y-90713064D01*
X173559657Y-90711400D01*
X173559654Y-90711399D01*
X173349834Y-90639368D01*
X173349833Y-90639367D01*
X173344981Y-90637702D01*
X173339931Y-90636859D01*
X173339922Y-90636857D01*
X173121111Y-90600344D01*
X173121102Y-90600343D01*
X173116049Y-90599500D01*
X172883951Y-90599500D01*
X172878898Y-90600343D01*
X172878888Y-90600344D01*
X172660077Y-90636857D01*
X172660065Y-90636859D01*
X172655019Y-90637702D01*
X172650169Y-90639366D01*
X172650165Y-90639368D01*
X172440345Y-90711399D01*
X172440337Y-90711402D01*
X172435497Y-90713064D01*
X172431001Y-90715496D01*
X172430992Y-90715501D01*
X172235882Y-90821090D01*
X172235878Y-90821092D01*
X172231374Y-90823530D01*
X172227334Y-90826674D01*
X172227327Y-90826679D01*
X172052263Y-90962936D01*
X172052255Y-90962943D01*
X172048216Y-90966087D01*
X172044751Y-90969850D01*
X172044740Y-90969861D01*
X172039859Y-90975164D01*
X171987234Y-91009013D01*
X171924782Y-91012857D01*
X171868403Y-90985718D01*
X171832454Y-90934506D01*
X171812183Y-90880157D01*
X171803796Y-90857669D01*
X171717546Y-90742454D01*
X171693323Y-90724321D01*
X171609431Y-90661519D01*
X171609430Y-90661518D01*
X171602331Y-90656204D01*
X171531965Y-90629959D01*
X171474752Y-90608620D01*
X171474750Y-90608619D01*
X171467483Y-90605909D01*
X171459770Y-90605079D01*
X171459767Y-90605079D01*
X171411180Y-90599855D01*
X171411169Y-90599854D01*
X171407873Y-90599500D01*
X171404550Y-90599500D01*
X169515439Y-90599500D01*
X169515420Y-90599500D01*
X169512128Y-90599501D01*
X169508850Y-90599853D01*
X169508838Y-90599854D01*
X169460231Y-90605079D01*
X169460225Y-90605080D01*
X169452517Y-90605909D01*
X169445252Y-90608618D01*
X169445246Y-90608620D01*
X169325980Y-90653104D01*
X169325978Y-90653104D01*
X169317669Y-90656204D01*
X169310572Y-90661516D01*
X169310568Y-90661519D01*
X169209550Y-90737141D01*
X169209546Y-90737144D01*
X169202454Y-90742454D01*
X169197144Y-90749546D01*
X169197141Y-90749550D01*
X169121519Y-90850568D01*
X169121516Y-90850572D01*
X169116204Y-90857669D01*
X169113104Y-90865978D01*
X169113104Y-90865980D01*
X169068620Y-90985247D01*
X169068619Y-90985250D01*
X169065909Y-90992517D01*
X169065079Y-91000227D01*
X169065079Y-91000232D01*
X169059855Y-91048819D01*
X169059854Y-91048831D01*
X169059500Y-91052127D01*
X169059500Y-91055448D01*
X169059500Y-91055449D01*
X169059500Y-92944560D01*
X169059500Y-92944578D01*
X151148903Y-92944578D01*
X151270314Y-92805984D01*
X151272678Y-92803363D01*
X151774404Y-92263672D01*
X151776792Y-92261177D01*
X152294326Y-91735956D01*
X152296768Y-91733548D01*
X152829346Y-91223131D01*
X152831852Y-91220797D01*
X153378741Y-90725476D01*
X153381314Y-90723210D01*
X153941897Y-90243167D01*
X153944456Y-90241036D01*
X154518058Y-89776513D01*
X154520602Y-89774511D01*
X155106461Y-89325817D01*
X155109055Y-89323884D01*
X155704322Y-88892833D01*
X155708250Y-88890104D01*
X156545925Y-88332130D01*
X156551248Y-88328777D01*
X157409811Y-87818268D01*
X157415183Y-87815254D01*
X158295062Y-87350425D01*
X158300514Y-87347715D01*
X159199850Y-86928298D01*
X159205335Y-86925901D01*
X160122359Y-86551593D01*
X160127880Y-86549493D01*
X161060632Y-86220067D01*
X161066172Y-86218256D01*
X162012970Y-85933385D01*
X162018436Y-85931879D01*
X162977297Y-85691340D01*
X162982799Y-85690093D01*
X163951900Y-85493609D01*
X163957341Y-85492633D01*
X164934777Y-85339943D01*
X164940221Y-85339216D01*
X165924122Y-85230049D01*
X165929536Y-85229569D01*
X166918026Y-85163656D01*
X166923325Y-85163417D01*
X167914549Y-85140483D01*
X167919845Y-85140476D01*
X168911770Y-85160244D01*
X168917046Y-85160462D01*
X169907841Y-85222648D01*
X169913070Y-85223087D01*
X170900895Y-85327409D01*
X170906024Y-85328061D01*
X171888917Y-85474223D01*
X171894016Y-85475092D01*
X172870106Y-85662803D01*
X172875176Y-85663891D01*
X173842451Y-85892828D01*
X173847495Y-85894136D01*
X174804143Y-86164009D01*
X174809149Y-86165537D01*
X175753215Y-86476021D01*
X175758202Y-86477781D01*
X176687816Y-86828566D01*
X176692793Y-86830568D01*
X177606059Y-87221335D01*
X177610990Y-87223575D01*
X178505965Y-87653972D01*
X178510865Y-87656464D01*
X178858186Y-87842948D01*
X179385775Y-88126222D01*
X179390640Y-88128978D01*
X180243500Y-88637712D01*
X180248305Y-88640729D01*
X181077345Y-89188170D01*
X181082078Y-89191456D01*
X181215484Y-89288739D01*
X181885412Y-89777269D01*
X181890029Y-89780806D01*
X182665800Y-90404669D01*
X182670324Y-90408489D01*
X182959107Y-90664475D01*
X183416691Y-91070092D01*
X183421115Y-91074211D01*
X183868004Y-91511044D01*
X184131585Y-91768695D01*
X184136229Y-91773234D01*
X184140503Y-91777624D01*
X184822468Y-92513695D01*
X184826613Y-92518404D01*
X185241565Y-93014753D01*
X185518443Y-93345944D01*
X185522422Y-93350961D01*
X186165410Y-94206186D01*
X186169080Y-94211336D01*
X186763878Y-95092681D01*
X186767235Y-95097935D01*
X187314360Y-96003720D01*
X187317400Y-96009047D01*
X187817276Y-96937462D01*
X187820003Y-96942836D01*
X188273080Y-97892122D01*
X188275499Y-97897517D01*
X188682227Y-98865928D01*
X188684346Y-98871323D01*
X189045138Y-99857040D01*
X189046968Y-99862417D01*
X189362252Y-100863663D01*
X189363804Y-100869008D01*
X189568438Y-101637702D01*
X189625105Y-101850568D01*
X189633994Y-101883957D01*
X189635281Y-101889257D01*
X189860801Y-102916134D01*
X189861835Y-102921381D01*
X190042323Y-103953909D01*
X190043427Y-103961658D01*
X190275335Y-106062839D01*
X190276034Y-106072959D01*
X190335452Y-108187656D01*
X190335337Y-108197519D01*
X190226210Y-110315517D01*
X190225337Y-110325142D01*
X189951187Y-112431432D01*
X189949591Y-112440847D01*
X189514004Y-114520555D01*
X189511695Y-114529795D01*
X188918359Y-116567930D01*
X188915324Y-116577026D01*
X188167993Y-118558658D01*
X188164200Y-118567631D01*
X187266699Y-120477884D01*
X187262094Y-120486742D01*
X186218293Y-122310819D01*
X186212808Y-122319542D01*
X185024102Y-124046388D01*
X185019297Y-124052902D01*
X183298424Y-126233220D01*
X183295097Y-126237257D01*
X181486275Y-128340177D01*
X181483206Y-128343613D01*
X179599070Y-130376212D01*
X179596330Y-130379076D01*
X177646950Y-132351670D01*
X177644591Y-132353993D01*
X175640416Y-134276557D01*
X175638481Y-134278374D01*
X173590582Y-136160382D01*
X173588594Y-136162170D01*
X169397098Y-139850644D01*
X169396044Y-139851561D01*
X165195758Y-143464601D01*
X165195380Y-143464872D01*
X165194091Y-143465344D01*
X165191234Y-143467849D01*
X165191218Y-143467861D01*
X165153344Y-143501078D01*
X165152462Y-143501844D01*
X165132927Y-143518649D01*
X165132088Y-143519694D01*
X165131746Y-143520021D01*
X160984950Y-147156882D01*
X160984051Y-147157547D01*
X160981373Y-147158589D01*
X160975907Y-147163581D01*
X160975895Y-147163591D01*
X160943089Y-147193560D01*
X160941225Y-147195229D01*
X160927801Y-147207003D01*
X160927793Y-147207010D01*
X160923503Y-147210774D01*
X160921793Y-147212947D01*
X160920815Y-147213909D01*
X158915674Y-149045677D01*
X158914774Y-149046372D01*
X158912089Y-149047480D01*
X158906668Y-149052639D01*
X158906664Y-149052643D01*
X158874580Y-149083182D01*
X158872729Y-149084908D01*
X158859576Y-149096924D01*
X158859564Y-149096936D01*
X158855351Y-149100786D01*
X158853667Y-149103019D01*
X158852688Y-149104021D01*
X156886453Y-150975647D01*
X156885256Y-150976617D01*
X156881935Y-150978089D01*
X156875553Y-150984484D01*
X156875553Y-150984485D01*
X156846109Y-151013995D01*
X156843829Y-151016222D01*
X156831770Y-151027700D01*
X156831765Y-151027705D01*
X156827631Y-151031641D01*
X156825601Y-151034451D01*
X156824220Y-151035931D01*
X154906844Y-152957609D01*
X154905340Y-152958900D01*
X154901424Y-152960783D01*
X154894285Y-152968395D01*
X154894273Y-152968406D01*
X154867499Y-152996957D01*
X154864836Y-152999710D01*
X154853856Y-153010715D01*
X154853843Y-153010730D01*
X154849810Y-153014773D01*
X154847482Y-153018177D01*
X154845624Y-153020286D01*
X152987838Y-155001425D01*
X152986573Y-155002577D01*
X152983085Y-155004376D01*
X152976704Y-155011571D01*
X152976696Y-155011580D01*
X152949736Y-155041988D01*
X152947409Y-155044540D01*
X152936337Y-155056347D01*
X152936332Y-155056352D01*
X152932421Y-155060524D01*
X152930405Y-155063677D01*
X152928931Y-155065453D01*
X152613700Y-155420990D01*
X152612959Y-155421697D01*
X152610607Y-155422967D01*
X152606088Y-155428261D01*
X152606083Y-155428266D01*
X152576731Y-155462653D01*
X152575207Y-155464404D01*
X152563182Y-155477968D01*
X152563174Y-155477977D01*
X152559382Y-155482256D01*
X152558054Y-155484467D01*
X152557297Y-155485424D01*
X152241895Y-155854949D01*
X152241019Y-155855819D01*
X152238338Y-155857343D01*
X152233364Y-155863433D01*
X152233353Y-155863445D01*
X152205708Y-155897300D01*
X152203986Y-155899363D01*
X152192637Y-155912660D01*
X152192632Y-155912666D01*
X152188928Y-155917007D01*
X152187453Y-155919570D01*
X152186527Y-155920790D01*
X151506169Y-156753986D01*
X151505430Y-156754751D01*
X151503052Y-156756165D01*
X151498630Y-156761800D01*
X151498628Y-156761803D01*
X151470950Y-156797080D01*
X151469447Y-156798957D01*
X151458042Y-156812925D01*
X151458036Y-156812933D01*
X151454426Y-156817355D01*
X151453149Y-156819689D01*
X151452394Y-156820729D01*
X150777944Y-157680355D01*
X150777641Y-157680678D01*
X150776504Y-157681369D01*
X150743371Y-157724414D01*
X150742736Y-157725231D01*
X150728871Y-157742903D01*
X150728864Y-157742911D01*
X150726766Y-157745587D01*
X150726168Y-157746731D01*
X150725902Y-157747109D01*
X150025805Y-158656682D01*
X149321943Y-159570231D01*
X149321124Y-159571281D01*
X148632313Y-160445716D01*
X148630558Y-160447894D01*
X147958235Y-161262878D01*
X147956144Y-161265345D01*
X147657358Y-161608874D01*
X147612483Y-161641540D01*
X147557852Y-161651355D01*
X147504413Y-161636354D01*
X147462873Y-161599542D01*
X146093654Y-159681428D01*
X146091859Y-159678500D01*
X146090053Y-159672562D01*
X146061264Y-159635840D01*
X146057944Y-159631402D01*
X146047309Y-159616504D01*
X146043172Y-159612524D01*
X146043058Y-159612392D01*
X146039332Y-159607864D01*
X144562691Y-157724327D01*
X144285744Y-157371066D01*
X144284116Y-157368650D01*
X144282266Y-157363347D01*
X144251428Y-157327130D01*
X144248255Y-157323247D01*
X144239899Y-157312589D01*
X144239898Y-157312588D01*
X144236364Y-157308080D01*
X144232412Y-157304606D01*
X144229221Y-157301049D01*
X142391732Y-155143065D01*
X142390297Y-155141100D01*
X142388485Y-155136448D01*
X142380728Y-155127972D01*
X142380726Y-155127968D01*
X142355665Y-155100583D01*
X142352734Y-155097264D01*
X142339624Y-155081868D01*
X142335963Y-155078903D01*
X142333417Y-155076275D01*
X140450352Y-153018647D01*
X140422063Y-152987735D01*
X140420851Y-152986187D01*
X140419151Y-152982192D01*
X140384546Y-152946653D01*
X140381952Y-152943906D01*
X140367551Y-152928170D01*
X140364250Y-152925687D01*
X140362244Y-152923750D01*
X138879005Y-151400499D01*
X138387202Y-150895429D01*
X138386210Y-150894233D01*
X138384680Y-150890884D01*
X138348397Y-150855517D01*
X138346122Y-150853241D01*
X138334565Y-150841371D01*
X138334560Y-150841367D01*
X138330572Y-150837271D01*
X138327700Y-150835246D01*
X138326181Y-150833861D01*
X137470725Y-150000000D01*
X145054700Y-150000000D01*
X145055124Y-150005117D01*
X145073441Y-150226186D01*
X145073442Y-150226195D01*
X145073866Y-150231305D01*
X145075123Y-150236272D01*
X145075125Y-150236279D01*
X145129584Y-150451329D01*
X145130843Y-150456300D01*
X145132903Y-150460996D01*
X145222016Y-150664154D01*
X145222019Y-150664159D01*
X145224076Y-150668849D01*
X145287548Y-150766000D01*
X145348219Y-150858865D01*
X145348222Y-150858869D01*
X145351021Y-150863153D01*
X145508216Y-151033913D01*
X145691374Y-151176470D01*
X145895497Y-151286936D01*
X146115019Y-151362298D01*
X146343951Y-151400500D01*
X146570916Y-151400500D01*
X146576049Y-151400500D01*
X146804981Y-151362298D01*
X147024503Y-151286936D01*
X147228626Y-151176470D01*
X147411784Y-151033913D01*
X147415466Y-151029913D01*
X147420131Y-151024846D01*
X147472754Y-150990990D01*
X147535210Y-150987141D01*
X147591592Y-151014278D01*
X147627545Y-151065493D01*
X147656204Y-151142331D01*
X147742454Y-151257546D01*
X147857669Y-151343796D01*
X147992517Y-151394091D01*
X148052127Y-151400500D01*
X149947872Y-151400499D01*
X150007483Y-151394091D01*
X150142331Y-151343796D01*
X150257546Y-151257546D01*
X150343796Y-151142331D01*
X150394091Y-151007483D01*
X150400500Y-150947873D01*
X150400499Y-149052128D01*
X150394091Y-148992517D01*
X150343796Y-148857669D01*
X150257546Y-148742454D01*
X150221541Y-148715501D01*
X150149431Y-148661519D01*
X150149430Y-148661518D01*
X150142331Y-148656204D01*
X150007483Y-148605909D01*
X149999770Y-148605079D01*
X149999767Y-148605079D01*
X149951180Y-148599855D01*
X149951169Y-148599854D01*
X149947873Y-148599500D01*
X149944550Y-148599500D01*
X148055439Y-148599500D01*
X148055420Y-148599500D01*
X148052128Y-148599501D01*
X148048850Y-148599853D01*
X148048838Y-148599854D01*
X148000231Y-148605079D01*
X148000225Y-148605080D01*
X147992517Y-148605909D01*
X147985252Y-148608618D01*
X147985246Y-148608620D01*
X147865980Y-148653104D01*
X147865978Y-148653104D01*
X147857669Y-148656204D01*
X147850572Y-148661516D01*
X147850568Y-148661519D01*
X147749550Y-148737141D01*
X147749546Y-148737144D01*
X147742454Y-148742454D01*
X147737144Y-148749546D01*
X147737141Y-148749550D01*
X147661519Y-148850568D01*
X147661516Y-148850572D01*
X147656204Y-148857669D01*
X147653104Y-148865978D01*
X147653105Y-148865978D01*
X147627545Y-148934507D01*
X147591593Y-148985720D01*
X147535213Y-149012858D01*
X147472759Y-149009011D01*
X147420135Y-148975158D01*
X147415259Y-148969862D01*
X147415257Y-148969860D01*
X147411784Y-148966087D01*
X147283163Y-148865978D01*
X147232672Y-148826679D01*
X147232671Y-148826678D01*
X147228626Y-148823530D01*
X147174497Y-148794237D01*
X147029007Y-148715501D01*
X147029002Y-148715499D01*
X147024503Y-148713064D01*
X147019657Y-148711400D01*
X147019654Y-148711399D01*
X146809834Y-148639368D01*
X146809833Y-148639367D01*
X146804981Y-148637702D01*
X146799931Y-148636859D01*
X146799922Y-148636857D01*
X146581111Y-148600344D01*
X146581102Y-148600343D01*
X146576049Y-148599500D01*
X146343951Y-148599500D01*
X146338898Y-148600343D01*
X146338888Y-148600344D01*
X146120077Y-148636857D01*
X146120065Y-148636859D01*
X146115019Y-148637702D01*
X146110169Y-148639366D01*
X146110165Y-148639368D01*
X145900345Y-148711399D01*
X145900337Y-148711402D01*
X145895497Y-148713064D01*
X145891001Y-148715496D01*
X145890992Y-148715501D01*
X145695882Y-148821090D01*
X145695878Y-148821092D01*
X145691374Y-148823530D01*
X145687334Y-148826674D01*
X145687327Y-148826679D01*
X145512263Y-148962936D01*
X145512255Y-148962943D01*
X145508216Y-148966087D01*
X145504746Y-148969855D01*
X145504742Y-148969860D01*
X145354491Y-149133077D01*
X145354488Y-149133080D01*
X145351021Y-149136847D01*
X145348226Y-149141124D01*
X145348219Y-149141134D01*
X145226878Y-149326862D01*
X145224076Y-149331151D01*
X145222021Y-149335835D01*
X145222016Y-149335845D01*
X145132903Y-149539003D01*
X145130843Y-149543700D01*
X145129585Y-149548665D01*
X145129584Y-149548670D01*
X145075125Y-149763720D01*
X145075123Y-149763729D01*
X145073866Y-149768695D01*
X145073442Y-149773802D01*
X145073441Y-149773813D01*
X145055200Y-149993955D01*
X145054700Y-150000000D01*
X137470725Y-150000000D01*
X136296997Y-148855902D01*
X136295789Y-148854526D01*
X136293965Y-148850824D01*
X136257201Y-148817036D01*
X136254557Y-148814533D01*
X136243183Y-148803446D01*
X136243180Y-148803444D01*
X136239079Y-148799446D01*
X136235805Y-148797264D01*
X136233883Y-148795606D01*
X136061150Y-148636857D01*
X131995796Y-144900627D01*
X131994807Y-144899560D01*
X131993176Y-144896448D01*
X131954852Y-144862946D01*
X131952554Y-144860886D01*
X131940167Y-144849502D01*
X131935948Y-144845624D01*
X131933095Y-144843840D01*
X131931630Y-144842645D01*
X128679866Y-142000000D01*
X134054700Y-142000000D01*
X134055124Y-142005117D01*
X134073441Y-142226186D01*
X134073442Y-142226195D01*
X134073866Y-142231305D01*
X134075123Y-142236272D01*
X134075125Y-142236279D01*
X134106342Y-142359550D01*
X134130843Y-142456300D01*
X134132903Y-142460996D01*
X134222016Y-142664154D01*
X134222019Y-142664159D01*
X134224076Y-142668849D01*
X134287548Y-142766000D01*
X134348219Y-142858865D01*
X134348222Y-142858869D01*
X134351021Y-142863153D01*
X134508216Y-143033913D01*
X134691374Y-143176470D01*
X134895497Y-143286936D01*
X135115019Y-143362298D01*
X135343951Y-143400500D01*
X135570916Y-143400500D01*
X135576049Y-143400500D01*
X135804981Y-143362298D01*
X136024503Y-143286936D01*
X136228626Y-143176470D01*
X136411784Y-143033913D01*
X136420130Y-143024846D01*
X136472754Y-142990990D01*
X136535210Y-142987141D01*
X136591592Y-143014278D01*
X136627545Y-143065493D01*
X136656204Y-143142331D01*
X136742454Y-143257546D01*
X136857669Y-143343796D01*
X136992517Y-143394091D01*
X137052127Y-143400500D01*
X138947872Y-143400499D01*
X138961817Y-143399000D01*
X146337174Y-143399000D01*
X146337598Y-143404117D01*
X146356018Y-143626424D01*
X146356019Y-143626432D01*
X146356443Y-143631544D01*
X146357700Y-143636511D01*
X146357702Y-143636518D01*
X146412466Y-143852773D01*
X146413725Y-143857744D01*
X146415785Y-143862440D01*
X146505396Y-144066734D01*
X146505399Y-144066740D01*
X146507457Y-144071431D01*
X146510257Y-144075717D01*
X146510261Y-144075724D01*
X146629439Y-144258139D01*
X146635082Y-144266776D01*
X146793119Y-144438450D01*
X146977257Y-144581771D01*
X146981764Y-144584210D01*
X146981767Y-144584212D01*
X147177967Y-144690389D01*
X147182474Y-144692828D01*
X147403172Y-144768594D01*
X147633330Y-144807000D01*
X147861536Y-144807000D01*
X147866670Y-144807000D01*
X148096828Y-144768594D01*
X148317526Y-144692828D01*
X148522743Y-144581771D01*
X148706881Y-144438450D01*
X148864918Y-144266776D01*
X148992543Y-144071431D01*
X149086275Y-143857744D01*
X149143557Y-143631544D01*
X149162826Y-143399000D01*
X149143557Y-143166456D01*
X149086275Y-142940256D01*
X148992543Y-142726569D01*
X148965549Y-142685252D01*
X148925558Y-142624040D01*
X148864918Y-142531224D01*
X148795946Y-142456300D01*
X148710349Y-142363317D01*
X148710347Y-142363315D01*
X148706881Y-142359550D01*
X148522743Y-142216229D01*
X148518239Y-142213791D01*
X148518232Y-142213787D01*
X148322032Y-142107610D01*
X148322027Y-142107607D01*
X148317526Y-142105172D01*
X148312685Y-142103510D01*
X148312678Y-142103507D01*
X148101678Y-142031071D01*
X148101677Y-142031070D01*
X148096828Y-142029406D01*
X148087163Y-142027793D01*
X147871733Y-141991844D01*
X147871722Y-141991843D01*
X147866670Y-141991000D01*
X147633330Y-141991000D01*
X147628278Y-141991842D01*
X147628266Y-141991844D01*
X147408229Y-142028562D01*
X147408227Y-142028562D01*
X147403172Y-142029406D01*
X147398324Y-142031069D01*
X147398321Y-142031071D01*
X147187321Y-142103507D01*
X147187310Y-142103511D01*
X147182474Y-142105172D01*
X147177977Y-142107605D01*
X147177967Y-142107610D01*
X146981767Y-142213787D01*
X146981755Y-142213794D01*
X146977257Y-142216229D01*
X146973214Y-142219375D01*
X146973209Y-142219379D01*
X146797160Y-142356404D01*
X146797154Y-142356408D01*
X146793119Y-142359550D01*
X146789658Y-142363309D01*
X146789650Y-142363317D01*
X146638557Y-142527448D01*
X146638551Y-142527455D01*
X146635082Y-142531224D01*
X146632277Y-142535515D01*
X146632274Y-142535521D01*
X146510261Y-142722275D01*
X146510254Y-142722287D01*
X146507457Y-142726569D01*
X146505402Y-142731253D01*
X146505396Y-142731265D01*
X146445892Y-142866922D01*
X146413725Y-142940256D01*
X146412467Y-142945221D01*
X146412466Y-142945226D01*
X146357702Y-143161481D01*
X146357700Y-143161490D01*
X146356443Y-143166456D01*
X146356019Y-143171565D01*
X146356018Y-143171575D01*
X146340353Y-143360631D01*
X146337174Y-143399000D01*
X138961817Y-143399000D01*
X139007483Y-143394091D01*
X139142331Y-143343796D01*
X139257546Y-143257546D01*
X139343796Y-143142331D01*
X139394091Y-143007483D01*
X139400500Y-142947873D01*
X139400499Y-141250000D01*
X143469443Y-141250000D01*
X143469867Y-141255117D01*
X143489211Y-141488572D01*
X143489212Y-141488580D01*
X143489636Y-141493692D01*
X143490893Y-141498659D01*
X143490895Y-141498666D01*
X143503558Y-141548670D01*
X143549664Y-141730736D01*
X143551724Y-141735432D01*
X143645828Y-141949970D01*
X143645831Y-141949976D01*
X143647889Y-141954667D01*
X143650689Y-141958953D01*
X143650693Y-141958960D01*
X143746218Y-142105172D01*
X143781632Y-142159377D01*
X143785106Y-142163150D01*
X143785107Y-142163152D01*
X143852425Y-142236279D01*
X143947246Y-142339281D01*
X144140212Y-142489473D01*
X144144719Y-142491912D01*
X144144722Y-142491914D01*
X144199638Y-142521632D01*
X144355267Y-142605855D01*
X144586545Y-142685252D01*
X144827737Y-142725500D01*
X145067130Y-142725500D01*
X145072263Y-142725500D01*
X145313455Y-142685252D01*
X145544733Y-142605855D01*
X145759788Y-142489473D01*
X145952754Y-142339281D01*
X146118368Y-142159377D01*
X146252111Y-141954667D01*
X146350336Y-141730736D01*
X146410364Y-141493692D01*
X146430557Y-141250000D01*
X149069443Y-141250000D01*
X149069867Y-141255117D01*
X149089211Y-141488572D01*
X149089212Y-141488580D01*
X149089636Y-141493692D01*
X149090893Y-141498659D01*
X149090895Y-141498666D01*
X149103558Y-141548670D01*
X149149664Y-141730736D01*
X149151724Y-141735432D01*
X149245828Y-141949970D01*
X149245831Y-141949976D01*
X149247889Y-141954667D01*
X149250689Y-141958953D01*
X149250693Y-141958960D01*
X149346218Y-142105172D01*
X149381632Y-142159377D01*
X149385106Y-142163150D01*
X149385107Y-142163152D01*
X149452425Y-142236279D01*
X149547246Y-142339281D01*
X149740212Y-142489473D01*
X149744719Y-142491912D01*
X149744722Y-142491914D01*
X149799638Y-142521632D01*
X149955267Y-142605855D01*
X150186545Y-142685252D01*
X150427737Y-142725500D01*
X150667130Y-142725500D01*
X150672263Y-142725500D01*
X150913455Y-142685252D01*
X151144733Y-142605855D01*
X151359788Y-142489473D01*
X151552754Y-142339281D01*
X151718368Y-142159377D01*
X151822494Y-142000000D01*
X155594700Y-142000000D01*
X155595124Y-142005117D01*
X155613441Y-142226186D01*
X155613442Y-142226195D01*
X155613866Y-142231305D01*
X155615123Y-142236272D01*
X155615125Y-142236279D01*
X155646342Y-142359550D01*
X155670843Y-142456300D01*
X155672903Y-142460996D01*
X155762016Y-142664154D01*
X155762019Y-142664159D01*
X155764076Y-142668849D01*
X155827548Y-142766000D01*
X155888219Y-142858865D01*
X155888222Y-142858869D01*
X155891021Y-142863153D01*
X156048216Y-143033913D01*
X156231374Y-143176470D01*
X156435497Y-143286936D01*
X156655019Y-143362298D01*
X156883951Y-143400500D01*
X157110916Y-143400500D01*
X157116049Y-143400500D01*
X157344981Y-143362298D01*
X157564503Y-143286936D01*
X157768626Y-143176470D01*
X157951784Y-143033913D01*
X157960130Y-143024846D01*
X158012754Y-142990990D01*
X158075210Y-142987141D01*
X158131592Y-143014278D01*
X158167545Y-143065493D01*
X158196204Y-143142331D01*
X158282454Y-143257546D01*
X158397669Y-143343796D01*
X158532517Y-143394091D01*
X158592127Y-143400500D01*
X160487872Y-143400499D01*
X160547483Y-143394091D01*
X160682331Y-143343796D01*
X160797546Y-143257546D01*
X160883796Y-143142331D01*
X160934091Y-143007483D01*
X160940500Y-142947873D01*
X160940499Y-141052128D01*
X160934091Y-140992517D01*
X160883796Y-140857669D01*
X160797546Y-140742454D01*
X160761541Y-140715501D01*
X160689431Y-140661519D01*
X160689430Y-140661518D01*
X160682331Y-140656204D01*
X160547483Y-140605909D01*
X160539770Y-140605079D01*
X160539767Y-140605079D01*
X160491180Y-140599855D01*
X160491169Y-140599854D01*
X160487873Y-140599500D01*
X160484550Y-140599500D01*
X158595439Y-140599500D01*
X158595420Y-140599500D01*
X158592128Y-140599501D01*
X158588850Y-140599853D01*
X158588838Y-140599854D01*
X158540231Y-140605079D01*
X158540225Y-140605080D01*
X158532517Y-140605909D01*
X158525252Y-140608618D01*
X158525246Y-140608620D01*
X158405980Y-140653104D01*
X158405978Y-140653104D01*
X158397669Y-140656204D01*
X158390572Y-140661516D01*
X158390568Y-140661519D01*
X158289550Y-140737141D01*
X158289546Y-140737144D01*
X158282454Y-140742454D01*
X158277144Y-140749546D01*
X158277141Y-140749550D01*
X158201519Y-140850568D01*
X158201516Y-140850572D01*
X158196204Y-140857669D01*
X158193104Y-140865978D01*
X158193105Y-140865978D01*
X158167545Y-140934507D01*
X158131593Y-140985720D01*
X158075213Y-141012858D01*
X158012759Y-141009011D01*
X157960135Y-140975158D01*
X157955259Y-140969862D01*
X157955257Y-140969860D01*
X157951784Y-140966087D01*
X157823163Y-140865978D01*
X157772672Y-140826679D01*
X157772671Y-140826678D01*
X157768626Y-140823530D01*
X157677535Y-140774234D01*
X157569007Y-140715501D01*
X157569002Y-140715499D01*
X157564503Y-140713064D01*
X157559657Y-140711400D01*
X157559654Y-140711399D01*
X157349834Y-140639368D01*
X157349833Y-140639367D01*
X157344981Y-140637702D01*
X157339931Y-140636859D01*
X157339922Y-140636857D01*
X157121111Y-140600344D01*
X157121102Y-140600343D01*
X157116049Y-140599500D01*
X156883951Y-140599500D01*
X156878898Y-140600343D01*
X156878888Y-140600344D01*
X156660077Y-140636857D01*
X156660065Y-140636859D01*
X156655019Y-140637702D01*
X156650169Y-140639366D01*
X156650165Y-140639368D01*
X156440345Y-140711399D01*
X156440337Y-140711402D01*
X156435497Y-140713064D01*
X156431001Y-140715496D01*
X156430992Y-140715501D01*
X156235882Y-140821090D01*
X156235878Y-140821092D01*
X156231374Y-140823530D01*
X156227334Y-140826674D01*
X156227327Y-140826679D01*
X156052263Y-140962936D01*
X156052255Y-140962943D01*
X156048216Y-140966087D01*
X156044746Y-140969855D01*
X156044742Y-140969860D01*
X155894491Y-141133077D01*
X155894488Y-141133080D01*
X155891021Y-141136847D01*
X155888226Y-141141124D01*
X155888219Y-141141134D01*
X155813751Y-141255117D01*
X155764076Y-141331151D01*
X155762021Y-141335835D01*
X155762016Y-141335845D01*
X155672903Y-141539003D01*
X155670843Y-141543700D01*
X155669585Y-141548665D01*
X155669584Y-141548670D01*
X155615125Y-141763720D01*
X155615123Y-141763729D01*
X155613866Y-141768695D01*
X155613442Y-141773802D01*
X155613441Y-141773813D01*
X155595446Y-141991000D01*
X155594700Y-142000000D01*
X151822494Y-142000000D01*
X151852111Y-141954667D01*
X151950336Y-141730736D01*
X152010364Y-141493692D01*
X152030557Y-141250000D01*
X152010364Y-141006308D01*
X151950336Y-140769264D01*
X151852111Y-140545333D01*
X151718368Y-140340623D01*
X151552754Y-140160719D01*
X151359788Y-140010527D01*
X151355283Y-140008089D01*
X151355277Y-140008085D01*
X151218795Y-139934225D01*
X151144733Y-139894145D01*
X151133413Y-139890259D01*
X150918304Y-139816412D01*
X150918296Y-139816410D01*
X150913455Y-139814748D01*
X150908408Y-139813905D01*
X150908401Y-139813904D01*
X150677325Y-139775344D01*
X150677316Y-139775343D01*
X150672263Y-139774500D01*
X150427737Y-139774500D01*
X150422684Y-139775343D01*
X150422674Y-139775344D01*
X150191598Y-139813904D01*
X150191588Y-139813906D01*
X150186545Y-139814748D01*
X150181705Y-139816409D01*
X150181695Y-139816412D01*
X149960119Y-139892479D01*
X149960115Y-139892480D01*
X149955267Y-139894145D01*
X149950759Y-139896584D01*
X149950758Y-139896585D01*
X149744722Y-140008085D01*
X149744710Y-140008092D01*
X149740212Y-140010527D01*
X149736169Y-140013673D01*
X149736164Y-140013677D01*
X149551287Y-140157573D01*
X149551281Y-140157577D01*
X149547246Y-140160719D01*
X149543784Y-140164478D01*
X149543777Y-140164486D01*
X149385107Y-140336847D01*
X149385101Y-140336854D01*
X149381632Y-140340623D01*
X149378828Y-140344914D01*
X149378824Y-140344920D01*
X149250693Y-140541039D01*
X149250686Y-140541051D01*
X149247889Y-140545333D01*
X149245834Y-140550017D01*
X149245828Y-140550029D01*
X149163754Y-140737141D01*
X149149664Y-140769264D01*
X149148406Y-140774229D01*
X149148405Y-140774234D01*
X149090895Y-141001333D01*
X149090893Y-141001342D01*
X149089636Y-141006308D01*
X149089212Y-141011417D01*
X149089211Y-141011427D01*
X149078819Y-141136847D01*
X149069443Y-141250000D01*
X146430557Y-141250000D01*
X146410364Y-141006308D01*
X146350336Y-140769264D01*
X146252111Y-140545333D01*
X146118368Y-140340623D01*
X145952754Y-140160719D01*
X145759788Y-140010527D01*
X145755283Y-140008089D01*
X145755277Y-140008085D01*
X145618795Y-139934225D01*
X145544733Y-139894145D01*
X145533413Y-139890259D01*
X145318304Y-139816412D01*
X145318296Y-139816410D01*
X145313455Y-139814748D01*
X145308408Y-139813905D01*
X145308401Y-139813904D01*
X145077325Y-139775344D01*
X145077316Y-139775343D01*
X145072263Y-139774500D01*
X144827737Y-139774500D01*
X144822684Y-139775343D01*
X144822674Y-139775344D01*
X144591598Y-139813904D01*
X144591588Y-139813906D01*
X144586545Y-139814748D01*
X144581705Y-139816409D01*
X144581695Y-139816412D01*
X144360119Y-139892479D01*
X144360115Y-139892480D01*
X144355267Y-139894145D01*
X144350759Y-139896584D01*
X144350758Y-139896585D01*
X144144722Y-140008085D01*
X144144710Y-140008092D01*
X144140212Y-140010527D01*
X144136169Y-140013673D01*
X144136164Y-140013677D01*
X143951287Y-140157573D01*
X143951281Y-140157577D01*
X143947246Y-140160719D01*
X143943784Y-140164478D01*
X143943777Y-140164486D01*
X143785107Y-140336847D01*
X143785101Y-140336854D01*
X143781632Y-140340623D01*
X143778828Y-140344914D01*
X143778824Y-140344920D01*
X143650693Y-140541039D01*
X143650686Y-140541051D01*
X143647889Y-140545333D01*
X143645834Y-140550017D01*
X143645828Y-140550029D01*
X143563754Y-140737141D01*
X143549664Y-140769264D01*
X143548406Y-140774229D01*
X143548405Y-140774234D01*
X143490895Y-141001333D01*
X143490893Y-141001342D01*
X143489636Y-141006308D01*
X143489212Y-141011417D01*
X143489211Y-141011427D01*
X143478819Y-141136847D01*
X143469443Y-141250000D01*
X139400499Y-141250000D01*
X139400499Y-141052128D01*
X139394091Y-140992517D01*
X139343796Y-140857669D01*
X139257546Y-140742454D01*
X139221541Y-140715501D01*
X139149431Y-140661519D01*
X139149430Y-140661518D01*
X139142331Y-140656204D01*
X139007483Y-140605909D01*
X138999770Y-140605079D01*
X138999767Y-140605079D01*
X138951180Y-140599855D01*
X138951169Y-140599854D01*
X138947873Y-140599500D01*
X138944550Y-140599500D01*
X137055439Y-140599500D01*
X137055420Y-140599500D01*
X137052128Y-140599501D01*
X137048850Y-140599853D01*
X137048838Y-140599854D01*
X137000231Y-140605079D01*
X137000225Y-140605080D01*
X136992517Y-140605909D01*
X136985252Y-140608618D01*
X136985246Y-140608620D01*
X136865980Y-140653104D01*
X136865978Y-140653104D01*
X136857669Y-140656204D01*
X136850572Y-140661516D01*
X136850568Y-140661519D01*
X136749550Y-140737141D01*
X136749546Y-140737144D01*
X136742454Y-140742454D01*
X136737144Y-140749546D01*
X136737141Y-140749550D01*
X136661519Y-140850568D01*
X136661516Y-140850572D01*
X136656204Y-140857669D01*
X136653104Y-140865978D01*
X136653105Y-140865978D01*
X136627545Y-140934507D01*
X136591593Y-140985720D01*
X136535213Y-141012858D01*
X136472759Y-141009011D01*
X136420135Y-140975158D01*
X136415259Y-140969862D01*
X136415257Y-140969860D01*
X136411784Y-140966087D01*
X136283163Y-140865978D01*
X136232672Y-140826679D01*
X136232671Y-140826678D01*
X136228626Y-140823530D01*
X136137535Y-140774234D01*
X136029007Y-140715501D01*
X136029002Y-140715499D01*
X136024503Y-140713064D01*
X136019657Y-140711400D01*
X136019654Y-140711399D01*
X135809834Y-140639368D01*
X135809833Y-140639367D01*
X135804981Y-140637702D01*
X135799931Y-140636859D01*
X135799922Y-140636857D01*
X135581111Y-140600344D01*
X135581102Y-140600343D01*
X135576049Y-140599500D01*
X135343951Y-140599500D01*
X135338898Y-140600343D01*
X135338888Y-140600344D01*
X135120077Y-140636857D01*
X135120065Y-140636859D01*
X135115019Y-140637702D01*
X135110169Y-140639366D01*
X135110165Y-140639368D01*
X134900345Y-140711399D01*
X134900337Y-140711402D01*
X134895497Y-140713064D01*
X134891001Y-140715496D01*
X134890992Y-140715501D01*
X134695882Y-140821090D01*
X134695878Y-140821092D01*
X134691374Y-140823530D01*
X134687334Y-140826674D01*
X134687327Y-140826679D01*
X134512263Y-140962936D01*
X134512255Y-140962943D01*
X134508216Y-140966087D01*
X134504746Y-140969855D01*
X134504742Y-140969860D01*
X134354491Y-141133077D01*
X134354488Y-141133080D01*
X134351021Y-141136847D01*
X134348226Y-141141124D01*
X134348219Y-141141134D01*
X134273751Y-141255117D01*
X134224076Y-141331151D01*
X134222021Y-141335835D01*
X134222016Y-141335845D01*
X134132903Y-141539003D01*
X134130843Y-141543700D01*
X134129585Y-141548665D01*
X134129584Y-141548670D01*
X134075125Y-141763720D01*
X134075123Y-141763729D01*
X134073866Y-141768695D01*
X134073442Y-141773802D01*
X134073441Y-141773813D01*
X134055446Y-141991000D01*
X134054700Y-142000000D01*
X128679866Y-142000000D01*
X125177178Y-138938000D01*
X146922540Y-138938000D01*
X146923219Y-138944460D01*
X146941646Y-139119795D01*
X146941647Y-139119803D01*
X146942326Y-139126256D01*
X146944331Y-139132428D01*
X146944333Y-139132435D01*
X146998813Y-139300105D01*
X147000821Y-139306284D01*
X147095467Y-139470216D01*
X147222129Y-139610888D01*
X147375270Y-139722151D01*
X147548197Y-139799144D01*
X147733354Y-139838500D01*
X147916143Y-139838500D01*
X147922646Y-139838500D01*
X148107803Y-139799144D01*
X148280730Y-139722151D01*
X148281246Y-139723310D01*
X148336000Y-139708639D01*
X148390753Y-139723310D01*
X148391270Y-139722151D01*
X148564197Y-139799144D01*
X148749354Y-139838500D01*
X148932143Y-139838500D01*
X148938646Y-139838500D01*
X149123803Y-139799144D01*
X149296730Y-139722151D01*
X149449871Y-139610888D01*
X149576533Y-139470216D01*
X149671179Y-139306284D01*
X149729674Y-139126256D01*
X149749460Y-138938000D01*
X149729674Y-138749744D01*
X149671179Y-138569716D01*
X149626307Y-138491996D01*
X149609696Y-138430000D01*
X149626307Y-138368003D01*
X149671179Y-138290284D01*
X149729674Y-138110256D01*
X149741262Y-138000000D01*
X153344540Y-138000000D01*
X153345219Y-138006460D01*
X153363646Y-138181795D01*
X153363647Y-138181803D01*
X153364326Y-138188256D01*
X153366331Y-138194428D01*
X153366333Y-138194435D01*
X153395469Y-138284105D01*
X153422821Y-138368284D01*
X153426068Y-138373908D01*
X153426069Y-138373910D01*
X153494246Y-138491997D01*
X153517467Y-138532216D01*
X153644129Y-138672888D01*
X153797270Y-138784151D01*
X153970197Y-138861144D01*
X154155354Y-138900500D01*
X154338143Y-138900500D01*
X154344646Y-138900500D01*
X154529803Y-138861144D01*
X154702730Y-138784151D01*
X154855871Y-138672888D01*
X154982533Y-138532216D01*
X155077179Y-138368284D01*
X155135674Y-138188256D01*
X155155460Y-138000000D01*
X155135674Y-137811744D01*
X155077179Y-137631716D01*
X154982533Y-137467784D01*
X154855871Y-137327112D01*
X154850613Y-137323292D01*
X154850611Y-137323290D01*
X154707988Y-137219669D01*
X154707987Y-137219668D01*
X154702730Y-137215849D01*
X154696792Y-137213205D01*
X154535745Y-137141501D01*
X154535740Y-137141499D01*
X154529803Y-137138856D01*
X154512626Y-137135205D01*
X154447159Y-137121289D01*
X154388056Y-137090390D01*
X154353508Y-137033344D01*
X154353509Y-136966651D01*
X154388058Y-136909606D01*
X154447156Y-136878710D01*
X154529803Y-136861144D01*
X154702730Y-136784151D01*
X154855871Y-136672888D01*
X154982533Y-136532216D01*
X155077179Y-136368284D01*
X155135674Y-136188256D01*
X155155460Y-136000000D01*
X155135674Y-135811744D01*
X155077179Y-135631716D01*
X154982533Y-135467784D01*
X154855871Y-135327112D01*
X154850613Y-135323292D01*
X154850611Y-135323290D01*
X154707988Y-135219669D01*
X154707987Y-135219668D01*
X154702730Y-135215849D01*
X154696792Y-135213205D01*
X154535745Y-135141501D01*
X154535740Y-135141499D01*
X154529803Y-135138856D01*
X154523444Y-135137504D01*
X154523440Y-135137503D01*
X154351008Y-135100852D01*
X154351005Y-135100851D01*
X154344646Y-135099500D01*
X154155354Y-135099500D01*
X154148995Y-135100851D01*
X154148991Y-135100852D01*
X153976559Y-135137503D01*
X153976552Y-135137505D01*
X153970197Y-135138856D01*
X153964262Y-135141498D01*
X153964254Y-135141501D01*
X153803207Y-135213205D01*
X153803202Y-135213207D01*
X153797270Y-135215849D01*
X153792016Y-135219665D01*
X153792011Y-135219669D01*
X153649388Y-135323290D01*
X153649381Y-135323295D01*
X153644129Y-135327112D01*
X153639784Y-135331937D01*
X153639779Y-135331942D01*
X153521813Y-135462956D01*
X153521808Y-135462962D01*
X153517467Y-135467784D01*
X153514222Y-135473404D01*
X153514218Y-135473410D01*
X153426069Y-135626089D01*
X153426066Y-135626094D01*
X153422821Y-135631716D01*
X153420815Y-135637888D01*
X153420813Y-135637894D01*
X153366333Y-135805564D01*
X153366331Y-135805573D01*
X153364326Y-135811744D01*
X153363648Y-135818194D01*
X153363646Y-135818204D01*
X153345962Y-135986464D01*
X153344540Y-136000000D01*
X153345219Y-136006460D01*
X153363646Y-136181795D01*
X153363647Y-136181803D01*
X153364326Y-136188256D01*
X153366331Y-136194428D01*
X153366333Y-136194435D01*
X153420813Y-136362105D01*
X153422821Y-136368284D01*
X153426068Y-136373908D01*
X153426069Y-136373910D01*
X153429244Y-136379410D01*
X153517467Y-136532216D01*
X153521811Y-136537041D01*
X153521813Y-136537043D01*
X153619240Y-136645246D01*
X153644129Y-136672888D01*
X153797270Y-136784151D01*
X153970197Y-136861144D01*
X154052843Y-136878710D01*
X154111941Y-136909606D01*
X154146490Y-136966652D01*
X154146491Y-137033344D01*
X154111943Y-137090390D01*
X154052840Y-137121289D01*
X153976557Y-137137504D01*
X153976555Y-137137504D01*
X153970197Y-137138856D01*
X153964262Y-137141498D01*
X153964254Y-137141501D01*
X153803207Y-137213205D01*
X153803202Y-137213207D01*
X153797270Y-137215849D01*
X153792016Y-137219665D01*
X153792011Y-137219669D01*
X153649388Y-137323290D01*
X153649381Y-137323295D01*
X153644129Y-137327112D01*
X153639784Y-137331937D01*
X153639779Y-137331942D01*
X153521813Y-137462956D01*
X153521808Y-137462962D01*
X153517467Y-137467784D01*
X153514222Y-137473404D01*
X153514218Y-137473410D01*
X153426069Y-137626089D01*
X153426066Y-137626094D01*
X153422821Y-137631716D01*
X153420815Y-137637888D01*
X153420813Y-137637894D01*
X153366333Y-137805564D01*
X153366331Y-137805573D01*
X153364326Y-137811744D01*
X153363648Y-137818194D01*
X153363646Y-137818204D01*
X153352738Y-137922000D01*
X153344540Y-138000000D01*
X149741262Y-138000000D01*
X149749460Y-137922000D01*
X149729674Y-137733744D01*
X149671179Y-137553716D01*
X149576533Y-137389784D01*
X149449871Y-137249112D01*
X149444613Y-137245292D01*
X149444611Y-137245290D01*
X149301988Y-137141669D01*
X149301987Y-137141668D01*
X149296730Y-137137849D01*
X149290792Y-137135205D01*
X149129745Y-137063501D01*
X149129740Y-137063499D01*
X149123803Y-137060856D01*
X149117444Y-137059504D01*
X149117440Y-137059503D01*
X148945008Y-137022852D01*
X148945005Y-137022851D01*
X148938646Y-137021500D01*
X148856781Y-137021500D01*
X148794781Y-137004887D01*
X148749394Y-136959500D01*
X148735014Y-136905836D01*
X148733460Y-136906000D01*
X148714353Y-136724204D01*
X148714352Y-136724203D01*
X148713674Y-136717744D01*
X148655179Y-136537716D01*
X148560533Y-136373784D01*
X148433871Y-136233112D01*
X148428613Y-136229292D01*
X148428611Y-136229290D01*
X148285988Y-136125669D01*
X148285987Y-136125668D01*
X148280730Y-136121849D01*
X148274792Y-136119205D01*
X148113745Y-136047501D01*
X148113740Y-136047499D01*
X148107803Y-136044856D01*
X148101444Y-136043504D01*
X148101440Y-136043503D01*
X147929008Y-136006852D01*
X147929005Y-136006851D01*
X147922646Y-136005500D01*
X147733354Y-136005500D01*
X147726995Y-136006851D01*
X147726991Y-136006852D01*
X147554559Y-136043503D01*
X147554552Y-136043505D01*
X147548197Y-136044856D01*
X147542262Y-136047498D01*
X147542254Y-136047501D01*
X147381207Y-136119205D01*
X147381202Y-136119207D01*
X147375270Y-136121849D01*
X147370016Y-136125665D01*
X147370011Y-136125669D01*
X147227388Y-136229290D01*
X147227381Y-136229295D01*
X147222129Y-136233112D01*
X147217784Y-136237937D01*
X147217779Y-136237942D01*
X147099813Y-136368956D01*
X147099808Y-136368962D01*
X147095467Y-136373784D01*
X147092222Y-136379404D01*
X147092218Y-136379410D01*
X147004069Y-136532089D01*
X147004066Y-136532094D01*
X147000821Y-136537716D01*
X146998815Y-136543888D01*
X146998813Y-136543894D01*
X146944333Y-136711564D01*
X146944331Y-136711573D01*
X146942326Y-136717744D01*
X146941648Y-136724194D01*
X146941646Y-136724204D01*
X146925408Y-136878708D01*
X146922540Y-136906000D01*
X146923219Y-136912460D01*
X146941646Y-137087795D01*
X146941647Y-137087803D01*
X146942326Y-137094256D01*
X146944331Y-137100428D01*
X146944333Y-137100435D01*
X146980975Y-137213205D01*
X147000821Y-137274284D01*
X147004068Y-137279908D01*
X147045690Y-137352001D01*
X147062302Y-137414000D01*
X147045690Y-137475999D01*
X147004068Y-137548091D01*
X147004066Y-137548095D01*
X147000821Y-137553716D01*
X146998815Y-137559888D01*
X146998813Y-137559894D01*
X146944333Y-137727564D01*
X146944331Y-137727573D01*
X146942326Y-137733744D01*
X146941648Y-137740194D01*
X146941646Y-137740204D01*
X146933449Y-137818204D01*
X146922540Y-137922000D01*
X146923219Y-137928460D01*
X146941646Y-138103795D01*
X146941647Y-138103803D01*
X146942326Y-138110256D01*
X146944331Y-138116428D01*
X146944333Y-138116435D01*
X146998813Y-138284105D01*
X147000821Y-138290284D01*
X147004066Y-138295905D01*
X147004069Y-138295911D01*
X147045689Y-138367999D01*
X147062302Y-138429998D01*
X147045690Y-138491997D01*
X147004070Y-138564086D01*
X147004065Y-138564096D01*
X147000821Y-138569716D01*
X146998815Y-138575888D01*
X146998813Y-138575894D01*
X146944333Y-138743564D01*
X146944331Y-138743573D01*
X146942326Y-138749744D01*
X146941648Y-138756194D01*
X146941646Y-138756204D01*
X146926481Y-138900500D01*
X146922540Y-138938000D01*
X125177178Y-138938000D01*
X124104179Y-138000000D01*
X140344540Y-138000000D01*
X140345219Y-138006460D01*
X140363646Y-138181795D01*
X140363647Y-138181803D01*
X140364326Y-138188256D01*
X140366331Y-138194428D01*
X140366333Y-138194435D01*
X140395469Y-138284105D01*
X140422821Y-138368284D01*
X140426068Y-138373908D01*
X140426069Y-138373910D01*
X140494246Y-138491997D01*
X140517467Y-138532216D01*
X140644129Y-138672888D01*
X140797270Y-138784151D01*
X140970197Y-138861144D01*
X141155354Y-138900500D01*
X141338143Y-138900500D01*
X141344646Y-138900500D01*
X141529803Y-138861144D01*
X141702730Y-138784151D01*
X141855871Y-138672888D01*
X141982533Y-138532216D01*
X142077179Y-138368284D01*
X142135674Y-138188256D01*
X142155460Y-138000000D01*
X142135674Y-137811744D01*
X142077179Y-137631716D01*
X141982533Y-137467784D01*
X141855871Y-137327112D01*
X141850613Y-137323292D01*
X141850611Y-137323290D01*
X141707988Y-137219669D01*
X141707987Y-137219668D01*
X141702730Y-137215849D01*
X141696792Y-137213205D01*
X141535745Y-137141501D01*
X141535740Y-137141499D01*
X141529803Y-137138856D01*
X141512626Y-137135205D01*
X141447159Y-137121289D01*
X141388056Y-137090390D01*
X141353508Y-137033344D01*
X141353509Y-136966651D01*
X141388058Y-136909606D01*
X141447156Y-136878710D01*
X141529803Y-136861144D01*
X141702730Y-136784151D01*
X141855871Y-136672888D01*
X141982533Y-136532216D01*
X142077179Y-136368284D01*
X142135674Y-136188256D01*
X142155460Y-136000000D01*
X142135674Y-135811744D01*
X142077179Y-135631716D01*
X141982533Y-135467784D01*
X141855871Y-135327112D01*
X141850613Y-135323292D01*
X141850611Y-135323290D01*
X141707988Y-135219669D01*
X141707987Y-135219668D01*
X141702730Y-135215849D01*
X141696792Y-135213205D01*
X141535745Y-135141501D01*
X141535740Y-135141499D01*
X141529803Y-135138856D01*
X141523444Y-135137504D01*
X141523440Y-135137503D01*
X141351008Y-135100852D01*
X141351005Y-135100851D01*
X141344646Y-135099500D01*
X141155354Y-135099500D01*
X141148995Y-135100851D01*
X141148991Y-135100852D01*
X140976559Y-135137503D01*
X140976552Y-135137505D01*
X140970197Y-135138856D01*
X140964262Y-135141498D01*
X140964254Y-135141501D01*
X140803207Y-135213205D01*
X140803202Y-135213207D01*
X140797270Y-135215849D01*
X140792016Y-135219665D01*
X140792011Y-135219669D01*
X140649388Y-135323290D01*
X140649381Y-135323295D01*
X140644129Y-135327112D01*
X140639784Y-135331937D01*
X140639779Y-135331942D01*
X140521813Y-135462956D01*
X140521808Y-135462962D01*
X140517467Y-135467784D01*
X140514222Y-135473404D01*
X140514218Y-135473410D01*
X140426069Y-135626089D01*
X140426066Y-135626094D01*
X140422821Y-135631716D01*
X140420815Y-135637888D01*
X140420813Y-135637894D01*
X140366333Y-135805564D01*
X140366331Y-135805573D01*
X140364326Y-135811744D01*
X140363648Y-135818194D01*
X140363646Y-135818204D01*
X140345962Y-135986464D01*
X140344540Y-136000000D01*
X140345219Y-136006460D01*
X140363646Y-136181795D01*
X140363647Y-136181803D01*
X140364326Y-136188256D01*
X140366331Y-136194428D01*
X140366333Y-136194435D01*
X140420813Y-136362105D01*
X140422821Y-136368284D01*
X140426068Y-136373908D01*
X140426069Y-136373910D01*
X140429244Y-136379410D01*
X140517467Y-136532216D01*
X140521811Y-136537041D01*
X140521813Y-136537043D01*
X140619240Y-136645246D01*
X140644129Y-136672888D01*
X140797270Y-136784151D01*
X140970197Y-136861144D01*
X141052843Y-136878710D01*
X141111941Y-136909606D01*
X141146490Y-136966652D01*
X141146491Y-137033344D01*
X141111943Y-137090390D01*
X141052840Y-137121289D01*
X140976557Y-137137504D01*
X140976555Y-137137504D01*
X140970197Y-137138856D01*
X140964262Y-137141498D01*
X140964254Y-137141501D01*
X140803207Y-137213205D01*
X140803202Y-137213207D01*
X140797270Y-137215849D01*
X140792016Y-137219665D01*
X140792011Y-137219669D01*
X140649388Y-137323290D01*
X140649381Y-137323295D01*
X140644129Y-137327112D01*
X140639784Y-137331937D01*
X140639779Y-137331942D01*
X140521813Y-137462956D01*
X140521808Y-137462962D01*
X140517467Y-137467784D01*
X140514222Y-137473404D01*
X140514218Y-137473410D01*
X140426069Y-137626089D01*
X140426066Y-137626094D01*
X140422821Y-137631716D01*
X140420815Y-137637888D01*
X140420813Y-137637894D01*
X140366333Y-137805564D01*
X140366331Y-137805573D01*
X140364326Y-137811744D01*
X140363648Y-137818194D01*
X140363646Y-137818204D01*
X140352738Y-137922000D01*
X140344540Y-138000000D01*
X124104179Y-138000000D01*
X123147506Y-137163690D01*
X123146334Y-137162652D01*
X120222218Y-134535526D01*
X119564465Y-133944578D01*
X124599500Y-133944578D01*
X124599501Y-133947872D01*
X124599853Y-133951150D01*
X124599854Y-133951161D01*
X124605079Y-133999768D01*
X124605080Y-133999773D01*
X124605909Y-134007483D01*
X124608619Y-134014749D01*
X124608620Y-134014753D01*
X124634442Y-134083983D01*
X124656204Y-134142331D01*
X124742454Y-134257546D01*
X124857669Y-134343796D01*
X124992517Y-134394091D01*
X125052127Y-134400500D01*
X126947872Y-134400499D01*
X127007483Y-134394091D01*
X127142331Y-134343796D01*
X127257546Y-134257546D01*
X127343796Y-134142331D01*
X127372454Y-134065493D01*
X127408404Y-134014280D01*
X127464785Y-133987141D01*
X127527239Y-133990988D01*
X127579863Y-134024840D01*
X127579869Y-134024846D01*
X127588216Y-134033913D01*
X127771374Y-134176470D01*
X127975497Y-134286936D01*
X128195019Y-134362298D01*
X128423951Y-134400500D01*
X128650916Y-134400500D01*
X128656049Y-134400500D01*
X128884981Y-134362298D01*
X129104503Y-134286936D01*
X129308626Y-134176470D01*
X129491784Y-134033913D01*
X129615059Y-133900000D01*
X146494815Y-133900000D01*
X146495494Y-133906460D01*
X146512823Y-134071341D01*
X146512824Y-134071348D01*
X146513503Y-134077803D01*
X146515510Y-134083982D01*
X146515511Y-134083983D01*
X146534469Y-134142331D01*
X146568750Y-134247835D01*
X146571997Y-134253459D01*
X146571998Y-134253461D01*
X146633872Y-134360631D01*
X146658141Y-134402665D01*
X146777770Y-134535526D01*
X146922407Y-134640612D01*
X147085733Y-134713329D01*
X147092091Y-134714680D01*
X147092093Y-134714681D01*
X147096610Y-134715641D01*
X147260609Y-134750500D01*
X147432888Y-134750500D01*
X147439391Y-134750500D01*
X147614267Y-134713329D01*
X147699565Y-134675351D01*
X147750000Y-134664632D01*
X147800434Y-134675351D01*
X147885733Y-134713329D01*
X147892091Y-134714680D01*
X147892093Y-134714681D01*
X147896610Y-134715641D01*
X148060609Y-134750500D01*
X148232888Y-134750500D01*
X148239391Y-134750500D01*
X148414267Y-134713329D01*
X148577593Y-134640612D01*
X148722230Y-134535526D01*
X148841859Y-134402665D01*
X148921340Y-134265000D01*
X155494341Y-134265000D01*
X155494813Y-134270395D01*
X155502927Y-134363142D01*
X155514937Y-134500408D01*
X155516336Y-134505630D01*
X155516337Y-134505634D01*
X155574694Y-134723430D01*
X155574697Y-134723438D01*
X155576097Y-134728663D01*
X155578385Y-134733570D01*
X155578386Y-134733572D01*
X155673678Y-134937927D01*
X155673681Y-134937933D01*
X155675965Y-134942830D01*
X155679064Y-134947257D01*
X155679066Y-134947259D01*
X155808399Y-135131966D01*
X155808402Y-135131970D01*
X155811505Y-135136401D01*
X155978599Y-135303495D01*
X155983031Y-135306598D01*
X155983033Y-135306600D01*
X156019225Y-135331942D01*
X156172170Y-135439035D01*
X156386337Y-135538903D01*
X156614592Y-135600063D01*
X156850000Y-135620659D01*
X157085408Y-135600063D01*
X157313663Y-135538903D01*
X157527830Y-135439035D01*
X157721401Y-135303495D01*
X157888495Y-135136401D01*
X158024035Y-134942830D01*
X158123903Y-134728663D01*
X158185063Y-134500408D01*
X158205659Y-134265000D01*
X158185063Y-134029592D01*
X158127949Y-133816436D01*
X158125305Y-133806569D01*
X158125304Y-133806567D01*
X158123903Y-133801337D01*
X158024035Y-133587171D01*
X157888495Y-133393599D01*
X157766569Y-133271673D01*
X157735273Y-133218927D01*
X157733084Y-133157634D01*
X157760537Y-133102789D01*
X157810916Y-133067810D01*
X157942331Y-133018796D01*
X157967439Y-133000000D01*
X165594700Y-133000000D01*
X165595124Y-133005117D01*
X165613441Y-133226186D01*
X165613442Y-133226195D01*
X165613866Y-133231305D01*
X165615123Y-133236272D01*
X165615125Y-133236279D01*
X165667133Y-133441651D01*
X165670843Y-133456300D01*
X165672903Y-133460996D01*
X165762016Y-133664154D01*
X165762019Y-133664159D01*
X165764076Y-133668849D01*
X165794892Y-133716016D01*
X165888219Y-133858865D01*
X165888222Y-133858869D01*
X165891021Y-133863153D01*
X166048216Y-134033913D01*
X166231374Y-134176470D01*
X166435497Y-134286936D01*
X166655019Y-134362298D01*
X166883951Y-134400500D01*
X167110916Y-134400500D01*
X167116049Y-134400500D01*
X167344981Y-134362298D01*
X167564503Y-134286936D01*
X167768626Y-134176470D01*
X167951784Y-134033913D01*
X167960130Y-134024846D01*
X168012754Y-133990990D01*
X168075210Y-133987141D01*
X168131592Y-134014278D01*
X168167545Y-134065493D01*
X168183946Y-134109466D01*
X168196204Y-134142331D01*
X168282454Y-134257546D01*
X168397669Y-134343796D01*
X168532517Y-134394091D01*
X168592127Y-134400500D01*
X170487872Y-134400499D01*
X170547483Y-134394091D01*
X170682331Y-134343796D01*
X170797546Y-134257546D01*
X170883796Y-134142331D01*
X170934091Y-134007483D01*
X170940500Y-133947873D01*
X170940499Y-132052128D01*
X170934091Y-131992517D01*
X170883796Y-131857669D01*
X170797546Y-131742454D01*
X170766095Y-131718910D01*
X170689431Y-131661519D01*
X170689430Y-131661518D01*
X170682331Y-131656204D01*
X170547483Y-131605909D01*
X170539770Y-131605079D01*
X170539767Y-131605079D01*
X170491180Y-131599855D01*
X170491169Y-131599854D01*
X170487873Y-131599500D01*
X170484550Y-131599500D01*
X168595439Y-131599500D01*
X168595420Y-131599500D01*
X168592128Y-131599501D01*
X168588850Y-131599853D01*
X168588838Y-131599854D01*
X168540231Y-131605079D01*
X168540225Y-131605080D01*
X168532517Y-131605909D01*
X168525252Y-131608618D01*
X168525246Y-131608620D01*
X168405980Y-131653104D01*
X168405978Y-131653104D01*
X168397669Y-131656204D01*
X168390572Y-131661516D01*
X168390568Y-131661519D01*
X168289550Y-131737141D01*
X168289546Y-131737144D01*
X168282454Y-131742454D01*
X168277144Y-131749546D01*
X168277141Y-131749550D01*
X168201519Y-131850568D01*
X168201516Y-131850572D01*
X168196204Y-131857669D01*
X168193104Y-131865978D01*
X168193105Y-131865978D01*
X168167545Y-131934507D01*
X168131593Y-131985720D01*
X168075213Y-132012858D01*
X168012759Y-132009011D01*
X167960135Y-131975158D01*
X167955259Y-131969862D01*
X167955257Y-131969860D01*
X167951784Y-131966087D01*
X167823163Y-131865978D01*
X167772672Y-131826679D01*
X167772671Y-131826678D01*
X167768626Y-131823530D01*
X167714497Y-131794237D01*
X167569007Y-131715501D01*
X167569002Y-131715499D01*
X167564503Y-131713064D01*
X167559657Y-131711400D01*
X167559654Y-131711399D01*
X167349834Y-131639368D01*
X167349833Y-131639367D01*
X167344981Y-131637702D01*
X167339931Y-131636859D01*
X167339922Y-131636857D01*
X167121111Y-131600344D01*
X167121102Y-131600343D01*
X167116049Y-131599500D01*
X166883951Y-131599500D01*
X166878898Y-131600343D01*
X166878888Y-131600344D01*
X166660077Y-131636857D01*
X166660065Y-131636859D01*
X166655019Y-131637702D01*
X166650169Y-131639366D01*
X166650165Y-131639368D01*
X166440345Y-131711399D01*
X166440337Y-131711402D01*
X166435497Y-131713064D01*
X166431001Y-131715496D01*
X166430992Y-131715501D01*
X166235882Y-131821090D01*
X166235878Y-131821092D01*
X166231374Y-131823530D01*
X166227334Y-131826674D01*
X166227327Y-131826679D01*
X166052263Y-131962936D01*
X166052255Y-131962943D01*
X166048216Y-131966087D01*
X166044746Y-131969855D01*
X166044742Y-131969860D01*
X165894491Y-132133077D01*
X165894488Y-132133080D01*
X165891021Y-132136847D01*
X165888226Y-132141124D01*
X165888219Y-132141134D01*
X165794020Y-132285318D01*
X165764076Y-132331151D01*
X165762021Y-132335835D01*
X165762016Y-132335845D01*
X165672903Y-132539003D01*
X165670843Y-132543700D01*
X165669585Y-132548665D01*
X165669584Y-132548670D01*
X165615125Y-132763720D01*
X165615123Y-132763729D01*
X165613866Y-132768695D01*
X165613442Y-132773802D01*
X165613441Y-132773813D01*
X165600877Y-132925449D01*
X165594700Y-133000000D01*
X157967439Y-133000000D01*
X158057546Y-132932546D01*
X158143796Y-132817331D01*
X158194091Y-132682483D01*
X158200500Y-132622873D01*
X158200499Y-130827128D01*
X158194091Y-130767517D01*
X158143796Y-130632669D01*
X158057546Y-130517454D01*
X158034230Y-130500000D01*
X157949431Y-130436519D01*
X157949430Y-130436518D01*
X157942331Y-130431204D01*
X157807483Y-130380909D01*
X157799770Y-130380079D01*
X157799767Y-130380079D01*
X157751180Y-130374855D01*
X157751169Y-130374854D01*
X157747873Y-130374500D01*
X157744550Y-130374500D01*
X155955439Y-130374500D01*
X155955420Y-130374500D01*
X155952128Y-130374501D01*
X155948850Y-130374853D01*
X155948838Y-130374854D01*
X155900231Y-130380079D01*
X155900225Y-130380080D01*
X155892517Y-130380909D01*
X155885252Y-130383618D01*
X155885246Y-130383620D01*
X155765980Y-130428104D01*
X155765978Y-130428104D01*
X155757669Y-130431204D01*
X155750572Y-130436516D01*
X155750568Y-130436519D01*
X155649550Y-130512141D01*
X155649546Y-130512144D01*
X155642454Y-130517454D01*
X155637144Y-130524546D01*
X155637141Y-130524550D01*
X155561519Y-130625568D01*
X155561516Y-130625572D01*
X155556204Y-130632669D01*
X155553104Y-130640978D01*
X155553104Y-130640980D01*
X155508620Y-130760247D01*
X155508619Y-130760250D01*
X155505909Y-130767517D01*
X155505079Y-130775227D01*
X155505079Y-130775232D01*
X155499855Y-130823819D01*
X155499854Y-130823831D01*
X155499500Y-130827127D01*
X155499500Y-130830448D01*
X155499500Y-130830449D01*
X155499500Y-132619560D01*
X155499500Y-132619578D01*
X155499501Y-132622872D01*
X155499853Y-132626150D01*
X155499854Y-132626161D01*
X155505079Y-132674768D01*
X155505080Y-132674773D01*
X155505909Y-132682483D01*
X155508619Y-132689749D01*
X155508620Y-132689753D01*
X155529800Y-132746538D01*
X155556204Y-132817331D01*
X155561518Y-132824430D01*
X155561519Y-132824431D01*
X155631607Y-132918057D01*
X155642454Y-132932546D01*
X155757669Y-133018796D01*
X155867405Y-133059725D01*
X155889082Y-133067810D01*
X155939462Y-133102789D01*
X155966915Y-133157633D01*
X155964726Y-133218926D01*
X155933431Y-133271673D01*
X155811505Y-133393599D01*
X155808402Y-133398029D01*
X155808399Y-133398034D01*
X155679073Y-133582731D01*
X155679068Y-133582738D01*
X155675965Y-133587171D01*
X155673677Y-133592077D01*
X155673675Y-133592081D01*
X155578386Y-133796427D01*
X155578383Y-133796432D01*
X155576097Y-133801337D01*
X155574698Y-133806557D01*
X155574694Y-133806569D01*
X155516337Y-134024365D01*
X155516335Y-134024371D01*
X155514937Y-134029592D01*
X155514465Y-134034977D01*
X155514465Y-134034982D01*
X155501873Y-134178909D01*
X155494341Y-134265000D01*
X148921340Y-134265000D01*
X148931250Y-134247835D01*
X148986497Y-134077803D01*
X149005185Y-133900000D01*
X148986497Y-133722197D01*
X148931250Y-133552165D01*
X148929436Y-133549023D01*
X148919015Y-133499996D01*
X148929438Y-133450972D01*
X148931250Y-133447835D01*
X148986497Y-133277803D01*
X149005185Y-133100000D01*
X148986497Y-132922197D01*
X148931250Y-132752165D01*
X148841859Y-132597335D01*
X148722230Y-132464474D01*
X148577593Y-132359388D01*
X148499563Y-132324647D01*
X148420205Y-132289314D01*
X148420198Y-132289311D01*
X148414267Y-132286671D01*
X148407914Y-132285320D01*
X148407906Y-132285318D01*
X148245753Y-132250852D01*
X148245750Y-132250851D01*
X148241744Y-132250000D01*
X149344540Y-132250000D01*
X149345219Y-132256460D01*
X149363646Y-132431795D01*
X149363647Y-132431803D01*
X149364326Y-132438256D01*
X149366331Y-132444428D01*
X149366333Y-132444435D01*
X149414445Y-132592507D01*
X149422821Y-132618284D01*
X149426068Y-132623908D01*
X149426069Y-132623910D01*
X149512615Y-132773813D01*
X149517467Y-132782216D01*
X149521811Y-132787041D01*
X149521813Y-132787043D01*
X149637941Y-132916016D01*
X149644129Y-132922888D01*
X149649387Y-132926708D01*
X149649388Y-132926709D01*
X149720699Y-132978519D01*
X149797270Y-133034151D01*
X149970197Y-133111144D01*
X150155354Y-133150500D01*
X150338143Y-133150500D01*
X150344646Y-133150500D01*
X150529803Y-133111144D01*
X150702730Y-133034151D01*
X150855871Y-132922888D01*
X150982533Y-132782216D01*
X151077179Y-132618284D01*
X151135674Y-132438256D01*
X151155460Y-132250000D01*
X151135674Y-132061744D01*
X151077179Y-131881716D01*
X150982533Y-131717784D01*
X150968037Y-131701685D01*
X150860220Y-131581942D01*
X150860219Y-131581941D01*
X150855871Y-131577112D01*
X150850613Y-131573292D01*
X150850611Y-131573290D01*
X150707988Y-131469669D01*
X150707987Y-131469668D01*
X150702730Y-131465849D01*
X150696792Y-131463205D01*
X150535745Y-131391501D01*
X150535740Y-131391499D01*
X150529803Y-131388856D01*
X150523444Y-131387504D01*
X150523440Y-131387503D01*
X150351008Y-131350852D01*
X150351005Y-131350851D01*
X150344646Y-131349500D01*
X150155354Y-131349500D01*
X150148995Y-131350851D01*
X150148991Y-131350852D01*
X149976559Y-131387503D01*
X149976552Y-131387505D01*
X149970197Y-131388856D01*
X149964262Y-131391498D01*
X149964254Y-131391501D01*
X149803207Y-131463205D01*
X149803202Y-131463207D01*
X149797270Y-131465849D01*
X149792016Y-131469665D01*
X149792011Y-131469669D01*
X149649388Y-131573290D01*
X149649381Y-131573295D01*
X149644129Y-131577112D01*
X149639784Y-131581937D01*
X149639779Y-131581942D01*
X149521813Y-131712956D01*
X149521808Y-131712962D01*
X149517467Y-131717784D01*
X149514222Y-131723404D01*
X149514218Y-131723410D01*
X149426069Y-131876089D01*
X149426066Y-131876094D01*
X149422821Y-131881716D01*
X149420815Y-131887888D01*
X149420813Y-131887894D01*
X149366333Y-132055564D01*
X149366331Y-132055573D01*
X149364326Y-132061744D01*
X149363648Y-132068194D01*
X149363646Y-132068204D01*
X149345962Y-132236464D01*
X149344540Y-132250000D01*
X148241744Y-132250000D01*
X148239391Y-132249500D01*
X148060609Y-132249500D01*
X148054250Y-132250851D01*
X148054246Y-132250852D01*
X147892093Y-132285318D01*
X147892082Y-132285321D01*
X147885733Y-132286671D01*
X147879798Y-132289313D01*
X147879790Y-132289316D01*
X147800434Y-132324647D01*
X147750000Y-132335367D01*
X147699566Y-132324647D01*
X147620209Y-132289316D01*
X147620204Y-132289314D01*
X147614267Y-132286671D01*
X147607914Y-132285320D01*
X147607906Y-132285318D01*
X147445753Y-132250852D01*
X147445750Y-132250851D01*
X147439391Y-132249500D01*
X147260609Y-132249500D01*
X147254250Y-132250851D01*
X147254246Y-132250852D01*
X147092093Y-132285318D01*
X147092082Y-132285321D01*
X147085733Y-132286671D01*
X147079804Y-132289310D01*
X147079794Y-132289314D01*
X146928342Y-132356745D01*
X146928334Y-132356749D01*
X146922408Y-132359388D01*
X146917159Y-132363201D01*
X146917153Y-132363205D01*
X146783023Y-132460656D01*
X146783014Y-132460663D01*
X146777770Y-132464474D01*
X146773426Y-132469297D01*
X146773423Y-132469301D01*
X146662487Y-132592507D01*
X146662482Y-132592513D01*
X146658141Y-132597335D01*
X146654896Y-132602955D01*
X146654892Y-132602961D01*
X146571998Y-132746538D01*
X146571995Y-132746543D01*
X146568750Y-132752165D01*
X146566744Y-132758337D01*
X146566742Y-132758343D01*
X146545269Y-132824431D01*
X146513503Y-132922197D01*
X146512824Y-132928649D01*
X146512823Y-132928658D01*
X146501736Y-133034151D01*
X146494815Y-133100000D01*
X146495494Y-133106460D01*
X146512823Y-133271341D01*
X146512824Y-133271348D01*
X146513503Y-133277803D01*
X146515510Y-133283982D01*
X146515511Y-133283983D01*
X146566739Y-133441648D01*
X146566741Y-133441653D01*
X146568750Y-133447835D01*
X146570563Y-133450976D01*
X146580984Y-133499996D01*
X146570564Y-133549022D01*
X146568750Y-133552165D01*
X146566744Y-133558337D01*
X146566742Y-133558343D01*
X146518878Y-133705653D01*
X146513503Y-133722197D01*
X146512824Y-133728649D01*
X146512823Y-133728658D01*
X146504635Y-133806569D01*
X146494815Y-133900000D01*
X129615059Y-133900000D01*
X129648979Y-133863153D01*
X129775924Y-133668849D01*
X129869157Y-133456300D01*
X129926134Y-133231305D01*
X129945300Y-133000000D01*
X129926134Y-132768695D01*
X129869157Y-132543700D01*
X129775924Y-132331151D01*
X129648979Y-132136847D01*
X129491784Y-131966087D01*
X129363163Y-131865978D01*
X129312672Y-131826679D01*
X129312671Y-131826678D01*
X129308626Y-131823530D01*
X129254497Y-131794237D01*
X129109007Y-131715501D01*
X129109002Y-131715499D01*
X129104503Y-131713064D01*
X129099657Y-131711400D01*
X129099654Y-131711399D01*
X128889834Y-131639368D01*
X128889833Y-131639367D01*
X128884981Y-131637702D01*
X128879931Y-131636859D01*
X128879922Y-131636857D01*
X128661111Y-131600344D01*
X128661102Y-131600343D01*
X128656049Y-131599500D01*
X128423951Y-131599500D01*
X128418898Y-131600343D01*
X128418888Y-131600344D01*
X128200077Y-131636857D01*
X128200065Y-131636859D01*
X128195019Y-131637702D01*
X128190169Y-131639366D01*
X128190165Y-131639368D01*
X127980345Y-131711399D01*
X127980337Y-131711402D01*
X127975497Y-131713064D01*
X127971001Y-131715496D01*
X127970992Y-131715501D01*
X127775882Y-131821090D01*
X127775878Y-131821092D01*
X127771374Y-131823530D01*
X127767334Y-131826674D01*
X127767327Y-131826679D01*
X127592263Y-131962936D01*
X127592255Y-131962943D01*
X127588216Y-131966087D01*
X127584751Y-131969850D01*
X127584740Y-131969861D01*
X127579859Y-131975164D01*
X127527234Y-132009013D01*
X127464782Y-132012857D01*
X127408403Y-131985718D01*
X127372454Y-131934506D01*
X127350666Y-131876089D01*
X127343796Y-131857669D01*
X127257546Y-131742454D01*
X127226095Y-131718910D01*
X127149431Y-131661519D01*
X127149430Y-131661518D01*
X127142331Y-131656204D01*
X127007483Y-131605909D01*
X126999770Y-131605079D01*
X126999767Y-131605079D01*
X126951180Y-131599855D01*
X126951169Y-131599854D01*
X126947873Y-131599500D01*
X126944550Y-131599500D01*
X125055439Y-131599500D01*
X125055420Y-131599500D01*
X125052128Y-131599501D01*
X125048850Y-131599853D01*
X125048838Y-131599854D01*
X125000231Y-131605079D01*
X125000225Y-131605080D01*
X124992517Y-131605909D01*
X124985252Y-131608618D01*
X124985246Y-131608620D01*
X124865980Y-131653104D01*
X124865978Y-131653104D01*
X124857669Y-131656204D01*
X124850572Y-131661516D01*
X124850568Y-131661519D01*
X124749550Y-131737141D01*
X124749546Y-131737144D01*
X124742454Y-131742454D01*
X124737144Y-131749546D01*
X124737141Y-131749550D01*
X124661519Y-131850568D01*
X124661516Y-131850572D01*
X124656204Y-131857669D01*
X124653104Y-131865978D01*
X124653104Y-131865980D01*
X124608620Y-131985247D01*
X124608619Y-131985250D01*
X124605909Y-131992517D01*
X124605079Y-132000227D01*
X124605079Y-132000232D01*
X124599855Y-132048819D01*
X124599854Y-132048831D01*
X124599500Y-132052127D01*
X124599500Y-132055448D01*
X124599500Y-132055449D01*
X124599500Y-133944560D01*
X124599500Y-133944578D01*
X119564465Y-133944578D01*
X118807304Y-133264318D01*
X118805144Y-133262331D01*
X116690263Y-131269793D01*
X116688275Y-131267877D01*
X116591849Y-131172888D01*
X115502725Y-130100000D01*
X143444540Y-130100000D01*
X143445219Y-130106460D01*
X143463646Y-130281795D01*
X143463647Y-130281803D01*
X143464326Y-130288256D01*
X143466331Y-130294428D01*
X143466333Y-130294435D01*
X143520813Y-130462105D01*
X143522821Y-130468284D01*
X143526068Y-130473908D01*
X143526069Y-130473910D01*
X143571003Y-130551739D01*
X143617467Y-130632216D01*
X143621811Y-130637041D01*
X143621813Y-130637043D01*
X143656809Y-130675910D01*
X143744129Y-130772888D01*
X143749387Y-130776708D01*
X143749388Y-130776709D01*
X143814087Y-130823715D01*
X143897270Y-130884151D01*
X144070197Y-130961144D01*
X144255354Y-131000500D01*
X144438143Y-131000500D01*
X144444646Y-131000500D01*
X144629803Y-130961144D01*
X144802730Y-130884151D01*
X144955871Y-130772888D01*
X145082533Y-130632216D01*
X145103556Y-130595802D01*
X145146706Y-130551739D01*
X145205749Y-130533913D01*
X145266076Y-130546735D01*
X145312764Y-130587035D01*
X145334263Y-130644842D01*
X145338826Y-130688256D01*
X145340831Y-130694428D01*
X145340833Y-130694435D01*
X145393385Y-130856170D01*
X145397321Y-130868284D01*
X145400568Y-130873908D01*
X145400569Y-130873910D01*
X145472874Y-130999147D01*
X145491967Y-131032216D01*
X145618629Y-131172888D01*
X145623887Y-131176708D01*
X145623888Y-131176709D01*
X145695199Y-131228519D01*
X145771770Y-131284151D01*
X145944697Y-131361144D01*
X146129854Y-131400500D01*
X146312643Y-131400500D01*
X146319146Y-131400500D01*
X146504303Y-131361144D01*
X146677230Y-131284151D01*
X146830371Y-131172888D01*
X146957033Y-131032216D01*
X147051679Y-130868284D01*
X147054926Y-130858288D01*
X147056303Y-130856227D01*
X147056331Y-130856166D01*
X147056341Y-130856170D01*
X147092322Y-130802314D01*
X147153457Y-130774127D01*
X147220310Y-130782038D01*
X147273177Y-130823715D01*
X147276718Y-130828589D01*
X147279967Y-130834216D01*
X147284311Y-130839041D01*
X147284313Y-130839043D01*
X147391871Y-130958498D01*
X147406629Y-130974888D01*
X147559770Y-131086151D01*
X147732697Y-131163144D01*
X147917854Y-131202500D01*
X148100643Y-131202500D01*
X148107146Y-131202500D01*
X148292303Y-131163144D01*
X148465230Y-131086151D01*
X148618371Y-130974888D01*
X148745033Y-130834216D01*
X148839679Y-130670284D01*
X148898174Y-130490256D01*
X148917960Y-130302000D01*
X148898174Y-130113744D01*
X148839679Y-129933716D01*
X148745033Y-129769784D01*
X148618371Y-129629112D01*
X148613113Y-129625292D01*
X148613111Y-129625290D01*
X148470488Y-129521669D01*
X148470487Y-129521668D01*
X148465230Y-129517849D01*
X148459292Y-129515205D01*
X148298245Y-129443501D01*
X148298240Y-129443499D01*
X148292303Y-129440856D01*
X148285944Y-129439504D01*
X148285940Y-129439503D01*
X148113508Y-129402852D01*
X148113505Y-129402851D01*
X148107146Y-129401500D01*
X147917854Y-129401500D01*
X147911495Y-129402851D01*
X147911491Y-129402852D01*
X147739059Y-129439503D01*
X147739052Y-129439505D01*
X147732697Y-129440856D01*
X147726762Y-129443498D01*
X147726754Y-129443501D01*
X147565707Y-129515205D01*
X147565702Y-129515207D01*
X147559770Y-129517849D01*
X147554516Y-129521665D01*
X147554511Y-129521669D01*
X147411888Y-129625290D01*
X147411881Y-129625295D01*
X147406629Y-129629112D01*
X147402284Y-129633937D01*
X147402279Y-129633942D01*
X147284313Y-129764956D01*
X147284308Y-129764962D01*
X147279967Y-129769784D01*
X147276722Y-129775404D01*
X147276718Y-129775410D01*
X147188569Y-129928089D01*
X147188566Y-129928094D01*
X147185321Y-129933716D01*
X147183314Y-129939890D01*
X147183311Y-129939899D01*
X147182069Y-129943722D01*
X147180691Y-129945783D01*
X147180669Y-129945834D01*
X147180660Y-129945830D01*
X147144668Y-129999692D01*
X147083535Y-130027873D01*
X147016685Y-130019959D01*
X146963821Y-129978283D01*
X146960281Y-129973410D01*
X146957033Y-129967784D01*
X146830371Y-129827112D01*
X146825113Y-129823292D01*
X146825111Y-129823290D01*
X146682488Y-129719669D01*
X146682487Y-129719668D01*
X146677230Y-129715849D01*
X146671292Y-129713205D01*
X146510245Y-129641501D01*
X146510240Y-129641499D01*
X146504303Y-129638856D01*
X146497944Y-129637504D01*
X146497940Y-129637503D01*
X146325508Y-129600852D01*
X146325505Y-129600851D01*
X146319146Y-129599500D01*
X146129854Y-129599500D01*
X146123495Y-129600851D01*
X146123491Y-129600852D01*
X145951059Y-129637503D01*
X145951052Y-129637505D01*
X145944697Y-129638856D01*
X145938762Y-129641498D01*
X145938754Y-129641501D01*
X145777707Y-129713205D01*
X145777702Y-129713207D01*
X145771770Y-129715849D01*
X145766516Y-129719665D01*
X145766511Y-129719669D01*
X145623888Y-129823290D01*
X145623881Y-129823295D01*
X145618629Y-129827112D01*
X145614284Y-129831937D01*
X145614279Y-129831942D01*
X145496313Y-129962956D01*
X145496308Y-129962962D01*
X145491967Y-129967784D01*
X145488722Y-129973404D01*
X145488718Y-129973410D01*
X145470943Y-130004197D01*
X145427790Y-130048262D01*
X145368747Y-130066086D01*
X145308420Y-130053262D01*
X145261733Y-130012962D01*
X145240236Y-129955154D01*
X145239251Y-129945783D01*
X145235674Y-129911744D01*
X145177179Y-129731716D01*
X145082533Y-129567784D01*
X144955871Y-129427112D01*
X144950613Y-129423292D01*
X144950611Y-129423290D01*
X144807988Y-129319669D01*
X144807987Y-129319668D01*
X144802730Y-129315849D01*
X144796792Y-129313205D01*
X144635745Y-129241501D01*
X144635740Y-129241499D01*
X144629803Y-129238856D01*
X144623444Y-129237504D01*
X144623440Y-129237503D01*
X144451008Y-129200852D01*
X144451005Y-129200851D01*
X144444646Y-129199500D01*
X144255354Y-129199500D01*
X144248995Y-129200851D01*
X144248991Y-129200852D01*
X144076559Y-129237503D01*
X144076552Y-129237505D01*
X144070197Y-129238856D01*
X144064262Y-129241498D01*
X144064254Y-129241501D01*
X143903207Y-129313205D01*
X143903202Y-129313207D01*
X143897270Y-129315849D01*
X143892016Y-129319665D01*
X143892011Y-129319669D01*
X143749388Y-129423290D01*
X143749381Y-129423295D01*
X143744129Y-129427112D01*
X143739784Y-129431937D01*
X143739779Y-129431942D01*
X143621813Y-129562956D01*
X143621808Y-129562962D01*
X143617467Y-129567784D01*
X143614222Y-129573404D01*
X143614218Y-129573410D01*
X143526069Y-129726089D01*
X143526066Y-129726094D01*
X143522821Y-129731716D01*
X143520815Y-129737888D01*
X143520813Y-129737894D01*
X143466333Y-129905564D01*
X143466331Y-129905573D01*
X143464326Y-129911744D01*
X143463648Y-129918194D01*
X143463646Y-129918204D01*
X143449978Y-130048262D01*
X143444540Y-130100000D01*
X115502725Y-130100000D01*
X114622647Y-129233042D01*
X114619472Y-129229798D01*
X114025697Y-128600000D01*
X126494540Y-128600000D01*
X126495219Y-128606460D01*
X126513646Y-128781795D01*
X126513647Y-128781803D01*
X126514326Y-128788256D01*
X126516331Y-128794428D01*
X126516333Y-128794435D01*
X126570813Y-128962105D01*
X126572821Y-128968284D01*
X126667467Y-129132216D01*
X126794129Y-129272888D01*
X126947270Y-129384151D01*
X127120197Y-129461144D01*
X127305354Y-129500500D01*
X127488143Y-129500500D01*
X127494646Y-129500500D01*
X127679803Y-129461144D01*
X127852730Y-129384151D01*
X128005871Y-129272888D01*
X128132533Y-129132216D01*
X128227179Y-128968284D01*
X128285674Y-128788256D01*
X128305460Y-128600000D01*
X167494540Y-128600000D01*
X167495219Y-128606460D01*
X167513646Y-128781795D01*
X167513647Y-128781803D01*
X167514326Y-128788256D01*
X167516331Y-128794428D01*
X167516333Y-128794435D01*
X167570813Y-128962105D01*
X167572821Y-128968284D01*
X167667467Y-129132216D01*
X167794129Y-129272888D01*
X167947270Y-129384151D01*
X168120197Y-129461144D01*
X168305354Y-129500500D01*
X168488143Y-129500500D01*
X168494646Y-129500500D01*
X168679803Y-129461144D01*
X168852730Y-129384151D01*
X169005871Y-129272888D01*
X169132533Y-129132216D01*
X169227179Y-128968284D01*
X169285674Y-128788256D01*
X169305460Y-128600000D01*
X169285674Y-128411744D01*
X169227179Y-128231716D01*
X169132533Y-128067784D01*
X169005871Y-127927112D01*
X169000613Y-127923292D01*
X169000611Y-127923290D01*
X168857988Y-127819669D01*
X168857987Y-127819668D01*
X168852730Y-127815849D01*
X168846792Y-127813205D01*
X168685745Y-127741501D01*
X168685740Y-127741499D01*
X168679803Y-127738856D01*
X168673444Y-127737504D01*
X168673440Y-127737503D01*
X168501008Y-127700852D01*
X168501005Y-127700851D01*
X168494646Y-127699500D01*
X168305354Y-127699500D01*
X168298995Y-127700851D01*
X168298991Y-127700852D01*
X168126559Y-127737503D01*
X168126552Y-127737505D01*
X168120197Y-127738856D01*
X168114262Y-127741498D01*
X168114254Y-127741501D01*
X167953207Y-127813205D01*
X167953202Y-127813207D01*
X167947270Y-127815849D01*
X167942016Y-127819665D01*
X167942011Y-127819669D01*
X167799388Y-127923290D01*
X167799381Y-127923295D01*
X167794129Y-127927112D01*
X167789784Y-127931937D01*
X167789779Y-127931942D01*
X167671813Y-128062956D01*
X167671808Y-128062962D01*
X167667467Y-128067784D01*
X167664222Y-128073404D01*
X167664218Y-128073410D01*
X167576069Y-128226089D01*
X167576066Y-128226094D01*
X167572821Y-128231716D01*
X167570815Y-128237888D01*
X167570813Y-128237894D01*
X167516333Y-128405564D01*
X167516331Y-128405573D01*
X167514326Y-128411744D01*
X167513648Y-128418194D01*
X167513646Y-128418204D01*
X167495962Y-128586464D01*
X167494540Y-128600000D01*
X128305460Y-128600000D01*
X128285674Y-128411744D01*
X128227179Y-128231716D01*
X128132533Y-128067784D01*
X128005871Y-127927112D01*
X128000613Y-127923292D01*
X128000611Y-127923290D01*
X127857988Y-127819669D01*
X127857987Y-127819668D01*
X127852730Y-127815849D01*
X127846792Y-127813205D01*
X127685745Y-127741501D01*
X127685740Y-127741499D01*
X127679803Y-127738856D01*
X127673444Y-127737504D01*
X127673440Y-127737503D01*
X127501008Y-127700852D01*
X127501005Y-127700851D01*
X127494646Y-127699500D01*
X127305354Y-127699500D01*
X127298995Y-127700851D01*
X127298991Y-127700852D01*
X127126559Y-127737503D01*
X127126552Y-127737505D01*
X127120197Y-127738856D01*
X127114262Y-127741498D01*
X127114254Y-127741501D01*
X126953207Y-127813205D01*
X126953202Y-127813207D01*
X126947270Y-127815849D01*
X126942016Y-127819665D01*
X126942011Y-127819669D01*
X126799388Y-127923290D01*
X126799381Y-127923295D01*
X126794129Y-127927112D01*
X126789784Y-127931937D01*
X126789779Y-127931942D01*
X126671813Y-128062956D01*
X126671808Y-128062962D01*
X126667467Y-128067784D01*
X126664222Y-128073404D01*
X126664218Y-128073410D01*
X126576069Y-128226089D01*
X126576066Y-128226094D01*
X126572821Y-128231716D01*
X126570815Y-128237888D01*
X126570813Y-128237894D01*
X126516333Y-128405564D01*
X126516331Y-128405573D01*
X126514326Y-128411744D01*
X126513648Y-128418194D01*
X126513646Y-128418204D01*
X126495962Y-128586464D01*
X126494540Y-128600000D01*
X114025697Y-128600000D01*
X113423233Y-127960985D01*
X113419219Y-127956515D01*
X113200581Y-127700852D01*
X112285905Y-126631284D01*
X112282088Y-126626592D01*
X112258214Y-126595746D01*
X111487548Y-125600000D01*
X126494540Y-125600000D01*
X126495219Y-125606460D01*
X126513646Y-125781795D01*
X126513647Y-125781803D01*
X126514326Y-125788256D01*
X126516331Y-125794428D01*
X126516333Y-125794435D01*
X126570813Y-125962105D01*
X126572821Y-125968284D01*
X126667467Y-126132216D01*
X126671811Y-126137041D01*
X126671813Y-126137043D01*
X126789779Y-126268057D01*
X126794129Y-126272888D01*
X126947270Y-126384151D01*
X127120197Y-126461144D01*
X127305354Y-126500500D01*
X127488143Y-126500500D01*
X127494646Y-126500500D01*
X127679803Y-126461144D01*
X127852730Y-126384151D01*
X128005871Y-126272888D01*
X128132533Y-126132216D01*
X128227179Y-125968284D01*
X128285674Y-125788256D01*
X128305460Y-125600000D01*
X128285674Y-125411744D01*
X128227179Y-125231716D01*
X128132533Y-125067784D01*
X128005871Y-124927112D01*
X128000613Y-124923292D01*
X128000611Y-124923290D01*
X127857988Y-124819669D01*
X127857987Y-124819668D01*
X127852730Y-124815849D01*
X127846792Y-124813205D01*
X127685745Y-124741501D01*
X127685740Y-124741499D01*
X127679803Y-124738856D01*
X127673444Y-124737504D01*
X127673440Y-124737503D01*
X127501008Y-124700852D01*
X127501005Y-124700851D01*
X127494646Y-124699500D01*
X127305354Y-124699500D01*
X127298995Y-124700851D01*
X127298991Y-124700852D01*
X127126559Y-124737503D01*
X127126552Y-124737505D01*
X127120197Y-124738856D01*
X127114262Y-124741498D01*
X127114254Y-124741501D01*
X126953207Y-124813205D01*
X126953202Y-124813207D01*
X126947270Y-124815849D01*
X126942016Y-124819665D01*
X126942011Y-124819669D01*
X126799388Y-124923290D01*
X126799381Y-124923295D01*
X126794129Y-124927112D01*
X126789784Y-124931937D01*
X126789779Y-124931942D01*
X126671813Y-125062956D01*
X126671808Y-125062962D01*
X126667467Y-125067784D01*
X126664222Y-125073404D01*
X126664218Y-125073410D01*
X126576069Y-125226089D01*
X126576066Y-125226094D01*
X126572821Y-125231716D01*
X126570815Y-125237888D01*
X126570813Y-125237894D01*
X126516333Y-125405564D01*
X126516331Y-125405573D01*
X126514326Y-125411744D01*
X126513648Y-125418194D01*
X126513646Y-125418204D01*
X126499294Y-125554764D01*
X126494540Y-125600000D01*
X111487548Y-125600000D01*
X111214314Y-125246965D01*
X111210684Y-125242027D01*
X111085734Y-125062956D01*
X110212728Y-123811816D01*
X110209294Y-123806621D01*
X109852534Y-123236279D01*
X109704737Y-123000000D01*
X113054700Y-123000000D01*
X113055124Y-123005117D01*
X113073441Y-123226186D01*
X113073442Y-123226195D01*
X113073866Y-123231305D01*
X113075123Y-123236272D01*
X113075125Y-123236279D01*
X113129584Y-123451329D01*
X113130843Y-123456300D01*
X113132903Y-123460996D01*
X113222016Y-123664154D01*
X113222019Y-123664159D01*
X113224076Y-123668849D01*
X113287548Y-123766000D01*
X113348219Y-123858865D01*
X113348222Y-123858869D01*
X113351021Y-123863153D01*
X113508216Y-124033913D01*
X113691374Y-124176470D01*
X113895497Y-124286936D01*
X114115019Y-124362298D01*
X114343951Y-124400500D01*
X114570916Y-124400500D01*
X114576049Y-124400500D01*
X114804981Y-124362298D01*
X115024503Y-124286936D01*
X115228626Y-124176470D01*
X115411784Y-124033913D01*
X115420130Y-124024846D01*
X115472754Y-123990990D01*
X115535210Y-123987141D01*
X115591592Y-124014278D01*
X115627545Y-124065493D01*
X115656204Y-124142331D01*
X115661518Y-124149430D01*
X115661519Y-124149431D01*
X115672115Y-124163586D01*
X115742454Y-124257546D01*
X115857669Y-124343796D01*
X115992517Y-124394091D01*
X116052127Y-124400500D01*
X117947872Y-124400499D01*
X118007483Y-124394091D01*
X118142331Y-124343796D01*
X118257546Y-124257546D01*
X118343796Y-124142331D01*
X118394091Y-124007483D01*
X118400500Y-123947873D01*
X118400499Y-122052128D01*
X118394091Y-121992517D01*
X118343796Y-121857669D01*
X118257546Y-121742454D01*
X118221541Y-121715501D01*
X118149431Y-121661519D01*
X118149430Y-121661518D01*
X118142331Y-121656204D01*
X118071965Y-121629959D01*
X118014752Y-121608620D01*
X118014750Y-121608619D01*
X118007483Y-121605909D01*
X117999770Y-121605079D01*
X117999767Y-121605079D01*
X117951180Y-121599855D01*
X117951169Y-121599854D01*
X117947873Y-121599500D01*
X117944550Y-121599500D01*
X116055439Y-121599500D01*
X116055420Y-121599500D01*
X116052128Y-121599501D01*
X116048850Y-121599853D01*
X116048838Y-121599854D01*
X116000231Y-121605079D01*
X116000225Y-121605080D01*
X115992517Y-121605909D01*
X115985252Y-121608618D01*
X115985246Y-121608620D01*
X115865980Y-121653104D01*
X115865978Y-121653104D01*
X115857669Y-121656204D01*
X115850572Y-121661516D01*
X115850568Y-121661519D01*
X115749550Y-121737141D01*
X115749546Y-121737144D01*
X115742454Y-121742454D01*
X115737144Y-121749546D01*
X115737141Y-121749550D01*
X115661519Y-121850568D01*
X115661516Y-121850572D01*
X115656204Y-121857669D01*
X115653104Y-121865978D01*
X115653105Y-121865978D01*
X115627545Y-121934507D01*
X115591593Y-121985720D01*
X115535213Y-122012858D01*
X115472759Y-122009011D01*
X115420135Y-121975158D01*
X115415259Y-121969862D01*
X115415257Y-121969860D01*
X115411784Y-121966087D01*
X115407734Y-121962935D01*
X115232672Y-121826679D01*
X115232671Y-121826678D01*
X115228626Y-121823530D01*
X115108979Y-121758780D01*
X115029007Y-121715501D01*
X115029002Y-121715499D01*
X115024503Y-121713064D01*
X115019657Y-121711400D01*
X115019654Y-121711399D01*
X114809834Y-121639368D01*
X114809833Y-121639367D01*
X114804981Y-121637702D01*
X114799931Y-121636859D01*
X114799922Y-121636857D01*
X114581111Y-121600344D01*
X114581102Y-121600343D01*
X114576049Y-121599500D01*
X114343951Y-121599500D01*
X114338898Y-121600343D01*
X114338888Y-121600344D01*
X114120077Y-121636857D01*
X114120065Y-121636859D01*
X114115019Y-121637702D01*
X114110169Y-121639366D01*
X114110165Y-121639368D01*
X113900345Y-121711399D01*
X113900337Y-121711402D01*
X113895497Y-121713064D01*
X113891001Y-121715496D01*
X113890992Y-121715501D01*
X113695882Y-121821090D01*
X113695878Y-121821092D01*
X113691374Y-121823530D01*
X113687334Y-121826674D01*
X113687327Y-121826679D01*
X113512263Y-121962936D01*
X113512255Y-121962943D01*
X113508216Y-121966087D01*
X113504746Y-121969855D01*
X113504742Y-121969860D01*
X113354491Y-122133077D01*
X113354488Y-122133080D01*
X113351021Y-122136847D01*
X113348226Y-122141124D01*
X113348219Y-122141134D01*
X113228651Y-122324148D01*
X113224076Y-122331151D01*
X113222021Y-122335835D01*
X113222016Y-122335845D01*
X113132903Y-122539003D01*
X113130843Y-122543700D01*
X113129585Y-122548665D01*
X113129584Y-122548670D01*
X113075125Y-122763720D01*
X113075123Y-122763729D01*
X113073866Y-122768695D01*
X113073442Y-122773802D01*
X113073441Y-122773813D01*
X113055200Y-122993955D01*
X113054700Y-123000000D01*
X109704737Y-123000000D01*
X109285396Y-122329612D01*
X109282193Y-122324190D01*
X108436592Y-120804188D01*
X108433589Y-120798439D01*
X108096870Y-120110433D01*
X107773646Y-119450000D01*
X132594540Y-119450000D01*
X132595219Y-119456460D01*
X132613646Y-119631795D01*
X132613647Y-119631803D01*
X132614326Y-119638256D01*
X132616331Y-119644428D01*
X132616333Y-119644435D01*
X132655435Y-119764776D01*
X132672821Y-119818284D01*
X132676068Y-119823908D01*
X132676069Y-119823910D01*
X132761074Y-119971144D01*
X132767467Y-119982216D01*
X132771811Y-119987041D01*
X132771813Y-119987043D01*
X132852912Y-120077112D01*
X132894129Y-120122888D01*
X132899387Y-120126708D01*
X132899388Y-120126709D01*
X132970699Y-120178519D01*
X133047270Y-120234151D01*
X133220197Y-120311144D01*
X133405354Y-120350500D01*
X133588143Y-120350500D01*
X133594646Y-120350500D01*
X133711725Y-120325614D01*
X133775822Y-120328973D01*
X133829654Y-120363931D01*
X133858794Y-120421123D01*
X133855435Y-120485222D01*
X133816333Y-120605564D01*
X133816331Y-120605573D01*
X133814326Y-120611744D01*
X133813648Y-120618194D01*
X133813646Y-120618204D01*
X133799795Y-120750000D01*
X133794540Y-120800000D01*
X133795219Y-120806460D01*
X133813646Y-120981795D01*
X133813647Y-120981803D01*
X133814326Y-120988256D01*
X133816331Y-120994428D01*
X133816333Y-120994435D01*
X133854567Y-121112105D01*
X133872821Y-121168284D01*
X133876068Y-121173908D01*
X133876069Y-121173910D01*
X133938599Y-121282216D01*
X133967467Y-121332216D01*
X133971811Y-121337041D01*
X133971813Y-121337043D01*
X134052549Y-121426709D01*
X134094129Y-121472888D01*
X134099387Y-121476708D01*
X134099388Y-121476709D01*
X134125172Y-121495442D01*
X134247270Y-121584151D01*
X134420197Y-121661144D01*
X134605354Y-121700500D01*
X134788143Y-121700500D01*
X134794646Y-121700500D01*
X134979803Y-121661144D01*
X135152730Y-121584151D01*
X135305871Y-121472888D01*
X135432533Y-121332216D01*
X135527179Y-121168284D01*
X135585674Y-120988256D01*
X135605460Y-120800000D01*
X135585674Y-120611744D01*
X135527179Y-120431716D01*
X135432533Y-120267784D01*
X135404629Y-120236794D01*
X135310220Y-120131942D01*
X135310219Y-120131941D01*
X135305871Y-120127112D01*
X135300613Y-120123292D01*
X135300611Y-120123290D01*
X135157988Y-120019669D01*
X135157987Y-120019668D01*
X135152730Y-120015849D01*
X135128415Y-120005023D01*
X134985745Y-119941501D01*
X134985740Y-119941499D01*
X134979803Y-119938856D01*
X134973444Y-119937504D01*
X134973440Y-119937503D01*
X134801008Y-119900852D01*
X134801005Y-119900851D01*
X134794646Y-119899500D01*
X134605354Y-119899500D01*
X134598998Y-119900850D01*
X134598988Y-119900852D01*
X134488275Y-119924385D01*
X134424176Y-119921026D01*
X134370345Y-119886067D01*
X134341205Y-119828875D01*
X134344563Y-119764779D01*
X134385674Y-119638256D01*
X134405460Y-119450000D01*
X134385674Y-119261744D01*
X134327179Y-119081716D01*
X134258060Y-118961999D01*
X134241448Y-118900000D01*
X134258061Y-118838000D01*
X134281504Y-118797395D01*
X134327179Y-118718284D01*
X134385674Y-118538256D01*
X134405460Y-118350000D01*
X143044901Y-118350000D01*
X143045498Y-118356061D01*
X143062655Y-118530268D01*
X143062656Y-118530276D01*
X143063253Y-118536331D01*
X143065018Y-118542152D01*
X143065020Y-118542158D01*
X143115837Y-118709678D01*
X143115839Y-118709683D01*
X143117604Y-118715501D01*
X143120472Y-118720868D01*
X143120474Y-118720871D01*
X143153625Y-118782892D01*
X143205864Y-118880625D01*
X143208181Y-118883449D01*
X143228746Y-118947452D01*
X143212200Y-119013508D01*
X143176068Y-119076091D01*
X143176068Y-119076092D01*
X143172821Y-119081716D01*
X143170815Y-119087888D01*
X143170813Y-119087894D01*
X143116333Y-119255564D01*
X143116331Y-119255573D01*
X143114326Y-119261744D01*
X143113648Y-119268194D01*
X143113646Y-119268204D01*
X143096175Y-119434446D01*
X143094540Y-119450000D01*
X143095219Y-119456460D01*
X143113646Y-119631795D01*
X143113647Y-119631803D01*
X143114326Y-119638256D01*
X143116331Y-119644428D01*
X143116333Y-119644435D01*
X143155435Y-119764776D01*
X143172821Y-119818284D01*
X143176068Y-119823908D01*
X143176069Y-119823910D01*
X143261074Y-119971144D01*
X143267467Y-119982216D01*
X143271811Y-119987041D01*
X143271813Y-119987043D01*
X143352912Y-120077112D01*
X143394129Y-120122888D01*
X143399387Y-120126708D01*
X143399388Y-120126709D01*
X143470699Y-120178519D01*
X143547270Y-120234151D01*
X143720197Y-120311144D01*
X143905354Y-120350500D01*
X144088143Y-120350500D01*
X144094646Y-120350500D01*
X144279803Y-120311144D01*
X144452730Y-120234151D01*
X144506650Y-120194975D01*
X144569156Y-120171730D01*
X144634667Y-120184226D01*
X144684229Y-120228851D01*
X144703506Y-120292697D01*
X144686921Y-120357293D01*
X144676070Y-120376087D01*
X144676066Y-120376093D01*
X144672821Y-120381716D01*
X144670815Y-120387888D01*
X144670813Y-120387894D01*
X144616333Y-120555564D01*
X144616331Y-120555573D01*
X144614326Y-120561744D01*
X144613648Y-120568194D01*
X144613646Y-120568204D01*
X144596143Y-120734746D01*
X144594540Y-120750000D01*
X144595219Y-120756460D01*
X144613646Y-120931795D01*
X144613647Y-120931803D01*
X144614326Y-120938256D01*
X144616331Y-120944428D01*
X144616333Y-120944435D01*
X144666115Y-121097645D01*
X144672821Y-121118284D01*
X144676068Y-121123908D01*
X144676069Y-121123910D01*
X144704936Y-121173910D01*
X144767467Y-121282216D01*
X144771811Y-121287041D01*
X144771813Y-121287043D01*
X144858430Y-121383240D01*
X144894129Y-121422888D01*
X145047270Y-121534151D01*
X145220197Y-121611144D01*
X145405354Y-121650500D01*
X145588143Y-121650500D01*
X145594646Y-121650500D01*
X145779803Y-121611144D01*
X145952730Y-121534151D01*
X146105871Y-121422888D01*
X146232533Y-121282216D01*
X146327179Y-121118284D01*
X146385674Y-120938256D01*
X146405460Y-120750000D01*
X146385674Y-120561744D01*
X146327179Y-120381716D01*
X146232533Y-120217784D01*
X146211997Y-120194977D01*
X146110220Y-120081942D01*
X146110219Y-120081941D01*
X146105871Y-120077112D01*
X146100613Y-120073292D01*
X146100611Y-120073290D01*
X145957988Y-119969669D01*
X145957987Y-119969668D01*
X145952730Y-119965849D01*
X145946792Y-119963205D01*
X145785745Y-119891501D01*
X145785740Y-119891499D01*
X145779803Y-119888856D01*
X145773444Y-119887504D01*
X145773440Y-119887503D01*
X145601008Y-119850852D01*
X145601005Y-119850851D01*
X145594646Y-119849500D01*
X145405354Y-119849500D01*
X145398995Y-119850851D01*
X145398991Y-119850852D01*
X145226559Y-119887503D01*
X145226552Y-119887505D01*
X145220197Y-119888856D01*
X145214262Y-119891498D01*
X145214254Y-119891501D01*
X145053207Y-119963205D01*
X145053202Y-119963207D01*
X145047270Y-119965849D01*
X145042012Y-119969668D01*
X145042012Y-119969669D01*
X144993350Y-120005023D01*
X144930839Y-120028269D01*
X144865329Y-120015771D01*
X144815768Y-119971144D01*
X144796493Y-119907297D01*
X144813079Y-119842704D01*
X144827179Y-119818284D01*
X144885674Y-119638256D01*
X144905460Y-119450000D01*
X144885674Y-119261744D01*
X144827179Y-119081716D01*
X144787800Y-119013509D01*
X144771253Y-118947449D01*
X144791820Y-118883446D01*
X144794136Y-118880625D01*
X144882396Y-118715501D01*
X144936747Y-118536331D01*
X144955099Y-118350000D01*
X144936747Y-118163669D01*
X144882396Y-117984499D01*
X144794136Y-117819375D01*
X144675357Y-117674643D01*
X144530625Y-117555864D01*
X144504889Y-117542108D01*
X144370871Y-117470474D01*
X144370868Y-117470472D01*
X144365501Y-117467604D01*
X144359683Y-117465839D01*
X144359678Y-117465837D01*
X144192158Y-117415020D01*
X144192152Y-117415018D01*
X144186331Y-117413253D01*
X144180276Y-117412656D01*
X144180268Y-117412655D01*
X144006061Y-117395498D01*
X144000000Y-117394901D01*
X143993939Y-117395498D01*
X143819731Y-117412655D01*
X143819721Y-117412656D01*
X143813669Y-117413253D01*
X143807849Y-117415018D01*
X143807841Y-117415020D01*
X143640321Y-117465837D01*
X143640312Y-117465840D01*
X143634499Y-117467604D01*
X143629134Y-117470471D01*
X143629128Y-117470474D01*
X143474751Y-117552990D01*
X143474747Y-117552992D01*
X143469375Y-117555864D01*
X143464667Y-117559727D01*
X143464662Y-117559731D01*
X143329349Y-117670780D01*
X143329344Y-117670784D01*
X143324643Y-117674643D01*
X143320784Y-117679344D01*
X143320780Y-117679349D01*
X143209731Y-117814662D01*
X143209727Y-117814667D01*
X143205864Y-117819375D01*
X143202992Y-117824747D01*
X143202990Y-117824751D01*
X143120474Y-117979128D01*
X143120471Y-117979134D01*
X143117604Y-117984499D01*
X143115840Y-117990312D01*
X143115837Y-117990321D01*
X143065020Y-118157841D01*
X143065018Y-118157849D01*
X143063253Y-118163669D01*
X143062656Y-118169721D01*
X143062655Y-118169731D01*
X143046255Y-118336247D01*
X143044901Y-118350000D01*
X134405460Y-118350000D01*
X134385674Y-118161744D01*
X134327179Y-117981716D01*
X134232533Y-117817784D01*
X134218597Y-117802307D01*
X134110220Y-117681942D01*
X134110219Y-117681941D01*
X134105871Y-117677112D01*
X134100613Y-117673292D01*
X134100611Y-117673290D01*
X133957988Y-117569669D01*
X133957987Y-117569668D01*
X133952730Y-117565849D01*
X133923849Y-117552990D01*
X133785745Y-117491501D01*
X133785740Y-117491499D01*
X133779803Y-117488856D01*
X133773444Y-117487504D01*
X133773440Y-117487503D01*
X133601008Y-117450852D01*
X133601005Y-117450851D01*
X133594646Y-117449500D01*
X133405354Y-117449500D01*
X133398995Y-117450851D01*
X133398991Y-117450852D01*
X133226559Y-117487503D01*
X133226552Y-117487505D01*
X133220197Y-117488856D01*
X133214262Y-117491498D01*
X133214254Y-117491501D01*
X133053207Y-117563205D01*
X133053202Y-117563207D01*
X133047270Y-117565849D01*
X133042016Y-117569665D01*
X133042011Y-117569669D01*
X132899388Y-117673290D01*
X132899381Y-117673295D01*
X132894129Y-117677112D01*
X132889784Y-117681937D01*
X132889779Y-117681942D01*
X132771813Y-117812956D01*
X132771808Y-117812962D01*
X132767467Y-117817784D01*
X132764222Y-117823404D01*
X132764218Y-117823410D01*
X132676069Y-117976089D01*
X132676066Y-117976094D01*
X132672821Y-117981716D01*
X132670815Y-117987888D01*
X132670813Y-117987894D01*
X132616333Y-118155564D01*
X132616331Y-118155573D01*
X132614326Y-118161744D01*
X132613648Y-118168194D01*
X132613646Y-118168204D01*
X132595962Y-118336464D01*
X132594540Y-118350000D01*
X132595219Y-118356460D01*
X132613646Y-118531795D01*
X132613647Y-118531803D01*
X132614326Y-118538256D01*
X132616331Y-118544428D01*
X132616333Y-118544435D01*
X132670813Y-118712105D01*
X132672821Y-118718284D01*
X132703491Y-118771406D01*
X132741939Y-118838001D01*
X132758551Y-118900000D01*
X132741939Y-118961999D01*
X132712201Y-119013508D01*
X132672821Y-119081716D01*
X132670815Y-119087888D01*
X132670813Y-119087894D01*
X132616333Y-119255564D01*
X132616331Y-119255573D01*
X132614326Y-119261744D01*
X132613648Y-119268194D01*
X132613646Y-119268204D01*
X132596175Y-119434446D01*
X132594540Y-119450000D01*
X107773646Y-119450000D01*
X107670525Y-119239296D01*
X107667751Y-119233216D01*
X107574558Y-119013509D01*
X107211611Y-118157841D01*
X106991450Y-117638798D01*
X106988936Y-117632381D01*
X106724949Y-116899147D01*
X106403519Y-116006361D01*
X106401316Y-115999645D01*
X106297644Y-115650000D01*
X130844540Y-115650000D01*
X130845219Y-115656460D01*
X130863646Y-115831795D01*
X130863647Y-115831803D01*
X130864326Y-115838256D01*
X130866331Y-115844428D01*
X130866333Y-115844435D01*
X130916880Y-116000000D01*
X130922821Y-116018284D01*
X131017467Y-116182216D01*
X131021811Y-116187041D01*
X131021813Y-116187043D01*
X131139779Y-116318057D01*
X131144129Y-116322888D01*
X131297270Y-116434151D01*
X131470197Y-116511144D01*
X131655354Y-116550500D01*
X131838143Y-116550500D01*
X131844646Y-116550500D01*
X132029803Y-116511144D01*
X132202730Y-116434151D01*
X132355871Y-116322888D01*
X132482533Y-116182216D01*
X132577179Y-116018284D01*
X132583120Y-116000000D01*
X141594540Y-116000000D01*
X141595219Y-116006460D01*
X141613646Y-116181795D01*
X141613647Y-116181803D01*
X141614326Y-116188256D01*
X141616331Y-116194428D01*
X141616333Y-116194435D01*
X141659312Y-116326709D01*
X141672821Y-116368284D01*
X141676068Y-116373908D01*
X141676069Y-116373910D01*
X141756081Y-116512496D01*
X141767467Y-116532216D01*
X141894129Y-116672888D01*
X142047270Y-116784151D01*
X142220197Y-116861144D01*
X142405354Y-116900500D01*
X142588143Y-116900500D01*
X142594646Y-116900500D01*
X142779803Y-116861144D01*
X142952730Y-116784151D01*
X143105871Y-116672888D01*
X143232533Y-116532216D01*
X143327179Y-116368284D01*
X143385674Y-116188256D01*
X143405460Y-116000000D01*
X143385674Y-115811744D01*
X143327179Y-115631716D01*
X143232533Y-115467784D01*
X143105871Y-115327112D01*
X143100613Y-115323292D01*
X143100611Y-115323290D01*
X142957988Y-115219669D01*
X142957987Y-115219668D01*
X142952730Y-115215849D01*
X142946792Y-115213205D01*
X142785745Y-115141501D01*
X142785740Y-115141499D01*
X142779803Y-115138856D01*
X142773444Y-115137504D01*
X142773440Y-115137503D01*
X142601008Y-115100852D01*
X142601005Y-115100851D01*
X142594646Y-115099500D01*
X142405354Y-115099500D01*
X142398995Y-115100851D01*
X142398991Y-115100852D01*
X142226559Y-115137503D01*
X142226552Y-115137505D01*
X142220197Y-115138856D01*
X142214262Y-115141498D01*
X142214254Y-115141501D01*
X142053207Y-115213205D01*
X142053202Y-115213207D01*
X142047270Y-115215849D01*
X142042016Y-115219665D01*
X142042011Y-115219669D01*
X141899388Y-115323290D01*
X141899381Y-115323295D01*
X141894129Y-115327112D01*
X141889784Y-115331937D01*
X141889779Y-115331942D01*
X141771813Y-115462956D01*
X141771808Y-115462962D01*
X141767467Y-115467784D01*
X141764222Y-115473404D01*
X141764218Y-115473410D01*
X141676069Y-115626089D01*
X141676066Y-115626094D01*
X141672821Y-115631716D01*
X141670815Y-115637888D01*
X141670813Y-115637894D01*
X141616333Y-115805564D01*
X141616331Y-115805573D01*
X141614326Y-115811744D01*
X141613648Y-115818194D01*
X141613646Y-115818204D01*
X141595962Y-115986464D01*
X141594540Y-116000000D01*
X132583120Y-116000000D01*
X132635674Y-115838256D01*
X132655460Y-115650000D01*
X132635674Y-115461744D01*
X132577179Y-115281716D01*
X132482533Y-115117784D01*
X132355871Y-114977112D01*
X132350613Y-114973292D01*
X132350611Y-114973290D01*
X132207988Y-114869669D01*
X132207987Y-114869668D01*
X132202730Y-114865849D01*
X132196792Y-114863205D01*
X132035745Y-114791501D01*
X132035740Y-114791499D01*
X132029803Y-114788856D01*
X132023444Y-114787504D01*
X132023440Y-114787503D01*
X131851008Y-114750852D01*
X131851005Y-114750851D01*
X131844646Y-114749500D01*
X131655354Y-114749500D01*
X131648995Y-114750851D01*
X131648991Y-114750852D01*
X131476559Y-114787503D01*
X131476552Y-114787505D01*
X131470197Y-114788856D01*
X131464262Y-114791498D01*
X131464254Y-114791501D01*
X131303207Y-114863205D01*
X131303202Y-114863207D01*
X131297270Y-114865849D01*
X131292016Y-114869665D01*
X131292011Y-114869669D01*
X131149388Y-114973290D01*
X131149381Y-114973295D01*
X131144129Y-114977112D01*
X131139784Y-114981937D01*
X131139779Y-114981942D01*
X131021813Y-115112956D01*
X131021808Y-115112962D01*
X131017467Y-115117784D01*
X131014222Y-115123404D01*
X131014218Y-115123410D01*
X130926069Y-115276089D01*
X130926066Y-115276094D01*
X130922821Y-115281716D01*
X130920815Y-115287888D01*
X130920813Y-115287894D01*
X130866333Y-115455564D01*
X130866331Y-115455573D01*
X130864326Y-115461744D01*
X130863648Y-115468194D01*
X130863646Y-115468204D01*
X130847053Y-115626089D01*
X130844540Y-115650000D01*
X106297644Y-115650000D01*
X105910961Y-114345863D01*
X105909087Y-114338779D01*
X105908682Y-114337043D01*
X105700615Y-113444578D01*
X108559500Y-113444578D01*
X108559501Y-113447872D01*
X108559853Y-113451150D01*
X108559854Y-113451161D01*
X108565079Y-113499768D01*
X108565080Y-113499773D01*
X108565909Y-113507483D01*
X108568619Y-113514749D01*
X108568620Y-113514753D01*
X108593079Y-113580330D01*
X108616204Y-113642331D01*
X108621518Y-113649430D01*
X108621519Y-113649431D01*
X108631299Y-113662496D01*
X108702454Y-113757546D01*
X108817669Y-113843796D01*
X108952517Y-113894091D01*
X109012127Y-113900500D01*
X110907872Y-113900499D01*
X110967483Y-113894091D01*
X111102331Y-113843796D01*
X111217546Y-113757546D01*
X111303796Y-113642331D01*
X111332454Y-113565493D01*
X111368404Y-113514280D01*
X111424785Y-113487141D01*
X111487239Y-113490988D01*
X111539863Y-113524840D01*
X111539869Y-113524846D01*
X111548216Y-113533913D01*
X111731374Y-113676470D01*
X111935497Y-113786936D01*
X112155019Y-113862298D01*
X112383951Y-113900500D01*
X112610916Y-113900500D01*
X112616049Y-113900500D01*
X112844981Y-113862298D01*
X113026449Y-113800000D01*
X122294540Y-113800000D01*
X122295219Y-113806460D01*
X122313646Y-113981795D01*
X122313647Y-113981803D01*
X122314326Y-113988256D01*
X122316331Y-113994428D01*
X122316333Y-113994435D01*
X122370813Y-114162105D01*
X122372821Y-114168284D01*
X122376068Y-114173908D01*
X122376069Y-114173910D01*
X122396472Y-114209250D01*
X122467467Y-114332216D01*
X122471811Y-114337041D01*
X122471813Y-114337043D01*
X122518816Y-114389245D01*
X122594129Y-114472888D01*
X122747270Y-114584151D01*
X122920197Y-114661144D01*
X123105354Y-114700500D01*
X123288143Y-114700500D01*
X123294646Y-114700500D01*
X123479803Y-114661144D01*
X123652730Y-114584151D01*
X123805871Y-114472888D01*
X123932533Y-114332216D01*
X124027179Y-114168284D01*
X124085674Y-113988256D01*
X124105460Y-113800000D01*
X124085674Y-113611744D01*
X124027179Y-113431716D01*
X123986927Y-113361998D01*
X123970315Y-113300000D01*
X123986927Y-113238001D01*
X124027179Y-113168284D01*
X124085674Y-112988256D01*
X124105460Y-112800000D01*
X124085674Y-112611744D01*
X124027179Y-112431716D01*
X123932533Y-112267784D01*
X123888780Y-112219192D01*
X123810220Y-112131942D01*
X123810219Y-112131941D01*
X123805871Y-112127112D01*
X123800613Y-112123292D01*
X123800611Y-112123290D01*
X123657988Y-112019669D01*
X123657987Y-112019668D01*
X123652730Y-112015849D01*
X123646792Y-112013205D01*
X123485745Y-111941501D01*
X123485740Y-111941499D01*
X123479803Y-111938856D01*
X123473444Y-111937504D01*
X123473440Y-111937503D01*
X123301008Y-111900852D01*
X123301005Y-111900851D01*
X123294646Y-111899500D01*
X123105354Y-111899500D01*
X123098995Y-111900851D01*
X123098991Y-111900852D01*
X122926559Y-111937503D01*
X122926552Y-111937505D01*
X122920197Y-111938856D01*
X122914262Y-111941498D01*
X122914254Y-111941501D01*
X122753207Y-112013205D01*
X122753202Y-112013207D01*
X122747270Y-112015849D01*
X122742016Y-112019665D01*
X122742011Y-112019669D01*
X122599388Y-112123290D01*
X122599381Y-112123295D01*
X122594129Y-112127112D01*
X122589784Y-112131937D01*
X122589779Y-112131942D01*
X122471813Y-112262956D01*
X122471808Y-112262962D01*
X122467467Y-112267784D01*
X122464222Y-112273404D01*
X122464218Y-112273410D01*
X122376069Y-112426089D01*
X122376066Y-112426094D01*
X122372821Y-112431716D01*
X122370815Y-112437888D01*
X122370813Y-112437894D01*
X122316333Y-112605564D01*
X122316331Y-112605573D01*
X122314326Y-112611744D01*
X122313648Y-112618194D01*
X122313646Y-112618204D01*
X122301760Y-112731305D01*
X122294540Y-112800000D01*
X122295219Y-112806460D01*
X122313646Y-112981795D01*
X122313647Y-112981803D01*
X122314326Y-112988256D01*
X122316331Y-112994428D01*
X122316333Y-112994435D01*
X122370813Y-113162105D01*
X122372821Y-113168284D01*
X122413071Y-113237999D01*
X122413072Y-113238001D01*
X122429684Y-113300000D01*
X122413072Y-113361998D01*
X122372821Y-113431716D01*
X122370815Y-113437888D01*
X122370813Y-113437894D01*
X122316333Y-113605564D01*
X122316331Y-113605573D01*
X122314326Y-113611744D01*
X122313648Y-113618194D01*
X122313646Y-113618204D01*
X122296169Y-113784498D01*
X122294540Y-113800000D01*
X113026449Y-113800000D01*
X113064503Y-113786936D01*
X113268626Y-113676470D01*
X113451784Y-113533913D01*
X113608979Y-113363153D01*
X113735924Y-113168849D01*
X113829157Y-112956300D01*
X113868738Y-112800000D01*
X117294540Y-112800000D01*
X117295219Y-112806460D01*
X117313646Y-112981795D01*
X117313647Y-112981803D01*
X117314326Y-112988256D01*
X117316331Y-112994428D01*
X117316333Y-112994435D01*
X117370813Y-113162105D01*
X117372821Y-113168284D01*
X117467467Y-113332216D01*
X117471811Y-113337041D01*
X117471813Y-113337043D01*
X117551995Y-113426094D01*
X117594129Y-113472888D01*
X117599387Y-113476708D01*
X117599388Y-113476709D01*
X117619044Y-113490990D01*
X117747270Y-113584151D01*
X117920197Y-113661144D01*
X118105354Y-113700500D01*
X118288143Y-113700500D01*
X118294646Y-113700500D01*
X118479803Y-113661144D01*
X118652730Y-113584151D01*
X118805871Y-113472888D01*
X118932533Y-113332216D01*
X119027179Y-113168284D01*
X119085674Y-112988256D01*
X119105460Y-112800000D01*
X119085674Y-112611744D01*
X119027179Y-112431716D01*
X118932533Y-112267784D01*
X118888780Y-112219192D01*
X118810220Y-112131942D01*
X118810219Y-112131941D01*
X118805871Y-112127112D01*
X118800613Y-112123292D01*
X118800611Y-112123290D01*
X118657988Y-112019669D01*
X118657987Y-112019668D01*
X118652730Y-112015849D01*
X118646792Y-112013205D01*
X118485745Y-111941501D01*
X118485740Y-111941499D01*
X118479803Y-111938856D01*
X118473444Y-111937504D01*
X118473440Y-111937503D01*
X118301008Y-111900852D01*
X118301005Y-111900851D01*
X118294646Y-111899500D01*
X118105354Y-111899500D01*
X118098995Y-111900851D01*
X118098991Y-111900852D01*
X117926559Y-111937503D01*
X117926552Y-111937505D01*
X117920197Y-111938856D01*
X117914262Y-111941498D01*
X117914254Y-111941501D01*
X117753207Y-112013205D01*
X117753202Y-112013207D01*
X117747270Y-112015849D01*
X117742016Y-112019665D01*
X117742011Y-112019669D01*
X117599388Y-112123290D01*
X117599381Y-112123295D01*
X117594129Y-112127112D01*
X117589784Y-112131937D01*
X117589779Y-112131942D01*
X117471813Y-112262956D01*
X117471808Y-112262962D01*
X117467467Y-112267784D01*
X117464222Y-112273404D01*
X117464218Y-112273410D01*
X117376069Y-112426089D01*
X117376066Y-112426094D01*
X117372821Y-112431716D01*
X117370815Y-112437888D01*
X117370813Y-112437894D01*
X117316333Y-112605564D01*
X117316331Y-112605573D01*
X117314326Y-112611744D01*
X117313648Y-112618194D01*
X117313646Y-112618204D01*
X117301760Y-112731305D01*
X117294540Y-112800000D01*
X113868738Y-112800000D01*
X113886134Y-112731305D01*
X113905300Y-112500000D01*
X113886134Y-112268695D01*
X113829157Y-112043700D01*
X113735924Y-111831151D01*
X113608979Y-111636847D01*
X113451784Y-111466087D01*
X113331657Y-111372589D01*
X113272672Y-111326679D01*
X113272671Y-111326678D01*
X113268626Y-111323530D01*
X113214497Y-111294237D01*
X113069007Y-111215501D01*
X113069002Y-111215499D01*
X113064503Y-111213064D01*
X113059657Y-111211400D01*
X113059654Y-111211399D01*
X112956540Y-111176000D01*
X134094500Y-111176000D01*
X134095028Y-111180017D01*
X134095029Y-111180019D01*
X134111194Y-111302807D01*
X134111196Y-111302819D01*
X134111725Y-111306834D01*
X134112773Y-111310748D01*
X134112775Y-111310754D01*
X134125346Y-111357669D01*
X134128338Y-111368834D01*
X134129891Y-111372584D01*
X134129893Y-111372589D01*
X134172381Y-111475164D01*
X134178837Y-111490750D01*
X134183783Y-111497196D01*
X134183785Y-111497199D01*
X134228475Y-111555439D01*
X134259171Y-111595442D01*
X134304558Y-111640829D01*
X134409250Y-111721163D01*
X134531166Y-111771662D01*
X134593166Y-111788275D01*
X134724000Y-111805500D01*
X149170500Y-111805500D01*
X149232500Y-111822113D01*
X149277887Y-111867500D01*
X149294500Y-111929500D01*
X149294500Y-112000000D01*
X149294500Y-114749999D01*
X149294500Y-115399999D01*
X149294500Y-118765000D01*
X149294500Y-119250000D01*
X149294500Y-121076000D01*
X149295028Y-121080017D01*
X149295029Y-121080019D01*
X149311194Y-121202807D01*
X149311196Y-121202819D01*
X149311725Y-121206834D01*
X149328338Y-121268834D01*
X149329891Y-121272584D01*
X149329893Y-121272589D01*
X149356591Y-121337043D01*
X149378837Y-121390750D01*
X149383783Y-121397196D01*
X149383785Y-121397199D01*
X149438157Y-121468057D01*
X149459171Y-121495442D01*
X149504558Y-121540829D01*
X149507789Y-121543308D01*
X149581018Y-121599500D01*
X149609250Y-121621163D01*
X149731166Y-121671662D01*
X149793166Y-121688275D01*
X149924000Y-121705500D01*
X176481818Y-121705500D01*
X176540835Y-121720445D01*
X176585627Y-121761678D01*
X176605394Y-121819260D01*
X176595374Y-121879310D01*
X176557981Y-121927353D01*
X176512265Y-121962935D01*
X176512264Y-121962936D01*
X176508216Y-121966087D01*
X176504746Y-121969855D01*
X176504742Y-121969860D01*
X176354491Y-122133077D01*
X176354488Y-122133080D01*
X176351021Y-122136847D01*
X176348226Y-122141124D01*
X176348219Y-122141134D01*
X176228651Y-122324148D01*
X176224076Y-122331151D01*
X176222021Y-122335835D01*
X176222016Y-122335845D01*
X176132903Y-122539003D01*
X176130843Y-122543700D01*
X176129585Y-122548665D01*
X176129584Y-122548670D01*
X176075125Y-122763720D01*
X176075123Y-122763729D01*
X176073866Y-122768695D01*
X176073442Y-122773802D01*
X176073441Y-122773813D01*
X176055200Y-122993955D01*
X176054700Y-123000000D01*
X176055124Y-123005117D01*
X176073441Y-123226186D01*
X176073442Y-123226195D01*
X176073866Y-123231305D01*
X176075123Y-123236272D01*
X176075125Y-123236279D01*
X176129584Y-123451329D01*
X176130843Y-123456300D01*
X176132903Y-123460996D01*
X176222016Y-123664154D01*
X176222019Y-123664159D01*
X176224076Y-123668849D01*
X176287548Y-123766000D01*
X176348219Y-123858865D01*
X176348222Y-123858869D01*
X176351021Y-123863153D01*
X176508216Y-124033913D01*
X176691374Y-124176470D01*
X176895497Y-124286936D01*
X177115019Y-124362298D01*
X177343951Y-124400500D01*
X177570916Y-124400500D01*
X177576049Y-124400500D01*
X177804981Y-124362298D01*
X178024503Y-124286936D01*
X178228626Y-124176470D01*
X178411784Y-124033913D01*
X178420130Y-124024846D01*
X178472754Y-123990990D01*
X178535210Y-123987141D01*
X178591592Y-124014278D01*
X178627545Y-124065493D01*
X178656204Y-124142331D01*
X178661518Y-124149430D01*
X178661519Y-124149431D01*
X178672115Y-124163586D01*
X178742454Y-124257546D01*
X178857669Y-124343796D01*
X178992517Y-124394091D01*
X179052127Y-124400500D01*
X180947872Y-124400499D01*
X181007483Y-124394091D01*
X181142331Y-124343796D01*
X181257546Y-124257546D01*
X181343796Y-124142331D01*
X181394091Y-124007483D01*
X181400500Y-123947873D01*
X181400499Y-122052128D01*
X181394091Y-121992517D01*
X181349452Y-121872833D01*
X181342601Y-121814046D01*
X181363778Y-121758780D01*
X181408159Y-121719624D01*
X181465634Y-121705500D01*
X181471947Y-121705500D01*
X181476000Y-121705500D01*
X181606834Y-121688275D01*
X181668834Y-121671662D01*
X181790750Y-121621163D01*
X181895442Y-121540829D01*
X181940829Y-121495442D01*
X182021163Y-121390750D01*
X182071662Y-121268834D01*
X182088275Y-121206834D01*
X182105500Y-121076000D01*
X182105500Y-114524000D01*
X182088275Y-114393166D01*
X182071662Y-114331166D01*
X182021163Y-114209250D01*
X181940829Y-114104558D01*
X181895442Y-114059171D01*
X181855677Y-114028658D01*
X181814800Y-113973121D01*
X181809912Y-113904335D01*
X181842524Y-113843574D01*
X181902552Y-113809631D01*
X181971427Y-113813002D01*
X182115019Y-113862298D01*
X182343951Y-113900500D01*
X182570916Y-113900500D01*
X182576049Y-113900500D01*
X182804981Y-113862298D01*
X183024503Y-113786936D01*
X183228626Y-113676470D01*
X183411784Y-113533913D01*
X183420130Y-113524846D01*
X183472754Y-113490990D01*
X183535210Y-113487141D01*
X183591592Y-113514278D01*
X183627545Y-113565493D01*
X183633079Y-113580330D01*
X183656204Y-113642331D01*
X183661518Y-113649430D01*
X183661519Y-113649431D01*
X183671299Y-113662496D01*
X183742454Y-113757546D01*
X183857669Y-113843796D01*
X183992517Y-113894091D01*
X184052127Y-113900500D01*
X185947872Y-113900499D01*
X186007483Y-113894091D01*
X186142331Y-113843796D01*
X186257546Y-113757546D01*
X186343796Y-113642331D01*
X186394091Y-113507483D01*
X186400500Y-113447873D01*
X186400499Y-111552128D01*
X186394091Y-111492517D01*
X186343796Y-111357669D01*
X186257546Y-111242454D01*
X186221541Y-111215501D01*
X186149431Y-111161519D01*
X186149430Y-111161518D01*
X186142331Y-111156204D01*
X186007483Y-111105909D01*
X185999770Y-111105079D01*
X185999767Y-111105079D01*
X185951180Y-111099855D01*
X185951169Y-111099854D01*
X185947873Y-111099500D01*
X185944550Y-111099500D01*
X184055439Y-111099500D01*
X184055420Y-111099500D01*
X184052128Y-111099501D01*
X184048850Y-111099853D01*
X184048838Y-111099854D01*
X184000231Y-111105079D01*
X184000225Y-111105080D01*
X183992517Y-111105909D01*
X183985252Y-111108618D01*
X183985246Y-111108620D01*
X183865980Y-111153104D01*
X183865978Y-111153104D01*
X183857669Y-111156204D01*
X183850572Y-111161516D01*
X183850568Y-111161519D01*
X183749550Y-111237141D01*
X183749546Y-111237144D01*
X183742454Y-111242454D01*
X183737144Y-111249546D01*
X183737141Y-111249550D01*
X183661519Y-111350568D01*
X183661516Y-111350572D01*
X183656204Y-111357669D01*
X183653104Y-111365978D01*
X183653105Y-111365978D01*
X183627545Y-111434507D01*
X183591593Y-111485720D01*
X183535213Y-111512858D01*
X183472759Y-111509011D01*
X183420135Y-111475158D01*
X183415259Y-111469862D01*
X183415257Y-111469860D01*
X183411784Y-111466087D01*
X183291657Y-111372589D01*
X183232672Y-111326679D01*
X183232671Y-111326678D01*
X183228626Y-111323530D01*
X183174497Y-111294237D01*
X183029007Y-111215501D01*
X183029002Y-111215499D01*
X183024503Y-111213064D01*
X183019657Y-111211400D01*
X183019654Y-111211399D01*
X182809834Y-111139368D01*
X182809833Y-111139367D01*
X182804981Y-111137702D01*
X182799931Y-111136859D01*
X182799922Y-111136857D01*
X182581111Y-111100344D01*
X182581102Y-111100343D01*
X182576049Y-111099500D01*
X182343951Y-111099500D01*
X182338898Y-111100343D01*
X182338888Y-111100344D01*
X182120077Y-111136857D01*
X182120065Y-111136859D01*
X182115019Y-111137702D01*
X182110169Y-111139366D01*
X182110165Y-111139368D01*
X181900345Y-111211399D01*
X181900337Y-111211402D01*
X181895497Y-111213064D01*
X181891001Y-111215496D01*
X181890992Y-111215501D01*
X181695882Y-111321090D01*
X181695878Y-111321092D01*
X181691374Y-111323530D01*
X181687334Y-111326674D01*
X181687327Y-111326679D01*
X181512263Y-111462936D01*
X181512255Y-111462943D01*
X181508216Y-111466087D01*
X181504746Y-111469855D01*
X181504742Y-111469860D01*
X181354491Y-111633077D01*
X181354488Y-111633080D01*
X181351021Y-111636847D01*
X181348226Y-111641124D01*
X181348219Y-111641134D01*
X181239299Y-111807850D01*
X181224076Y-111831151D01*
X181222021Y-111835835D01*
X181222016Y-111835845D01*
X181142206Y-112017794D01*
X181130843Y-112043700D01*
X181129585Y-112048665D01*
X181129584Y-112048670D01*
X181075125Y-112263720D01*
X181075123Y-112263729D01*
X181073866Y-112268695D01*
X181073442Y-112273802D01*
X181073441Y-112273813D01*
X181059846Y-112437894D01*
X181054700Y-112500000D01*
X181055124Y-112505117D01*
X181073441Y-112726186D01*
X181073442Y-112726195D01*
X181073866Y-112731305D01*
X181075123Y-112736272D01*
X181075125Y-112736279D01*
X181085144Y-112775842D01*
X181130843Y-112956300D01*
X181132903Y-112960996D01*
X181222016Y-113164154D01*
X181222019Y-113164159D01*
X181224076Y-113168849D01*
X181227381Y-113173907D01*
X181348219Y-113358865D01*
X181348222Y-113358869D01*
X181351021Y-113363153D01*
X181508216Y-113533913D01*
X181691374Y-113676470D01*
X181695886Y-113678911D01*
X181695891Y-113678915D01*
X181708444Y-113685709D01*
X181752450Y-113725755D01*
X181772735Y-113781689D01*
X181764630Y-113840634D01*
X181730000Y-113889017D01*
X181676819Y-113915699D01*
X181617332Y-113914538D01*
X181610754Y-113912775D01*
X181610748Y-113912773D01*
X181606834Y-113911725D01*
X181602819Y-113911196D01*
X181602807Y-113911194D01*
X181480019Y-113895029D01*
X181480017Y-113895028D01*
X181476000Y-113894500D01*
X181471947Y-113894500D01*
X177233087Y-113894500D01*
X177170884Y-113877770D01*
X177125466Y-113832093D01*
X177109089Y-113769796D01*
X177117095Y-112360653D01*
X177117120Y-112356256D01*
X177097770Y-112214835D01*
X177078769Y-112148164D01*
X177039677Y-112060459D01*
X177028938Y-112009383D01*
X177040170Y-111958411D01*
X177080665Y-111869866D01*
X177100269Y-111803652D01*
X177121059Y-111663018D01*
X177131577Y-109811760D01*
X177112227Y-109670337D01*
X177093226Y-109603667D01*
X177091436Y-109599650D01*
X177073634Y-109559710D01*
X177062893Y-109508627D01*
X177074126Y-109457653D01*
X177094625Y-109412834D01*
X177114229Y-109346621D01*
X177135019Y-109205985D01*
X177181959Y-100944578D01*
X178599500Y-100944578D01*
X178599501Y-100947872D01*
X178599853Y-100951150D01*
X178599854Y-100951161D01*
X178605079Y-100999768D01*
X178605080Y-100999773D01*
X178605909Y-101007483D01*
X178608619Y-101014749D01*
X178608620Y-101014753D01*
X178642217Y-101104831D01*
X178656204Y-101142331D01*
X178742454Y-101257546D01*
X178857669Y-101343796D01*
X178992517Y-101394091D01*
X179052127Y-101400500D01*
X180947872Y-101400499D01*
X181007483Y-101394091D01*
X181142331Y-101343796D01*
X181257546Y-101257546D01*
X181343796Y-101142331D01*
X181372454Y-101065493D01*
X181408404Y-101014280D01*
X181464785Y-100987141D01*
X181527239Y-100990988D01*
X181579863Y-101024840D01*
X181584739Y-101030136D01*
X181588216Y-101033913D01*
X181771374Y-101176470D01*
X181975497Y-101286936D01*
X182195019Y-101362298D01*
X182423951Y-101400500D01*
X182650916Y-101400500D01*
X182656049Y-101400500D01*
X182884981Y-101362298D01*
X183104503Y-101286936D01*
X183308626Y-101176470D01*
X183491784Y-101033913D01*
X183648979Y-100863153D01*
X183775924Y-100668849D01*
X183869157Y-100456300D01*
X183926134Y-100231305D01*
X183945300Y-100000000D01*
X183926134Y-99768695D01*
X183869157Y-99543700D01*
X183775924Y-99331151D01*
X183648979Y-99136847D01*
X183491784Y-98966087D01*
X183308626Y-98823530D01*
X183254497Y-98794237D01*
X183109007Y-98715501D01*
X183109002Y-98715499D01*
X183104503Y-98713064D01*
X183099657Y-98711400D01*
X183099654Y-98711399D01*
X182889834Y-98639368D01*
X182889833Y-98639367D01*
X182884981Y-98637702D01*
X182879931Y-98636859D01*
X182879922Y-98636857D01*
X182661111Y-98600344D01*
X182661102Y-98600343D01*
X182656049Y-98599500D01*
X182423951Y-98599500D01*
X182418898Y-98600343D01*
X182418888Y-98600344D01*
X182200077Y-98636857D01*
X182200065Y-98636859D01*
X182195019Y-98637702D01*
X182190169Y-98639366D01*
X182190165Y-98639368D01*
X181980345Y-98711399D01*
X181980337Y-98711402D01*
X181975497Y-98713064D01*
X181971001Y-98715496D01*
X181970992Y-98715501D01*
X181775882Y-98821090D01*
X181775878Y-98821092D01*
X181771374Y-98823530D01*
X181767334Y-98826674D01*
X181767327Y-98826679D01*
X181592263Y-98962936D01*
X181592255Y-98962943D01*
X181588216Y-98966087D01*
X181584751Y-98969850D01*
X181584740Y-98969861D01*
X181579859Y-98975164D01*
X181527234Y-99009013D01*
X181464782Y-99012857D01*
X181408403Y-98985718D01*
X181372454Y-98934506D01*
X181343796Y-98857669D01*
X181257546Y-98742454D01*
X181221541Y-98715501D01*
X181149431Y-98661519D01*
X181149430Y-98661518D01*
X181142331Y-98656204D01*
X181007483Y-98605909D01*
X180999770Y-98605079D01*
X180999767Y-98605079D01*
X180951180Y-98599855D01*
X180951169Y-98599854D01*
X180947873Y-98599500D01*
X180944550Y-98599500D01*
X179055439Y-98599500D01*
X179055420Y-98599500D01*
X179052128Y-98599501D01*
X179048850Y-98599853D01*
X179048838Y-98599854D01*
X179000231Y-98605079D01*
X179000225Y-98605080D01*
X178992517Y-98605909D01*
X178985252Y-98608618D01*
X178985246Y-98608620D01*
X178865980Y-98653104D01*
X178865978Y-98653104D01*
X178857669Y-98656204D01*
X178850572Y-98661516D01*
X178850568Y-98661519D01*
X178749550Y-98737141D01*
X178749546Y-98737144D01*
X178742454Y-98742454D01*
X178737144Y-98749546D01*
X178737141Y-98749550D01*
X178661519Y-98850568D01*
X178661516Y-98850572D01*
X178656204Y-98857669D01*
X178653104Y-98865978D01*
X178653104Y-98865980D01*
X178608620Y-98985247D01*
X178608619Y-98985250D01*
X178605909Y-98992517D01*
X178605079Y-99000227D01*
X178605079Y-99000232D01*
X178599855Y-99048819D01*
X178599854Y-99048831D01*
X178599500Y-99052127D01*
X178599500Y-99055448D01*
X178599500Y-99055449D01*
X178599500Y-100944560D01*
X178599500Y-100944578D01*
X177181959Y-100944578D01*
X177204783Y-96927577D01*
X177188180Y-96796185D01*
X177171803Y-96733887D01*
X177121644Y-96611317D01*
X177041371Y-96505982D01*
X177038505Y-96503100D01*
X177038501Y-96503095D01*
X177018837Y-96483320D01*
X176995953Y-96460305D01*
X176990220Y-96455884D01*
X176897532Y-96384412D01*
X176897528Y-96384409D01*
X176891074Y-96379433D01*
X176883547Y-96376302D01*
X176883544Y-96376301D01*
X176772542Y-96330139D01*
X176772539Y-96330138D01*
X176768788Y-96328578D01*
X176764872Y-96327524D01*
X176764861Y-96327521D01*
X176710509Y-96312903D01*
X176710503Y-96312901D01*
X176706585Y-96311848D01*
X176702565Y-96311316D01*
X176702556Y-96311315D01*
X176579329Y-96295033D01*
X176579324Y-96295032D01*
X176575293Y-96294500D01*
X162424000Y-96294500D01*
X162419983Y-96295028D01*
X162419980Y-96295029D01*
X162297192Y-96311194D01*
X162297177Y-96311196D01*
X162293166Y-96311725D01*
X162289254Y-96312773D01*
X162289245Y-96312775D01*
X162235090Y-96327286D01*
X162235082Y-96327288D01*
X162231166Y-96328338D01*
X162227420Y-96329889D01*
X162227410Y-96329893D01*
X162116759Y-96375726D01*
X162116754Y-96375728D01*
X162109250Y-96378837D01*
X162102806Y-96383780D01*
X162102800Y-96383785D01*
X162007789Y-96456691D01*
X162007782Y-96456696D01*
X162004558Y-96459171D01*
X162001685Y-96462043D01*
X162001677Y-96462051D01*
X161962051Y-96501677D01*
X161962043Y-96501685D01*
X161959171Y-96504558D01*
X161956696Y-96507782D01*
X161956691Y-96507789D01*
X161883785Y-96602800D01*
X161883780Y-96602806D01*
X161878837Y-96609250D01*
X161875728Y-96616754D01*
X161875726Y-96616759D01*
X161829893Y-96727410D01*
X161829889Y-96727420D01*
X161828338Y-96731166D01*
X161827288Y-96735082D01*
X161827286Y-96735090D01*
X161812775Y-96789245D01*
X161812773Y-96789254D01*
X161811725Y-96793166D01*
X161811196Y-96797177D01*
X161811194Y-96797192D01*
X161795029Y-96919980D01*
X161794500Y-96924000D01*
X161794500Y-96928053D01*
X161794500Y-105970500D01*
X161777887Y-106032500D01*
X161732500Y-106077887D01*
X161670500Y-106094500D01*
X155417111Y-106094500D01*
X155413361Y-106094960D01*
X155413351Y-106094961D01*
X155298585Y-106109052D01*
X155298569Y-106109054D01*
X155294822Y-106109515D01*
X155291144Y-106110431D01*
X155291144Y-106110432D01*
X155263531Y-106117316D01*
X155214847Y-106119582D01*
X155169051Y-106102911D01*
X155134343Y-106070920D01*
X155132533Y-106067784D01*
X155128080Y-106062839D01*
X155010220Y-105931942D01*
X155010219Y-105931941D01*
X155005871Y-105927112D01*
X155000613Y-105923292D01*
X155000611Y-105923290D01*
X154857988Y-105819669D01*
X154857987Y-105819668D01*
X154852730Y-105815849D01*
X154846792Y-105813205D01*
X154685745Y-105741501D01*
X154685740Y-105741499D01*
X154679803Y-105738856D01*
X154673444Y-105737504D01*
X154673440Y-105737503D01*
X154501008Y-105700852D01*
X154501005Y-105700851D01*
X154494646Y-105699500D01*
X154305354Y-105699500D01*
X154298995Y-105700851D01*
X154298991Y-105700852D01*
X154126559Y-105737503D01*
X154126552Y-105737505D01*
X154120197Y-105738856D01*
X154114262Y-105741498D01*
X154114254Y-105741501D01*
X153953207Y-105813205D01*
X153953202Y-105813207D01*
X153947270Y-105815849D01*
X153942016Y-105819665D01*
X153942011Y-105819669D01*
X153799388Y-105923290D01*
X153799381Y-105923295D01*
X153794129Y-105927112D01*
X153789784Y-105931937D01*
X153789779Y-105931942D01*
X153671815Y-106062954D01*
X153671810Y-106062959D01*
X153667467Y-106067784D01*
X153665654Y-106070923D01*
X153630939Y-106102916D01*
X153585145Y-106119582D01*
X153536465Y-106117315D01*
X153508862Y-106110433D01*
X153508854Y-106110431D01*
X153505178Y-106109515D01*
X153501427Y-106109054D01*
X153501414Y-106109052D01*
X153386648Y-106094961D01*
X153386639Y-106094960D01*
X153382889Y-106094500D01*
X134724000Y-106094500D01*
X134719983Y-106095028D01*
X134719980Y-106095029D01*
X134597192Y-106111194D01*
X134597177Y-106111196D01*
X134593166Y-106111725D01*
X134589254Y-106112773D01*
X134589245Y-106112775D01*
X134535090Y-106127286D01*
X134535082Y-106127288D01*
X134531166Y-106128338D01*
X134527420Y-106129889D01*
X134527410Y-106129893D01*
X134416759Y-106175726D01*
X134416754Y-106175728D01*
X134409250Y-106178837D01*
X134402806Y-106183780D01*
X134402800Y-106183785D01*
X134307789Y-106256691D01*
X134307782Y-106256696D01*
X134304558Y-106259171D01*
X134301685Y-106262043D01*
X134301677Y-106262051D01*
X134262051Y-106301677D01*
X134262043Y-106301685D01*
X134259171Y-106304558D01*
X134256696Y-106307782D01*
X134256691Y-106307789D01*
X134183785Y-106402800D01*
X134183780Y-106402806D01*
X134178837Y-106409250D01*
X134175728Y-106416754D01*
X134175726Y-106416759D01*
X134129893Y-106527410D01*
X134129889Y-106527420D01*
X134128338Y-106531166D01*
X134127288Y-106535082D01*
X134127286Y-106535090D01*
X134112775Y-106589245D01*
X134112773Y-106589254D01*
X134111725Y-106593166D01*
X134111196Y-106597177D01*
X134111194Y-106597192D01*
X134095029Y-106719980D01*
X134094500Y-106724000D01*
X134094500Y-107875500D01*
X134094500Y-108499999D01*
X134094500Y-110500000D01*
X134094500Y-111176000D01*
X112956540Y-111176000D01*
X112849834Y-111139368D01*
X112849833Y-111139367D01*
X112844981Y-111137702D01*
X112839931Y-111136859D01*
X112839922Y-111136857D01*
X112621111Y-111100344D01*
X112621102Y-111100343D01*
X112616049Y-111099500D01*
X112383951Y-111099500D01*
X112378898Y-111100343D01*
X112378888Y-111100344D01*
X112160077Y-111136857D01*
X112160065Y-111136859D01*
X112155019Y-111137702D01*
X112150169Y-111139366D01*
X112150165Y-111139368D01*
X111940345Y-111211399D01*
X111940337Y-111211402D01*
X111935497Y-111213064D01*
X111931001Y-111215496D01*
X111930992Y-111215501D01*
X111735882Y-111321090D01*
X111735878Y-111321092D01*
X111731374Y-111323530D01*
X111727334Y-111326674D01*
X111727327Y-111326679D01*
X111552263Y-111462936D01*
X111552255Y-111462943D01*
X111548216Y-111466087D01*
X111544751Y-111469850D01*
X111544740Y-111469861D01*
X111539859Y-111475164D01*
X111487234Y-111509013D01*
X111424782Y-111512857D01*
X111368403Y-111485718D01*
X111332454Y-111434506D01*
X111303796Y-111357669D01*
X111217546Y-111242454D01*
X111181541Y-111215501D01*
X111109431Y-111161519D01*
X111109430Y-111161518D01*
X111102331Y-111156204D01*
X110967483Y-111105909D01*
X110959770Y-111105079D01*
X110959767Y-111105079D01*
X110911180Y-111099855D01*
X110911169Y-111099854D01*
X110907873Y-111099500D01*
X110904550Y-111099500D01*
X109015439Y-111099500D01*
X109015420Y-111099500D01*
X109012128Y-111099501D01*
X109008850Y-111099853D01*
X109008838Y-111099854D01*
X108960231Y-111105079D01*
X108960225Y-111105080D01*
X108952517Y-111105909D01*
X108945252Y-111108618D01*
X108945246Y-111108620D01*
X108825980Y-111153104D01*
X108825978Y-111153104D01*
X108817669Y-111156204D01*
X108810572Y-111161516D01*
X108810568Y-111161519D01*
X108709550Y-111237141D01*
X108709546Y-111237144D01*
X108702454Y-111242454D01*
X108697144Y-111249546D01*
X108697141Y-111249550D01*
X108621519Y-111350568D01*
X108621516Y-111350572D01*
X108616204Y-111357669D01*
X108613104Y-111365978D01*
X108613104Y-111365980D01*
X108568620Y-111485247D01*
X108568619Y-111485250D01*
X108565909Y-111492517D01*
X108565079Y-111500227D01*
X108565079Y-111500232D01*
X108559855Y-111548819D01*
X108559854Y-111548831D01*
X108559500Y-111552127D01*
X108559500Y-111555448D01*
X108559500Y-111555449D01*
X108559500Y-113444560D01*
X108559500Y-113444578D01*
X105700615Y-113444578D01*
X105517925Y-112660961D01*
X105516434Y-112653542D01*
X105508301Y-112605564D01*
X105228584Y-110955414D01*
X105227522Y-110947670D01*
X105047093Y-109232884D01*
X105046513Y-109224898D01*
X104977616Y-107497058D01*
X104977564Y-107488820D01*
X105024322Y-105751549D01*
X105024836Y-105743140D01*
X105191607Y-103997755D01*
X105192522Y-103990470D01*
X105199682Y-103944578D01*
X145059500Y-103944578D01*
X145059501Y-103947872D01*
X145059853Y-103951150D01*
X145059854Y-103951161D01*
X145065079Y-103999768D01*
X145065080Y-103999773D01*
X145065909Y-104007483D01*
X145068619Y-104014749D01*
X145068620Y-104014753D01*
X145102217Y-104104831D01*
X145116204Y-104142331D01*
X145202454Y-104257546D01*
X145317669Y-104343796D01*
X145452517Y-104394091D01*
X145512127Y-104400500D01*
X147407872Y-104400499D01*
X147467483Y-104394091D01*
X147602331Y-104343796D01*
X147717546Y-104257546D01*
X147803796Y-104142331D01*
X147832454Y-104065493D01*
X147868404Y-104014280D01*
X147924785Y-103987141D01*
X147987239Y-103990988D01*
X148039863Y-104024840D01*
X148044739Y-104030136D01*
X148048216Y-104033913D01*
X148231374Y-104176470D01*
X148435497Y-104286936D01*
X148655019Y-104362298D01*
X148883951Y-104400500D01*
X149110916Y-104400500D01*
X149116049Y-104400500D01*
X149344981Y-104362298D01*
X149564503Y-104286936D01*
X149768626Y-104176470D01*
X149951784Y-104033913D01*
X150108979Y-103863153D01*
X150235924Y-103668849D01*
X150329157Y-103456300D01*
X150386134Y-103231305D01*
X150405300Y-103000000D01*
X150386134Y-102768695D01*
X150329157Y-102543700D01*
X150235924Y-102331151D01*
X150108979Y-102136847D01*
X149951784Y-101966087D01*
X149927890Y-101947490D01*
X149772672Y-101826679D01*
X149772671Y-101826678D01*
X149768626Y-101823530D01*
X149711591Y-101792664D01*
X149569007Y-101715501D01*
X149569002Y-101715499D01*
X149564503Y-101713064D01*
X149559657Y-101711400D01*
X149559654Y-101711399D01*
X149349834Y-101639368D01*
X149349833Y-101639367D01*
X149344981Y-101637702D01*
X149339931Y-101636859D01*
X149339922Y-101636857D01*
X149121111Y-101600344D01*
X149121102Y-101600343D01*
X149116049Y-101599500D01*
X148883951Y-101599500D01*
X148878898Y-101600343D01*
X148878888Y-101600344D01*
X148660077Y-101636857D01*
X148660065Y-101636859D01*
X148655019Y-101637702D01*
X148650169Y-101639366D01*
X148650165Y-101639368D01*
X148440345Y-101711399D01*
X148440337Y-101711402D01*
X148435497Y-101713064D01*
X148431001Y-101715496D01*
X148430992Y-101715501D01*
X148235882Y-101821090D01*
X148235878Y-101821092D01*
X148231374Y-101823530D01*
X148227334Y-101826674D01*
X148227327Y-101826679D01*
X148052263Y-101962936D01*
X148052255Y-101962943D01*
X148048216Y-101966087D01*
X148044751Y-101969850D01*
X148044740Y-101969861D01*
X148039859Y-101975164D01*
X147987234Y-102009013D01*
X147924782Y-102012857D01*
X147868403Y-101985718D01*
X147832454Y-101934506D01*
X147827144Y-101920269D01*
X147803796Y-101857669D01*
X147717546Y-101742454D01*
X147681541Y-101715501D01*
X147609431Y-101661519D01*
X147609430Y-101661518D01*
X147602331Y-101656204D01*
X147467483Y-101605909D01*
X147459770Y-101605079D01*
X147459767Y-101605079D01*
X147411180Y-101599855D01*
X147411169Y-101599854D01*
X147407873Y-101599500D01*
X147404550Y-101599500D01*
X145515439Y-101599500D01*
X145515420Y-101599500D01*
X145512128Y-101599501D01*
X145508850Y-101599853D01*
X145508838Y-101599854D01*
X145460231Y-101605079D01*
X145460225Y-101605080D01*
X145452517Y-101605909D01*
X145445252Y-101608618D01*
X145445246Y-101608620D01*
X145325980Y-101653104D01*
X145325978Y-101653104D01*
X145317669Y-101656204D01*
X145310572Y-101661516D01*
X145310568Y-101661519D01*
X145209550Y-101737141D01*
X145209546Y-101737144D01*
X145202454Y-101742454D01*
X145197144Y-101749546D01*
X145197141Y-101749550D01*
X145121519Y-101850568D01*
X145121516Y-101850572D01*
X145116204Y-101857669D01*
X145113104Y-101865978D01*
X145113104Y-101865980D01*
X145068620Y-101985247D01*
X145068619Y-101985250D01*
X145065909Y-101992517D01*
X145065079Y-102000227D01*
X145065079Y-102000232D01*
X145059855Y-102048819D01*
X145059854Y-102048831D01*
X145059500Y-102052127D01*
X145059500Y-102055448D01*
X145059500Y-102055449D01*
X145059500Y-103944560D01*
X145059500Y-103944578D01*
X105199682Y-103944578D01*
X105343607Y-103022157D01*
X105344695Y-103016170D01*
X105542905Y-102059550D01*
X105544268Y-102053693D01*
X105787995Y-101111737D01*
X105789619Y-101106031D01*
X105839810Y-100944578D01*
X111059500Y-100944578D01*
X111059501Y-100947872D01*
X111059853Y-100951150D01*
X111059854Y-100951161D01*
X111065079Y-100999768D01*
X111065080Y-100999773D01*
X111065909Y-101007483D01*
X111068619Y-101014749D01*
X111068620Y-101014753D01*
X111102217Y-101104831D01*
X111116204Y-101142331D01*
X111202454Y-101257546D01*
X111317669Y-101343796D01*
X111452517Y-101394091D01*
X111512127Y-101400500D01*
X113407872Y-101400499D01*
X113467483Y-101394091D01*
X113602331Y-101343796D01*
X113717546Y-101257546D01*
X113803796Y-101142331D01*
X113832454Y-101065493D01*
X113868404Y-101014280D01*
X113924785Y-100987141D01*
X113987239Y-100990988D01*
X114039863Y-101024840D01*
X114044739Y-101030136D01*
X114048216Y-101033913D01*
X114231374Y-101176470D01*
X114435497Y-101286936D01*
X114655019Y-101362298D01*
X114883951Y-101400500D01*
X115110916Y-101400500D01*
X115116049Y-101400500D01*
X115344981Y-101362298D01*
X115564503Y-101286936D01*
X115768626Y-101176470D01*
X115951784Y-101033913D01*
X116108979Y-100863153D01*
X116235924Y-100668849D01*
X116329157Y-100456300D01*
X116386134Y-100231305D01*
X116405300Y-100000000D01*
X116386134Y-99768695D01*
X116329157Y-99543700D01*
X116235924Y-99331151D01*
X116108979Y-99136847D01*
X115951784Y-98966087D01*
X115768626Y-98823530D01*
X115714497Y-98794237D01*
X115569007Y-98715501D01*
X115569002Y-98715499D01*
X115564503Y-98713064D01*
X115559657Y-98711400D01*
X115559654Y-98711399D01*
X115349834Y-98639368D01*
X115349833Y-98639367D01*
X115344981Y-98637702D01*
X115339931Y-98636859D01*
X115339922Y-98636857D01*
X115121111Y-98600344D01*
X115121102Y-98600343D01*
X115116049Y-98599500D01*
X114883951Y-98599500D01*
X114878898Y-98600343D01*
X114878888Y-98600344D01*
X114660077Y-98636857D01*
X114660065Y-98636859D01*
X114655019Y-98637702D01*
X114650169Y-98639366D01*
X114650165Y-98639368D01*
X114440345Y-98711399D01*
X114440337Y-98711402D01*
X114435497Y-98713064D01*
X114431001Y-98715496D01*
X114430992Y-98715501D01*
X114235882Y-98821090D01*
X114235878Y-98821092D01*
X114231374Y-98823530D01*
X114227334Y-98826674D01*
X114227327Y-98826679D01*
X114052263Y-98962936D01*
X114052255Y-98962943D01*
X114048216Y-98966087D01*
X114044751Y-98969850D01*
X114044740Y-98969861D01*
X114039859Y-98975164D01*
X113987234Y-99009013D01*
X113924782Y-99012857D01*
X113868403Y-98985718D01*
X113832454Y-98934506D01*
X113803796Y-98857669D01*
X113717546Y-98742454D01*
X113681541Y-98715501D01*
X113609431Y-98661519D01*
X113609430Y-98661518D01*
X113602331Y-98656204D01*
X113467483Y-98605909D01*
X113459770Y-98605079D01*
X113459767Y-98605079D01*
X113411180Y-98599855D01*
X113411169Y-98599854D01*
X113407873Y-98599500D01*
X113404550Y-98599500D01*
X111515439Y-98599500D01*
X111515420Y-98599500D01*
X111512128Y-98599501D01*
X111508850Y-98599853D01*
X111508838Y-98599854D01*
X111460231Y-98605079D01*
X111460225Y-98605080D01*
X111452517Y-98605909D01*
X111445252Y-98608618D01*
X111445246Y-98608620D01*
X111325980Y-98653104D01*
X111325978Y-98653104D01*
X111317669Y-98656204D01*
X111310572Y-98661516D01*
X111310568Y-98661519D01*
X111209550Y-98737141D01*
X111209546Y-98737144D01*
X111202454Y-98742454D01*
X111197144Y-98749546D01*
X111197141Y-98749550D01*
X111121519Y-98850568D01*
X111121516Y-98850572D01*
X111116204Y-98857669D01*
X111113104Y-98865978D01*
X111113104Y-98865980D01*
X111068620Y-98985247D01*
X111068619Y-98985250D01*
X111065909Y-98992517D01*
X111065079Y-99000227D01*
X111065079Y-99000232D01*
X111059855Y-99048819D01*
X111059854Y-99048831D01*
X111059500Y-99052127D01*
X111059500Y-99055448D01*
X111059500Y-99055449D01*
X111059500Y-100944560D01*
X111059500Y-100944578D01*
X105839810Y-100944578D01*
X106077522Y-100179906D01*
X106079403Y-100174327D01*
X106141182Y-100004503D01*
X106410189Y-99265034D01*
X106412275Y-99259693D01*
X106784641Y-98368313D01*
X106786949Y-98363128D01*
X107199537Y-97490856D01*
X107202024Y-97485893D01*
X107653552Y-96633753D01*
X107656258Y-96628914D01*
X108059128Y-95944578D01*
X134059500Y-95944578D01*
X134059501Y-95947872D01*
X134059853Y-95951150D01*
X134059854Y-95951161D01*
X134065079Y-95999768D01*
X134065080Y-95999773D01*
X134065909Y-96007483D01*
X134068619Y-96014749D01*
X134068620Y-96014753D01*
X134102217Y-96104831D01*
X134116204Y-96142331D01*
X134202454Y-96257546D01*
X134317669Y-96343796D01*
X134452517Y-96394091D01*
X134512127Y-96400500D01*
X136407872Y-96400499D01*
X136467483Y-96394091D01*
X136602331Y-96343796D01*
X136717546Y-96257546D01*
X136803796Y-96142331D01*
X136832454Y-96065493D01*
X136868404Y-96014280D01*
X136924785Y-95987141D01*
X136987239Y-95990988D01*
X137039863Y-96024840D01*
X137044739Y-96030136D01*
X137048216Y-96033913D01*
X137231374Y-96176470D01*
X137435497Y-96286936D01*
X137655019Y-96362298D01*
X137883951Y-96400500D01*
X138110916Y-96400500D01*
X138116049Y-96400500D01*
X138344981Y-96362298D01*
X138564503Y-96286936D01*
X138768626Y-96176470D01*
X138951784Y-96033913D01*
X139108979Y-95863153D01*
X139235924Y-95668849D01*
X139329157Y-95456300D01*
X139386134Y-95231305D01*
X139405300Y-95000000D01*
X139386134Y-94768695D01*
X139329157Y-94543700D01*
X139235924Y-94331151D01*
X139108979Y-94136847D01*
X138951784Y-93966087D01*
X138944197Y-93960182D01*
X138772672Y-93826679D01*
X138772671Y-93826678D01*
X138768626Y-93823530D01*
X138706210Y-93789752D01*
X138569007Y-93715501D01*
X138569002Y-93715499D01*
X138564503Y-93713064D01*
X138559657Y-93711400D01*
X138559654Y-93711399D01*
X138349834Y-93639368D01*
X138349833Y-93639367D01*
X138344981Y-93637702D01*
X138339931Y-93636859D01*
X138339922Y-93636857D01*
X138121111Y-93600344D01*
X138121102Y-93600343D01*
X138116049Y-93599500D01*
X137883951Y-93599500D01*
X137878898Y-93600343D01*
X137878888Y-93600344D01*
X137660077Y-93636857D01*
X137660065Y-93636859D01*
X137655019Y-93637702D01*
X137650169Y-93639366D01*
X137650165Y-93639368D01*
X137440345Y-93711399D01*
X137440337Y-93711402D01*
X137435497Y-93713064D01*
X137431001Y-93715496D01*
X137430992Y-93715501D01*
X137235882Y-93821090D01*
X137235878Y-93821092D01*
X137231374Y-93823530D01*
X137227334Y-93826674D01*
X137227327Y-93826679D01*
X137052263Y-93962936D01*
X137052255Y-93962943D01*
X137048216Y-93966087D01*
X137044751Y-93969850D01*
X137044740Y-93969861D01*
X137039859Y-93975164D01*
X136987234Y-94009013D01*
X136924782Y-94012857D01*
X136868403Y-93985718D01*
X136832454Y-93934506D01*
X136803796Y-93857669D01*
X136717546Y-93742454D01*
X136681541Y-93715501D01*
X136609431Y-93661519D01*
X136609430Y-93661518D01*
X136602331Y-93656204D01*
X136467483Y-93605909D01*
X136459770Y-93605079D01*
X136459767Y-93605079D01*
X136411180Y-93599855D01*
X136411169Y-93599854D01*
X136407873Y-93599500D01*
X136404550Y-93599500D01*
X134515439Y-93599500D01*
X134515420Y-93599500D01*
X134512128Y-93599501D01*
X134508850Y-93599853D01*
X134508838Y-93599854D01*
X134460231Y-93605079D01*
X134460225Y-93605080D01*
X134452517Y-93605909D01*
X134445252Y-93608618D01*
X134445246Y-93608620D01*
X134325980Y-93653104D01*
X134325978Y-93653104D01*
X134317669Y-93656204D01*
X134310572Y-93661516D01*
X134310568Y-93661519D01*
X134209550Y-93737141D01*
X134209546Y-93737144D01*
X134202454Y-93742454D01*
X134197144Y-93749546D01*
X134197141Y-93749550D01*
X134121519Y-93850568D01*
X134121516Y-93850572D01*
X134116204Y-93857669D01*
X134113104Y-93865978D01*
X134113104Y-93865980D01*
X134068620Y-93985247D01*
X134068619Y-93985250D01*
X134065909Y-93992517D01*
X134065079Y-94000227D01*
X134065079Y-94000232D01*
X134059855Y-94048819D01*
X134059854Y-94048831D01*
X134059500Y-94052127D01*
X134059500Y-94055448D01*
X134059500Y-94055449D01*
X134059500Y-95944560D01*
X134059500Y-95944578D01*
X108059128Y-95944578D01*
X108145334Y-95798143D01*
X108148203Y-95793504D01*
X108673591Y-94985063D01*
X108676608Y-94980636D01*
X109236913Y-94195751D01*
X109240078Y-94191515D01*
X109833926Y-93431349D01*
X109837271Y-93427252D01*
X109860079Y-93400500D01*
X110248772Y-92944578D01*
X121599500Y-92944578D01*
X121599501Y-92947872D01*
X121599853Y-92951150D01*
X121599854Y-92951161D01*
X121605079Y-92999768D01*
X121605080Y-92999773D01*
X121605909Y-93007483D01*
X121608619Y-93014749D01*
X121608620Y-93014753D01*
X121629619Y-93071053D01*
X121656204Y-93142331D01*
X121742454Y-93257546D01*
X121857669Y-93343796D01*
X121992517Y-93394091D01*
X122052127Y-93400500D01*
X123947872Y-93400499D01*
X124007483Y-93394091D01*
X124142331Y-93343796D01*
X124257546Y-93257546D01*
X124343796Y-93142331D01*
X124372454Y-93065493D01*
X124408404Y-93014280D01*
X124464785Y-92987141D01*
X124527239Y-92990988D01*
X124579863Y-93024840D01*
X124584739Y-93030136D01*
X124588216Y-93033913D01*
X124592262Y-93037062D01*
X124592263Y-93037063D01*
X124628717Y-93065436D01*
X124771374Y-93176470D01*
X124975497Y-93286936D01*
X125195019Y-93362298D01*
X125423951Y-93400500D01*
X125650916Y-93400500D01*
X125656049Y-93400500D01*
X125884981Y-93362298D01*
X126104503Y-93286936D01*
X126308626Y-93176470D01*
X126491784Y-93033913D01*
X126648979Y-92863153D01*
X126775924Y-92668849D01*
X126869157Y-92456300D01*
X126926134Y-92231305D01*
X126945300Y-92000000D01*
X126926134Y-91768695D01*
X126869157Y-91543700D01*
X126775924Y-91331151D01*
X126648979Y-91136847D01*
X126491784Y-90966087D01*
X126481905Y-90958398D01*
X126312672Y-90826679D01*
X126312671Y-90826678D01*
X126308626Y-90823530D01*
X126232240Y-90782192D01*
X126109007Y-90715501D01*
X126109002Y-90715499D01*
X126104503Y-90713064D01*
X126099657Y-90711400D01*
X126099654Y-90711399D01*
X125889834Y-90639368D01*
X125889833Y-90639367D01*
X125884981Y-90637702D01*
X125879931Y-90636859D01*
X125879922Y-90636857D01*
X125661111Y-90600344D01*
X125661102Y-90600343D01*
X125656049Y-90599500D01*
X125423951Y-90599500D01*
X125418898Y-90600343D01*
X125418888Y-90600344D01*
X125200077Y-90636857D01*
X125200065Y-90636859D01*
X125195019Y-90637702D01*
X125190169Y-90639366D01*
X125190165Y-90639368D01*
X124980345Y-90711399D01*
X124980337Y-90711402D01*
X124975497Y-90713064D01*
X124971001Y-90715496D01*
X124970992Y-90715501D01*
X124775882Y-90821090D01*
X124775878Y-90821092D01*
X124771374Y-90823530D01*
X124767334Y-90826674D01*
X124767327Y-90826679D01*
X124592263Y-90962936D01*
X124592255Y-90962943D01*
X124588216Y-90966087D01*
X124584751Y-90969850D01*
X124584740Y-90969861D01*
X124579859Y-90975164D01*
X124527234Y-91009013D01*
X124464782Y-91012857D01*
X124408403Y-90985718D01*
X124372454Y-90934506D01*
X124352183Y-90880157D01*
X124343796Y-90857669D01*
X124257546Y-90742454D01*
X124233323Y-90724321D01*
X124149431Y-90661519D01*
X124149430Y-90661518D01*
X124142331Y-90656204D01*
X124071965Y-90629959D01*
X124014752Y-90608620D01*
X124014750Y-90608619D01*
X124007483Y-90605909D01*
X123999770Y-90605079D01*
X123999767Y-90605079D01*
X123951180Y-90599855D01*
X123951169Y-90599854D01*
X123947873Y-90599500D01*
X123944550Y-90599500D01*
X122055439Y-90599500D01*
X122055420Y-90599500D01*
X122052128Y-90599501D01*
X122048850Y-90599853D01*
X122048838Y-90599854D01*
X122000231Y-90605079D01*
X122000225Y-90605080D01*
X121992517Y-90605909D01*
X121985252Y-90608618D01*
X121985246Y-90608620D01*
X121865980Y-90653104D01*
X121865978Y-90653104D01*
X121857669Y-90656204D01*
X121850572Y-90661516D01*
X121850568Y-90661519D01*
X121749550Y-90737141D01*
X121749546Y-90737144D01*
X121742454Y-90742454D01*
X121737144Y-90749546D01*
X121737141Y-90749550D01*
X121661519Y-90850568D01*
X121661516Y-90850572D01*
X121656204Y-90857669D01*
X121653104Y-90865978D01*
X121653104Y-90865980D01*
X121608620Y-90985247D01*
X121608619Y-90985250D01*
X121605909Y-90992517D01*
X121605079Y-91000227D01*
X121605079Y-91000232D01*
X121599855Y-91048819D01*
X121599854Y-91048831D01*
X121599500Y-91052127D01*
X121599500Y-91055448D01*
X121599500Y-91055449D01*
X121599500Y-92944560D01*
X121599500Y-92944578D01*
X110248772Y-92944578D01*
X110463345Y-92692893D01*
X110466836Y-92688971D01*
X111123807Y-91981528D01*
X111127385Y-91977835D01*
X111813853Y-91298480D01*
X111817595Y-91294928D01*
X112532261Y-90644732D01*
X112536083Y-90641398D01*
X113277544Y-90021522D01*
X113281501Y-90018354D01*
X114048350Y-89429956D01*
X114052447Y-89426946D01*
X114843339Y-88871125D01*
X114847624Y-88868246D01*
X115661112Y-88346166D01*
X115665525Y-88343463D01*
X116500369Y-87856147D01*
X116504901Y-87853630D01*
X117359594Y-87402269D01*
X117364297Y-87399913D01*
X118237566Y-86985551D01*
X118242380Y-86983393D01*
X119132795Y-86607161D01*
X119137776Y-86605183D01*
X120043951Y-86268179D01*
X120049046Y-86266411D01*
X120969667Y-85969701D01*
X120974939Y-85968131D01*
X121908594Y-85712817D01*
X121914015Y-85711467D01*
X122859382Y-85498625D01*
X122864925Y-85497511D01*
X123820594Y-85328229D01*
X123826260Y-85327361D01*
X124791016Y-85202694D01*
X124796823Y-85202084D01*
X125769144Y-85123134D01*
X125775102Y-85122795D01*
X126755052Y-85090580D01*
X126760337Y-85090520D01*
X127562009Y-85098436D01*
G37*
%TD.AperFunction*%
%TD*%
%TA.AperFunction,Conductor*%
%TO.N,VCC*%
G36*
X176637496Y-96816730D02*
G01*
X176682914Y-96862407D01*
X176699291Y-96924705D01*
X176629527Y-109203113D01*
X176609923Y-109269326D01*
X176557943Y-109314786D01*
X176489708Y-109325395D01*
X176426380Y-109297862D01*
X176387599Y-109240728D01*
X176352179Y-109131716D01*
X176257533Y-108967784D01*
X176130871Y-108827112D01*
X176125613Y-108823292D01*
X176125611Y-108823290D01*
X175982988Y-108719669D01*
X175982987Y-108719668D01*
X175977730Y-108715849D01*
X175971792Y-108713205D01*
X175810745Y-108641501D01*
X175810740Y-108641499D01*
X175804803Y-108638856D01*
X175798444Y-108637504D01*
X175798440Y-108637503D01*
X175626008Y-108600852D01*
X175626005Y-108600851D01*
X175619646Y-108599500D01*
X175430354Y-108599500D01*
X175423995Y-108600851D01*
X175423991Y-108600852D01*
X175251559Y-108637503D01*
X175251552Y-108637505D01*
X175245197Y-108638856D01*
X175239262Y-108641498D01*
X175239254Y-108641501D01*
X175078207Y-108713205D01*
X175078202Y-108713207D01*
X175072270Y-108715849D01*
X175067016Y-108719665D01*
X175067011Y-108719669D01*
X174924388Y-108823290D01*
X174924381Y-108823295D01*
X174919129Y-108827112D01*
X174914784Y-108831937D01*
X174914779Y-108831942D01*
X174796813Y-108962956D01*
X174796808Y-108962962D01*
X174792467Y-108967784D01*
X174789222Y-108973404D01*
X174789218Y-108973410D01*
X174701069Y-109126089D01*
X174701066Y-109126094D01*
X174697821Y-109131716D01*
X174695815Y-109137888D01*
X174695813Y-109137894D01*
X174641333Y-109305564D01*
X174641331Y-109305573D01*
X174639326Y-109311744D01*
X174638648Y-109318194D01*
X174638646Y-109318204D01*
X174629371Y-109406460D01*
X174619540Y-109500000D01*
X174620219Y-109506460D01*
X174638646Y-109681795D01*
X174638647Y-109681803D01*
X174639326Y-109688256D01*
X174641331Y-109694428D01*
X174641333Y-109694435D01*
X174695813Y-109862105D01*
X174697821Y-109868284D01*
X174792467Y-110032216D01*
X174919129Y-110172888D01*
X175072270Y-110284151D01*
X175245197Y-110361144D01*
X175430354Y-110400500D01*
X175613143Y-110400500D01*
X175619646Y-110400500D01*
X175804803Y-110361144D01*
X175977730Y-110284151D01*
X176130871Y-110172888D01*
X176257533Y-110032216D01*
X176352179Y-109868284D01*
X176384157Y-109769864D01*
X176423154Y-109712551D01*
X176486825Y-109685127D01*
X176555265Y-109696166D01*
X176607084Y-109742218D01*
X176626085Y-109808888D01*
X176615567Y-111660146D01*
X176595963Y-111726360D01*
X176543983Y-111771820D01*
X176475748Y-111782429D01*
X176412420Y-111754896D01*
X176373638Y-111697760D01*
X176352179Y-111631716D01*
X176257533Y-111467784D01*
X176130871Y-111327112D01*
X176125613Y-111323292D01*
X176125611Y-111323290D01*
X175982988Y-111219669D01*
X175982987Y-111219668D01*
X175977730Y-111215849D01*
X175971475Y-111213064D01*
X175810745Y-111141501D01*
X175810740Y-111141499D01*
X175804803Y-111138856D01*
X175798444Y-111137504D01*
X175798440Y-111137503D01*
X175626008Y-111100852D01*
X175626005Y-111100851D01*
X175619646Y-111099500D01*
X175430354Y-111099500D01*
X175423995Y-111100851D01*
X175423991Y-111100852D01*
X175251559Y-111137503D01*
X175251552Y-111137505D01*
X175245197Y-111138856D01*
X175239262Y-111141498D01*
X175239254Y-111141501D01*
X175078207Y-111213205D01*
X175078202Y-111213207D01*
X175072270Y-111215849D01*
X175067016Y-111219665D01*
X175067011Y-111219669D01*
X174924388Y-111323290D01*
X174924381Y-111323295D01*
X174919129Y-111327112D01*
X174914784Y-111331937D01*
X174914779Y-111331942D01*
X174796813Y-111462956D01*
X174796808Y-111462962D01*
X174792467Y-111467784D01*
X174789222Y-111473404D01*
X174789218Y-111473410D01*
X174701069Y-111626089D01*
X174701066Y-111626094D01*
X174697821Y-111631716D01*
X174695815Y-111637888D01*
X174695813Y-111637894D01*
X174641333Y-111805564D01*
X174641331Y-111805573D01*
X174639326Y-111811744D01*
X174638648Y-111818194D01*
X174638646Y-111818204D01*
X174620962Y-111986464D01*
X174619540Y-112000000D01*
X174620219Y-112006460D01*
X174638646Y-112181795D01*
X174638647Y-112181803D01*
X174639326Y-112188256D01*
X174641331Y-112194428D01*
X174641333Y-112194435D01*
X174695813Y-112362105D01*
X174697821Y-112368284D01*
X174792467Y-112532216D01*
X174919129Y-112672888D01*
X175072270Y-112784151D01*
X175245197Y-112861144D01*
X175430354Y-112900500D01*
X175613143Y-112900500D01*
X175619646Y-112900500D01*
X175804803Y-112861144D01*
X175977730Y-112784151D01*
X176130871Y-112672888D01*
X176257533Y-112532216D01*
X176352179Y-112368284D01*
X176369699Y-112314360D01*
X176408697Y-112257046D01*
X176472368Y-112229622D01*
X176540808Y-112240661D01*
X176592627Y-112286713D01*
X176611628Y-112353384D01*
X176603128Y-113849500D01*
X176600000Y-114400000D01*
X181476000Y-114400000D01*
X181538000Y-114416613D01*
X181583387Y-114462000D01*
X181600000Y-114524000D01*
X181600000Y-121076000D01*
X181583387Y-121138000D01*
X181538000Y-121183387D01*
X181476000Y-121200000D01*
X149924000Y-121200000D01*
X149862000Y-121183387D01*
X149816613Y-121138000D01*
X149800000Y-121076000D01*
X149800000Y-119250000D01*
X159844540Y-119250000D01*
X159845219Y-119256460D01*
X159863646Y-119431795D01*
X159863647Y-119431803D01*
X159864326Y-119438256D01*
X159866331Y-119444428D01*
X159866333Y-119444435D01*
X159868415Y-119450842D01*
X159922821Y-119618284D01*
X159926068Y-119623908D01*
X159926069Y-119623910D01*
X159935492Y-119640232D01*
X160017467Y-119782216D01*
X160021811Y-119787041D01*
X160021813Y-119787043D01*
X160049943Y-119818284D01*
X160144129Y-119922888D01*
X160149387Y-119926708D01*
X160149388Y-119926709D01*
X160168901Y-119940886D01*
X160297270Y-120034151D01*
X160470197Y-120111144D01*
X160655354Y-120150500D01*
X160838143Y-120150500D01*
X160844646Y-120150500D01*
X161029803Y-120111144D01*
X161202730Y-120034151D01*
X161355871Y-119922888D01*
X161482533Y-119782216D01*
X161577179Y-119618284D01*
X161635674Y-119438256D01*
X161655460Y-119250000D01*
X161635674Y-119061744D01*
X161577179Y-118881716D01*
X161509793Y-118765000D01*
X172864341Y-118765000D01*
X172864813Y-118770395D01*
X172874552Y-118881716D01*
X172884937Y-119000408D01*
X172886336Y-119005630D01*
X172886337Y-119005634D01*
X172944694Y-119223430D01*
X172944697Y-119223438D01*
X172946097Y-119228663D01*
X172948385Y-119233570D01*
X172948386Y-119233572D01*
X173043678Y-119437927D01*
X173043681Y-119437933D01*
X173045965Y-119442830D01*
X173049064Y-119447257D01*
X173049066Y-119447259D01*
X173178399Y-119631966D01*
X173178402Y-119631970D01*
X173181505Y-119636401D01*
X173348599Y-119803495D01*
X173542170Y-119939035D01*
X173756337Y-120038903D01*
X173984592Y-120100063D01*
X174220000Y-120120659D01*
X174455408Y-120100063D01*
X174683663Y-120038903D01*
X174897830Y-119939035D01*
X175091401Y-119803495D01*
X175258495Y-119636401D01*
X175388424Y-119450842D01*
X175432743Y-119411976D01*
X175490000Y-119397965D01*
X175547257Y-119411976D01*
X175591575Y-119450842D01*
X175718395Y-119631961D01*
X175718401Y-119631968D01*
X175721505Y-119636401D01*
X175888599Y-119803495D01*
X176082170Y-119939035D01*
X176296337Y-120038903D01*
X176524592Y-120100063D01*
X176760000Y-120120659D01*
X176995408Y-120100063D01*
X177223663Y-120038903D01*
X177437830Y-119939035D01*
X177631401Y-119803495D01*
X177798495Y-119636401D01*
X177928730Y-119450405D01*
X177973048Y-119411540D01*
X178030305Y-119397529D01*
X178087562Y-119411540D01*
X178131880Y-119450405D01*
X178258784Y-119631643D01*
X178265721Y-119639909D01*
X178425090Y-119799278D01*
X178433356Y-119806215D01*
X178617991Y-119935498D01*
X178627323Y-119940886D01*
X178831602Y-120036143D01*
X178841736Y-120039831D01*
X179036219Y-120091943D01*
X179047448Y-120092311D01*
X179050000Y-120081369D01*
X179550000Y-120081369D01*
X179552551Y-120092311D01*
X179563780Y-120091943D01*
X179758263Y-120039831D01*
X179768397Y-120036143D01*
X179972676Y-119940886D01*
X179982008Y-119935498D01*
X180166643Y-119806215D01*
X180174909Y-119799278D01*
X180334278Y-119639909D01*
X180341215Y-119631643D01*
X180470498Y-119447008D01*
X180475886Y-119437676D01*
X180571143Y-119233397D01*
X180574831Y-119223263D01*
X180626943Y-119028780D01*
X180627311Y-119017551D01*
X180616369Y-119015000D01*
X179566326Y-119015000D01*
X179553450Y-119018450D01*
X179550000Y-119031326D01*
X179550000Y-120081369D01*
X179050000Y-120081369D01*
X179050000Y-118639000D01*
X179066613Y-118577000D01*
X179112000Y-118531613D01*
X179174000Y-118515000D01*
X180616369Y-118515000D01*
X180627311Y-118512448D01*
X180626943Y-118501219D01*
X180574831Y-118306736D01*
X180571143Y-118296602D01*
X180475889Y-118092332D01*
X180470491Y-118082982D01*
X180341215Y-117898357D01*
X180334280Y-117890092D01*
X180216053Y-117771865D01*
X180184757Y-117719119D01*
X180182568Y-117657825D01*
X180210022Y-117602981D01*
X180260398Y-117568003D01*
X180392331Y-117518796D01*
X180507546Y-117432546D01*
X180593796Y-117317331D01*
X180644091Y-117182483D01*
X180650500Y-117122873D01*
X180650499Y-115327128D01*
X180644091Y-115267517D01*
X180593796Y-115132669D01*
X180507546Y-115017454D01*
X180417030Y-114949694D01*
X180399431Y-114936519D01*
X180399430Y-114936518D01*
X180392331Y-114931204D01*
X180285442Y-114891337D01*
X180264752Y-114883620D01*
X180264750Y-114883619D01*
X180257483Y-114880909D01*
X180249770Y-114880079D01*
X180249767Y-114880079D01*
X180201180Y-114874855D01*
X180201169Y-114874854D01*
X180197873Y-114874500D01*
X180194550Y-114874500D01*
X178405439Y-114874500D01*
X178405420Y-114874500D01*
X178402128Y-114874501D01*
X178398850Y-114874853D01*
X178398838Y-114874854D01*
X178350231Y-114880079D01*
X178350225Y-114880080D01*
X178342517Y-114880909D01*
X178335252Y-114883618D01*
X178335246Y-114883620D01*
X178215980Y-114928104D01*
X178215978Y-114928104D01*
X178207669Y-114931204D01*
X178200572Y-114936516D01*
X178200568Y-114936519D01*
X178099550Y-115012141D01*
X178099546Y-115012144D01*
X178092454Y-115017454D01*
X178087144Y-115024546D01*
X178087141Y-115024550D01*
X178011519Y-115125568D01*
X178011516Y-115125572D01*
X178006204Y-115132669D01*
X178003104Y-115140978D01*
X178003105Y-115140978D01*
X177957189Y-115264083D01*
X177922210Y-115314462D01*
X177867365Y-115341915D01*
X177806072Y-115339726D01*
X177753326Y-115308430D01*
X177635232Y-115190336D01*
X177635230Y-115190334D01*
X177631401Y-115186505D01*
X177626970Y-115183402D01*
X177626966Y-115183399D01*
X177442259Y-115054066D01*
X177442257Y-115054064D01*
X177437830Y-115050965D01*
X177432933Y-115048681D01*
X177432927Y-115048678D01*
X177228572Y-114953386D01*
X177228570Y-114953385D01*
X177223663Y-114951097D01*
X177218438Y-114949697D01*
X177218430Y-114949694D01*
X177000634Y-114891337D01*
X177000630Y-114891336D01*
X176995408Y-114889937D01*
X176990020Y-114889465D01*
X176990017Y-114889465D01*
X176765395Y-114869813D01*
X176760000Y-114869341D01*
X176754605Y-114869813D01*
X176529982Y-114889465D01*
X176529977Y-114889465D01*
X176524592Y-114889937D01*
X176519371Y-114891335D01*
X176519365Y-114891337D01*
X176301569Y-114949694D01*
X176301557Y-114949698D01*
X176296337Y-114951097D01*
X176291432Y-114953383D01*
X176291427Y-114953386D01*
X176087081Y-115048675D01*
X176087077Y-115048677D01*
X176082171Y-115050965D01*
X176077738Y-115054068D01*
X176077731Y-115054073D01*
X175893034Y-115183399D01*
X175893029Y-115183402D01*
X175888599Y-115186505D01*
X175884775Y-115190328D01*
X175884769Y-115190334D01*
X175725334Y-115349769D01*
X175725328Y-115349775D01*
X175721505Y-115353599D01*
X175718402Y-115358029D01*
X175718399Y-115358034D01*
X175591575Y-115539159D01*
X175547257Y-115578025D01*
X175490000Y-115592036D01*
X175432743Y-115578025D01*
X175388425Y-115539159D01*
X175303629Y-115418057D01*
X175258495Y-115353599D01*
X175091401Y-115186505D01*
X175086970Y-115183402D01*
X175086966Y-115183399D01*
X174902259Y-115054066D01*
X174902257Y-115054064D01*
X174897830Y-115050965D01*
X174892933Y-115048681D01*
X174892927Y-115048678D01*
X174688572Y-114953386D01*
X174688570Y-114953385D01*
X174683663Y-114951097D01*
X174678438Y-114949697D01*
X174678430Y-114949694D01*
X174460634Y-114891337D01*
X174460630Y-114891336D01*
X174455408Y-114889937D01*
X174450020Y-114889465D01*
X174450017Y-114889465D01*
X174225395Y-114869813D01*
X174220000Y-114869341D01*
X174214605Y-114869813D01*
X173989982Y-114889465D01*
X173989977Y-114889465D01*
X173984592Y-114889937D01*
X173979371Y-114891335D01*
X173979365Y-114891337D01*
X173761569Y-114949694D01*
X173761557Y-114949698D01*
X173756337Y-114951097D01*
X173751432Y-114953383D01*
X173751427Y-114953386D01*
X173547081Y-115048675D01*
X173547077Y-115048677D01*
X173542171Y-115050965D01*
X173537738Y-115054068D01*
X173537731Y-115054073D01*
X173353034Y-115183399D01*
X173353029Y-115183402D01*
X173348599Y-115186505D01*
X173344775Y-115190328D01*
X173344769Y-115190334D01*
X173185334Y-115349769D01*
X173185328Y-115349775D01*
X173181505Y-115353599D01*
X173178402Y-115358029D01*
X173178399Y-115358034D01*
X173049073Y-115542731D01*
X173049068Y-115542738D01*
X173045965Y-115547171D01*
X173043677Y-115552077D01*
X173043675Y-115552081D01*
X172948386Y-115756427D01*
X172948383Y-115756432D01*
X172946097Y-115761337D01*
X172944698Y-115766557D01*
X172944694Y-115766569D01*
X172886337Y-115984365D01*
X172886335Y-115984371D01*
X172884937Y-115989592D01*
X172884465Y-115994977D01*
X172884465Y-115994982D01*
X172878072Y-116068057D01*
X172864341Y-116225000D01*
X172864813Y-116230395D01*
X172870946Y-116300500D01*
X172884937Y-116460408D01*
X172886336Y-116465630D01*
X172886337Y-116465634D01*
X172944694Y-116683430D01*
X172944697Y-116683438D01*
X172946097Y-116688663D01*
X172948385Y-116693570D01*
X172948386Y-116693572D01*
X173043678Y-116897927D01*
X173043681Y-116897933D01*
X173045965Y-116902830D01*
X173049064Y-116907257D01*
X173049066Y-116907259D01*
X173178399Y-117091966D01*
X173178402Y-117091970D01*
X173181505Y-117096401D01*
X173348599Y-117263495D01*
X173353032Y-117266599D01*
X173353038Y-117266604D01*
X173534158Y-117393425D01*
X173573024Y-117437743D01*
X173587035Y-117495000D01*
X173573024Y-117552257D01*
X173534160Y-117596574D01*
X173348599Y-117726505D01*
X173344775Y-117730328D01*
X173344769Y-117730334D01*
X173185334Y-117889769D01*
X173185328Y-117889775D01*
X173181505Y-117893599D01*
X173178402Y-117898029D01*
X173178399Y-117898034D01*
X173049073Y-118082731D01*
X173049068Y-118082738D01*
X173045965Y-118087171D01*
X173043677Y-118092077D01*
X173043675Y-118092081D01*
X172948386Y-118296427D01*
X172948383Y-118296432D01*
X172946097Y-118301337D01*
X172944698Y-118306557D01*
X172944694Y-118306569D01*
X172886337Y-118524365D01*
X172886335Y-118524371D01*
X172884937Y-118529592D01*
X172884465Y-118534977D01*
X172884465Y-118534982D01*
X172880789Y-118577000D01*
X172864341Y-118765000D01*
X161509793Y-118765000D01*
X161482533Y-118717784D01*
X161355871Y-118577112D01*
X161350613Y-118573292D01*
X161350611Y-118573290D01*
X161207988Y-118469669D01*
X161207987Y-118469668D01*
X161202730Y-118465849D01*
X161196792Y-118463205D01*
X161035745Y-118391501D01*
X161035740Y-118391499D01*
X161029803Y-118388856D01*
X161023444Y-118387504D01*
X161023440Y-118387503D01*
X160851008Y-118350852D01*
X160851005Y-118350851D01*
X160844646Y-118349500D01*
X160655354Y-118349500D01*
X160648995Y-118350851D01*
X160648991Y-118350852D01*
X160476559Y-118387503D01*
X160476552Y-118387505D01*
X160470197Y-118388856D01*
X160464262Y-118391498D01*
X160464254Y-118391501D01*
X160303207Y-118463205D01*
X160303202Y-118463207D01*
X160297270Y-118465849D01*
X160292016Y-118469665D01*
X160292011Y-118469669D01*
X160149388Y-118573290D01*
X160149381Y-118573295D01*
X160144129Y-118577112D01*
X160139784Y-118581937D01*
X160139779Y-118581942D01*
X160021813Y-118712956D01*
X160021808Y-118712962D01*
X160017467Y-118717784D01*
X160014222Y-118723404D01*
X160014218Y-118723410D01*
X159926069Y-118876089D01*
X159926066Y-118876094D01*
X159922821Y-118881716D01*
X159920815Y-118887888D01*
X159920813Y-118887894D01*
X159866333Y-119055564D01*
X159866331Y-119055573D01*
X159864326Y-119061744D01*
X159863648Y-119068194D01*
X159863646Y-119068204D01*
X159846783Y-119228663D01*
X159844540Y-119250000D01*
X149800000Y-119250000D01*
X149800000Y-114750000D01*
X150344540Y-114750000D01*
X150345219Y-114756460D01*
X150363646Y-114931795D01*
X150363647Y-114931803D01*
X150364326Y-114938256D01*
X150366331Y-114944428D01*
X150366333Y-114944435D01*
X150420501Y-115111144D01*
X150422821Y-115118284D01*
X150426068Y-115123908D01*
X150426069Y-115123910D01*
X150508980Y-115267517D01*
X150517467Y-115282216D01*
X150521811Y-115287041D01*
X150521813Y-115287043D01*
X150557905Y-115327127D01*
X150644129Y-115422888D01*
X150797270Y-115534151D01*
X150970197Y-115611144D01*
X151155354Y-115650500D01*
X151338143Y-115650500D01*
X151344646Y-115650500D01*
X151529803Y-115611144D01*
X151702730Y-115534151D01*
X151855871Y-115422888D01*
X151876480Y-115400000D01*
X162094540Y-115400000D01*
X162095219Y-115406460D01*
X162113646Y-115581795D01*
X162113647Y-115581803D01*
X162114326Y-115588256D01*
X162116331Y-115594428D01*
X162116333Y-115594435D01*
X162170813Y-115762105D01*
X162172821Y-115768284D01*
X162176068Y-115773908D01*
X162176069Y-115773910D01*
X162197912Y-115811744D01*
X162267467Y-115932216D01*
X162271811Y-115937041D01*
X162271813Y-115937043D01*
X162389779Y-116068057D01*
X162394129Y-116072888D01*
X162547270Y-116184151D01*
X162720197Y-116261144D01*
X162905354Y-116300500D01*
X163088143Y-116300500D01*
X163094646Y-116300500D01*
X163279803Y-116261144D01*
X163452730Y-116184151D01*
X163605871Y-116072888D01*
X163732533Y-115932216D01*
X163827179Y-115768284D01*
X163885674Y-115588256D01*
X163905460Y-115400000D01*
X163885674Y-115211744D01*
X163827179Y-115031716D01*
X163732533Y-114867784D01*
X163605871Y-114727112D01*
X163600613Y-114723292D01*
X163600611Y-114723290D01*
X163457988Y-114619669D01*
X163457987Y-114619668D01*
X163452730Y-114615849D01*
X163446792Y-114613205D01*
X163285745Y-114541501D01*
X163285740Y-114541499D01*
X163279803Y-114538856D01*
X163273444Y-114537504D01*
X163273440Y-114537503D01*
X163101008Y-114500852D01*
X163101005Y-114500851D01*
X163094646Y-114499500D01*
X162905354Y-114499500D01*
X162898995Y-114500851D01*
X162898991Y-114500852D01*
X162726559Y-114537503D01*
X162726552Y-114537505D01*
X162720197Y-114538856D01*
X162714262Y-114541498D01*
X162714254Y-114541501D01*
X162553207Y-114613205D01*
X162553202Y-114613207D01*
X162547270Y-114615849D01*
X162542016Y-114619665D01*
X162542011Y-114619669D01*
X162399388Y-114723290D01*
X162399381Y-114723295D01*
X162394129Y-114727112D01*
X162389784Y-114731937D01*
X162389779Y-114731942D01*
X162271813Y-114862956D01*
X162271808Y-114862962D01*
X162267467Y-114867784D01*
X162264222Y-114873404D01*
X162264218Y-114873410D01*
X162176069Y-115026089D01*
X162176066Y-115026094D01*
X162172821Y-115031716D01*
X162170815Y-115037888D01*
X162170813Y-115037894D01*
X162116333Y-115205564D01*
X162116331Y-115205573D01*
X162114326Y-115211744D01*
X162113648Y-115218194D01*
X162113646Y-115218204D01*
X162102199Y-115327127D01*
X162094540Y-115400000D01*
X151876480Y-115400000D01*
X151982533Y-115282216D01*
X152077179Y-115118284D01*
X152135674Y-114938256D01*
X152155460Y-114750000D01*
X152135674Y-114561744D01*
X152077179Y-114381716D01*
X151982533Y-114217784D01*
X151855871Y-114077112D01*
X151850613Y-114073292D01*
X151850611Y-114073290D01*
X151707988Y-113969669D01*
X151707987Y-113969668D01*
X151702730Y-113965849D01*
X151696792Y-113963205D01*
X151535745Y-113891501D01*
X151535740Y-113891499D01*
X151529803Y-113888856D01*
X151523444Y-113887504D01*
X151523440Y-113887503D01*
X151351008Y-113850852D01*
X151351005Y-113850851D01*
X151344646Y-113849500D01*
X151155354Y-113849500D01*
X151148995Y-113850851D01*
X151148991Y-113850852D01*
X150976559Y-113887503D01*
X150976552Y-113887505D01*
X150970197Y-113888856D01*
X150964262Y-113891498D01*
X150964254Y-113891501D01*
X150803207Y-113963205D01*
X150803202Y-113963207D01*
X150797270Y-113965849D01*
X150792016Y-113969665D01*
X150792011Y-113969669D01*
X150649388Y-114073290D01*
X150649381Y-114073295D01*
X150644129Y-114077112D01*
X150639784Y-114081937D01*
X150639779Y-114081942D01*
X150521813Y-114212956D01*
X150521808Y-114212962D01*
X150517467Y-114217784D01*
X150514222Y-114223404D01*
X150514218Y-114223410D01*
X150426069Y-114376089D01*
X150426066Y-114376094D01*
X150422821Y-114381716D01*
X150420815Y-114387888D01*
X150420813Y-114387894D01*
X150366333Y-114555564D01*
X150366331Y-114555573D01*
X150364326Y-114561744D01*
X150363648Y-114568194D01*
X150363646Y-114568204D01*
X150347347Y-114723290D01*
X150344540Y-114750000D01*
X149800000Y-114750000D01*
X149800000Y-111316326D01*
X149800000Y-111300000D01*
X149783674Y-111300000D01*
X134724000Y-111300000D01*
X134662000Y-111283387D01*
X134616613Y-111238000D01*
X134600000Y-111176000D01*
X134600000Y-106724000D01*
X134616613Y-106662000D01*
X134662000Y-106616613D01*
X134724000Y-106600000D01*
X153382889Y-106600000D01*
X153441103Y-106614514D01*
X153485690Y-106654660D01*
X153506210Y-106711038D01*
X153512262Y-106768617D01*
X153514326Y-106788256D01*
X153516331Y-106794428D01*
X153516333Y-106794435D01*
X153570813Y-106962105D01*
X153572821Y-106968284D01*
X153576068Y-106973908D01*
X153576069Y-106973910D01*
X153599420Y-107014356D01*
X153667467Y-107132216D01*
X153671811Y-107137041D01*
X153671813Y-107137043D01*
X153730852Y-107202612D01*
X153794129Y-107272888D01*
X153947270Y-107384151D01*
X154120196Y-107461143D01*
X154120197Y-107461144D01*
X154120108Y-107461342D01*
X154167193Y-107490534D01*
X154197308Y-107541452D01*
X154200405Y-107600528D01*
X154175780Y-107654316D01*
X154129038Y-107690573D01*
X154072270Y-107715849D01*
X154067016Y-107719665D01*
X154067011Y-107719669D01*
X153924388Y-107823290D01*
X153924381Y-107823295D01*
X153919129Y-107827112D01*
X153914784Y-107831937D01*
X153914779Y-107831942D01*
X153796813Y-107962956D01*
X153796808Y-107962962D01*
X153792467Y-107967784D01*
X153789222Y-107973404D01*
X153789218Y-107973410D01*
X153701069Y-108126089D01*
X153701066Y-108126094D01*
X153697821Y-108131716D01*
X153695815Y-108137888D01*
X153695813Y-108137894D01*
X153641333Y-108305564D01*
X153641331Y-108305573D01*
X153639326Y-108311744D01*
X153638648Y-108318194D01*
X153638646Y-108318204D01*
X153620962Y-108486464D01*
X153619540Y-108500000D01*
X153620219Y-108506460D01*
X153638646Y-108681795D01*
X153638647Y-108681803D01*
X153639326Y-108688256D01*
X153641331Y-108694428D01*
X153641333Y-108694435D01*
X153695813Y-108862105D01*
X153697821Y-108868284D01*
X153701068Y-108873908D01*
X153701069Y-108873910D01*
X153788929Y-109026089D01*
X153792467Y-109032216D01*
X153796811Y-109037041D01*
X153796813Y-109037043D01*
X153876991Y-109126089D01*
X153919129Y-109172888D01*
X154072270Y-109284151D01*
X154245197Y-109361144D01*
X154315986Y-109376190D01*
X154327839Y-109378710D01*
X154386942Y-109409608D01*
X154421490Y-109466654D01*
X154421490Y-109533346D01*
X154386942Y-109590392D01*
X154327839Y-109621290D01*
X154251559Y-109637503D01*
X154251552Y-109637505D01*
X154245197Y-109638856D01*
X154239262Y-109641498D01*
X154239254Y-109641501D01*
X154078207Y-109713205D01*
X154078202Y-109713207D01*
X154072270Y-109715849D01*
X154067016Y-109719665D01*
X154067011Y-109719669D01*
X153924388Y-109823290D01*
X153924381Y-109823295D01*
X153919129Y-109827112D01*
X153914784Y-109831937D01*
X153914779Y-109831942D01*
X153796813Y-109962956D01*
X153796808Y-109962962D01*
X153792467Y-109967784D01*
X153789222Y-109973404D01*
X153789218Y-109973410D01*
X153701069Y-110126089D01*
X153701066Y-110126094D01*
X153697821Y-110131716D01*
X153695815Y-110137888D01*
X153695813Y-110137894D01*
X153641333Y-110305564D01*
X153641331Y-110305573D01*
X153639326Y-110311744D01*
X153638648Y-110318194D01*
X153638646Y-110318204D01*
X153620962Y-110486464D01*
X153619540Y-110500000D01*
X153620219Y-110506460D01*
X153638646Y-110681795D01*
X153638647Y-110681803D01*
X153639326Y-110688256D01*
X153641331Y-110694428D01*
X153641333Y-110694435D01*
X153695813Y-110862105D01*
X153697821Y-110868284D01*
X153792467Y-111032216D01*
X153919129Y-111172888D01*
X154072270Y-111284151D01*
X154245197Y-111361144D01*
X154430354Y-111400500D01*
X154613143Y-111400500D01*
X154619646Y-111400500D01*
X154804803Y-111361144D01*
X154977730Y-111284151D01*
X155130871Y-111172888D01*
X155257533Y-111032216D01*
X155352179Y-110868284D01*
X155410674Y-110688256D01*
X155430460Y-110500000D01*
X155410674Y-110311744D01*
X155352179Y-110131716D01*
X155257533Y-109967784D01*
X155130871Y-109827112D01*
X155125613Y-109823292D01*
X155125611Y-109823290D01*
X154982988Y-109719669D01*
X154982987Y-109719668D01*
X154977730Y-109715849D01*
X154933522Y-109696166D01*
X154810745Y-109641501D01*
X154810740Y-109641499D01*
X154804803Y-109638856D01*
X154798447Y-109637505D01*
X154798441Y-109637503D01*
X154736084Y-109624249D01*
X154722159Y-109621289D01*
X154663057Y-109590392D01*
X154628509Y-109533346D01*
X154628509Y-109466654D01*
X154663057Y-109409608D01*
X154722159Y-109378710D01*
X154804803Y-109361144D01*
X154977730Y-109284151D01*
X155130871Y-109172888D01*
X155257533Y-109032216D01*
X155352179Y-108868284D01*
X155410674Y-108688256D01*
X155430460Y-108500000D01*
X155410674Y-108311744D01*
X155352179Y-108131716D01*
X155257533Y-107967784D01*
X155174440Y-107875500D01*
X158094540Y-107875500D01*
X158095219Y-107881960D01*
X158113646Y-108057295D01*
X158113647Y-108057303D01*
X158114326Y-108063756D01*
X158116331Y-108069928D01*
X158116333Y-108069935D01*
X158138415Y-108137894D01*
X158172821Y-108243784D01*
X158176068Y-108249408D01*
X158176069Y-108249410D01*
X158212057Y-108311744D01*
X158267467Y-108407716D01*
X158394129Y-108548388D01*
X158399388Y-108552209D01*
X158404215Y-108556555D01*
X158402461Y-108558502D01*
X158437201Y-108602981D01*
X158444340Y-108670958D01*
X158414375Y-108732391D01*
X158329088Y-108827112D01*
X158292467Y-108867784D01*
X158289222Y-108873404D01*
X158289218Y-108873410D01*
X158201069Y-109026089D01*
X158201066Y-109026094D01*
X158197821Y-109031716D01*
X158195815Y-109037888D01*
X158195813Y-109037894D01*
X158141333Y-109205564D01*
X158141331Y-109205573D01*
X158139326Y-109211744D01*
X158138648Y-109218194D01*
X158138646Y-109218204D01*
X158127381Y-109325395D01*
X158119540Y-109400000D01*
X158120219Y-109406460D01*
X158138646Y-109581795D01*
X158138647Y-109581803D01*
X158139326Y-109588256D01*
X158141331Y-109594428D01*
X158141333Y-109594435D01*
X158195813Y-109762105D01*
X158197821Y-109768284D01*
X158201068Y-109773908D01*
X158201069Y-109773910D01*
X158229578Y-109823290D01*
X158292467Y-109932216D01*
X158296811Y-109937041D01*
X158296813Y-109937043D01*
X158386854Y-110037043D01*
X158419129Y-110072888D01*
X158572270Y-110184151D01*
X158745197Y-110261144D01*
X158930354Y-110300500D01*
X159113143Y-110300500D01*
X159119646Y-110300500D01*
X159304803Y-110261144D01*
X159477730Y-110184151D01*
X159630871Y-110072888D01*
X159757533Y-109932216D01*
X159852179Y-109768284D01*
X159910674Y-109588256D01*
X159930460Y-109400000D01*
X159918284Y-109284151D01*
X159911353Y-109218204D01*
X159911352Y-109218203D01*
X159910674Y-109211744D01*
X159852179Y-109031716D01*
X159757533Y-108867784D01*
X159630871Y-108727112D01*
X159625611Y-108723291D01*
X159620785Y-108718945D01*
X159622535Y-108717000D01*
X159587792Y-108672504D01*
X159580660Y-108604533D01*
X159610623Y-108543109D01*
X159649439Y-108500000D01*
X170369540Y-108500000D01*
X170370219Y-108506460D01*
X170388646Y-108681795D01*
X170388647Y-108681803D01*
X170389326Y-108688256D01*
X170391331Y-108694428D01*
X170391333Y-108694435D01*
X170445813Y-108862105D01*
X170447821Y-108868284D01*
X170451068Y-108873908D01*
X170451069Y-108873910D01*
X170538929Y-109026089D01*
X170542467Y-109032216D01*
X170546811Y-109037041D01*
X170546813Y-109037043D01*
X170626991Y-109126089D01*
X170669129Y-109172888D01*
X170822270Y-109284151D01*
X170995197Y-109361144D01*
X171180354Y-109400500D01*
X171363143Y-109400500D01*
X171369646Y-109400500D01*
X171554803Y-109361144D01*
X171727730Y-109284151D01*
X171880871Y-109172888D01*
X172007533Y-109032216D01*
X172102179Y-108868284D01*
X172160674Y-108688256D01*
X172180460Y-108500000D01*
X172160674Y-108311744D01*
X172102179Y-108131716D01*
X172007533Y-107967784D01*
X171880871Y-107827112D01*
X171875613Y-107823292D01*
X171875611Y-107823290D01*
X171732988Y-107719669D01*
X171732987Y-107719668D01*
X171727730Y-107715849D01*
X171721792Y-107713205D01*
X171560745Y-107641501D01*
X171560740Y-107641499D01*
X171554803Y-107638856D01*
X171548444Y-107637504D01*
X171548440Y-107637503D01*
X171376008Y-107600852D01*
X171376005Y-107600851D01*
X171369646Y-107599500D01*
X171180354Y-107599500D01*
X171173995Y-107600851D01*
X171173991Y-107600852D01*
X171001559Y-107637503D01*
X171001552Y-107637505D01*
X170995197Y-107638856D01*
X170989262Y-107641498D01*
X170989254Y-107641501D01*
X170828207Y-107713205D01*
X170828202Y-107713207D01*
X170822270Y-107715849D01*
X170817016Y-107719665D01*
X170817011Y-107719669D01*
X170674388Y-107823290D01*
X170674381Y-107823295D01*
X170669129Y-107827112D01*
X170664784Y-107831937D01*
X170664779Y-107831942D01*
X170546813Y-107962956D01*
X170546808Y-107962962D01*
X170542467Y-107967784D01*
X170539222Y-107973404D01*
X170539218Y-107973410D01*
X170451069Y-108126089D01*
X170451066Y-108126094D01*
X170447821Y-108131716D01*
X170445815Y-108137888D01*
X170445813Y-108137894D01*
X170391333Y-108305564D01*
X170391331Y-108305573D01*
X170389326Y-108311744D01*
X170388648Y-108318194D01*
X170388646Y-108318204D01*
X170370962Y-108486464D01*
X170369540Y-108500000D01*
X159649439Y-108500000D01*
X159732533Y-108407716D01*
X159827179Y-108243784D01*
X159885674Y-108063756D01*
X159905460Y-107875500D01*
X159885674Y-107687244D01*
X159827179Y-107507216D01*
X159732533Y-107343284D01*
X159672588Y-107276709D01*
X159610220Y-107207442D01*
X159610219Y-107207441D01*
X159605871Y-107202612D01*
X159600613Y-107198792D01*
X159600611Y-107198790D01*
X159457988Y-107095169D01*
X159457987Y-107095168D01*
X159452730Y-107091349D01*
X159446792Y-107088705D01*
X159285745Y-107017001D01*
X159285740Y-107016999D01*
X159279803Y-107014356D01*
X159273444Y-107013004D01*
X159273440Y-107013003D01*
X159101008Y-106976352D01*
X159101005Y-106976351D01*
X159094646Y-106975000D01*
X158905354Y-106975000D01*
X158898995Y-106976351D01*
X158898991Y-106976352D01*
X158726559Y-107013003D01*
X158726552Y-107013005D01*
X158720197Y-107014356D01*
X158714262Y-107016998D01*
X158714254Y-107017001D01*
X158553207Y-107088705D01*
X158553202Y-107088707D01*
X158547270Y-107091349D01*
X158542016Y-107095165D01*
X158542011Y-107095169D01*
X158399388Y-107198790D01*
X158399381Y-107198795D01*
X158394129Y-107202612D01*
X158389784Y-107207437D01*
X158389779Y-107207442D01*
X158271813Y-107338456D01*
X158271808Y-107338462D01*
X158267467Y-107343284D01*
X158264222Y-107348904D01*
X158264218Y-107348910D01*
X158176069Y-107501589D01*
X158176066Y-107501594D01*
X158172821Y-107507216D01*
X158170815Y-107513388D01*
X158170813Y-107513394D01*
X158116333Y-107681064D01*
X158116331Y-107681073D01*
X158114326Y-107687244D01*
X158113648Y-107693694D01*
X158113646Y-107693704D01*
X158099118Y-107831942D01*
X158094540Y-107875500D01*
X155174440Y-107875500D01*
X155130871Y-107827112D01*
X155125613Y-107823292D01*
X155125611Y-107823290D01*
X154982988Y-107719669D01*
X154982987Y-107719668D01*
X154977730Y-107715849D01*
X154804803Y-107638856D01*
X154804803Y-107638855D01*
X154804890Y-107638658D01*
X154757800Y-107609459D01*
X154727689Y-107558541D01*
X154724595Y-107499466D01*
X154749221Y-107445680D01*
X154795960Y-107409426D01*
X154852730Y-107384151D01*
X155005871Y-107272888D01*
X155132533Y-107132216D01*
X155227179Y-106968284D01*
X155285674Y-106788256D01*
X155293790Y-106711038D01*
X155314310Y-106654660D01*
X155358897Y-106614514D01*
X155417111Y-106600000D01*
X162283674Y-106600000D01*
X162300000Y-106600000D01*
X162300000Y-102750000D01*
X163869540Y-102750000D01*
X163870219Y-102756460D01*
X163888646Y-102931795D01*
X163888647Y-102931803D01*
X163889326Y-102938256D01*
X163891331Y-102944428D01*
X163891333Y-102944435D01*
X163945813Y-103112105D01*
X163947821Y-103118284D01*
X163951068Y-103123908D01*
X163951069Y-103123910D01*
X164013073Y-103231305D01*
X164042467Y-103282216D01*
X164169129Y-103422888D01*
X164322270Y-103534151D01*
X164495197Y-103611144D01*
X164680354Y-103650500D01*
X164863143Y-103650500D01*
X164869646Y-103650500D01*
X165054803Y-103611144D01*
X165227730Y-103534151D01*
X165380871Y-103422888D01*
X165507533Y-103282216D01*
X165602179Y-103118284D01*
X165660674Y-102938256D01*
X165680460Y-102750000D01*
X165660674Y-102561744D01*
X165602179Y-102381716D01*
X165507533Y-102217784D01*
X165380871Y-102077112D01*
X165375613Y-102073292D01*
X165375611Y-102073290D01*
X165232988Y-101969669D01*
X165232987Y-101969668D01*
X165227730Y-101965849D01*
X165221792Y-101963205D01*
X165060745Y-101891501D01*
X165060740Y-101891499D01*
X165054803Y-101888856D01*
X165048444Y-101887504D01*
X165048440Y-101887503D01*
X164876008Y-101850852D01*
X164876005Y-101850851D01*
X164869646Y-101849500D01*
X164680354Y-101849500D01*
X164673995Y-101850851D01*
X164673991Y-101850852D01*
X164501559Y-101887503D01*
X164501552Y-101887505D01*
X164495197Y-101888856D01*
X164489262Y-101891498D01*
X164489254Y-101891501D01*
X164328207Y-101963205D01*
X164328202Y-101963207D01*
X164322270Y-101965849D01*
X164317016Y-101969665D01*
X164317011Y-101969669D01*
X164174388Y-102073290D01*
X164174381Y-102073295D01*
X164169129Y-102077112D01*
X164164784Y-102081937D01*
X164164779Y-102081942D01*
X164046813Y-102212956D01*
X164046808Y-102212962D01*
X164042467Y-102217784D01*
X164039222Y-102223404D01*
X164039218Y-102223410D01*
X163951069Y-102376089D01*
X163951066Y-102376094D01*
X163947821Y-102381716D01*
X163945815Y-102387888D01*
X163945813Y-102387894D01*
X163891333Y-102555564D01*
X163891331Y-102555573D01*
X163889326Y-102561744D01*
X163888648Y-102568194D01*
X163888646Y-102568204D01*
X163870962Y-102736464D01*
X163869540Y-102750000D01*
X162300000Y-102750000D01*
X162300000Y-96924000D01*
X162316613Y-96862000D01*
X162362000Y-96816613D01*
X162424000Y-96800000D01*
X176575293Y-96800000D01*
X176637496Y-96816730D01*
G37*
%TD.AperFunction*%
%TD*%
M02*
