%TF.GenerationSoftware,KiCad,Pcbnew,(7.0.0)*%
%TF.CreationDate,2023-05-16T07:50:31+02:00*%
%TF.ProjectId,MamaGeburtstag2023,4d616d61-4765-4627-9572-747374616732,rev?*%
%TF.SameCoordinates,Original*%
%TF.FileFunction,Paste,Top*%
%TF.FilePolarity,Positive*%
%FSLAX46Y46*%
G04 Gerber Fmt 4.6, Leading zero omitted, Abs format (unit mm)*
G04 Created by KiCad (PCBNEW (7.0.0)) date 2023-05-16 07:50:31*
%MOMM*%
%LPD*%
G01*
G04 APERTURE LIST*
G04 Aperture macros list*
%AMRoundRect*
0 Rectangle with rounded corners*
0 $1 Rounding radius*
0 $2 $3 $4 $5 $6 $7 $8 $9 X,Y pos of 4 corners*
0 Add a 4 corners polygon primitive as box body*
4,1,4,$2,$3,$4,$5,$6,$7,$8,$9,$2,$3,0*
0 Add four circle primitives for the rounded corners*
1,1,$1+$1,$2,$3*
1,1,$1+$1,$4,$5*
1,1,$1+$1,$6,$7*
1,1,$1+$1,$8,$9*
0 Add four rect primitives between the rounded corners*
20,1,$1+$1,$2,$3,$4,$5,0*
20,1,$1+$1,$4,$5,$6,$7,0*
20,1,$1+$1,$6,$7,$8,$9,0*
20,1,$1+$1,$8,$9,$2,$3,0*%
G04 Aperture macros list end*
%ADD10RoundRect,0.225000X0.225000X0.250000X-0.225000X0.250000X-0.225000X-0.250000X0.225000X-0.250000X0*%
%ADD11RoundRect,0.225000X-0.250000X0.225000X-0.250000X-0.225000X0.250000X-0.225000X0.250000X0.225000X0*%
%ADD12RoundRect,0.225000X0.250000X-0.225000X0.250000X0.225000X-0.250000X0.225000X-0.250000X-0.225000X0*%
%ADD13RoundRect,0.218750X-0.256250X0.218750X-0.256250X-0.218750X0.256250X-0.218750X0.256250X0.218750X0*%
%ADD14RoundRect,0.200000X0.275000X-0.200000X0.275000X0.200000X-0.275000X0.200000X-0.275000X-0.200000X0*%
%ADD15RoundRect,0.200000X0.200000X0.275000X-0.200000X0.275000X-0.200000X-0.275000X0.200000X-0.275000X0*%
%ADD16R,1.600000X1.400000*%
%ADD17RoundRect,0.172500X0.262500X0.172500X-0.262500X0.172500X-0.262500X-0.172500X0.262500X-0.172500X0*%
%ADD18RoundRect,0.093750X0.093750X0.106250X-0.093750X0.106250X-0.093750X-0.106250X0.093750X-0.106250X0*%
%ADD19RoundRect,0.200000X-0.275000X0.200000X-0.275000X-0.200000X0.275000X-0.200000X0.275000X0.200000X0*%
%ADD20R,1.500000X2.000000*%
%ADD21RoundRect,0.182500X0.182500X0.182500X-0.182500X0.182500X-0.182500X-0.182500X0.182500X-0.182500X0*%
%ADD22RoundRect,0.062500X0.350000X0.062500X-0.350000X0.062500X-0.350000X-0.062500X0.350000X-0.062500X0*%
%ADD23RoundRect,0.062500X0.062500X0.350000X-0.062500X0.350000X-0.062500X-0.350000X0.062500X-0.350000X0*%
%ADD24RoundRect,0.150000X-0.587500X-0.150000X0.587500X-0.150000X0.587500X0.150000X-0.587500X0.150000X0*%
%ADD25RoundRect,0.250000X-0.650000X1.000000X-0.650000X-1.000000X0.650000X-1.000000X0.650000X1.000000X0*%
%ADD26RoundRect,0.250000X1.000000X0.650000X-1.000000X0.650000X-1.000000X-0.650000X1.000000X-0.650000X0*%
%ADD27R,1.600000X0.550000*%
%ADD28R,0.550000X1.600000*%
%ADD29RoundRect,0.200000X-0.200000X-0.275000X0.200000X-0.275000X0.200000X0.275000X-0.200000X0.275000X0*%
%ADD30RoundRect,0.225000X-0.225000X-0.250000X0.225000X-0.250000X0.225000X0.250000X-0.225000X0.250000X0*%
%ADD31R,0.620000X0.575000*%
%ADD32RoundRect,0.150000X0.587500X0.150000X-0.587500X0.150000X-0.587500X-0.150000X0.587500X-0.150000X0*%
%ADD33R,0.450000X1.500000*%
G04 APERTURE END LIST*
D10*
%TO.C,C207*%
X145525000Y-116000000D03*
X143975000Y-116000000D03*
%TD*%
D11*
%TO.C,C302*%
X130500000Y-116975000D03*
X130500000Y-118525000D03*
%TD*%
D10*
%TO.C,C303*%
X135000000Y-116000000D03*
X133450000Y-116000000D03*
%TD*%
D11*
%TO.C,C208*%
X147000000Y-119225000D03*
X147000000Y-120775000D03*
%TD*%
D12*
%TO.C,C205*%
X150775000Y-117775000D03*
X150775000Y-116225000D03*
%TD*%
D13*
%TO.C,D101*%
X142350000Y-127937500D03*
X142350000Y-129512500D03*
%TD*%
D14*
%TO.C,R303*%
X112500000Y-117500000D03*
X112500000Y-115850000D03*
%TD*%
D15*
%TO.C,R102*%
X153000000Y-138000000D03*
X151350000Y-138000000D03*
%TD*%
D16*
%TO.C,Y202*%
X157674999Y-114349999D03*
X153874999Y-114349999D03*
X153874999Y-116649999D03*
X157674999Y-116649999D03*
%TD*%
D10*
%TO.C,C101*%
X144125000Y-138000000D03*
X142575000Y-138000000D03*
%TD*%
D14*
%TO.C,R304*%
X132000000Y-133825000D03*
X132000000Y-132175000D03*
%TD*%
%TO.C,R204*%
X120025000Y-111025000D03*
X120025000Y-109375000D03*
%TD*%
D17*
%TO.C,U202*%
X144000000Y-119300000D03*
X144000000Y-118500000D03*
D18*
X144887500Y-119550000D03*
X144887500Y-118900000D03*
X144887500Y-118250000D03*
X143112500Y-118250000D03*
X143112500Y-118900000D03*
X143112500Y-119550000D03*
%TD*%
D19*
%TO.C,R305*%
X143500000Y-148675000D03*
X143500000Y-150325000D03*
%TD*%
D20*
%TO.C,LS201*%
X130974999Y-105199999D03*
X121074999Y-105199999D03*
X121074999Y-98799999D03*
X130974999Y-98799999D03*
%TD*%
D21*
%TO.C,U102*%
X148170000Y-133920000D03*
X148170000Y-133080000D03*
X147330000Y-133920000D03*
X147330000Y-133080000D03*
D22*
X149212500Y-134250000D03*
X149212500Y-133750000D03*
X149212500Y-133250000D03*
X149212500Y-132750000D03*
D23*
X148500000Y-132037500D03*
X148000000Y-132037500D03*
X147500000Y-132037500D03*
X147000000Y-132037500D03*
D22*
X146287500Y-132750000D03*
X146287500Y-133250000D03*
X146287500Y-133750000D03*
X146287500Y-134250000D03*
D23*
X147000000Y-134962500D03*
X147500000Y-134962500D03*
X148000000Y-134962500D03*
X148500000Y-134962500D03*
%TD*%
D11*
%TO.C,C206*%
X141000000Y-116975000D03*
X141000000Y-118525000D03*
%TD*%
D24*
%TO.C,Q201*%
X122287500Y-109650000D03*
X122287500Y-111550000D03*
X124162500Y-110600000D03*
%TD*%
D19*
%TO.C,R307*%
X182500000Y-107675000D03*
X182500000Y-109325000D03*
%TD*%
D15*
%TO.C,R302*%
X129500000Y-92000000D03*
X127850000Y-92000000D03*
%TD*%
D25*
%TO.C,D201*%
X141500000Y-109000000D03*
X141500000Y-113000000D03*
%TD*%
D14*
%TO.C,R306*%
X164000000Y-134170000D03*
X164000000Y-132520000D03*
%TD*%
D15*
%TO.C,R205*%
X121650000Y-113600000D03*
X120000000Y-113600000D03*
%TD*%
D14*
%TO.C,R301*%
X152000000Y-103825000D03*
X152000000Y-102175000D03*
%TD*%
D16*
%TO.C,SW203*%
X123809999Y-125599999D03*
X131009999Y-125599999D03*
X123809999Y-128599999D03*
X131009999Y-128599999D03*
%TD*%
D26*
%TO.C,D202*%
X131225000Y-110600000D03*
X127225000Y-110600000D03*
%TD*%
D15*
%TO.C,R202*%
X157625000Y-104900000D03*
X155975000Y-104900000D03*
%TD*%
D27*
%TO.C,U201*%
X161024999Y-106199999D03*
X161024999Y-106999999D03*
X161024999Y-107799999D03*
X161024999Y-108599999D03*
X161024999Y-109399999D03*
X161024999Y-110199999D03*
X161024999Y-110999999D03*
X161024999Y-111799999D03*
D28*
X162474999Y-113249999D03*
X163274999Y-113249999D03*
X164074999Y-113249999D03*
X164874999Y-113249999D03*
X165674999Y-113249999D03*
X166474999Y-113249999D03*
X167274999Y-113249999D03*
X168074999Y-113249999D03*
D27*
X169524999Y-111799999D03*
X169524999Y-110999999D03*
X169524999Y-110199999D03*
X169524999Y-109399999D03*
X169524999Y-108599999D03*
X169524999Y-107799999D03*
X169524999Y-106999999D03*
X169524999Y-106199999D03*
D28*
X168074999Y-104749999D03*
X167274999Y-104749999D03*
X166474999Y-104749999D03*
X165674999Y-104749999D03*
X164874999Y-104749999D03*
X164074999Y-104749999D03*
X163274999Y-104749999D03*
X162474999Y-104749999D03*
%TD*%
D15*
%TO.C,R103*%
X153000000Y-136000000D03*
X151350000Y-136000000D03*
%TD*%
D14*
%TO.C,R105*%
X140350000Y-133050000D03*
X140350000Y-131400000D03*
%TD*%
D29*
%TO.C,R101*%
X142525000Y-136000000D03*
X144175000Y-136000000D03*
%TD*%
D10*
%TO.C,C209*%
X157550000Y-110500000D03*
X156000000Y-110500000D03*
%TD*%
D14*
%TO.C,R201*%
X164775000Y-101325000D03*
X164775000Y-99675000D03*
%TD*%
D17*
%TO.C,U301*%
X133500000Y-119300000D03*
X133500000Y-118500000D03*
D18*
X134387500Y-119550000D03*
X134387500Y-118900000D03*
X134387500Y-118250000D03*
X132612500Y-118250000D03*
X132612500Y-118900000D03*
X132612500Y-119550000D03*
%TD*%
D30*
%TO.C,C203*%
X172725000Y-109500000D03*
X174275000Y-109500000D03*
%TD*%
%TO.C,C103*%
X151575000Y-130000000D03*
X153125000Y-130000000D03*
%TD*%
D16*
%TO.C,SW202*%
X164799999Y-125599999D03*
X171999999Y-125599999D03*
X164799999Y-128599999D03*
X171999999Y-128599999D03*
%TD*%
D12*
%TO.C,C102*%
X144350000Y-133000000D03*
X144350000Y-131450000D03*
%TD*%
D31*
%TO.C,Q101*%
X153299999Y-131811999D03*
X151399999Y-131811999D03*
X152349999Y-134187999D03*
%TD*%
D30*
%TO.C,C202*%
X172725000Y-112000000D03*
X174275000Y-112000000D03*
%TD*%
D11*
%TO.C,C301*%
X136250000Y-119225000D03*
X136250000Y-120775000D03*
%TD*%
D14*
%TO.C,R308*%
X176000000Y-92825000D03*
X176000000Y-91175000D03*
%TD*%
D15*
%TO.C,R203*%
X157625000Y-102900000D03*
X155975000Y-102900000D03*
%TD*%
D32*
%TO.C,Q301*%
X156037500Y-100850000D03*
X156037500Y-98950000D03*
X154162500Y-99900000D03*
%TD*%
D13*
%TO.C,D102*%
X140350000Y-127937500D03*
X140350000Y-129512500D03*
%TD*%
D10*
%TO.C,C201*%
X157550000Y-108500000D03*
X156000000Y-108500000D03*
%TD*%
D14*
%TO.C,R104*%
X142350000Y-133050000D03*
X142350000Y-131400000D03*
%TD*%
D11*
%TO.C,C204*%
X160775000Y-116225000D03*
X160775000Y-117775000D03*
%TD*%
D33*
%TO.C,J101*%
X146449999Y-141499999D03*
X147099999Y-141499999D03*
X147749999Y-141499999D03*
X148399999Y-141499999D03*
X149049999Y-141499999D03*
%TD*%
M02*
