%TF.GenerationSoftware,KiCad,Pcbnew,(7.0.0)*%
%TF.CreationDate,2023-05-16T07:50:38+02:00*%
%TF.ProjectId,MamaGeburtstag2023,4d616d61-4765-4627-9572-747374616732,rev?*%
%TF.SameCoordinates,Original*%
%TF.FileFunction,Drillmap*%
%TF.FilePolarity,Positive*%
%FSLAX45Y45*%
G04 Gerber Fmt 4.5, Leading zero omitted, Abs format (unit mm)*
G04 Created by KiCad (PCBNEW (7.0.0)) date 2023-05-16 07:50:38*
%MOMM*%
%LPD*%
G01*
G04 APERTURE LIST*
%ADD10C,1.984374*%
%ADD11C,0.200000*%
%ADD12C,0.030000*%
%ADD13C,0.040000*%
%ADD14C,0.090000*%
%ADD15C,0.100000*%
%ADD16C,0.121000*%
%ADD17C,0.130000*%
G04 APERTURE END LIST*
D10*
X16535000Y-14372830D02*
X16959380Y-14007783D01*
X18965174Y-10078250D02*
X18933068Y-9976289D01*
X18753140Y-12062116D02*
X18844328Y-11868031D01*
X17864472Y-8738726D02*
X17773281Y-8694872D01*
X11090966Y-9177053D02*
X11024051Y-9249109D01*
X18896313Y-9875872D02*
X18854864Y-9777183D01*
X15317067Y-15524576D02*
X15508220Y-15320731D01*
X11635662Y-8759211D02*
X11550634Y-8808843D01*
X11994799Y-8598326D02*
X11902435Y-8632676D01*
X12838699Y-8483606D02*
X12757276Y-8479803D01*
X13897479Y-8824139D02*
X13828828Y-8783498D01*
X16993568Y-8492331D02*
X16892682Y-8485999D01*
X10739248Y-9648466D02*
X10693201Y-9735367D01*
X15553476Y-8864460D02*
X15492823Y-8908381D01*
X14581891Y-15981376D02*
X14752416Y-16220261D01*
X14016467Y-15315158D02*
X14212888Y-15529788D01*
X14546410Y-9410252D02*
X14496644Y-9347321D01*
X12575501Y-8482279D02*
X12476245Y-8490339D01*
X13615147Y-8675669D02*
X13541560Y-8644586D01*
X12294758Y-13738805D02*
X13175311Y-14508572D01*
X14955864Y-15975538D02*
X15026431Y-15883948D01*
X18125116Y-8894284D02*
X18040579Y-8838462D01*
X14752416Y-16220261D02*
X14785317Y-16184164D01*
X18854864Y-9777183D02*
X18808675Y-9680409D01*
X19015627Y-10286060D02*
X18992679Y-10181569D01*
X13391229Y-8589998D02*
X13314614Y-8566591D01*
X14335373Y-9169428D02*
X14277838Y-9113925D01*
X13079748Y-8512495D02*
X13000000Y-8500000D01*
X15055484Y-9316669D02*
X15007861Y-9374447D01*
X16959380Y-14007783D02*
X17379053Y-13638476D01*
X11097026Y-12542260D02*
X11205080Y-12681872D01*
X19024706Y-11248645D02*
X19052546Y-11034751D01*
X18920229Y-11666769D02*
X18980478Y-11459812D01*
X14886538Y-16063546D02*
X14955864Y-15975538D01*
X14030532Y-8912177D02*
X13964736Y-8867048D01*
X14391061Y-9226861D02*
X14335373Y-9169428D01*
X15104837Y-9260331D02*
X15055484Y-9316669D01*
X15007861Y-9374447D02*
X14962038Y-9433641D01*
X17379053Y-13638476D02*
X17584516Y-13449656D01*
X11319754Y-12815965D02*
X11440619Y-12944163D01*
X13604927Y-14903407D02*
X13813470Y-15106686D01*
X16590024Y-8493036D02*
X16489772Y-8504159D01*
X12280289Y-8520332D02*
X12183862Y-8542042D01*
X10996019Y-12397503D02*
X11097026Y-12542260D01*
X13687598Y-8709215D02*
X13615147Y-8675669D01*
X15155849Y-9205458D02*
X15104837Y-9260331D01*
X14212888Y-15529788D02*
X14401705Y-15751539D01*
X11024051Y-9249109D02*
X10960271Y-9323920D01*
X10467679Y-10749489D02*
X10474680Y-10925064D01*
X13175311Y-14508572D02*
X13604927Y-14903407D01*
X18352876Y-12642642D02*
X18526377Y-12422818D01*
X18040579Y-8838462D02*
X17953635Y-8786599D01*
X11233656Y-9041652D02*
X11160881Y-9107863D01*
X13813470Y-15106686D02*
X14016467Y-15315158D01*
X10522233Y-11271656D02*
X10561929Y-11441924D01*
X14444840Y-9286174D02*
X14391061Y-9226861D01*
X17680253Y-8655067D02*
X17585577Y-8619342D01*
X15508220Y-15320731D02*
X15705498Y-15123010D01*
X10504832Y-10296548D02*
X10489367Y-10395661D01*
X10842666Y-9481357D02*
X10789115Y-9563759D01*
X16001820Y-8626954D02*
X15908222Y-8665159D01*
X15170480Y-15698585D02*
X15243557Y-15609091D01*
X18505024Y-9231739D02*
X18435380Y-9156569D01*
X15026431Y-15883948D02*
X15098037Y-15790917D01*
X14818654Y-16145834D02*
X14886538Y-16063546D01*
X18757701Y-9585734D02*
X18701894Y-9493344D01*
X16489772Y-8504159D02*
X16390153Y-8519721D01*
X12919629Y-8490354D02*
X12838699Y-8483606D01*
X14785317Y-16184164D02*
X14818654Y-16145834D01*
X18362377Y-9085208D02*
X18286205Y-9017687D01*
X17773281Y-8694872D02*
X17680253Y-8655067D01*
X10739559Y-11936113D02*
X10816858Y-12094054D01*
X10816858Y-12094054D02*
X10902487Y-12247976D01*
X18526377Y-12422818D02*
X18647034Y-12247539D01*
X15098037Y-15790917D02*
X15170480Y-15698585D01*
X16690720Y-8486321D02*
X16590024Y-8493036D01*
X14682831Y-9609267D02*
X14639567Y-9541273D01*
X16390153Y-8519721D02*
X16291359Y-8539751D01*
X18992679Y-10181569D02*
X18965174Y-10078250D01*
X18575602Y-9316161D02*
X18505024Y-9231739D01*
X12757276Y-8479803D02*
X12675423Y-8478995D01*
X14277838Y-9113925D02*
X14218523Y-9060400D01*
X18808675Y-9680409D02*
X18757701Y-9585734D01*
X10613118Y-9915299D02*
X10579356Y-10008107D01*
X13541560Y-8644586D02*
X13466899Y-8616013D01*
X15280270Y-15566078D02*
X15317067Y-15524576D01*
X17981481Y-13058551D02*
X18170896Y-12854210D01*
X15208451Y-9152075D02*
X15155849Y-9205458D01*
X10651112Y-9824348D02*
X10613118Y-9915299D01*
X10671020Y-11774527D02*
X10739559Y-11936113D01*
X14798165Y-9684078D02*
X14762404Y-9749978D01*
X19057593Y-10604714D02*
X19034065Y-10391538D01*
X14496644Y-9347321D02*
X14444840Y-9286174D01*
X11550634Y-8808843D02*
X11467783Y-8862016D01*
X14723798Y-9678851D02*
X14682831Y-9609267D01*
X12476245Y-8490339D02*
X12377795Y-8503061D01*
X11860274Y-13348449D02*
X12294758Y-13738805D01*
X18207055Y-8954036D02*
X18125116Y-8894284D01*
X12088653Y-8568077D02*
X11994799Y-8598326D01*
X10472432Y-10572897D02*
X10467679Y-10749489D01*
X13237120Y-8545839D02*
X13158810Y-8527791D01*
X14218523Y-9060400D02*
X14157490Y-9008902D01*
X16193578Y-8564280D02*
X16097002Y-8593338D01*
X14762404Y-9749978D02*
X14723798Y-9678851D01*
X10561929Y-11441924D02*
X10611667Y-11609673D01*
X11205080Y-12681872D02*
X11319754Y-12815965D01*
X18647034Y-12247539D02*
X18753140Y-12062116D01*
X13158810Y-8527791D02*
X13079748Y-8512495D01*
X14918087Y-9494226D02*
X14876077Y-9556177D01*
X17293565Y-8536940D02*
X17194199Y-8517831D01*
X15375084Y-9001116D02*
X15318139Y-9049879D01*
X14876077Y-9556177D02*
X14836080Y-9619469D01*
X10549963Y-10102659D02*
X10525076Y-10198843D01*
X18435380Y-9156569D02*
X18362377Y-9085208D01*
X11811700Y-8671015D02*
X11722730Y-8713231D01*
X13466899Y-8616013D02*
X13391229Y-8589998D01*
X16114258Y-14741834D02*
X16535000Y-14372830D01*
X10693201Y-9735367D02*
X10651112Y-9824348D01*
X14639567Y-9541273D02*
X14594072Y-9474919D01*
X18933068Y-9976289D02*
X18896313Y-9875872D01*
X11902435Y-8632676D02*
X11811700Y-8671015D01*
X11309156Y-8978533D02*
X11233656Y-9041652D01*
X15318139Y-9049879D02*
X15262571Y-9100207D01*
X15726540Y-8755453D02*
X15638836Y-8807603D01*
X14094806Y-8959478D02*
X14030532Y-8912177D01*
X15433335Y-8953942D02*
X15375084Y-9001116D01*
X18980478Y-11459812D02*
X19024706Y-11248645D01*
X18844328Y-11868031D02*
X18920229Y-11666769D01*
X16791669Y-8483985D02*
X16690720Y-8486321D01*
X13758846Y-8745174D02*
X13687598Y-8709215D01*
X12183862Y-8542042D02*
X12088653Y-8568077D01*
X10579356Y-10008107D02*
X10549963Y-10102659D01*
X18641210Y-9403425D02*
X18575602Y-9316161D01*
X17953635Y-8786599D02*
X17864472Y-8738726D01*
X18286205Y-9017687D02*
X18207055Y-8954036D01*
X15262571Y-9100207D02*
X15208451Y-9152075D01*
X10902487Y-12247976D02*
X10996019Y-12397503D01*
X15908222Y-8665159D02*
X15816399Y-8707982D01*
X17094137Y-8502951D02*
X16993568Y-8492331D01*
X10960271Y-9323920D02*
X10899763Y-9401374D01*
X16892682Y-8485999D02*
X16791669Y-8483985D01*
X13828828Y-8783498D02*
X13758846Y-8745174D01*
X10525076Y-10198843D02*
X10504832Y-10296548D01*
X11648078Y-13148529D02*
X11860274Y-13348449D01*
X11722730Y-8713231D02*
X11635662Y-8759211D01*
X11440619Y-12944163D02*
X11648078Y-13148529D01*
X18170896Y-12854210D02*
X18352876Y-12642642D01*
X14962038Y-9433641D02*
X14918087Y-9494226D01*
X10611667Y-11609673D02*
X10671020Y-11774527D01*
X12675425Y-8478995D02*
X12575501Y-8482279D01*
X15705498Y-15123010D02*
X15907859Y-14930387D01*
X15816399Y-8707982D02*
X15726540Y-8755453D01*
X11467783Y-8862016D02*
X11387244Y-8918616D01*
X13314614Y-8566591D02*
X13237120Y-8545839D01*
X10789115Y-9563759D02*
X10739248Y-9648466D01*
X14157490Y-9008902D02*
X14094806Y-8959478D01*
X14401705Y-15751539D02*
X14581891Y-15981376D01*
X17392043Y-8560248D02*
X17293565Y-8536940D01*
X17785673Y-13256690D02*
X17981481Y-13058551D01*
X15492823Y-8908381D02*
X15433335Y-8953942D01*
X11387244Y-8918616D02*
X11309156Y-8978533D01*
X15907859Y-14930387D02*
X16114258Y-14741834D01*
X10489367Y-10395661D02*
X10472432Y-10572897D01*
X15243557Y-15609091D02*
X15280270Y-15566078D01*
X13000000Y-8500000D02*
X12919629Y-8490354D01*
X14594072Y-9474919D02*
X14546410Y-9410252D01*
X19034065Y-10391538D02*
X19015627Y-10286060D01*
X10493008Y-11099244D02*
X10522233Y-11271656D01*
X17584516Y-13449656D02*
X17785673Y-13256690D01*
X19063631Y-10819612D02*
X19057593Y-10604714D01*
X11160881Y-9107863D02*
X11090966Y-9177053D01*
X16097002Y-8593338D02*
X16001820Y-8626954D01*
X12377795Y-8503061D02*
X12280289Y-8520332D01*
X14836080Y-9619469D02*
X14798165Y-9684078D01*
X18701894Y-9493344D02*
X18641210Y-9403425D01*
X19052546Y-11034751D02*
X19063631Y-10819612D01*
X17585577Y-8619342D02*
X17489444Y-8587725D01*
X10474680Y-10925064D02*
X10493008Y-11099244D01*
X13964736Y-8867048D02*
X13897479Y-8824139D01*
X16291359Y-8539751D02*
X16193578Y-8564280D01*
X17489444Y-8587725D02*
X17392043Y-8560248D01*
X17194199Y-8517831D02*
X17094137Y-8502951D01*
X15638836Y-8807603D02*
X15553476Y-8864460D01*
X10899763Y-9401374D02*
X10842666Y-9481357D01*
D11*
D12*
X13335000Y-11820000D02*
X13365000Y-11850000D01*
X13365000Y-11820000D02*
X13335000Y-11850000D01*
X13335000Y-11930000D02*
X13365000Y-11960000D01*
X13365000Y-11930000D02*
X13335000Y-11960000D01*
X14385000Y-11820000D02*
X14415000Y-11850000D01*
X14415000Y-11820000D02*
X14385000Y-11850000D01*
X14385000Y-11930000D02*
X14415000Y-11960000D01*
X14415000Y-11930000D02*
X14385000Y-11960000D01*
X14720000Y-13295000D02*
X14750000Y-13325000D01*
X14750000Y-13295000D02*
X14720000Y-13325000D01*
X14720000Y-13375000D02*
X14750000Y-13405000D01*
X14750000Y-13375000D02*
X14720000Y-13405000D01*
X14800000Y-13295000D02*
X14830000Y-13325000D01*
X14830000Y-13295000D02*
X14800000Y-13325000D01*
X14800000Y-13375000D02*
X14830000Y-13405000D01*
X14830000Y-13375000D02*
X14800000Y-13405000D01*
D13*
X11320000Y-11900000D02*
G75*
G03*
X11320000Y-11900000I-20000J0D01*
G01*
X11840000Y-11280000D02*
G75*
G03*
X11840000Y-11280000I-20000J0D01*
G01*
X12340000Y-11280000D02*
G75*
G03*
X12340000Y-11280000I-20000J0D01*
G01*
X12340000Y-11380000D02*
G75*
G03*
X12340000Y-11380000I-20000J0D01*
G01*
X12760000Y-12560000D02*
G75*
G03*
X12760000Y-12560000I-20000J0D01*
G01*
X12760000Y-12860000D02*
G75*
G03*
X12760000Y-12860000I-20000J0D01*
G01*
X13120000Y-9200000D02*
G75*
G03*
X13120000Y-9200000I-20000J0D01*
G01*
X13195000Y-11565000D02*
G75*
G03*
X13195000Y-11565000I-20000J0D01*
G01*
X13220000Y-13500000D02*
G75*
G03*
X13220000Y-13500000I-20000J0D01*
G01*
X13490000Y-12080000D02*
G75*
G03*
X13490000Y-12080000I-20000J0D01*
G01*
X13545000Y-11300000D02*
G75*
G03*
X13545000Y-11300000I-20000J0D01*
G01*
X13545000Y-11425000D02*
G75*
G03*
X13545000Y-11425000I-20000J0D01*
G01*
X13670000Y-10750000D02*
G75*
G03*
X13670000Y-10750000I-20000J0D01*
G01*
X13670000Y-10875000D02*
G75*
G03*
X13670000Y-10875000I-20000J0D01*
G01*
X13670000Y-11000000D02*
G75*
G03*
X13670000Y-11000000I-20000J0D01*
G01*
X13670000Y-11300000D02*
G75*
G03*
X13670000Y-11300000I-20000J0D01*
G01*
X13670000Y-11425000D02*
G75*
G03*
X13670000Y-11425000I-20000J0D01*
G01*
X13670000Y-11550000D02*
G75*
G03*
X13670000Y-11550000I-20000J0D01*
G01*
X13670000Y-11675000D02*
G75*
G03*
X13670000Y-11675000I-20000J0D01*
G01*
X13795000Y-10750000D02*
G75*
G03*
X13795000Y-10750000I-20000J0D01*
G01*
X13795000Y-10875000D02*
G75*
G03*
X13795000Y-10875000I-20000J0D01*
G01*
X13795000Y-11000000D02*
G75*
G03*
X13795000Y-11000000I-20000J0D01*
G01*
X13795000Y-11300000D02*
G75*
G03*
X13795000Y-11300000I-20000J0D01*
G01*
X13795000Y-11425000D02*
G75*
G03*
X13795000Y-11425000I-20000J0D01*
G01*
X13795000Y-11550000D02*
G75*
G03*
X13795000Y-11550000I-20000J0D01*
G01*
X13795000Y-11675000D02*
G75*
G03*
X13795000Y-11675000I-20000J0D01*
G01*
X13920000Y-10750000D02*
G75*
G03*
X13920000Y-10750000I-20000J0D01*
G01*
X13920000Y-10875000D02*
G75*
G03*
X13920000Y-10875000I-20000J0D01*
G01*
X13920000Y-11000000D02*
G75*
G03*
X13920000Y-11000000I-20000J0D01*
G01*
X14145000Y-13600000D02*
G75*
G03*
X14145000Y-13600000I-20000J0D01*
G01*
X14145000Y-13800000D02*
G75*
G03*
X14145000Y-13800000I-20000J0D01*
G01*
X14270000Y-11600000D02*
G75*
G03*
X14270000Y-11600000I-20000J0D01*
G01*
X14370000Y-14650000D02*
G75*
G03*
X14370000Y-14650000I-20000J0D01*
G01*
X14455000Y-13010000D02*
G75*
G03*
X14455000Y-13010000I-20000J0D01*
G01*
X14570000Y-12075000D02*
G75*
G03*
X14570000Y-12075000I-20000J0D01*
G01*
X14642450Y-13050000D02*
G75*
G03*
X14642450Y-13050000I-20000J0D01*
G01*
X14802800Y-13690600D02*
G75*
G03*
X14802800Y-13690600I-20000J0D01*
G01*
X14802800Y-13792200D02*
G75*
G03*
X14802800Y-13792200I-20000J0D01*
G01*
X14802800Y-13893800D02*
G75*
G03*
X14802800Y-13893800I-20000J0D01*
G01*
X14821250Y-13030200D02*
G75*
G03*
X14821250Y-13030200I-20000J0D01*
G01*
X14904400Y-13792200D02*
G75*
G03*
X14904400Y-13792200I-20000J0D01*
G01*
X14904400Y-13893800D02*
G75*
G03*
X14904400Y-13893800I-20000J0D01*
G01*
X15045000Y-13225000D02*
G75*
G03*
X15045000Y-13225000I-20000J0D01*
G01*
X15145000Y-11475000D02*
G75*
G03*
X15145000Y-11475000I-20000J0D01*
G01*
X15150000Y-10830000D02*
G75*
G03*
X15150000Y-10830000I-20000J0D01*
G01*
X15170000Y-10500000D02*
G75*
G03*
X15170000Y-10500000I-20000J0D01*
G01*
X15445000Y-13600000D02*
G75*
G03*
X15445000Y-13600000I-20000J0D01*
G01*
X15445000Y-13800000D02*
G75*
G03*
X15445000Y-13800000I-20000J0D01*
G01*
X15460000Y-10660000D02*
G75*
G03*
X15460000Y-10660000I-20000J0D01*
G01*
X15472500Y-10850000D02*
G75*
G03*
X15472500Y-10850000I-20000J0D01*
G01*
X15472500Y-11050000D02*
G75*
G03*
X15472500Y-11050000I-20000J0D01*
G01*
X15580000Y-9760000D02*
G75*
G03*
X15580000Y-9760000I-20000J0D01*
G01*
X15920000Y-10787550D02*
G75*
G03*
X15920000Y-10787550I-20000J0D01*
G01*
X15922500Y-10940000D02*
G75*
G03*
X15922500Y-10940000I-20000J0D01*
G01*
X16095000Y-11925000D02*
G75*
G03*
X16095000Y-11925000I-20000J0D01*
G01*
X16280000Y-10860000D02*
G75*
G03*
X16280000Y-10860000I-20000J0D01*
G01*
X16280000Y-11020000D02*
G75*
G03*
X16280000Y-11020000I-20000J0D01*
G01*
X16320000Y-11540000D02*
G75*
G03*
X16320000Y-11540000I-20000J0D01*
G01*
X16420000Y-13550000D02*
G75*
G03*
X16420000Y-13550000I-20000J0D01*
G01*
X16497500Y-9850000D02*
G75*
G03*
X16497500Y-9850000I-20000J0D01*
G01*
X16497500Y-10275000D02*
G75*
G03*
X16497500Y-10275000I-20000J0D01*
G01*
X16790000Y-10940000D02*
G75*
G03*
X16790000Y-10940000I-20000J0D01*
G01*
X16800000Y-11100000D02*
G75*
G03*
X16800000Y-11100000I-20000J0D01*
G01*
X16860000Y-12860000D02*
G75*
G03*
X16860000Y-12860000I-20000J0D01*
G01*
X17147500Y-10850000D02*
G75*
G03*
X17147500Y-10850000I-20000J0D01*
G01*
X17572500Y-10950000D02*
G75*
G03*
X17572500Y-10950000I-20000J0D01*
G01*
X17572500Y-11200000D02*
G75*
G03*
X17572500Y-11200000I-20000J0D01*
G01*
X17620000Y-9400000D02*
G75*
G03*
X17620000Y-9400000I-20000J0D01*
G01*
X18220000Y-10600000D02*
G75*
G03*
X18220000Y-10600000I-20000J0D01*
G01*
D14*
X10996000Y-11205000D02*
X10996000Y-11295000D01*
X10951000Y-11250000D02*
X11041000Y-11250000D01*
X11246000Y-9955000D02*
X11246000Y-10045000D01*
X11201000Y-10000000D02*
X11291000Y-10000000D01*
X11250000Y-11205000D02*
X11250000Y-11295000D01*
X11205000Y-11250000D02*
X11295000Y-11250000D01*
X11446000Y-12255000D02*
X11446000Y-12345000D01*
X11401000Y-12300000D02*
X11491000Y-12300000D01*
X11500000Y-9955000D02*
X11500000Y-10045000D01*
X11455000Y-10000000D02*
X11545000Y-10000000D01*
X11700000Y-12255000D02*
X11700000Y-12345000D01*
X11655000Y-12300000D02*
X11745000Y-12300000D01*
X12300000Y-9155000D02*
X12300000Y-9245000D01*
X12255000Y-9200000D02*
X12345000Y-9200000D01*
X12554000Y-9155000D02*
X12554000Y-9245000D01*
X12509000Y-9200000D02*
X12599000Y-9200000D01*
X12600000Y-13255000D02*
X12600000Y-13345000D01*
X12555000Y-13300000D02*
X12645000Y-13300000D01*
X12854000Y-13255000D02*
X12854000Y-13345000D01*
X12809000Y-13300000D02*
X12899000Y-13300000D01*
X13546000Y-9455000D02*
X13546000Y-9545000D01*
X13501000Y-9500000D02*
X13591000Y-9500000D01*
X13546000Y-14155000D02*
X13546000Y-14245000D01*
X13501000Y-14200000D02*
X13591000Y-14200000D01*
X13800000Y-9455000D02*
X13800000Y-9545000D01*
X13755000Y-9500000D02*
X13845000Y-9500000D01*
X13800000Y-14155000D02*
X13800000Y-14245000D01*
X13755000Y-14200000D02*
X13845000Y-14200000D01*
X14646000Y-10255000D02*
X14646000Y-10345000D01*
X14601000Y-10300000D02*
X14691000Y-10300000D01*
X14646000Y-14955000D02*
X14646000Y-15045000D01*
X14601000Y-15000000D02*
X14691000Y-15000000D01*
X14900000Y-10255000D02*
X14900000Y-10345000D01*
X14855000Y-10300000D02*
X14945000Y-10300000D01*
X14900000Y-14955000D02*
X14900000Y-15045000D01*
X14855000Y-15000000D02*
X14945000Y-15000000D01*
X15700000Y-14155000D02*
X15700000Y-14245000D01*
X15655000Y-14200000D02*
X15745000Y-14200000D01*
X15746000Y-9455000D02*
X15746000Y-9545000D01*
X15701000Y-9500000D02*
X15791000Y-9500000D01*
X15954000Y-14155000D02*
X15954000Y-14245000D01*
X15909000Y-14200000D02*
X15999000Y-14200000D01*
X16000000Y-9455000D02*
X16000000Y-9545000D01*
X15955000Y-9500000D02*
X16045000Y-9500000D01*
X16700000Y-13255000D02*
X16700000Y-13345000D01*
X16655000Y-13300000D02*
X16745000Y-13300000D01*
X16954000Y-13255000D02*
X16954000Y-13345000D01*
X16909000Y-13300000D02*
X16999000Y-13300000D01*
X17046000Y-9155000D02*
X17046000Y-9245000D01*
X17001000Y-9200000D02*
X17091000Y-9200000D01*
X17300000Y-9155000D02*
X17300000Y-9245000D01*
X17255000Y-9200000D02*
X17345000Y-9200000D01*
X17746000Y-12255000D02*
X17746000Y-12345000D01*
X17701000Y-12300000D02*
X17791000Y-12300000D01*
X18000000Y-9955000D02*
X18000000Y-10045000D01*
X17955000Y-10000000D02*
X18045000Y-10000000D01*
X18000000Y-12255000D02*
X18000000Y-12345000D01*
X17955000Y-12300000D02*
X18045000Y-12300000D01*
X18246000Y-11205000D02*
X18246000Y-11295000D01*
X18201000Y-11250000D02*
X18291000Y-11250000D01*
X18254000Y-9955000D02*
X18254000Y-10045000D01*
X18209000Y-10000000D02*
X18299000Y-10000000D01*
X18500000Y-11205000D02*
X18500000Y-11295000D01*
X18455000Y-11250000D02*
X18545000Y-11250000D01*
D15*
X15720356Y-13207856D02*
X15720356Y-13137144D01*
X15649644Y-13137144D01*
X15649644Y-13207856D01*
X15720356Y-13207856D01*
X15720356Y-13461856D02*
X15720356Y-13391144D01*
X15649644Y-13391144D01*
X15649644Y-13461856D01*
X15720356Y-13461856D01*
X17457356Y-11657856D02*
X17457356Y-11587144D01*
X17386644Y-11587144D01*
X17386644Y-11657856D01*
X17457356Y-11657856D01*
X17457356Y-11911856D02*
X17457356Y-11841144D01*
X17386644Y-11841144D01*
X17386644Y-11911856D01*
X17457356Y-11911856D01*
X17711356Y-11657856D02*
X17711356Y-11587144D01*
X17640644Y-11587144D01*
X17640644Y-11657856D01*
X17711356Y-11657856D01*
X17711356Y-11911856D02*
X17711356Y-11841144D01*
X17640644Y-11841144D01*
X17640644Y-11911856D01*
X17711356Y-11911856D01*
X17965356Y-11657856D02*
X17965356Y-11587144D01*
X17894644Y-11587144D01*
X17894644Y-11657856D01*
X17965356Y-11657856D01*
X17965356Y-11911856D02*
X17965356Y-11841144D01*
X17894644Y-11841144D01*
X17894644Y-11911856D01*
X17965356Y-11911856D01*
D16*
X14775000Y-14400400D02*
X14835500Y-14339900D01*
X14775000Y-14279400D01*
X14714500Y-14339900D01*
X14775000Y-14400400D01*
D17*
X14430000Y-14060000D02*
X14560000Y-14190000D01*
X14560000Y-14060000D02*
X14430000Y-14190000D01*
X14560000Y-14125000D02*
G75*
G03*
X14560000Y-14125000I-65000J0D01*
G01*
X14990000Y-14060000D02*
X15120000Y-14190000D01*
X15120000Y-14060000D02*
X14990000Y-14190000D01*
X15120000Y-14125000D02*
G75*
G03*
X15120000Y-14125000I-65000J0D01*
G01*
D11*
X10616080Y-16612956D02*
X10616080Y-16412956D01*
X10616080Y-16412956D02*
X10663699Y-16412956D01*
X10663699Y-16412956D02*
X10692270Y-16422480D01*
X10692270Y-16422480D02*
X10711318Y-16441527D01*
X10711318Y-16441527D02*
X10720841Y-16460575D01*
X10720841Y-16460575D02*
X10730365Y-16498670D01*
X10730365Y-16498670D02*
X10730365Y-16527242D01*
X10730365Y-16527242D02*
X10720841Y-16565337D01*
X10720841Y-16565337D02*
X10711318Y-16584384D01*
X10711318Y-16584384D02*
X10692270Y-16603432D01*
X10692270Y-16603432D02*
X10663699Y-16612956D01*
X10663699Y-16612956D02*
X10616080Y-16612956D01*
X10816080Y-16612956D02*
X10816080Y-16479623D01*
X10816080Y-16517718D02*
X10825603Y-16498670D01*
X10825603Y-16498670D02*
X10835127Y-16489146D01*
X10835127Y-16489146D02*
X10854175Y-16479623D01*
X10854175Y-16479623D02*
X10873222Y-16479623D01*
X10939889Y-16612956D02*
X10939889Y-16479623D01*
X10939889Y-16412956D02*
X10930365Y-16422480D01*
X10930365Y-16422480D02*
X10939889Y-16432004D01*
X10939889Y-16432004D02*
X10949413Y-16422480D01*
X10949413Y-16422480D02*
X10939889Y-16412956D01*
X10939889Y-16412956D02*
X10939889Y-16432004D01*
X11063699Y-16612956D02*
X11044651Y-16603432D01*
X11044651Y-16603432D02*
X11035127Y-16584384D01*
X11035127Y-16584384D02*
X11035127Y-16412956D01*
X11168460Y-16612956D02*
X11149413Y-16603432D01*
X11149413Y-16603432D02*
X11139889Y-16584384D01*
X11139889Y-16584384D02*
X11139889Y-16412956D01*
X11364651Y-16612956D02*
X11364651Y-16412956D01*
X11364651Y-16412956D02*
X11431318Y-16555813D01*
X11431318Y-16555813D02*
X11497984Y-16412956D01*
X11497984Y-16412956D02*
X11497984Y-16612956D01*
X11678937Y-16612956D02*
X11678937Y-16508194D01*
X11678937Y-16508194D02*
X11669413Y-16489146D01*
X11669413Y-16489146D02*
X11650365Y-16479623D01*
X11650365Y-16479623D02*
X11612270Y-16479623D01*
X11612270Y-16479623D02*
X11593222Y-16489146D01*
X11678937Y-16603432D02*
X11659889Y-16612956D01*
X11659889Y-16612956D02*
X11612270Y-16612956D01*
X11612270Y-16612956D02*
X11593222Y-16603432D01*
X11593222Y-16603432D02*
X11583698Y-16584384D01*
X11583698Y-16584384D02*
X11583698Y-16565337D01*
X11583698Y-16565337D02*
X11593222Y-16546289D01*
X11593222Y-16546289D02*
X11612270Y-16536765D01*
X11612270Y-16536765D02*
X11659889Y-16536765D01*
X11659889Y-16536765D02*
X11678937Y-16527242D01*
X11774175Y-16479623D02*
X11774175Y-16679623D01*
X11774175Y-16489146D02*
X11793222Y-16479623D01*
X11793222Y-16479623D02*
X11831318Y-16479623D01*
X11831318Y-16479623D02*
X11850365Y-16489146D01*
X11850365Y-16489146D02*
X11859889Y-16498670D01*
X11859889Y-16498670D02*
X11869413Y-16517718D01*
X11869413Y-16517718D02*
X11869413Y-16574861D01*
X11869413Y-16574861D02*
X11859889Y-16593908D01*
X11859889Y-16593908D02*
X11850365Y-16603432D01*
X11850365Y-16603432D02*
X11831318Y-16612956D01*
X11831318Y-16612956D02*
X11793222Y-16612956D01*
X11793222Y-16612956D02*
X11774175Y-16603432D01*
X11955127Y-16593908D02*
X11964651Y-16603432D01*
X11964651Y-16603432D02*
X11955127Y-16612956D01*
X11955127Y-16612956D02*
X11945603Y-16603432D01*
X11945603Y-16603432D02*
X11955127Y-16593908D01*
X11955127Y-16593908D02*
X11955127Y-16612956D01*
X11955127Y-16489146D02*
X11964651Y-16498670D01*
X11964651Y-16498670D02*
X11955127Y-16508194D01*
X11955127Y-16508194D02*
X11945603Y-16498670D01*
X11945603Y-16498670D02*
X11955127Y-16489146D01*
X11955127Y-16489146D02*
X11955127Y-16508194D01*
D12*
X10338461Y-16944480D02*
X10368461Y-16974480D01*
X10368461Y-16944480D02*
X10338461Y-16974480D01*
D11*
X10654175Y-16832956D02*
X10673222Y-16832956D01*
X10673222Y-16832956D02*
X10692270Y-16842480D01*
X10692270Y-16842480D02*
X10701794Y-16852004D01*
X10701794Y-16852004D02*
X10711318Y-16871051D01*
X10711318Y-16871051D02*
X10720841Y-16909146D01*
X10720841Y-16909146D02*
X10720841Y-16956766D01*
X10720841Y-16956766D02*
X10711318Y-16994861D01*
X10711318Y-16994861D02*
X10701794Y-17013908D01*
X10701794Y-17013908D02*
X10692270Y-17023432D01*
X10692270Y-17023432D02*
X10673222Y-17032956D01*
X10673222Y-17032956D02*
X10654175Y-17032956D01*
X10654175Y-17032956D02*
X10635127Y-17023432D01*
X10635127Y-17023432D02*
X10625603Y-17013908D01*
X10625603Y-17013908D02*
X10616080Y-16994861D01*
X10616080Y-16994861D02*
X10606556Y-16956766D01*
X10606556Y-16956766D02*
X10606556Y-16909146D01*
X10606556Y-16909146D02*
X10616080Y-16871051D01*
X10616080Y-16871051D02*
X10625603Y-16852004D01*
X10625603Y-16852004D02*
X10635127Y-16842480D01*
X10635127Y-16842480D02*
X10654175Y-16832956D01*
X10806556Y-17013908D02*
X10816080Y-17023432D01*
X10816080Y-17023432D02*
X10806556Y-17032956D01*
X10806556Y-17032956D02*
X10797032Y-17023432D01*
X10797032Y-17023432D02*
X10806556Y-17013908D01*
X10806556Y-17013908D02*
X10806556Y-17032956D01*
X10882746Y-16832956D02*
X11006556Y-16832956D01*
X11006556Y-16832956D02*
X10939889Y-16909146D01*
X10939889Y-16909146D02*
X10968461Y-16909146D01*
X10968461Y-16909146D02*
X10987508Y-16918670D01*
X10987508Y-16918670D02*
X10997032Y-16928194D01*
X10997032Y-16928194D02*
X11006556Y-16947242D01*
X11006556Y-16947242D02*
X11006556Y-16994861D01*
X11006556Y-16994861D02*
X10997032Y-17013908D01*
X10997032Y-17013908D02*
X10987508Y-17023432D01*
X10987508Y-17023432D02*
X10968461Y-17032956D01*
X10968461Y-17032956D02*
X10911318Y-17032956D01*
X10911318Y-17032956D02*
X10892270Y-17023432D01*
X10892270Y-17023432D02*
X10882746Y-17013908D01*
X11130365Y-16832956D02*
X11149413Y-16832956D01*
X11149413Y-16832956D02*
X11168461Y-16842480D01*
X11168461Y-16842480D02*
X11177984Y-16852004D01*
X11177984Y-16852004D02*
X11187508Y-16871051D01*
X11187508Y-16871051D02*
X11197032Y-16909146D01*
X11197032Y-16909146D02*
X11197032Y-16956766D01*
X11197032Y-16956766D02*
X11187508Y-16994861D01*
X11187508Y-16994861D02*
X11177984Y-17013908D01*
X11177984Y-17013908D02*
X11168461Y-17023432D01*
X11168461Y-17023432D02*
X11149413Y-17032956D01*
X11149413Y-17032956D02*
X11130365Y-17032956D01*
X11130365Y-17032956D02*
X11111318Y-17023432D01*
X11111318Y-17023432D02*
X11101794Y-17013908D01*
X11101794Y-17013908D02*
X11092270Y-16994861D01*
X11092270Y-16994861D02*
X11082746Y-16956766D01*
X11082746Y-16956766D02*
X11082746Y-16909146D01*
X11082746Y-16909146D02*
X11092270Y-16871051D01*
X11092270Y-16871051D02*
X11101794Y-16852004D01*
X11101794Y-16852004D02*
X11111318Y-16842480D01*
X11111318Y-16842480D02*
X11130365Y-16832956D01*
X11320841Y-16832956D02*
X11339889Y-16832956D01*
X11339889Y-16832956D02*
X11358937Y-16842480D01*
X11358937Y-16842480D02*
X11368460Y-16852004D01*
X11368460Y-16852004D02*
X11377984Y-16871051D01*
X11377984Y-16871051D02*
X11387508Y-16909146D01*
X11387508Y-16909146D02*
X11387508Y-16956766D01*
X11387508Y-16956766D02*
X11377984Y-16994861D01*
X11377984Y-16994861D02*
X11368460Y-17013908D01*
X11368460Y-17013908D02*
X11358937Y-17023432D01*
X11358937Y-17023432D02*
X11339889Y-17032956D01*
X11339889Y-17032956D02*
X11320841Y-17032956D01*
X11320841Y-17032956D02*
X11301794Y-17023432D01*
X11301794Y-17023432D02*
X11292270Y-17013908D01*
X11292270Y-17013908D02*
X11282746Y-16994861D01*
X11282746Y-16994861D02*
X11273222Y-16956766D01*
X11273222Y-16956766D02*
X11273222Y-16909146D01*
X11273222Y-16909146D02*
X11282746Y-16871051D01*
X11282746Y-16871051D02*
X11292270Y-16852004D01*
X11292270Y-16852004D02*
X11301794Y-16842480D01*
X11301794Y-16842480D02*
X11320841Y-16832956D01*
X11473222Y-17032956D02*
X11473222Y-16899623D01*
X11473222Y-16918670D02*
X11482746Y-16909146D01*
X11482746Y-16909146D02*
X11501794Y-16899623D01*
X11501794Y-16899623D02*
X11530365Y-16899623D01*
X11530365Y-16899623D02*
X11549413Y-16909146D01*
X11549413Y-16909146D02*
X11558937Y-16928194D01*
X11558937Y-16928194D02*
X11558937Y-17032956D01*
X11558937Y-16928194D02*
X11568460Y-16909146D01*
X11568460Y-16909146D02*
X11587508Y-16899623D01*
X11587508Y-16899623D02*
X11616079Y-16899623D01*
X11616079Y-16899623D02*
X11635127Y-16909146D01*
X11635127Y-16909146D02*
X11644651Y-16928194D01*
X11644651Y-16928194D02*
X11644651Y-17032956D01*
X11739889Y-17032956D02*
X11739889Y-16899623D01*
X11739889Y-16918670D02*
X11749413Y-16909146D01*
X11749413Y-16909146D02*
X11768460Y-16899623D01*
X11768460Y-16899623D02*
X11797032Y-16899623D01*
X11797032Y-16899623D02*
X11816080Y-16909146D01*
X11816080Y-16909146D02*
X11825603Y-16928194D01*
X11825603Y-16928194D02*
X11825603Y-17032956D01*
X11825603Y-16928194D02*
X11835127Y-16909146D01*
X11835127Y-16909146D02*
X11854175Y-16899623D01*
X11854175Y-16899623D02*
X11882746Y-16899623D01*
X11882746Y-16899623D02*
X11901794Y-16909146D01*
X11901794Y-16909146D02*
X11911318Y-16928194D01*
X11911318Y-16928194D02*
X11911318Y-17032956D01*
X12269413Y-16823432D02*
X12097984Y-17080575D01*
X12494175Y-16832956D02*
X12513222Y-16832956D01*
X12513222Y-16832956D02*
X12532270Y-16842480D01*
X12532270Y-16842480D02*
X12541794Y-16852004D01*
X12541794Y-16852004D02*
X12551318Y-16871051D01*
X12551318Y-16871051D02*
X12560841Y-16909146D01*
X12560841Y-16909146D02*
X12560841Y-16956766D01*
X12560841Y-16956766D02*
X12551318Y-16994861D01*
X12551318Y-16994861D02*
X12541794Y-17013908D01*
X12541794Y-17013908D02*
X12532270Y-17023432D01*
X12532270Y-17023432D02*
X12513222Y-17032956D01*
X12513222Y-17032956D02*
X12494175Y-17032956D01*
X12494175Y-17032956D02*
X12475127Y-17023432D01*
X12475127Y-17023432D02*
X12465603Y-17013908D01*
X12465603Y-17013908D02*
X12456080Y-16994861D01*
X12456080Y-16994861D02*
X12446556Y-16956766D01*
X12446556Y-16956766D02*
X12446556Y-16909146D01*
X12446556Y-16909146D02*
X12456080Y-16871051D01*
X12456080Y-16871051D02*
X12465603Y-16852004D01*
X12465603Y-16852004D02*
X12475127Y-16842480D01*
X12475127Y-16842480D02*
X12494175Y-16832956D01*
X12646556Y-17013908D02*
X12656080Y-17023432D01*
X12656080Y-17023432D02*
X12646556Y-17032956D01*
X12646556Y-17032956D02*
X12637032Y-17023432D01*
X12637032Y-17023432D02*
X12646556Y-17013908D01*
X12646556Y-17013908D02*
X12646556Y-17032956D01*
X12779889Y-16832956D02*
X12798937Y-16832956D01*
X12798937Y-16832956D02*
X12817984Y-16842480D01*
X12817984Y-16842480D02*
X12827508Y-16852004D01*
X12827508Y-16852004D02*
X12837032Y-16871051D01*
X12837032Y-16871051D02*
X12846556Y-16909146D01*
X12846556Y-16909146D02*
X12846556Y-16956766D01*
X12846556Y-16956766D02*
X12837032Y-16994861D01*
X12837032Y-16994861D02*
X12827508Y-17013908D01*
X12827508Y-17013908D02*
X12817984Y-17023432D01*
X12817984Y-17023432D02*
X12798937Y-17032956D01*
X12798937Y-17032956D02*
X12779889Y-17032956D01*
X12779889Y-17032956D02*
X12760841Y-17023432D01*
X12760841Y-17023432D02*
X12751318Y-17013908D01*
X12751318Y-17013908D02*
X12741794Y-16994861D01*
X12741794Y-16994861D02*
X12732270Y-16956766D01*
X12732270Y-16956766D02*
X12732270Y-16909146D01*
X12732270Y-16909146D02*
X12741794Y-16871051D01*
X12741794Y-16871051D02*
X12751318Y-16852004D01*
X12751318Y-16852004D02*
X12760841Y-16842480D01*
X12760841Y-16842480D02*
X12779889Y-16832956D01*
X13037032Y-17032956D02*
X12922746Y-17032956D01*
X12979889Y-17032956D02*
X12979889Y-16832956D01*
X12979889Y-16832956D02*
X12960841Y-16861527D01*
X12960841Y-16861527D02*
X12941794Y-16880575D01*
X12941794Y-16880575D02*
X12922746Y-16890099D01*
X13227508Y-17032956D02*
X13113222Y-17032956D01*
X13170365Y-17032956D02*
X13170365Y-16832956D01*
X13170365Y-16832956D02*
X13151318Y-16861527D01*
X13151318Y-16861527D02*
X13132270Y-16880575D01*
X13132270Y-16880575D02*
X13113222Y-16890099D01*
X13341794Y-16918670D02*
X13322746Y-16909146D01*
X13322746Y-16909146D02*
X13313222Y-16899623D01*
X13313222Y-16899623D02*
X13303699Y-16880575D01*
X13303699Y-16880575D02*
X13303699Y-16871051D01*
X13303699Y-16871051D02*
X13313222Y-16852004D01*
X13313222Y-16852004D02*
X13322746Y-16842480D01*
X13322746Y-16842480D02*
X13341794Y-16832956D01*
X13341794Y-16832956D02*
X13379889Y-16832956D01*
X13379889Y-16832956D02*
X13398937Y-16842480D01*
X13398937Y-16842480D02*
X13408461Y-16852004D01*
X13408461Y-16852004D02*
X13417984Y-16871051D01*
X13417984Y-16871051D02*
X13417984Y-16880575D01*
X13417984Y-16880575D02*
X13408461Y-16899623D01*
X13408461Y-16899623D02*
X13398937Y-16909146D01*
X13398937Y-16909146D02*
X13379889Y-16918670D01*
X13379889Y-16918670D02*
X13341794Y-16918670D01*
X13341794Y-16918670D02*
X13322746Y-16928194D01*
X13322746Y-16928194D02*
X13313222Y-16937718D01*
X13313222Y-16937718D02*
X13303699Y-16956766D01*
X13303699Y-16956766D02*
X13303699Y-16994861D01*
X13303699Y-16994861D02*
X13313222Y-17013908D01*
X13313222Y-17013908D02*
X13322746Y-17023432D01*
X13322746Y-17023432D02*
X13341794Y-17032956D01*
X13341794Y-17032956D02*
X13379889Y-17032956D01*
X13379889Y-17032956D02*
X13398937Y-17023432D01*
X13398937Y-17023432D02*
X13408461Y-17013908D01*
X13408461Y-17013908D02*
X13417984Y-16994861D01*
X13417984Y-16994861D02*
X13417984Y-16956766D01*
X13417984Y-16956766D02*
X13408461Y-16937718D01*
X13408461Y-16937718D02*
X13398937Y-16928194D01*
X13398937Y-16928194D02*
X13379889Y-16918670D01*
X13494175Y-16832956D02*
X13494175Y-16871051D01*
X13570365Y-16832956D02*
X13570365Y-16871051D01*
X13833223Y-17109146D02*
X13823699Y-17099623D01*
X13823699Y-17099623D02*
X13804651Y-17071051D01*
X13804651Y-17071051D02*
X13795127Y-17052004D01*
X13795127Y-17052004D02*
X13785603Y-17023432D01*
X13785603Y-17023432D02*
X13776080Y-16975813D01*
X13776080Y-16975813D02*
X13776080Y-16937718D01*
X13776080Y-16937718D02*
X13785603Y-16890099D01*
X13785603Y-16890099D02*
X13795127Y-16861527D01*
X13795127Y-16861527D02*
X13804651Y-16842480D01*
X13804651Y-16842480D02*
X13823699Y-16813908D01*
X13823699Y-16813908D02*
X13833223Y-16804385D01*
X13937984Y-16918670D02*
X13918937Y-16909146D01*
X13918937Y-16909146D02*
X13909413Y-16899623D01*
X13909413Y-16899623D02*
X13899889Y-16880575D01*
X13899889Y-16880575D02*
X13899889Y-16871051D01*
X13899889Y-16871051D02*
X13909413Y-16852004D01*
X13909413Y-16852004D02*
X13918937Y-16842480D01*
X13918937Y-16842480D02*
X13937984Y-16832956D01*
X13937984Y-16832956D02*
X13976080Y-16832956D01*
X13976080Y-16832956D02*
X13995127Y-16842480D01*
X13995127Y-16842480D02*
X14004651Y-16852004D01*
X14004651Y-16852004D02*
X14014175Y-16871051D01*
X14014175Y-16871051D02*
X14014175Y-16880575D01*
X14014175Y-16880575D02*
X14004651Y-16899623D01*
X14004651Y-16899623D02*
X13995127Y-16909146D01*
X13995127Y-16909146D02*
X13976080Y-16918670D01*
X13976080Y-16918670D02*
X13937984Y-16918670D01*
X13937984Y-16918670D02*
X13918937Y-16928194D01*
X13918937Y-16928194D02*
X13909413Y-16937718D01*
X13909413Y-16937718D02*
X13899889Y-16956766D01*
X13899889Y-16956766D02*
X13899889Y-16994861D01*
X13899889Y-16994861D02*
X13909413Y-17013908D01*
X13909413Y-17013908D02*
X13918937Y-17023432D01*
X13918937Y-17023432D02*
X13937984Y-17032956D01*
X13937984Y-17032956D02*
X13976080Y-17032956D01*
X13976080Y-17032956D02*
X13995127Y-17023432D01*
X13995127Y-17023432D02*
X14004651Y-17013908D01*
X14004651Y-17013908D02*
X14014175Y-16994861D01*
X14014175Y-16994861D02*
X14014175Y-16956766D01*
X14014175Y-16956766D02*
X14004651Y-16937718D01*
X14004651Y-16937718D02*
X13995127Y-16928194D01*
X13995127Y-16928194D02*
X13976080Y-16918670D01*
X14219889Y-17032956D02*
X14219889Y-16832956D01*
X14305603Y-17032956D02*
X14305603Y-16928194D01*
X14305603Y-16928194D02*
X14296080Y-16909146D01*
X14296080Y-16909146D02*
X14277032Y-16899623D01*
X14277032Y-16899623D02*
X14248461Y-16899623D01*
X14248461Y-16899623D02*
X14229413Y-16909146D01*
X14229413Y-16909146D02*
X14219889Y-16918670D01*
X14429413Y-17032956D02*
X14410365Y-17023432D01*
X14410365Y-17023432D02*
X14400842Y-17013908D01*
X14400842Y-17013908D02*
X14391318Y-16994861D01*
X14391318Y-16994861D02*
X14391318Y-16937718D01*
X14391318Y-16937718D02*
X14400842Y-16918670D01*
X14400842Y-16918670D02*
X14410365Y-16909146D01*
X14410365Y-16909146D02*
X14429413Y-16899623D01*
X14429413Y-16899623D02*
X14457984Y-16899623D01*
X14457984Y-16899623D02*
X14477032Y-16909146D01*
X14477032Y-16909146D02*
X14486556Y-16918670D01*
X14486556Y-16918670D02*
X14496080Y-16937718D01*
X14496080Y-16937718D02*
X14496080Y-16994861D01*
X14496080Y-16994861D02*
X14486556Y-17013908D01*
X14486556Y-17013908D02*
X14477032Y-17023432D01*
X14477032Y-17023432D02*
X14457984Y-17032956D01*
X14457984Y-17032956D02*
X14429413Y-17032956D01*
X14610365Y-17032956D02*
X14591318Y-17023432D01*
X14591318Y-17023432D02*
X14581794Y-17004385D01*
X14581794Y-17004385D02*
X14581794Y-16832956D01*
X14762746Y-17023432D02*
X14743699Y-17032956D01*
X14743699Y-17032956D02*
X14705603Y-17032956D01*
X14705603Y-17032956D02*
X14686556Y-17023432D01*
X14686556Y-17023432D02*
X14677032Y-17004385D01*
X14677032Y-17004385D02*
X14677032Y-16928194D01*
X14677032Y-16928194D02*
X14686556Y-16909146D01*
X14686556Y-16909146D02*
X14705603Y-16899623D01*
X14705603Y-16899623D02*
X14743699Y-16899623D01*
X14743699Y-16899623D02*
X14762746Y-16909146D01*
X14762746Y-16909146D02*
X14772270Y-16928194D01*
X14772270Y-16928194D02*
X14772270Y-16947242D01*
X14772270Y-16947242D02*
X14677032Y-16966289D01*
X14848461Y-17023432D02*
X14867508Y-17032956D01*
X14867508Y-17032956D02*
X14905603Y-17032956D01*
X14905603Y-17032956D02*
X14924651Y-17023432D01*
X14924651Y-17023432D02*
X14934175Y-17004385D01*
X14934175Y-17004385D02*
X14934175Y-16994861D01*
X14934175Y-16994861D02*
X14924651Y-16975813D01*
X14924651Y-16975813D02*
X14905603Y-16966289D01*
X14905603Y-16966289D02*
X14877032Y-16966289D01*
X14877032Y-16966289D02*
X14857984Y-16956766D01*
X14857984Y-16956766D02*
X14848461Y-16937718D01*
X14848461Y-16937718D02*
X14848461Y-16928194D01*
X14848461Y-16928194D02*
X14857984Y-16909146D01*
X14857984Y-16909146D02*
X14877032Y-16899623D01*
X14877032Y-16899623D02*
X14905603Y-16899623D01*
X14905603Y-16899623D02*
X14924651Y-16909146D01*
X15000842Y-17109146D02*
X15010365Y-17099623D01*
X15010365Y-17099623D02*
X15029413Y-17071051D01*
X15029413Y-17071051D02*
X15038937Y-17052004D01*
X15038937Y-17052004D02*
X15048461Y-17023432D01*
X15048461Y-17023432D02*
X15057984Y-16975813D01*
X15057984Y-16975813D02*
X15057984Y-16937718D01*
X15057984Y-16937718D02*
X15048461Y-16890099D01*
X15048461Y-16890099D02*
X15038937Y-16861527D01*
X15038937Y-16861527D02*
X15029413Y-16842480D01*
X15029413Y-16842480D02*
X15010365Y-16813908D01*
X15010365Y-16813908D02*
X15000842Y-16804385D01*
D13*
X10368461Y-17223480D02*
G75*
G03*
X10368461Y-17223480I-20000J0D01*
G01*
D11*
X10654175Y-17096956D02*
X10673222Y-17096956D01*
X10673222Y-17096956D02*
X10692270Y-17106480D01*
X10692270Y-17106480D02*
X10701794Y-17116004D01*
X10701794Y-17116004D02*
X10711318Y-17135051D01*
X10711318Y-17135051D02*
X10720841Y-17173146D01*
X10720841Y-17173146D02*
X10720841Y-17220766D01*
X10720841Y-17220766D02*
X10711318Y-17258861D01*
X10711318Y-17258861D02*
X10701794Y-17277908D01*
X10701794Y-17277908D02*
X10692270Y-17287432D01*
X10692270Y-17287432D02*
X10673222Y-17296956D01*
X10673222Y-17296956D02*
X10654175Y-17296956D01*
X10654175Y-17296956D02*
X10635127Y-17287432D01*
X10635127Y-17287432D02*
X10625603Y-17277908D01*
X10625603Y-17277908D02*
X10616080Y-17258861D01*
X10616080Y-17258861D02*
X10606556Y-17220766D01*
X10606556Y-17220766D02*
X10606556Y-17173146D01*
X10606556Y-17173146D02*
X10616080Y-17135051D01*
X10616080Y-17135051D02*
X10625603Y-17116004D01*
X10625603Y-17116004D02*
X10635127Y-17106480D01*
X10635127Y-17106480D02*
X10654175Y-17096956D01*
X10806556Y-17277908D02*
X10816080Y-17287432D01*
X10816080Y-17287432D02*
X10806556Y-17296956D01*
X10806556Y-17296956D02*
X10797032Y-17287432D01*
X10797032Y-17287432D02*
X10806556Y-17277908D01*
X10806556Y-17277908D02*
X10806556Y-17296956D01*
X10987508Y-17163623D02*
X10987508Y-17296956D01*
X10939889Y-17087432D02*
X10892270Y-17230289D01*
X10892270Y-17230289D02*
X11016080Y-17230289D01*
X11130365Y-17096956D02*
X11149413Y-17096956D01*
X11149413Y-17096956D02*
X11168461Y-17106480D01*
X11168461Y-17106480D02*
X11177984Y-17116004D01*
X11177984Y-17116004D02*
X11187508Y-17135051D01*
X11187508Y-17135051D02*
X11197032Y-17173146D01*
X11197032Y-17173146D02*
X11197032Y-17220766D01*
X11197032Y-17220766D02*
X11187508Y-17258861D01*
X11187508Y-17258861D02*
X11177984Y-17277908D01*
X11177984Y-17277908D02*
X11168461Y-17287432D01*
X11168461Y-17287432D02*
X11149413Y-17296956D01*
X11149413Y-17296956D02*
X11130365Y-17296956D01*
X11130365Y-17296956D02*
X11111318Y-17287432D01*
X11111318Y-17287432D02*
X11101794Y-17277908D01*
X11101794Y-17277908D02*
X11092270Y-17258861D01*
X11092270Y-17258861D02*
X11082746Y-17220766D01*
X11082746Y-17220766D02*
X11082746Y-17173146D01*
X11082746Y-17173146D02*
X11092270Y-17135051D01*
X11092270Y-17135051D02*
X11101794Y-17116004D01*
X11101794Y-17116004D02*
X11111318Y-17106480D01*
X11111318Y-17106480D02*
X11130365Y-17096956D01*
X11320841Y-17096956D02*
X11339889Y-17096956D01*
X11339889Y-17096956D02*
X11358937Y-17106480D01*
X11358937Y-17106480D02*
X11368460Y-17116004D01*
X11368460Y-17116004D02*
X11377984Y-17135051D01*
X11377984Y-17135051D02*
X11387508Y-17173146D01*
X11387508Y-17173146D02*
X11387508Y-17220766D01*
X11387508Y-17220766D02*
X11377984Y-17258861D01*
X11377984Y-17258861D02*
X11368460Y-17277908D01*
X11368460Y-17277908D02*
X11358937Y-17287432D01*
X11358937Y-17287432D02*
X11339889Y-17296956D01*
X11339889Y-17296956D02*
X11320841Y-17296956D01*
X11320841Y-17296956D02*
X11301794Y-17287432D01*
X11301794Y-17287432D02*
X11292270Y-17277908D01*
X11292270Y-17277908D02*
X11282746Y-17258861D01*
X11282746Y-17258861D02*
X11273222Y-17220766D01*
X11273222Y-17220766D02*
X11273222Y-17173146D01*
X11273222Y-17173146D02*
X11282746Y-17135051D01*
X11282746Y-17135051D02*
X11292270Y-17116004D01*
X11292270Y-17116004D02*
X11301794Y-17106480D01*
X11301794Y-17106480D02*
X11320841Y-17096956D01*
X11473222Y-17296956D02*
X11473222Y-17163623D01*
X11473222Y-17182670D02*
X11482746Y-17173146D01*
X11482746Y-17173146D02*
X11501794Y-17163623D01*
X11501794Y-17163623D02*
X11530365Y-17163623D01*
X11530365Y-17163623D02*
X11549413Y-17173146D01*
X11549413Y-17173146D02*
X11558937Y-17192194D01*
X11558937Y-17192194D02*
X11558937Y-17296956D01*
X11558937Y-17192194D02*
X11568460Y-17173146D01*
X11568460Y-17173146D02*
X11587508Y-17163623D01*
X11587508Y-17163623D02*
X11616079Y-17163623D01*
X11616079Y-17163623D02*
X11635127Y-17173146D01*
X11635127Y-17173146D02*
X11644651Y-17192194D01*
X11644651Y-17192194D02*
X11644651Y-17296956D01*
X11739889Y-17296956D02*
X11739889Y-17163623D01*
X11739889Y-17182670D02*
X11749413Y-17173146D01*
X11749413Y-17173146D02*
X11768460Y-17163623D01*
X11768460Y-17163623D02*
X11797032Y-17163623D01*
X11797032Y-17163623D02*
X11816080Y-17173146D01*
X11816080Y-17173146D02*
X11825603Y-17192194D01*
X11825603Y-17192194D02*
X11825603Y-17296956D01*
X11825603Y-17192194D02*
X11835127Y-17173146D01*
X11835127Y-17173146D02*
X11854175Y-17163623D01*
X11854175Y-17163623D02*
X11882746Y-17163623D01*
X11882746Y-17163623D02*
X11901794Y-17173146D01*
X11901794Y-17173146D02*
X11911318Y-17192194D01*
X11911318Y-17192194D02*
X11911318Y-17296956D01*
X12269413Y-17087432D02*
X12097984Y-17344575D01*
X12494175Y-17096956D02*
X12513222Y-17096956D01*
X12513222Y-17096956D02*
X12532270Y-17106480D01*
X12532270Y-17106480D02*
X12541794Y-17116004D01*
X12541794Y-17116004D02*
X12551318Y-17135051D01*
X12551318Y-17135051D02*
X12560841Y-17173146D01*
X12560841Y-17173146D02*
X12560841Y-17220766D01*
X12560841Y-17220766D02*
X12551318Y-17258861D01*
X12551318Y-17258861D02*
X12541794Y-17277908D01*
X12541794Y-17277908D02*
X12532270Y-17287432D01*
X12532270Y-17287432D02*
X12513222Y-17296956D01*
X12513222Y-17296956D02*
X12494175Y-17296956D01*
X12494175Y-17296956D02*
X12475127Y-17287432D01*
X12475127Y-17287432D02*
X12465603Y-17277908D01*
X12465603Y-17277908D02*
X12456080Y-17258861D01*
X12456080Y-17258861D02*
X12446556Y-17220766D01*
X12446556Y-17220766D02*
X12446556Y-17173146D01*
X12446556Y-17173146D02*
X12456080Y-17135051D01*
X12456080Y-17135051D02*
X12465603Y-17116004D01*
X12465603Y-17116004D02*
X12475127Y-17106480D01*
X12475127Y-17106480D02*
X12494175Y-17096956D01*
X12646556Y-17277908D02*
X12656080Y-17287432D01*
X12656080Y-17287432D02*
X12646556Y-17296956D01*
X12646556Y-17296956D02*
X12637032Y-17287432D01*
X12637032Y-17287432D02*
X12646556Y-17277908D01*
X12646556Y-17277908D02*
X12646556Y-17296956D01*
X12779889Y-17096956D02*
X12798937Y-17096956D01*
X12798937Y-17096956D02*
X12817984Y-17106480D01*
X12817984Y-17106480D02*
X12827508Y-17116004D01*
X12827508Y-17116004D02*
X12837032Y-17135051D01*
X12837032Y-17135051D02*
X12846556Y-17173146D01*
X12846556Y-17173146D02*
X12846556Y-17220766D01*
X12846556Y-17220766D02*
X12837032Y-17258861D01*
X12837032Y-17258861D02*
X12827508Y-17277908D01*
X12827508Y-17277908D02*
X12817984Y-17287432D01*
X12817984Y-17287432D02*
X12798937Y-17296956D01*
X12798937Y-17296956D02*
X12779889Y-17296956D01*
X12779889Y-17296956D02*
X12760841Y-17287432D01*
X12760841Y-17287432D02*
X12751318Y-17277908D01*
X12751318Y-17277908D02*
X12741794Y-17258861D01*
X12741794Y-17258861D02*
X12732270Y-17220766D01*
X12732270Y-17220766D02*
X12732270Y-17173146D01*
X12732270Y-17173146D02*
X12741794Y-17135051D01*
X12741794Y-17135051D02*
X12751318Y-17116004D01*
X12751318Y-17116004D02*
X12760841Y-17106480D01*
X12760841Y-17106480D02*
X12779889Y-17096956D01*
X13037032Y-17296956D02*
X12922746Y-17296956D01*
X12979889Y-17296956D02*
X12979889Y-17096956D01*
X12979889Y-17096956D02*
X12960841Y-17125527D01*
X12960841Y-17125527D02*
X12941794Y-17144575D01*
X12941794Y-17144575D02*
X12922746Y-17154099D01*
X13217984Y-17096956D02*
X13122746Y-17096956D01*
X13122746Y-17096956D02*
X13113222Y-17192194D01*
X13113222Y-17192194D02*
X13122746Y-17182670D01*
X13122746Y-17182670D02*
X13141794Y-17173146D01*
X13141794Y-17173146D02*
X13189413Y-17173146D01*
X13189413Y-17173146D02*
X13208461Y-17182670D01*
X13208461Y-17182670D02*
X13217984Y-17192194D01*
X13217984Y-17192194D02*
X13227508Y-17211242D01*
X13227508Y-17211242D02*
X13227508Y-17258861D01*
X13227508Y-17258861D02*
X13217984Y-17277908D01*
X13217984Y-17277908D02*
X13208461Y-17287432D01*
X13208461Y-17287432D02*
X13189413Y-17296956D01*
X13189413Y-17296956D02*
X13141794Y-17296956D01*
X13141794Y-17296956D02*
X13122746Y-17287432D01*
X13122746Y-17287432D02*
X13113222Y-17277908D01*
X13294175Y-17096956D02*
X13427508Y-17096956D01*
X13427508Y-17096956D02*
X13341794Y-17296956D01*
X13494175Y-17096956D02*
X13494175Y-17135051D01*
X13570365Y-17096956D02*
X13570365Y-17135051D01*
X13833223Y-17373146D02*
X13823699Y-17363623D01*
X13823699Y-17363623D02*
X13804651Y-17335051D01*
X13804651Y-17335051D02*
X13795127Y-17316004D01*
X13795127Y-17316004D02*
X13785603Y-17287432D01*
X13785603Y-17287432D02*
X13776080Y-17239813D01*
X13776080Y-17239813D02*
X13776080Y-17201718D01*
X13776080Y-17201718D02*
X13785603Y-17154099D01*
X13785603Y-17154099D02*
X13795127Y-17125527D01*
X13795127Y-17125527D02*
X13804651Y-17106480D01*
X13804651Y-17106480D02*
X13823699Y-17077908D01*
X13823699Y-17077908D02*
X13833223Y-17068385D01*
X13995127Y-17096956D02*
X13957032Y-17096956D01*
X13957032Y-17096956D02*
X13937984Y-17106480D01*
X13937984Y-17106480D02*
X13928461Y-17116004D01*
X13928461Y-17116004D02*
X13909413Y-17144575D01*
X13909413Y-17144575D02*
X13899889Y-17182670D01*
X13899889Y-17182670D02*
X13899889Y-17258861D01*
X13899889Y-17258861D02*
X13909413Y-17277908D01*
X13909413Y-17277908D02*
X13918937Y-17287432D01*
X13918937Y-17287432D02*
X13937984Y-17296956D01*
X13937984Y-17296956D02*
X13976080Y-17296956D01*
X13976080Y-17296956D02*
X13995127Y-17287432D01*
X13995127Y-17287432D02*
X14004651Y-17277908D01*
X14004651Y-17277908D02*
X14014175Y-17258861D01*
X14014175Y-17258861D02*
X14014175Y-17211242D01*
X14014175Y-17211242D02*
X14004651Y-17192194D01*
X14004651Y-17192194D02*
X13995127Y-17182670D01*
X13995127Y-17182670D02*
X13976080Y-17173146D01*
X13976080Y-17173146D02*
X13937984Y-17173146D01*
X13937984Y-17173146D02*
X13918937Y-17182670D01*
X13918937Y-17182670D02*
X13909413Y-17192194D01*
X13909413Y-17192194D02*
X13899889Y-17211242D01*
X14109413Y-17296956D02*
X14147508Y-17296956D01*
X14147508Y-17296956D02*
X14166556Y-17287432D01*
X14166556Y-17287432D02*
X14176080Y-17277908D01*
X14176080Y-17277908D02*
X14195127Y-17249337D01*
X14195127Y-17249337D02*
X14204651Y-17211242D01*
X14204651Y-17211242D02*
X14204651Y-17135051D01*
X14204651Y-17135051D02*
X14195127Y-17116004D01*
X14195127Y-17116004D02*
X14185603Y-17106480D01*
X14185603Y-17106480D02*
X14166556Y-17096956D01*
X14166556Y-17096956D02*
X14128461Y-17096956D01*
X14128461Y-17096956D02*
X14109413Y-17106480D01*
X14109413Y-17106480D02*
X14099889Y-17116004D01*
X14099889Y-17116004D02*
X14090365Y-17135051D01*
X14090365Y-17135051D02*
X14090365Y-17182670D01*
X14090365Y-17182670D02*
X14099889Y-17201718D01*
X14099889Y-17201718D02*
X14109413Y-17211242D01*
X14109413Y-17211242D02*
X14128461Y-17220766D01*
X14128461Y-17220766D02*
X14166556Y-17220766D01*
X14166556Y-17220766D02*
X14185603Y-17211242D01*
X14185603Y-17211242D02*
X14195127Y-17201718D01*
X14195127Y-17201718D02*
X14204651Y-17182670D01*
X14410365Y-17296956D02*
X14410365Y-17096956D01*
X14496080Y-17296956D02*
X14496080Y-17192194D01*
X14496080Y-17192194D02*
X14486556Y-17173146D01*
X14486556Y-17173146D02*
X14467508Y-17163623D01*
X14467508Y-17163623D02*
X14438937Y-17163623D01*
X14438937Y-17163623D02*
X14419889Y-17173146D01*
X14419889Y-17173146D02*
X14410365Y-17182670D01*
X14619889Y-17296956D02*
X14600842Y-17287432D01*
X14600842Y-17287432D02*
X14591318Y-17277908D01*
X14591318Y-17277908D02*
X14581794Y-17258861D01*
X14581794Y-17258861D02*
X14581794Y-17201718D01*
X14581794Y-17201718D02*
X14591318Y-17182670D01*
X14591318Y-17182670D02*
X14600842Y-17173146D01*
X14600842Y-17173146D02*
X14619889Y-17163623D01*
X14619889Y-17163623D02*
X14648461Y-17163623D01*
X14648461Y-17163623D02*
X14667508Y-17173146D01*
X14667508Y-17173146D02*
X14677032Y-17182670D01*
X14677032Y-17182670D02*
X14686556Y-17201718D01*
X14686556Y-17201718D02*
X14686556Y-17258861D01*
X14686556Y-17258861D02*
X14677032Y-17277908D01*
X14677032Y-17277908D02*
X14667508Y-17287432D01*
X14667508Y-17287432D02*
X14648461Y-17296956D01*
X14648461Y-17296956D02*
X14619889Y-17296956D01*
X14800842Y-17296956D02*
X14781794Y-17287432D01*
X14781794Y-17287432D02*
X14772270Y-17268385D01*
X14772270Y-17268385D02*
X14772270Y-17096956D01*
X14953223Y-17287432D02*
X14934175Y-17296956D01*
X14934175Y-17296956D02*
X14896080Y-17296956D01*
X14896080Y-17296956D02*
X14877032Y-17287432D01*
X14877032Y-17287432D02*
X14867508Y-17268385D01*
X14867508Y-17268385D02*
X14867508Y-17192194D01*
X14867508Y-17192194D02*
X14877032Y-17173146D01*
X14877032Y-17173146D02*
X14896080Y-17163623D01*
X14896080Y-17163623D02*
X14934175Y-17163623D01*
X14934175Y-17163623D02*
X14953223Y-17173146D01*
X14953223Y-17173146D02*
X14962746Y-17192194D01*
X14962746Y-17192194D02*
X14962746Y-17211242D01*
X14962746Y-17211242D02*
X14867508Y-17230289D01*
X15038937Y-17287432D02*
X15057984Y-17296956D01*
X15057984Y-17296956D02*
X15096080Y-17296956D01*
X15096080Y-17296956D02*
X15115127Y-17287432D01*
X15115127Y-17287432D02*
X15124651Y-17268385D01*
X15124651Y-17268385D02*
X15124651Y-17258861D01*
X15124651Y-17258861D02*
X15115127Y-17239813D01*
X15115127Y-17239813D02*
X15096080Y-17230289D01*
X15096080Y-17230289D02*
X15067508Y-17230289D01*
X15067508Y-17230289D02*
X15048461Y-17220766D01*
X15048461Y-17220766D02*
X15038937Y-17201718D01*
X15038937Y-17201718D02*
X15038937Y-17192194D01*
X15038937Y-17192194D02*
X15048461Y-17173146D01*
X15048461Y-17173146D02*
X15067508Y-17163623D01*
X15067508Y-17163623D02*
X15096080Y-17163623D01*
X15096080Y-17163623D02*
X15115127Y-17173146D01*
X15191318Y-17373146D02*
X15200842Y-17363623D01*
X15200842Y-17363623D02*
X15219889Y-17335051D01*
X15219889Y-17335051D02*
X15229413Y-17316004D01*
X15229413Y-17316004D02*
X15238937Y-17287432D01*
X15238937Y-17287432D02*
X15248461Y-17239813D01*
X15248461Y-17239813D02*
X15248461Y-17201718D01*
X15248461Y-17201718D02*
X15238937Y-17154099D01*
X15238937Y-17154099D02*
X15229413Y-17125527D01*
X15229413Y-17125527D02*
X15219889Y-17106480D01*
X15219889Y-17106480D02*
X15200842Y-17077908D01*
X15200842Y-17077908D02*
X15191318Y-17068385D01*
D14*
X10323461Y-17442480D02*
X10323461Y-17532480D01*
X10278461Y-17487480D02*
X10368461Y-17487480D01*
D11*
X10654175Y-17360956D02*
X10673222Y-17360956D01*
X10673222Y-17360956D02*
X10692270Y-17370480D01*
X10692270Y-17370480D02*
X10701794Y-17380004D01*
X10701794Y-17380004D02*
X10711318Y-17399051D01*
X10711318Y-17399051D02*
X10720841Y-17437146D01*
X10720841Y-17437146D02*
X10720841Y-17484766D01*
X10720841Y-17484766D02*
X10711318Y-17522861D01*
X10711318Y-17522861D02*
X10701794Y-17541908D01*
X10701794Y-17541908D02*
X10692270Y-17551432D01*
X10692270Y-17551432D02*
X10673222Y-17560956D01*
X10673222Y-17560956D02*
X10654175Y-17560956D01*
X10654175Y-17560956D02*
X10635127Y-17551432D01*
X10635127Y-17551432D02*
X10625603Y-17541908D01*
X10625603Y-17541908D02*
X10616080Y-17522861D01*
X10616080Y-17522861D02*
X10606556Y-17484766D01*
X10606556Y-17484766D02*
X10606556Y-17437146D01*
X10606556Y-17437146D02*
X10616080Y-17399051D01*
X10616080Y-17399051D02*
X10625603Y-17380004D01*
X10625603Y-17380004D02*
X10635127Y-17370480D01*
X10635127Y-17370480D02*
X10654175Y-17360956D01*
X10806556Y-17541908D02*
X10816080Y-17551432D01*
X10816080Y-17551432D02*
X10806556Y-17560956D01*
X10806556Y-17560956D02*
X10797032Y-17551432D01*
X10797032Y-17551432D02*
X10806556Y-17541908D01*
X10806556Y-17541908D02*
X10806556Y-17560956D01*
X10911318Y-17560956D02*
X10949413Y-17560956D01*
X10949413Y-17560956D02*
X10968461Y-17551432D01*
X10968461Y-17551432D02*
X10977984Y-17541908D01*
X10977984Y-17541908D02*
X10997032Y-17513337D01*
X10997032Y-17513337D02*
X11006556Y-17475242D01*
X11006556Y-17475242D02*
X11006556Y-17399051D01*
X11006556Y-17399051D02*
X10997032Y-17380004D01*
X10997032Y-17380004D02*
X10987508Y-17370480D01*
X10987508Y-17370480D02*
X10968461Y-17360956D01*
X10968461Y-17360956D02*
X10930365Y-17360956D01*
X10930365Y-17360956D02*
X10911318Y-17370480D01*
X10911318Y-17370480D02*
X10901794Y-17380004D01*
X10901794Y-17380004D02*
X10892270Y-17399051D01*
X10892270Y-17399051D02*
X10892270Y-17446670D01*
X10892270Y-17446670D02*
X10901794Y-17465718D01*
X10901794Y-17465718D02*
X10911318Y-17475242D01*
X10911318Y-17475242D02*
X10930365Y-17484766D01*
X10930365Y-17484766D02*
X10968461Y-17484766D01*
X10968461Y-17484766D02*
X10987508Y-17475242D01*
X10987508Y-17475242D02*
X10997032Y-17465718D01*
X10997032Y-17465718D02*
X11006556Y-17446670D01*
X11130365Y-17360956D02*
X11149413Y-17360956D01*
X11149413Y-17360956D02*
X11168461Y-17370480D01*
X11168461Y-17370480D02*
X11177984Y-17380004D01*
X11177984Y-17380004D02*
X11187508Y-17399051D01*
X11187508Y-17399051D02*
X11197032Y-17437146D01*
X11197032Y-17437146D02*
X11197032Y-17484766D01*
X11197032Y-17484766D02*
X11187508Y-17522861D01*
X11187508Y-17522861D02*
X11177984Y-17541908D01*
X11177984Y-17541908D02*
X11168461Y-17551432D01*
X11168461Y-17551432D02*
X11149413Y-17560956D01*
X11149413Y-17560956D02*
X11130365Y-17560956D01*
X11130365Y-17560956D02*
X11111318Y-17551432D01*
X11111318Y-17551432D02*
X11101794Y-17541908D01*
X11101794Y-17541908D02*
X11092270Y-17522861D01*
X11092270Y-17522861D02*
X11082746Y-17484766D01*
X11082746Y-17484766D02*
X11082746Y-17437146D01*
X11082746Y-17437146D02*
X11092270Y-17399051D01*
X11092270Y-17399051D02*
X11101794Y-17380004D01*
X11101794Y-17380004D02*
X11111318Y-17370480D01*
X11111318Y-17370480D02*
X11130365Y-17360956D01*
X11320841Y-17360956D02*
X11339889Y-17360956D01*
X11339889Y-17360956D02*
X11358937Y-17370480D01*
X11358937Y-17370480D02*
X11368460Y-17380004D01*
X11368460Y-17380004D02*
X11377984Y-17399051D01*
X11377984Y-17399051D02*
X11387508Y-17437146D01*
X11387508Y-17437146D02*
X11387508Y-17484766D01*
X11387508Y-17484766D02*
X11377984Y-17522861D01*
X11377984Y-17522861D02*
X11368460Y-17541908D01*
X11368460Y-17541908D02*
X11358937Y-17551432D01*
X11358937Y-17551432D02*
X11339889Y-17560956D01*
X11339889Y-17560956D02*
X11320841Y-17560956D01*
X11320841Y-17560956D02*
X11301794Y-17551432D01*
X11301794Y-17551432D02*
X11292270Y-17541908D01*
X11292270Y-17541908D02*
X11282746Y-17522861D01*
X11282746Y-17522861D02*
X11273222Y-17484766D01*
X11273222Y-17484766D02*
X11273222Y-17437146D01*
X11273222Y-17437146D02*
X11282746Y-17399051D01*
X11282746Y-17399051D02*
X11292270Y-17380004D01*
X11292270Y-17380004D02*
X11301794Y-17370480D01*
X11301794Y-17370480D02*
X11320841Y-17360956D01*
X11473222Y-17560956D02*
X11473222Y-17427623D01*
X11473222Y-17446670D02*
X11482746Y-17437146D01*
X11482746Y-17437146D02*
X11501794Y-17427623D01*
X11501794Y-17427623D02*
X11530365Y-17427623D01*
X11530365Y-17427623D02*
X11549413Y-17437146D01*
X11549413Y-17437146D02*
X11558937Y-17456194D01*
X11558937Y-17456194D02*
X11558937Y-17560956D01*
X11558937Y-17456194D02*
X11568460Y-17437146D01*
X11568460Y-17437146D02*
X11587508Y-17427623D01*
X11587508Y-17427623D02*
X11616079Y-17427623D01*
X11616079Y-17427623D02*
X11635127Y-17437146D01*
X11635127Y-17437146D02*
X11644651Y-17456194D01*
X11644651Y-17456194D02*
X11644651Y-17560956D01*
X11739889Y-17560956D02*
X11739889Y-17427623D01*
X11739889Y-17446670D02*
X11749413Y-17437146D01*
X11749413Y-17437146D02*
X11768460Y-17427623D01*
X11768460Y-17427623D02*
X11797032Y-17427623D01*
X11797032Y-17427623D02*
X11816080Y-17437146D01*
X11816080Y-17437146D02*
X11825603Y-17456194D01*
X11825603Y-17456194D02*
X11825603Y-17560956D01*
X11825603Y-17456194D02*
X11835127Y-17437146D01*
X11835127Y-17437146D02*
X11854175Y-17427623D01*
X11854175Y-17427623D02*
X11882746Y-17427623D01*
X11882746Y-17427623D02*
X11901794Y-17437146D01*
X11901794Y-17437146D02*
X11911318Y-17456194D01*
X11911318Y-17456194D02*
X11911318Y-17560956D01*
X12269413Y-17351432D02*
X12097984Y-17608575D01*
X12494175Y-17360956D02*
X12513222Y-17360956D01*
X12513222Y-17360956D02*
X12532270Y-17370480D01*
X12532270Y-17370480D02*
X12541794Y-17380004D01*
X12541794Y-17380004D02*
X12551318Y-17399051D01*
X12551318Y-17399051D02*
X12560841Y-17437146D01*
X12560841Y-17437146D02*
X12560841Y-17484766D01*
X12560841Y-17484766D02*
X12551318Y-17522861D01*
X12551318Y-17522861D02*
X12541794Y-17541908D01*
X12541794Y-17541908D02*
X12532270Y-17551432D01*
X12532270Y-17551432D02*
X12513222Y-17560956D01*
X12513222Y-17560956D02*
X12494175Y-17560956D01*
X12494175Y-17560956D02*
X12475127Y-17551432D01*
X12475127Y-17551432D02*
X12465603Y-17541908D01*
X12465603Y-17541908D02*
X12456080Y-17522861D01*
X12456080Y-17522861D02*
X12446556Y-17484766D01*
X12446556Y-17484766D02*
X12446556Y-17437146D01*
X12446556Y-17437146D02*
X12456080Y-17399051D01*
X12456080Y-17399051D02*
X12465603Y-17380004D01*
X12465603Y-17380004D02*
X12475127Y-17370480D01*
X12475127Y-17370480D02*
X12494175Y-17360956D01*
X12646556Y-17541908D02*
X12656080Y-17551432D01*
X12656080Y-17551432D02*
X12646556Y-17560956D01*
X12646556Y-17560956D02*
X12637032Y-17551432D01*
X12637032Y-17551432D02*
X12646556Y-17541908D01*
X12646556Y-17541908D02*
X12646556Y-17560956D01*
X12779889Y-17360956D02*
X12798937Y-17360956D01*
X12798937Y-17360956D02*
X12817984Y-17370480D01*
X12817984Y-17370480D02*
X12827508Y-17380004D01*
X12827508Y-17380004D02*
X12837032Y-17399051D01*
X12837032Y-17399051D02*
X12846556Y-17437146D01*
X12846556Y-17437146D02*
X12846556Y-17484766D01*
X12846556Y-17484766D02*
X12837032Y-17522861D01*
X12837032Y-17522861D02*
X12827508Y-17541908D01*
X12827508Y-17541908D02*
X12817984Y-17551432D01*
X12817984Y-17551432D02*
X12798937Y-17560956D01*
X12798937Y-17560956D02*
X12779889Y-17560956D01*
X12779889Y-17560956D02*
X12760841Y-17551432D01*
X12760841Y-17551432D02*
X12751318Y-17541908D01*
X12751318Y-17541908D02*
X12741794Y-17522861D01*
X12741794Y-17522861D02*
X12732270Y-17484766D01*
X12732270Y-17484766D02*
X12732270Y-17437146D01*
X12732270Y-17437146D02*
X12741794Y-17399051D01*
X12741794Y-17399051D02*
X12751318Y-17380004D01*
X12751318Y-17380004D02*
X12760841Y-17370480D01*
X12760841Y-17370480D02*
X12779889Y-17360956D01*
X12913222Y-17360956D02*
X13037032Y-17360956D01*
X13037032Y-17360956D02*
X12970365Y-17437146D01*
X12970365Y-17437146D02*
X12998937Y-17437146D01*
X12998937Y-17437146D02*
X13017984Y-17446670D01*
X13017984Y-17446670D02*
X13027508Y-17456194D01*
X13027508Y-17456194D02*
X13037032Y-17475242D01*
X13037032Y-17475242D02*
X13037032Y-17522861D01*
X13037032Y-17522861D02*
X13027508Y-17541908D01*
X13027508Y-17541908D02*
X13017984Y-17551432D01*
X13017984Y-17551432D02*
X12998937Y-17560956D01*
X12998937Y-17560956D02*
X12941794Y-17560956D01*
X12941794Y-17560956D02*
X12922746Y-17551432D01*
X12922746Y-17551432D02*
X12913222Y-17541908D01*
X13217984Y-17360956D02*
X13122746Y-17360956D01*
X13122746Y-17360956D02*
X13113222Y-17456194D01*
X13113222Y-17456194D02*
X13122746Y-17446670D01*
X13122746Y-17446670D02*
X13141794Y-17437146D01*
X13141794Y-17437146D02*
X13189413Y-17437146D01*
X13189413Y-17437146D02*
X13208461Y-17446670D01*
X13208461Y-17446670D02*
X13217984Y-17456194D01*
X13217984Y-17456194D02*
X13227508Y-17475242D01*
X13227508Y-17475242D02*
X13227508Y-17522861D01*
X13227508Y-17522861D02*
X13217984Y-17541908D01*
X13217984Y-17541908D02*
X13208461Y-17551432D01*
X13208461Y-17551432D02*
X13189413Y-17560956D01*
X13189413Y-17560956D02*
X13141794Y-17560956D01*
X13141794Y-17560956D02*
X13122746Y-17551432D01*
X13122746Y-17551432D02*
X13113222Y-17541908D01*
X13398937Y-17427623D02*
X13398937Y-17560956D01*
X13351318Y-17351432D02*
X13303699Y-17494289D01*
X13303699Y-17494289D02*
X13427508Y-17494289D01*
X13494175Y-17360956D02*
X13494175Y-17399051D01*
X13570365Y-17360956D02*
X13570365Y-17399051D01*
X13833223Y-17637146D02*
X13823699Y-17627623D01*
X13823699Y-17627623D02*
X13804651Y-17599051D01*
X13804651Y-17599051D02*
X13795127Y-17580004D01*
X13795127Y-17580004D02*
X13785603Y-17551432D01*
X13785603Y-17551432D02*
X13776080Y-17503813D01*
X13776080Y-17503813D02*
X13776080Y-17465718D01*
X13776080Y-17465718D02*
X13785603Y-17418099D01*
X13785603Y-17418099D02*
X13795127Y-17389527D01*
X13795127Y-17389527D02*
X13804651Y-17370480D01*
X13804651Y-17370480D02*
X13823699Y-17341908D01*
X13823699Y-17341908D02*
X13833223Y-17332385D01*
X13890365Y-17360956D02*
X14014175Y-17360956D01*
X14014175Y-17360956D02*
X13947508Y-17437146D01*
X13947508Y-17437146D02*
X13976080Y-17437146D01*
X13976080Y-17437146D02*
X13995127Y-17446670D01*
X13995127Y-17446670D02*
X14004651Y-17456194D01*
X14004651Y-17456194D02*
X14014175Y-17475242D01*
X14014175Y-17475242D02*
X14014175Y-17522861D01*
X14014175Y-17522861D02*
X14004651Y-17541908D01*
X14004651Y-17541908D02*
X13995127Y-17551432D01*
X13995127Y-17551432D02*
X13976080Y-17560956D01*
X13976080Y-17560956D02*
X13918937Y-17560956D01*
X13918937Y-17560956D02*
X13899889Y-17551432D01*
X13899889Y-17551432D02*
X13890365Y-17541908D01*
X14090365Y-17380004D02*
X14099889Y-17370480D01*
X14099889Y-17370480D02*
X14118937Y-17360956D01*
X14118937Y-17360956D02*
X14166556Y-17360956D01*
X14166556Y-17360956D02*
X14185603Y-17370480D01*
X14185603Y-17370480D02*
X14195127Y-17380004D01*
X14195127Y-17380004D02*
X14204651Y-17399051D01*
X14204651Y-17399051D02*
X14204651Y-17418099D01*
X14204651Y-17418099D02*
X14195127Y-17446670D01*
X14195127Y-17446670D02*
X14080842Y-17560956D01*
X14080842Y-17560956D02*
X14204651Y-17560956D01*
X14410365Y-17560956D02*
X14410365Y-17360956D01*
X14496080Y-17560956D02*
X14496080Y-17456194D01*
X14496080Y-17456194D02*
X14486556Y-17437146D01*
X14486556Y-17437146D02*
X14467508Y-17427623D01*
X14467508Y-17427623D02*
X14438937Y-17427623D01*
X14438937Y-17427623D02*
X14419889Y-17437146D01*
X14419889Y-17437146D02*
X14410365Y-17446670D01*
X14619889Y-17560956D02*
X14600842Y-17551432D01*
X14600842Y-17551432D02*
X14591318Y-17541908D01*
X14591318Y-17541908D02*
X14581794Y-17522861D01*
X14581794Y-17522861D02*
X14581794Y-17465718D01*
X14581794Y-17465718D02*
X14591318Y-17446670D01*
X14591318Y-17446670D02*
X14600842Y-17437146D01*
X14600842Y-17437146D02*
X14619889Y-17427623D01*
X14619889Y-17427623D02*
X14648461Y-17427623D01*
X14648461Y-17427623D02*
X14667508Y-17437146D01*
X14667508Y-17437146D02*
X14677032Y-17446670D01*
X14677032Y-17446670D02*
X14686556Y-17465718D01*
X14686556Y-17465718D02*
X14686556Y-17522861D01*
X14686556Y-17522861D02*
X14677032Y-17541908D01*
X14677032Y-17541908D02*
X14667508Y-17551432D01*
X14667508Y-17551432D02*
X14648461Y-17560956D01*
X14648461Y-17560956D02*
X14619889Y-17560956D01*
X14800842Y-17560956D02*
X14781794Y-17551432D01*
X14781794Y-17551432D02*
X14772270Y-17532385D01*
X14772270Y-17532385D02*
X14772270Y-17360956D01*
X14953223Y-17551432D02*
X14934175Y-17560956D01*
X14934175Y-17560956D02*
X14896080Y-17560956D01*
X14896080Y-17560956D02*
X14877032Y-17551432D01*
X14877032Y-17551432D02*
X14867508Y-17532385D01*
X14867508Y-17532385D02*
X14867508Y-17456194D01*
X14867508Y-17456194D02*
X14877032Y-17437146D01*
X14877032Y-17437146D02*
X14896080Y-17427623D01*
X14896080Y-17427623D02*
X14934175Y-17427623D01*
X14934175Y-17427623D02*
X14953223Y-17437146D01*
X14953223Y-17437146D02*
X14962746Y-17456194D01*
X14962746Y-17456194D02*
X14962746Y-17475242D01*
X14962746Y-17475242D02*
X14867508Y-17494289D01*
X15038937Y-17551432D02*
X15057984Y-17560956D01*
X15057984Y-17560956D02*
X15096080Y-17560956D01*
X15096080Y-17560956D02*
X15115127Y-17551432D01*
X15115127Y-17551432D02*
X15124651Y-17532385D01*
X15124651Y-17532385D02*
X15124651Y-17522861D01*
X15124651Y-17522861D02*
X15115127Y-17503813D01*
X15115127Y-17503813D02*
X15096080Y-17494289D01*
X15096080Y-17494289D02*
X15067508Y-17494289D01*
X15067508Y-17494289D02*
X15048461Y-17484766D01*
X15048461Y-17484766D02*
X15038937Y-17465718D01*
X15038937Y-17465718D02*
X15038937Y-17456194D01*
X15038937Y-17456194D02*
X15048461Y-17437146D01*
X15048461Y-17437146D02*
X15067508Y-17427623D01*
X15067508Y-17427623D02*
X15096080Y-17427623D01*
X15096080Y-17427623D02*
X15115127Y-17437146D01*
X15191318Y-17637146D02*
X15200842Y-17627623D01*
X15200842Y-17627623D02*
X15219889Y-17599051D01*
X15219889Y-17599051D02*
X15229413Y-17580004D01*
X15229413Y-17580004D02*
X15238937Y-17551432D01*
X15238937Y-17551432D02*
X15248461Y-17503813D01*
X15248461Y-17503813D02*
X15248461Y-17465718D01*
X15248461Y-17465718D02*
X15238937Y-17418099D01*
X15238937Y-17418099D02*
X15229413Y-17389527D01*
X15229413Y-17389527D02*
X15219889Y-17370480D01*
X15219889Y-17370480D02*
X15200842Y-17341908D01*
X15200842Y-17341908D02*
X15191318Y-17332385D01*
D15*
X10353816Y-17786836D02*
X10353816Y-17716124D01*
X10283105Y-17716124D01*
X10283105Y-17786836D01*
X10353816Y-17786836D01*
D11*
X10720841Y-17824956D02*
X10606556Y-17824956D01*
X10663699Y-17824956D02*
X10663699Y-17624956D01*
X10663699Y-17624956D02*
X10644651Y-17653527D01*
X10644651Y-17653527D02*
X10625603Y-17672575D01*
X10625603Y-17672575D02*
X10606556Y-17682099D01*
X10806556Y-17805908D02*
X10816080Y-17815432D01*
X10816080Y-17815432D02*
X10806556Y-17824956D01*
X10806556Y-17824956D02*
X10797032Y-17815432D01*
X10797032Y-17815432D02*
X10806556Y-17805908D01*
X10806556Y-17805908D02*
X10806556Y-17824956D01*
X10939889Y-17624956D02*
X10958937Y-17624956D01*
X10958937Y-17624956D02*
X10977984Y-17634480D01*
X10977984Y-17634480D02*
X10987508Y-17644004D01*
X10987508Y-17644004D02*
X10997032Y-17663051D01*
X10997032Y-17663051D02*
X11006556Y-17701146D01*
X11006556Y-17701146D02*
X11006556Y-17748766D01*
X11006556Y-17748766D02*
X10997032Y-17786861D01*
X10997032Y-17786861D02*
X10987508Y-17805908D01*
X10987508Y-17805908D02*
X10977984Y-17815432D01*
X10977984Y-17815432D02*
X10958937Y-17824956D01*
X10958937Y-17824956D02*
X10939889Y-17824956D01*
X10939889Y-17824956D02*
X10920841Y-17815432D01*
X10920841Y-17815432D02*
X10911318Y-17805908D01*
X10911318Y-17805908D02*
X10901794Y-17786861D01*
X10901794Y-17786861D02*
X10892270Y-17748766D01*
X10892270Y-17748766D02*
X10892270Y-17701146D01*
X10892270Y-17701146D02*
X10901794Y-17663051D01*
X10901794Y-17663051D02*
X10911318Y-17644004D01*
X10911318Y-17644004D02*
X10920841Y-17634480D01*
X10920841Y-17634480D02*
X10939889Y-17624956D01*
X11130365Y-17624956D02*
X11149413Y-17624956D01*
X11149413Y-17624956D02*
X11168461Y-17634480D01*
X11168461Y-17634480D02*
X11177984Y-17644004D01*
X11177984Y-17644004D02*
X11187508Y-17663051D01*
X11187508Y-17663051D02*
X11197032Y-17701146D01*
X11197032Y-17701146D02*
X11197032Y-17748766D01*
X11197032Y-17748766D02*
X11187508Y-17786861D01*
X11187508Y-17786861D02*
X11177984Y-17805908D01*
X11177984Y-17805908D02*
X11168461Y-17815432D01*
X11168461Y-17815432D02*
X11149413Y-17824956D01*
X11149413Y-17824956D02*
X11130365Y-17824956D01*
X11130365Y-17824956D02*
X11111318Y-17815432D01*
X11111318Y-17815432D02*
X11101794Y-17805908D01*
X11101794Y-17805908D02*
X11092270Y-17786861D01*
X11092270Y-17786861D02*
X11082746Y-17748766D01*
X11082746Y-17748766D02*
X11082746Y-17701146D01*
X11082746Y-17701146D02*
X11092270Y-17663051D01*
X11092270Y-17663051D02*
X11101794Y-17644004D01*
X11101794Y-17644004D02*
X11111318Y-17634480D01*
X11111318Y-17634480D02*
X11130365Y-17624956D01*
X11320841Y-17624956D02*
X11339889Y-17624956D01*
X11339889Y-17624956D02*
X11358937Y-17634480D01*
X11358937Y-17634480D02*
X11368460Y-17644004D01*
X11368460Y-17644004D02*
X11377984Y-17663051D01*
X11377984Y-17663051D02*
X11387508Y-17701146D01*
X11387508Y-17701146D02*
X11387508Y-17748766D01*
X11387508Y-17748766D02*
X11377984Y-17786861D01*
X11377984Y-17786861D02*
X11368460Y-17805908D01*
X11368460Y-17805908D02*
X11358937Y-17815432D01*
X11358937Y-17815432D02*
X11339889Y-17824956D01*
X11339889Y-17824956D02*
X11320841Y-17824956D01*
X11320841Y-17824956D02*
X11301794Y-17815432D01*
X11301794Y-17815432D02*
X11292270Y-17805908D01*
X11292270Y-17805908D02*
X11282746Y-17786861D01*
X11282746Y-17786861D02*
X11273222Y-17748766D01*
X11273222Y-17748766D02*
X11273222Y-17701146D01*
X11273222Y-17701146D02*
X11282746Y-17663051D01*
X11282746Y-17663051D02*
X11292270Y-17644004D01*
X11292270Y-17644004D02*
X11301794Y-17634480D01*
X11301794Y-17634480D02*
X11320841Y-17624956D01*
X11473222Y-17824956D02*
X11473222Y-17691623D01*
X11473222Y-17710670D02*
X11482746Y-17701146D01*
X11482746Y-17701146D02*
X11501794Y-17691623D01*
X11501794Y-17691623D02*
X11530365Y-17691623D01*
X11530365Y-17691623D02*
X11549413Y-17701146D01*
X11549413Y-17701146D02*
X11558937Y-17720194D01*
X11558937Y-17720194D02*
X11558937Y-17824956D01*
X11558937Y-17720194D02*
X11568460Y-17701146D01*
X11568460Y-17701146D02*
X11587508Y-17691623D01*
X11587508Y-17691623D02*
X11616079Y-17691623D01*
X11616079Y-17691623D02*
X11635127Y-17701146D01*
X11635127Y-17701146D02*
X11644651Y-17720194D01*
X11644651Y-17720194D02*
X11644651Y-17824956D01*
X11739889Y-17824956D02*
X11739889Y-17691623D01*
X11739889Y-17710670D02*
X11749413Y-17701146D01*
X11749413Y-17701146D02*
X11768460Y-17691623D01*
X11768460Y-17691623D02*
X11797032Y-17691623D01*
X11797032Y-17691623D02*
X11816080Y-17701146D01*
X11816080Y-17701146D02*
X11825603Y-17720194D01*
X11825603Y-17720194D02*
X11825603Y-17824956D01*
X11825603Y-17720194D02*
X11835127Y-17701146D01*
X11835127Y-17701146D02*
X11854175Y-17691623D01*
X11854175Y-17691623D02*
X11882746Y-17691623D01*
X11882746Y-17691623D02*
X11901794Y-17701146D01*
X11901794Y-17701146D02*
X11911318Y-17720194D01*
X11911318Y-17720194D02*
X11911318Y-17824956D01*
X12269413Y-17615432D02*
X12097984Y-17872575D01*
X12494175Y-17624956D02*
X12513222Y-17624956D01*
X12513222Y-17624956D02*
X12532270Y-17634480D01*
X12532270Y-17634480D02*
X12541794Y-17644004D01*
X12541794Y-17644004D02*
X12551318Y-17663051D01*
X12551318Y-17663051D02*
X12560841Y-17701146D01*
X12560841Y-17701146D02*
X12560841Y-17748766D01*
X12560841Y-17748766D02*
X12551318Y-17786861D01*
X12551318Y-17786861D02*
X12541794Y-17805908D01*
X12541794Y-17805908D02*
X12532270Y-17815432D01*
X12532270Y-17815432D02*
X12513222Y-17824956D01*
X12513222Y-17824956D02*
X12494175Y-17824956D01*
X12494175Y-17824956D02*
X12475127Y-17815432D01*
X12475127Y-17815432D02*
X12465603Y-17805908D01*
X12465603Y-17805908D02*
X12456080Y-17786861D01*
X12456080Y-17786861D02*
X12446556Y-17748766D01*
X12446556Y-17748766D02*
X12446556Y-17701146D01*
X12446556Y-17701146D02*
X12456080Y-17663051D01*
X12456080Y-17663051D02*
X12465603Y-17644004D01*
X12465603Y-17644004D02*
X12475127Y-17634480D01*
X12475127Y-17634480D02*
X12494175Y-17624956D01*
X12646556Y-17805908D02*
X12656080Y-17815432D01*
X12656080Y-17815432D02*
X12646556Y-17824956D01*
X12646556Y-17824956D02*
X12637032Y-17815432D01*
X12637032Y-17815432D02*
X12646556Y-17805908D01*
X12646556Y-17805908D02*
X12646556Y-17824956D01*
X12779889Y-17624956D02*
X12798937Y-17624956D01*
X12798937Y-17624956D02*
X12817984Y-17634480D01*
X12817984Y-17634480D02*
X12827508Y-17644004D01*
X12827508Y-17644004D02*
X12837032Y-17663051D01*
X12837032Y-17663051D02*
X12846556Y-17701146D01*
X12846556Y-17701146D02*
X12846556Y-17748766D01*
X12846556Y-17748766D02*
X12837032Y-17786861D01*
X12837032Y-17786861D02*
X12827508Y-17805908D01*
X12827508Y-17805908D02*
X12817984Y-17815432D01*
X12817984Y-17815432D02*
X12798937Y-17824956D01*
X12798937Y-17824956D02*
X12779889Y-17824956D01*
X12779889Y-17824956D02*
X12760841Y-17815432D01*
X12760841Y-17815432D02*
X12751318Y-17805908D01*
X12751318Y-17805908D02*
X12741794Y-17786861D01*
X12741794Y-17786861D02*
X12732270Y-17748766D01*
X12732270Y-17748766D02*
X12732270Y-17701146D01*
X12732270Y-17701146D02*
X12741794Y-17663051D01*
X12741794Y-17663051D02*
X12751318Y-17644004D01*
X12751318Y-17644004D02*
X12760841Y-17634480D01*
X12760841Y-17634480D02*
X12779889Y-17624956D01*
X12913222Y-17624956D02*
X13037032Y-17624956D01*
X13037032Y-17624956D02*
X12970365Y-17701146D01*
X12970365Y-17701146D02*
X12998937Y-17701146D01*
X12998937Y-17701146D02*
X13017984Y-17710670D01*
X13017984Y-17710670D02*
X13027508Y-17720194D01*
X13027508Y-17720194D02*
X13037032Y-17739242D01*
X13037032Y-17739242D02*
X13037032Y-17786861D01*
X13037032Y-17786861D02*
X13027508Y-17805908D01*
X13027508Y-17805908D02*
X13017984Y-17815432D01*
X13017984Y-17815432D02*
X12998937Y-17824956D01*
X12998937Y-17824956D02*
X12941794Y-17824956D01*
X12941794Y-17824956D02*
X12922746Y-17815432D01*
X12922746Y-17815432D02*
X12913222Y-17805908D01*
X13132270Y-17824956D02*
X13170365Y-17824956D01*
X13170365Y-17824956D02*
X13189413Y-17815432D01*
X13189413Y-17815432D02*
X13198937Y-17805908D01*
X13198937Y-17805908D02*
X13217984Y-17777337D01*
X13217984Y-17777337D02*
X13227508Y-17739242D01*
X13227508Y-17739242D02*
X13227508Y-17663051D01*
X13227508Y-17663051D02*
X13217984Y-17644004D01*
X13217984Y-17644004D02*
X13208461Y-17634480D01*
X13208461Y-17634480D02*
X13189413Y-17624956D01*
X13189413Y-17624956D02*
X13151318Y-17624956D01*
X13151318Y-17624956D02*
X13132270Y-17634480D01*
X13132270Y-17634480D02*
X13122746Y-17644004D01*
X13122746Y-17644004D02*
X13113222Y-17663051D01*
X13113222Y-17663051D02*
X13113222Y-17710670D01*
X13113222Y-17710670D02*
X13122746Y-17729718D01*
X13122746Y-17729718D02*
X13132270Y-17739242D01*
X13132270Y-17739242D02*
X13151318Y-17748766D01*
X13151318Y-17748766D02*
X13189413Y-17748766D01*
X13189413Y-17748766D02*
X13208461Y-17739242D01*
X13208461Y-17739242D02*
X13217984Y-17729718D01*
X13217984Y-17729718D02*
X13227508Y-17710670D01*
X13398937Y-17691623D02*
X13398937Y-17824956D01*
X13351318Y-17615432D02*
X13303699Y-17758289D01*
X13303699Y-17758289D02*
X13427508Y-17758289D01*
X13494175Y-17624956D02*
X13494175Y-17663051D01*
X13570365Y-17624956D02*
X13570365Y-17663051D01*
X13833223Y-17901146D02*
X13823699Y-17891623D01*
X13823699Y-17891623D02*
X13804651Y-17863051D01*
X13804651Y-17863051D02*
X13795127Y-17844004D01*
X13795127Y-17844004D02*
X13785603Y-17815432D01*
X13785603Y-17815432D02*
X13776080Y-17767813D01*
X13776080Y-17767813D02*
X13776080Y-17729718D01*
X13776080Y-17729718D02*
X13785603Y-17682099D01*
X13785603Y-17682099D02*
X13795127Y-17653527D01*
X13795127Y-17653527D02*
X13804651Y-17634480D01*
X13804651Y-17634480D02*
X13823699Y-17605908D01*
X13823699Y-17605908D02*
X13833223Y-17596385D01*
X13937984Y-17710670D02*
X13918937Y-17701146D01*
X13918937Y-17701146D02*
X13909413Y-17691623D01*
X13909413Y-17691623D02*
X13899889Y-17672575D01*
X13899889Y-17672575D02*
X13899889Y-17663051D01*
X13899889Y-17663051D02*
X13909413Y-17644004D01*
X13909413Y-17644004D02*
X13918937Y-17634480D01*
X13918937Y-17634480D02*
X13937984Y-17624956D01*
X13937984Y-17624956D02*
X13976080Y-17624956D01*
X13976080Y-17624956D02*
X13995127Y-17634480D01*
X13995127Y-17634480D02*
X14004651Y-17644004D01*
X14004651Y-17644004D02*
X14014175Y-17663051D01*
X14014175Y-17663051D02*
X14014175Y-17672575D01*
X14014175Y-17672575D02*
X14004651Y-17691623D01*
X14004651Y-17691623D02*
X13995127Y-17701146D01*
X13995127Y-17701146D02*
X13976080Y-17710670D01*
X13976080Y-17710670D02*
X13937984Y-17710670D01*
X13937984Y-17710670D02*
X13918937Y-17720194D01*
X13918937Y-17720194D02*
X13909413Y-17729718D01*
X13909413Y-17729718D02*
X13899889Y-17748766D01*
X13899889Y-17748766D02*
X13899889Y-17786861D01*
X13899889Y-17786861D02*
X13909413Y-17805908D01*
X13909413Y-17805908D02*
X13918937Y-17815432D01*
X13918937Y-17815432D02*
X13937984Y-17824956D01*
X13937984Y-17824956D02*
X13976080Y-17824956D01*
X13976080Y-17824956D02*
X13995127Y-17815432D01*
X13995127Y-17815432D02*
X14004651Y-17805908D01*
X14004651Y-17805908D02*
X14014175Y-17786861D01*
X14014175Y-17786861D02*
X14014175Y-17748766D01*
X14014175Y-17748766D02*
X14004651Y-17729718D01*
X14004651Y-17729718D02*
X13995127Y-17720194D01*
X13995127Y-17720194D02*
X13976080Y-17710670D01*
X14219889Y-17824956D02*
X14219889Y-17624956D01*
X14305603Y-17824956D02*
X14305603Y-17720194D01*
X14305603Y-17720194D02*
X14296080Y-17701146D01*
X14296080Y-17701146D02*
X14277032Y-17691623D01*
X14277032Y-17691623D02*
X14248461Y-17691623D01*
X14248461Y-17691623D02*
X14229413Y-17701146D01*
X14229413Y-17701146D02*
X14219889Y-17710670D01*
X14429413Y-17824956D02*
X14410365Y-17815432D01*
X14410365Y-17815432D02*
X14400842Y-17805908D01*
X14400842Y-17805908D02*
X14391318Y-17786861D01*
X14391318Y-17786861D02*
X14391318Y-17729718D01*
X14391318Y-17729718D02*
X14400842Y-17710670D01*
X14400842Y-17710670D02*
X14410365Y-17701146D01*
X14410365Y-17701146D02*
X14429413Y-17691623D01*
X14429413Y-17691623D02*
X14457984Y-17691623D01*
X14457984Y-17691623D02*
X14477032Y-17701146D01*
X14477032Y-17701146D02*
X14486556Y-17710670D01*
X14486556Y-17710670D02*
X14496080Y-17729718D01*
X14496080Y-17729718D02*
X14496080Y-17786861D01*
X14496080Y-17786861D02*
X14486556Y-17805908D01*
X14486556Y-17805908D02*
X14477032Y-17815432D01*
X14477032Y-17815432D02*
X14457984Y-17824956D01*
X14457984Y-17824956D02*
X14429413Y-17824956D01*
X14610365Y-17824956D02*
X14591318Y-17815432D01*
X14591318Y-17815432D02*
X14581794Y-17796385D01*
X14581794Y-17796385D02*
X14581794Y-17624956D01*
X14762746Y-17815432D02*
X14743699Y-17824956D01*
X14743699Y-17824956D02*
X14705603Y-17824956D01*
X14705603Y-17824956D02*
X14686556Y-17815432D01*
X14686556Y-17815432D02*
X14677032Y-17796385D01*
X14677032Y-17796385D02*
X14677032Y-17720194D01*
X14677032Y-17720194D02*
X14686556Y-17701146D01*
X14686556Y-17701146D02*
X14705603Y-17691623D01*
X14705603Y-17691623D02*
X14743699Y-17691623D01*
X14743699Y-17691623D02*
X14762746Y-17701146D01*
X14762746Y-17701146D02*
X14772270Y-17720194D01*
X14772270Y-17720194D02*
X14772270Y-17739242D01*
X14772270Y-17739242D02*
X14677032Y-17758289D01*
X14848461Y-17815432D02*
X14867508Y-17824956D01*
X14867508Y-17824956D02*
X14905603Y-17824956D01*
X14905603Y-17824956D02*
X14924651Y-17815432D01*
X14924651Y-17815432D02*
X14934175Y-17796385D01*
X14934175Y-17796385D02*
X14934175Y-17786861D01*
X14934175Y-17786861D02*
X14924651Y-17767813D01*
X14924651Y-17767813D02*
X14905603Y-17758289D01*
X14905603Y-17758289D02*
X14877032Y-17758289D01*
X14877032Y-17758289D02*
X14857984Y-17748766D01*
X14857984Y-17748766D02*
X14848461Y-17729718D01*
X14848461Y-17729718D02*
X14848461Y-17720194D01*
X14848461Y-17720194D02*
X14857984Y-17701146D01*
X14857984Y-17701146D02*
X14877032Y-17691623D01*
X14877032Y-17691623D02*
X14905603Y-17691623D01*
X14905603Y-17691623D02*
X14924651Y-17701146D01*
X15000842Y-17901146D02*
X15010365Y-17891623D01*
X15010365Y-17891623D02*
X15029413Y-17863051D01*
X15029413Y-17863051D02*
X15038937Y-17844004D01*
X15038937Y-17844004D02*
X15048461Y-17815432D01*
X15048461Y-17815432D02*
X15057984Y-17767813D01*
X15057984Y-17767813D02*
X15057984Y-17729718D01*
X15057984Y-17729718D02*
X15048461Y-17682099D01*
X15048461Y-17682099D02*
X15038937Y-17653527D01*
X15038937Y-17653527D02*
X15029413Y-17634480D01*
X15029413Y-17634480D02*
X15010365Y-17605908D01*
X15010365Y-17605908D02*
X15000842Y-17596385D01*
D16*
X10307961Y-18075980D02*
X10368461Y-18015480D01*
X10307961Y-17954980D01*
X10247461Y-18015480D01*
X10307961Y-18075980D01*
D11*
X10720841Y-18088956D02*
X10606556Y-18088956D01*
X10663699Y-18088956D02*
X10663699Y-17888956D01*
X10663699Y-17888956D02*
X10644651Y-17917527D01*
X10644651Y-17917527D02*
X10625603Y-17936575D01*
X10625603Y-17936575D02*
X10606556Y-17946099D01*
X10806556Y-18069908D02*
X10816080Y-18079432D01*
X10816080Y-18079432D02*
X10806556Y-18088956D01*
X10806556Y-18088956D02*
X10797032Y-18079432D01*
X10797032Y-18079432D02*
X10806556Y-18069908D01*
X10806556Y-18069908D02*
X10806556Y-18088956D01*
X10892270Y-17908004D02*
X10901794Y-17898480D01*
X10901794Y-17898480D02*
X10920841Y-17888956D01*
X10920841Y-17888956D02*
X10968461Y-17888956D01*
X10968461Y-17888956D02*
X10987508Y-17898480D01*
X10987508Y-17898480D02*
X10997032Y-17908004D01*
X10997032Y-17908004D02*
X11006556Y-17927051D01*
X11006556Y-17927051D02*
X11006556Y-17946099D01*
X11006556Y-17946099D02*
X10997032Y-17974670D01*
X10997032Y-17974670D02*
X10882746Y-18088956D01*
X10882746Y-18088956D02*
X11006556Y-18088956D01*
X11197032Y-18088956D02*
X11082746Y-18088956D01*
X11139889Y-18088956D02*
X11139889Y-17888956D01*
X11139889Y-17888956D02*
X11120841Y-17917527D01*
X11120841Y-17917527D02*
X11101794Y-17936575D01*
X11101794Y-17936575D02*
X11082746Y-17946099D01*
X11320841Y-17888956D02*
X11339889Y-17888956D01*
X11339889Y-17888956D02*
X11358937Y-17898480D01*
X11358937Y-17898480D02*
X11368460Y-17908004D01*
X11368460Y-17908004D02*
X11377984Y-17927051D01*
X11377984Y-17927051D02*
X11387508Y-17965146D01*
X11387508Y-17965146D02*
X11387508Y-18012766D01*
X11387508Y-18012766D02*
X11377984Y-18050861D01*
X11377984Y-18050861D02*
X11368460Y-18069908D01*
X11368460Y-18069908D02*
X11358937Y-18079432D01*
X11358937Y-18079432D02*
X11339889Y-18088956D01*
X11339889Y-18088956D02*
X11320841Y-18088956D01*
X11320841Y-18088956D02*
X11301794Y-18079432D01*
X11301794Y-18079432D02*
X11292270Y-18069908D01*
X11292270Y-18069908D02*
X11282746Y-18050861D01*
X11282746Y-18050861D02*
X11273222Y-18012766D01*
X11273222Y-18012766D02*
X11273222Y-17965146D01*
X11273222Y-17965146D02*
X11282746Y-17927051D01*
X11282746Y-17927051D02*
X11292270Y-17908004D01*
X11292270Y-17908004D02*
X11301794Y-17898480D01*
X11301794Y-17898480D02*
X11320841Y-17888956D01*
X11473222Y-18088956D02*
X11473222Y-17955623D01*
X11473222Y-17974670D02*
X11482746Y-17965146D01*
X11482746Y-17965146D02*
X11501794Y-17955623D01*
X11501794Y-17955623D02*
X11530365Y-17955623D01*
X11530365Y-17955623D02*
X11549413Y-17965146D01*
X11549413Y-17965146D02*
X11558937Y-17984194D01*
X11558937Y-17984194D02*
X11558937Y-18088956D01*
X11558937Y-17984194D02*
X11568460Y-17965146D01*
X11568460Y-17965146D02*
X11587508Y-17955623D01*
X11587508Y-17955623D02*
X11616079Y-17955623D01*
X11616079Y-17955623D02*
X11635127Y-17965146D01*
X11635127Y-17965146D02*
X11644651Y-17984194D01*
X11644651Y-17984194D02*
X11644651Y-18088956D01*
X11739889Y-18088956D02*
X11739889Y-17955623D01*
X11739889Y-17974670D02*
X11749413Y-17965146D01*
X11749413Y-17965146D02*
X11768460Y-17955623D01*
X11768460Y-17955623D02*
X11797032Y-17955623D01*
X11797032Y-17955623D02*
X11816080Y-17965146D01*
X11816080Y-17965146D02*
X11825603Y-17984194D01*
X11825603Y-17984194D02*
X11825603Y-18088956D01*
X11825603Y-17984194D02*
X11835127Y-17965146D01*
X11835127Y-17965146D02*
X11854175Y-17955623D01*
X11854175Y-17955623D02*
X11882746Y-17955623D01*
X11882746Y-17955623D02*
X11901794Y-17965146D01*
X11901794Y-17965146D02*
X11911318Y-17984194D01*
X11911318Y-17984194D02*
X11911318Y-18088956D01*
X12269413Y-17879432D02*
X12097984Y-18136575D01*
X12494175Y-17888956D02*
X12513222Y-17888956D01*
X12513222Y-17888956D02*
X12532270Y-17898480D01*
X12532270Y-17898480D02*
X12541794Y-17908004D01*
X12541794Y-17908004D02*
X12551318Y-17927051D01*
X12551318Y-17927051D02*
X12560841Y-17965146D01*
X12560841Y-17965146D02*
X12560841Y-18012766D01*
X12560841Y-18012766D02*
X12551318Y-18050861D01*
X12551318Y-18050861D02*
X12541794Y-18069908D01*
X12541794Y-18069908D02*
X12532270Y-18079432D01*
X12532270Y-18079432D02*
X12513222Y-18088956D01*
X12513222Y-18088956D02*
X12494175Y-18088956D01*
X12494175Y-18088956D02*
X12475127Y-18079432D01*
X12475127Y-18079432D02*
X12465603Y-18069908D01*
X12465603Y-18069908D02*
X12456080Y-18050861D01*
X12456080Y-18050861D02*
X12446556Y-18012766D01*
X12446556Y-18012766D02*
X12446556Y-17965146D01*
X12446556Y-17965146D02*
X12456080Y-17927051D01*
X12456080Y-17927051D02*
X12465603Y-17908004D01*
X12465603Y-17908004D02*
X12475127Y-17898480D01*
X12475127Y-17898480D02*
X12494175Y-17888956D01*
X12646556Y-18069908D02*
X12656080Y-18079432D01*
X12656080Y-18079432D02*
X12646556Y-18088956D01*
X12646556Y-18088956D02*
X12637032Y-18079432D01*
X12637032Y-18079432D02*
X12646556Y-18069908D01*
X12646556Y-18069908D02*
X12646556Y-18088956D01*
X12779889Y-17888956D02*
X12798937Y-17888956D01*
X12798937Y-17888956D02*
X12817984Y-17898480D01*
X12817984Y-17898480D02*
X12827508Y-17908004D01*
X12827508Y-17908004D02*
X12837032Y-17927051D01*
X12837032Y-17927051D02*
X12846556Y-17965146D01*
X12846556Y-17965146D02*
X12846556Y-18012766D01*
X12846556Y-18012766D02*
X12837032Y-18050861D01*
X12837032Y-18050861D02*
X12827508Y-18069908D01*
X12827508Y-18069908D02*
X12817984Y-18079432D01*
X12817984Y-18079432D02*
X12798937Y-18088956D01*
X12798937Y-18088956D02*
X12779889Y-18088956D01*
X12779889Y-18088956D02*
X12760841Y-18079432D01*
X12760841Y-18079432D02*
X12751318Y-18069908D01*
X12751318Y-18069908D02*
X12741794Y-18050861D01*
X12741794Y-18050861D02*
X12732270Y-18012766D01*
X12732270Y-18012766D02*
X12732270Y-17965146D01*
X12732270Y-17965146D02*
X12741794Y-17927051D01*
X12741794Y-17927051D02*
X12751318Y-17908004D01*
X12751318Y-17908004D02*
X12760841Y-17898480D01*
X12760841Y-17898480D02*
X12779889Y-17888956D01*
X13017984Y-17955623D02*
X13017984Y-18088956D01*
X12970365Y-17879432D02*
X12922746Y-18022289D01*
X12922746Y-18022289D02*
X13046556Y-18022289D01*
X13103699Y-17888956D02*
X13237032Y-17888956D01*
X13237032Y-17888956D02*
X13151318Y-18088956D01*
X13398937Y-17888956D02*
X13360841Y-17888956D01*
X13360841Y-17888956D02*
X13341794Y-17898480D01*
X13341794Y-17898480D02*
X13332270Y-17908004D01*
X13332270Y-17908004D02*
X13313222Y-17936575D01*
X13313222Y-17936575D02*
X13303699Y-17974670D01*
X13303699Y-17974670D02*
X13303699Y-18050861D01*
X13303699Y-18050861D02*
X13313222Y-18069908D01*
X13313222Y-18069908D02*
X13322746Y-18079432D01*
X13322746Y-18079432D02*
X13341794Y-18088956D01*
X13341794Y-18088956D02*
X13379889Y-18088956D01*
X13379889Y-18088956D02*
X13398937Y-18079432D01*
X13398937Y-18079432D02*
X13408461Y-18069908D01*
X13408461Y-18069908D02*
X13417984Y-18050861D01*
X13417984Y-18050861D02*
X13417984Y-18003242D01*
X13417984Y-18003242D02*
X13408461Y-17984194D01*
X13408461Y-17984194D02*
X13398937Y-17974670D01*
X13398937Y-17974670D02*
X13379889Y-17965146D01*
X13379889Y-17965146D02*
X13341794Y-17965146D01*
X13341794Y-17965146D02*
X13322746Y-17974670D01*
X13322746Y-17974670D02*
X13313222Y-17984194D01*
X13313222Y-17984194D02*
X13303699Y-18003242D01*
X13494175Y-17888956D02*
X13494175Y-17927051D01*
X13570365Y-17888956D02*
X13570365Y-17927051D01*
X13833223Y-18165146D02*
X13823699Y-18155623D01*
X13823699Y-18155623D02*
X13804651Y-18127051D01*
X13804651Y-18127051D02*
X13795127Y-18108004D01*
X13795127Y-18108004D02*
X13785603Y-18079432D01*
X13785603Y-18079432D02*
X13776080Y-18031813D01*
X13776080Y-18031813D02*
X13776080Y-17993718D01*
X13776080Y-17993718D02*
X13785603Y-17946099D01*
X13785603Y-17946099D02*
X13795127Y-17917527D01*
X13795127Y-17917527D02*
X13804651Y-17898480D01*
X13804651Y-17898480D02*
X13823699Y-17869908D01*
X13823699Y-17869908D02*
X13833223Y-17860385D01*
X14014175Y-18088956D02*
X13899889Y-18088956D01*
X13957032Y-18088956D02*
X13957032Y-17888956D01*
X13957032Y-17888956D02*
X13937984Y-17917527D01*
X13937984Y-17917527D02*
X13918937Y-17936575D01*
X13918937Y-17936575D02*
X13899889Y-17946099D01*
X14219889Y-18088956D02*
X14219889Y-17888956D01*
X14305603Y-18088956D02*
X14305603Y-17984194D01*
X14305603Y-17984194D02*
X14296080Y-17965146D01*
X14296080Y-17965146D02*
X14277032Y-17955623D01*
X14277032Y-17955623D02*
X14248461Y-17955623D01*
X14248461Y-17955623D02*
X14229413Y-17965146D01*
X14229413Y-17965146D02*
X14219889Y-17974670D01*
X14429413Y-18088956D02*
X14410365Y-18079432D01*
X14410365Y-18079432D02*
X14400842Y-18069908D01*
X14400842Y-18069908D02*
X14391318Y-18050861D01*
X14391318Y-18050861D02*
X14391318Y-17993718D01*
X14391318Y-17993718D02*
X14400842Y-17974670D01*
X14400842Y-17974670D02*
X14410365Y-17965146D01*
X14410365Y-17965146D02*
X14429413Y-17955623D01*
X14429413Y-17955623D02*
X14457984Y-17955623D01*
X14457984Y-17955623D02*
X14477032Y-17965146D01*
X14477032Y-17965146D02*
X14486556Y-17974670D01*
X14486556Y-17974670D02*
X14496080Y-17993718D01*
X14496080Y-17993718D02*
X14496080Y-18050861D01*
X14496080Y-18050861D02*
X14486556Y-18069908D01*
X14486556Y-18069908D02*
X14477032Y-18079432D01*
X14477032Y-18079432D02*
X14457984Y-18088956D01*
X14457984Y-18088956D02*
X14429413Y-18088956D01*
X14610365Y-18088956D02*
X14591318Y-18079432D01*
X14591318Y-18079432D02*
X14581794Y-18060385D01*
X14581794Y-18060385D02*
X14581794Y-17888956D01*
X14762746Y-18079432D02*
X14743699Y-18088956D01*
X14743699Y-18088956D02*
X14705603Y-18088956D01*
X14705603Y-18088956D02*
X14686556Y-18079432D01*
X14686556Y-18079432D02*
X14677032Y-18060385D01*
X14677032Y-18060385D02*
X14677032Y-17984194D01*
X14677032Y-17984194D02*
X14686556Y-17965146D01*
X14686556Y-17965146D02*
X14705603Y-17955623D01*
X14705603Y-17955623D02*
X14743699Y-17955623D01*
X14743699Y-17955623D02*
X14762746Y-17965146D01*
X14762746Y-17965146D02*
X14772270Y-17984194D01*
X14772270Y-17984194D02*
X14772270Y-18003242D01*
X14772270Y-18003242D02*
X14677032Y-18022289D01*
X14838937Y-18165146D02*
X14848461Y-18155623D01*
X14848461Y-18155623D02*
X14867508Y-18127051D01*
X14867508Y-18127051D02*
X14877032Y-18108004D01*
X14877032Y-18108004D02*
X14886556Y-18079432D01*
X14886556Y-18079432D02*
X14896080Y-18031813D01*
X14896080Y-18031813D02*
X14896080Y-17993718D01*
X14896080Y-17993718D02*
X14886556Y-17946099D01*
X14886556Y-17946099D02*
X14877032Y-17917527D01*
X14877032Y-17917527D02*
X14867508Y-17898480D01*
X14867508Y-17898480D02*
X14848461Y-17869908D01*
X14848461Y-17869908D02*
X14838937Y-17860385D01*
D17*
X10238461Y-18214480D02*
X10368461Y-18344480D01*
X10368461Y-18214480D02*
X10238461Y-18344480D01*
X10368461Y-18279480D02*
G75*
G03*
X10368461Y-18279480I-65000J0D01*
G01*
D11*
X10720841Y-18352956D02*
X10606556Y-18352956D01*
X10663699Y-18352956D02*
X10663699Y-18152956D01*
X10663699Y-18152956D02*
X10644651Y-18181527D01*
X10644651Y-18181527D02*
X10625603Y-18200575D01*
X10625603Y-18200575D02*
X10606556Y-18210099D01*
X10806556Y-18333908D02*
X10816080Y-18343432D01*
X10816080Y-18343432D02*
X10806556Y-18352956D01*
X10806556Y-18352956D02*
X10797032Y-18343432D01*
X10797032Y-18343432D02*
X10806556Y-18333908D01*
X10806556Y-18333908D02*
X10806556Y-18352956D01*
X10882746Y-18152956D02*
X11006556Y-18152956D01*
X11006556Y-18152956D02*
X10939889Y-18229146D01*
X10939889Y-18229146D02*
X10968461Y-18229146D01*
X10968461Y-18229146D02*
X10987508Y-18238670D01*
X10987508Y-18238670D02*
X10997032Y-18248194D01*
X10997032Y-18248194D02*
X11006556Y-18267242D01*
X11006556Y-18267242D02*
X11006556Y-18314861D01*
X11006556Y-18314861D02*
X10997032Y-18333908D01*
X10997032Y-18333908D02*
X10987508Y-18343432D01*
X10987508Y-18343432D02*
X10968461Y-18352956D01*
X10968461Y-18352956D02*
X10911318Y-18352956D01*
X10911318Y-18352956D02*
X10892270Y-18343432D01*
X10892270Y-18343432D02*
X10882746Y-18333908D01*
X11130365Y-18152956D02*
X11149413Y-18152956D01*
X11149413Y-18152956D02*
X11168461Y-18162480D01*
X11168461Y-18162480D02*
X11177984Y-18172004D01*
X11177984Y-18172004D02*
X11187508Y-18191051D01*
X11187508Y-18191051D02*
X11197032Y-18229146D01*
X11197032Y-18229146D02*
X11197032Y-18276766D01*
X11197032Y-18276766D02*
X11187508Y-18314861D01*
X11187508Y-18314861D02*
X11177984Y-18333908D01*
X11177984Y-18333908D02*
X11168461Y-18343432D01*
X11168461Y-18343432D02*
X11149413Y-18352956D01*
X11149413Y-18352956D02*
X11130365Y-18352956D01*
X11130365Y-18352956D02*
X11111318Y-18343432D01*
X11111318Y-18343432D02*
X11101794Y-18333908D01*
X11101794Y-18333908D02*
X11092270Y-18314861D01*
X11092270Y-18314861D02*
X11082746Y-18276766D01*
X11082746Y-18276766D02*
X11082746Y-18229146D01*
X11082746Y-18229146D02*
X11092270Y-18191051D01*
X11092270Y-18191051D02*
X11101794Y-18172004D01*
X11101794Y-18172004D02*
X11111318Y-18162480D01*
X11111318Y-18162480D02*
X11130365Y-18152956D01*
X11320841Y-18152956D02*
X11339889Y-18152956D01*
X11339889Y-18152956D02*
X11358937Y-18162480D01*
X11358937Y-18162480D02*
X11368460Y-18172004D01*
X11368460Y-18172004D02*
X11377984Y-18191051D01*
X11377984Y-18191051D02*
X11387508Y-18229146D01*
X11387508Y-18229146D02*
X11387508Y-18276766D01*
X11387508Y-18276766D02*
X11377984Y-18314861D01*
X11377984Y-18314861D02*
X11368460Y-18333908D01*
X11368460Y-18333908D02*
X11358937Y-18343432D01*
X11358937Y-18343432D02*
X11339889Y-18352956D01*
X11339889Y-18352956D02*
X11320841Y-18352956D01*
X11320841Y-18352956D02*
X11301794Y-18343432D01*
X11301794Y-18343432D02*
X11292270Y-18333908D01*
X11292270Y-18333908D02*
X11282746Y-18314861D01*
X11282746Y-18314861D02*
X11273222Y-18276766D01*
X11273222Y-18276766D02*
X11273222Y-18229146D01*
X11273222Y-18229146D02*
X11282746Y-18191051D01*
X11282746Y-18191051D02*
X11292270Y-18172004D01*
X11292270Y-18172004D02*
X11301794Y-18162480D01*
X11301794Y-18162480D02*
X11320841Y-18152956D01*
X11473222Y-18352956D02*
X11473222Y-18219623D01*
X11473222Y-18238670D02*
X11482746Y-18229146D01*
X11482746Y-18229146D02*
X11501794Y-18219623D01*
X11501794Y-18219623D02*
X11530365Y-18219623D01*
X11530365Y-18219623D02*
X11549413Y-18229146D01*
X11549413Y-18229146D02*
X11558937Y-18248194D01*
X11558937Y-18248194D02*
X11558937Y-18352956D01*
X11558937Y-18248194D02*
X11568460Y-18229146D01*
X11568460Y-18229146D02*
X11587508Y-18219623D01*
X11587508Y-18219623D02*
X11616079Y-18219623D01*
X11616079Y-18219623D02*
X11635127Y-18229146D01*
X11635127Y-18229146D02*
X11644651Y-18248194D01*
X11644651Y-18248194D02*
X11644651Y-18352956D01*
X11739889Y-18352956D02*
X11739889Y-18219623D01*
X11739889Y-18238670D02*
X11749413Y-18229146D01*
X11749413Y-18229146D02*
X11768460Y-18219623D01*
X11768460Y-18219623D02*
X11797032Y-18219623D01*
X11797032Y-18219623D02*
X11816080Y-18229146D01*
X11816080Y-18229146D02*
X11825603Y-18248194D01*
X11825603Y-18248194D02*
X11825603Y-18352956D01*
X11825603Y-18248194D02*
X11835127Y-18229146D01*
X11835127Y-18229146D02*
X11854175Y-18219623D01*
X11854175Y-18219623D02*
X11882746Y-18219623D01*
X11882746Y-18219623D02*
X11901794Y-18229146D01*
X11901794Y-18229146D02*
X11911318Y-18248194D01*
X11911318Y-18248194D02*
X11911318Y-18352956D01*
X12269413Y-18143432D02*
X12097984Y-18400575D01*
X12494175Y-18152956D02*
X12513222Y-18152956D01*
X12513222Y-18152956D02*
X12532270Y-18162480D01*
X12532270Y-18162480D02*
X12541794Y-18172004D01*
X12541794Y-18172004D02*
X12551318Y-18191051D01*
X12551318Y-18191051D02*
X12560841Y-18229146D01*
X12560841Y-18229146D02*
X12560841Y-18276766D01*
X12560841Y-18276766D02*
X12551318Y-18314861D01*
X12551318Y-18314861D02*
X12541794Y-18333908D01*
X12541794Y-18333908D02*
X12532270Y-18343432D01*
X12532270Y-18343432D02*
X12513222Y-18352956D01*
X12513222Y-18352956D02*
X12494175Y-18352956D01*
X12494175Y-18352956D02*
X12475127Y-18343432D01*
X12475127Y-18343432D02*
X12465603Y-18333908D01*
X12465603Y-18333908D02*
X12456080Y-18314861D01*
X12456080Y-18314861D02*
X12446556Y-18276766D01*
X12446556Y-18276766D02*
X12446556Y-18229146D01*
X12446556Y-18229146D02*
X12456080Y-18191051D01*
X12456080Y-18191051D02*
X12465603Y-18172004D01*
X12465603Y-18172004D02*
X12475127Y-18162480D01*
X12475127Y-18162480D02*
X12494175Y-18152956D01*
X12646556Y-18333908D02*
X12656080Y-18343432D01*
X12656080Y-18343432D02*
X12646556Y-18352956D01*
X12646556Y-18352956D02*
X12637032Y-18343432D01*
X12637032Y-18343432D02*
X12646556Y-18333908D01*
X12646556Y-18333908D02*
X12646556Y-18352956D01*
X12779889Y-18152956D02*
X12798937Y-18152956D01*
X12798937Y-18152956D02*
X12817984Y-18162480D01*
X12817984Y-18162480D02*
X12827508Y-18172004D01*
X12827508Y-18172004D02*
X12837032Y-18191051D01*
X12837032Y-18191051D02*
X12846556Y-18229146D01*
X12846556Y-18229146D02*
X12846556Y-18276766D01*
X12846556Y-18276766D02*
X12837032Y-18314861D01*
X12837032Y-18314861D02*
X12827508Y-18333908D01*
X12827508Y-18333908D02*
X12817984Y-18343432D01*
X12817984Y-18343432D02*
X12798937Y-18352956D01*
X12798937Y-18352956D02*
X12779889Y-18352956D01*
X12779889Y-18352956D02*
X12760841Y-18343432D01*
X12760841Y-18343432D02*
X12751318Y-18333908D01*
X12751318Y-18333908D02*
X12741794Y-18314861D01*
X12741794Y-18314861D02*
X12732270Y-18276766D01*
X12732270Y-18276766D02*
X12732270Y-18229146D01*
X12732270Y-18229146D02*
X12741794Y-18191051D01*
X12741794Y-18191051D02*
X12751318Y-18172004D01*
X12751318Y-18172004D02*
X12760841Y-18162480D01*
X12760841Y-18162480D02*
X12779889Y-18152956D01*
X13027508Y-18152956D02*
X12932270Y-18152956D01*
X12932270Y-18152956D02*
X12922746Y-18248194D01*
X12922746Y-18248194D02*
X12932270Y-18238670D01*
X12932270Y-18238670D02*
X12951318Y-18229146D01*
X12951318Y-18229146D02*
X12998937Y-18229146D01*
X12998937Y-18229146D02*
X13017984Y-18238670D01*
X13017984Y-18238670D02*
X13027508Y-18248194D01*
X13027508Y-18248194D02*
X13037032Y-18267242D01*
X13037032Y-18267242D02*
X13037032Y-18314861D01*
X13037032Y-18314861D02*
X13027508Y-18333908D01*
X13027508Y-18333908D02*
X13017984Y-18343432D01*
X13017984Y-18343432D02*
X12998937Y-18352956D01*
X12998937Y-18352956D02*
X12951318Y-18352956D01*
X12951318Y-18352956D02*
X12932270Y-18343432D01*
X12932270Y-18343432D02*
X12922746Y-18333908D01*
X13227508Y-18352956D02*
X13113222Y-18352956D01*
X13170365Y-18352956D02*
X13170365Y-18152956D01*
X13170365Y-18152956D02*
X13151318Y-18181527D01*
X13151318Y-18181527D02*
X13132270Y-18200575D01*
X13132270Y-18200575D02*
X13113222Y-18210099D01*
X13303699Y-18172004D02*
X13313222Y-18162480D01*
X13313222Y-18162480D02*
X13332270Y-18152956D01*
X13332270Y-18152956D02*
X13379889Y-18152956D01*
X13379889Y-18152956D02*
X13398937Y-18162480D01*
X13398937Y-18162480D02*
X13408461Y-18172004D01*
X13408461Y-18172004D02*
X13417984Y-18191051D01*
X13417984Y-18191051D02*
X13417984Y-18210099D01*
X13417984Y-18210099D02*
X13408461Y-18238670D01*
X13408461Y-18238670D02*
X13294175Y-18352956D01*
X13294175Y-18352956D02*
X13417984Y-18352956D01*
X13494175Y-18152956D02*
X13494175Y-18191051D01*
X13570365Y-18152956D02*
X13570365Y-18191051D01*
X13833223Y-18429146D02*
X13823699Y-18419623D01*
X13823699Y-18419623D02*
X13804651Y-18391051D01*
X13804651Y-18391051D02*
X13795127Y-18372004D01*
X13795127Y-18372004D02*
X13785603Y-18343432D01*
X13785603Y-18343432D02*
X13776080Y-18295813D01*
X13776080Y-18295813D02*
X13776080Y-18257718D01*
X13776080Y-18257718D02*
X13785603Y-18210099D01*
X13785603Y-18210099D02*
X13795127Y-18181527D01*
X13795127Y-18181527D02*
X13804651Y-18162480D01*
X13804651Y-18162480D02*
X13823699Y-18133908D01*
X13823699Y-18133908D02*
X13833223Y-18124385D01*
X13899889Y-18172004D02*
X13909413Y-18162480D01*
X13909413Y-18162480D02*
X13928461Y-18152956D01*
X13928461Y-18152956D02*
X13976080Y-18152956D01*
X13976080Y-18152956D02*
X13995127Y-18162480D01*
X13995127Y-18162480D02*
X14004651Y-18172004D01*
X14004651Y-18172004D02*
X14014175Y-18191051D01*
X14014175Y-18191051D02*
X14014175Y-18210099D01*
X14014175Y-18210099D02*
X14004651Y-18238670D01*
X14004651Y-18238670D02*
X13890365Y-18352956D01*
X13890365Y-18352956D02*
X14014175Y-18352956D01*
X14219889Y-18352956D02*
X14219889Y-18152956D01*
X14305603Y-18352956D02*
X14305603Y-18248194D01*
X14305603Y-18248194D02*
X14296080Y-18229146D01*
X14296080Y-18229146D02*
X14277032Y-18219623D01*
X14277032Y-18219623D02*
X14248461Y-18219623D01*
X14248461Y-18219623D02*
X14229413Y-18229146D01*
X14229413Y-18229146D02*
X14219889Y-18238670D01*
X14429413Y-18352956D02*
X14410365Y-18343432D01*
X14410365Y-18343432D02*
X14400842Y-18333908D01*
X14400842Y-18333908D02*
X14391318Y-18314861D01*
X14391318Y-18314861D02*
X14391318Y-18257718D01*
X14391318Y-18257718D02*
X14400842Y-18238670D01*
X14400842Y-18238670D02*
X14410365Y-18229146D01*
X14410365Y-18229146D02*
X14429413Y-18219623D01*
X14429413Y-18219623D02*
X14457984Y-18219623D01*
X14457984Y-18219623D02*
X14477032Y-18229146D01*
X14477032Y-18229146D02*
X14486556Y-18238670D01*
X14486556Y-18238670D02*
X14496080Y-18257718D01*
X14496080Y-18257718D02*
X14496080Y-18314861D01*
X14496080Y-18314861D02*
X14486556Y-18333908D01*
X14486556Y-18333908D02*
X14477032Y-18343432D01*
X14477032Y-18343432D02*
X14457984Y-18352956D01*
X14457984Y-18352956D02*
X14429413Y-18352956D01*
X14610365Y-18352956D02*
X14591318Y-18343432D01*
X14591318Y-18343432D02*
X14581794Y-18324385D01*
X14581794Y-18324385D02*
X14581794Y-18152956D01*
X14762746Y-18343432D02*
X14743699Y-18352956D01*
X14743699Y-18352956D02*
X14705603Y-18352956D01*
X14705603Y-18352956D02*
X14686556Y-18343432D01*
X14686556Y-18343432D02*
X14677032Y-18324385D01*
X14677032Y-18324385D02*
X14677032Y-18248194D01*
X14677032Y-18248194D02*
X14686556Y-18229146D01*
X14686556Y-18229146D02*
X14705603Y-18219623D01*
X14705603Y-18219623D02*
X14743699Y-18219623D01*
X14743699Y-18219623D02*
X14762746Y-18229146D01*
X14762746Y-18229146D02*
X14772270Y-18248194D01*
X14772270Y-18248194D02*
X14772270Y-18267242D01*
X14772270Y-18267242D02*
X14677032Y-18286289D01*
X14848461Y-18343432D02*
X14867508Y-18352956D01*
X14867508Y-18352956D02*
X14905603Y-18352956D01*
X14905603Y-18352956D02*
X14924651Y-18343432D01*
X14924651Y-18343432D02*
X14934175Y-18324385D01*
X14934175Y-18324385D02*
X14934175Y-18314861D01*
X14934175Y-18314861D02*
X14924651Y-18295813D01*
X14924651Y-18295813D02*
X14905603Y-18286289D01*
X14905603Y-18286289D02*
X14877032Y-18286289D01*
X14877032Y-18286289D02*
X14857984Y-18276766D01*
X14857984Y-18276766D02*
X14848461Y-18257718D01*
X14848461Y-18257718D02*
X14848461Y-18248194D01*
X14848461Y-18248194D02*
X14857984Y-18229146D01*
X14857984Y-18229146D02*
X14877032Y-18219623D01*
X14877032Y-18219623D02*
X14905603Y-18219623D01*
X14905603Y-18219623D02*
X14924651Y-18229146D01*
X15000842Y-18429146D02*
X15010365Y-18419623D01*
X15010365Y-18419623D02*
X15029413Y-18391051D01*
X15029413Y-18391051D02*
X15038937Y-18372004D01*
X15038937Y-18372004D02*
X15048461Y-18343432D01*
X15048461Y-18343432D02*
X15057984Y-18295813D01*
X15057984Y-18295813D02*
X15057984Y-18257718D01*
X15057984Y-18257718D02*
X15048461Y-18210099D01*
X15048461Y-18210099D02*
X15038937Y-18181527D01*
X15038937Y-18181527D02*
X15029413Y-18162480D01*
X15029413Y-18162480D02*
X15010365Y-18133908D01*
X15010365Y-18133908D02*
X15000842Y-18124385D01*
M02*
