%TF.GenerationSoftware,KiCad,Pcbnew,(7.0.0)*%
%TF.CreationDate,2023-05-16T07:50:31+02:00*%
%TF.ProjectId,MamaGeburtstag2023,4d616d61-4765-4627-9572-747374616732,rev?*%
%TF.SameCoordinates,Original*%
%TF.FileFunction,Copper,L4,Bot*%
%TF.FilePolarity,Positive*%
%FSLAX46Y46*%
G04 Gerber Fmt 4.6, Leading zero omitted, Abs format (unit mm)*
G04 Created by KiCad (PCBNEW (7.0.0)) date 2023-05-16 07:50:31*
%MOMM*%
%LPD*%
G01*
G04 APERTURE LIST*
%TA.AperFunction,ComponentPad*%
%ADD10R,1.800000X1.800000*%
%TD*%
%TA.AperFunction,ComponentPad*%
%ADD11C,1.800000*%
%TD*%
%TA.AperFunction,ComponentPad*%
%ADD12R,1.700000X1.700000*%
%TD*%
%TA.AperFunction,ComponentPad*%
%ADD13O,1.700000X1.700000*%
%TD*%
%TA.AperFunction,ComponentPad*%
%ADD14C,0.800000*%
%TD*%
%TA.AperFunction,SMDPad,CuDef*%
%ADD15R,0.500000X1.600000*%
%TD*%
%TA.AperFunction,ComponentPad*%
%ADD16C,0.900000*%
%TD*%
%TA.AperFunction,ComponentPad*%
%ADD17C,0.700000*%
%TD*%
%TA.AperFunction,SMDPad,CuDef*%
%ADD18R,1.680000X1.680000*%
%TD*%
%TA.AperFunction,ComponentPad*%
%ADD19C,1.950000*%
%TD*%
%TA.AperFunction,ComponentPad*%
%ADD20C,1.815000*%
%TD*%
%TA.AperFunction,ViaPad*%
%ADD21C,0.800000*%
%TD*%
%TA.AperFunction,Conductor*%
%ADD22C,0.625000*%
%TD*%
%TA.AperFunction,Conductor*%
%ADD23C,0.375000*%
%TD*%
%TA.AperFunction,Conductor*%
%ADD24C,0.250000*%
%TD*%
G04 APERTURE END LIST*
D10*
%TO.P,D312,1,K*%
%TO.N,Net-(D309-K)*%
X137999999Y-141999999D03*
D11*
%TO.P,D312,2,A*%
%TO.N,Net-(D304-K)*%
X135460000Y-142000000D03*
%TD*%
D10*
%TO.P,D305,1,K*%
%TO.N,Net-(D305-K)*%
X148999999Y-149999999D03*
D11*
%TO.P,D305,2,A*%
%TO.N,Net-(D305-A)*%
X146460000Y-150000000D03*
%TD*%
D10*
%TO.P,D302,1,K*%
%TO.N,Net-(D302-K)*%
X122999999Y-91999999D03*
D11*
%TO.P,D302,2,A*%
%TO.N,Net-(D302-A)*%
X125540000Y-92000000D03*
%TD*%
D12*
%TO.P,J201,1,Pin_1*%
%TO.N,/Digital/PB4(MISO)*%
X179299999Y-116224999D03*
D13*
%TO.P,J201,2,Pin_2*%
%TO.N,VCC*%
X179299999Y-118764999D03*
%TO.P,J201,3,Pin_3*%
%TO.N,/Digital/PB5(SCK)*%
X176759999Y-116224999D03*
%TO.P,J201,4,Pin_4*%
%TO.N,/Digital/PB3(MOSI)*%
X176759999Y-118764999D03*
%TO.P,J201,5,Pin_5*%
%TO.N,/Digital/PC6(NRST)*%
X174219999Y-116224999D03*
%TO.P,J201,6,Pin_6*%
%TO.N,GND*%
X174219999Y-118764999D03*
%TD*%
D10*
%TO.P,D315,1,K*%
%TO.N,Net-(D309-K)*%
X179999999Y-99999999D03*
D11*
%TO.P,D315,2,A*%
%TO.N,Net-(D307-K)*%
X182540000Y-100000000D03*
%TD*%
D14*
%TO.P,U202,7,EP*%
%TO.N,GND*%
X144000000Y-119450000D03*
D15*
X143999999Y-118899999D03*
D16*
X144000000Y-118350000D03*
%TD*%
D10*
%TO.P,D311,1,K*%
%TO.N,Net-(D309-K)*%
X116999999Y-122999999D03*
D11*
%TO.P,D311,2,A*%
%TO.N,Net-(D303-K)*%
X114460000Y-123000000D03*
%TD*%
D17*
%TO.P,U102,17,VSS*%
%TO.N,GND*%
X148150000Y-133900000D03*
X148150000Y-133100000D03*
D18*
X147749999Y-133499999D03*
D17*
X147350000Y-133900000D03*
X147350000Y-133100000D03*
%TD*%
D10*
%TO.P,D316,1,K*%
%TO.N,Net-(D309-K)*%
X157459999Y-94999999D03*
D11*
%TO.P,D316,2,A*%
%TO.N,Net-(D308-K)*%
X160000000Y-95000000D03*
%TD*%
D10*
%TO.P,D303,1,K*%
%TO.N,Net-(D303-K)*%
X109959999Y-112499999D03*
D11*
%TO.P,D303,2,A*%
%TO.N,Net-(D303-A)*%
X112500000Y-112500000D03*
%TD*%
D10*
%TO.P,D304,1,K*%
%TO.N,Net-(D304-K)*%
X125999999Y-132999999D03*
D11*
%TO.P,D304,2,A*%
%TO.N,Net-(D304-A)*%
X128540000Y-133000000D03*
%TD*%
D10*
%TO.P,D314,1,K*%
%TO.N,Net-(D309-K)*%
X179999999Y-122999999D03*
D11*
%TO.P,D314,2,A*%
%TO.N,Net-(D306-K)*%
X177460000Y-123000000D03*
%TD*%
D10*
%TO.P,D306,1,K*%
%TO.N,Net-(D306-K)*%
X169539999Y-132999999D03*
D11*
%TO.P,D306,2,A*%
%TO.N,Net-(D306-A)*%
X167000000Y-133000000D03*
%TD*%
D10*
%TO.P,D310,1,K*%
%TO.N,Net-(D309-K)*%
X112459999Y-99999999D03*
D11*
%TO.P,D310,2,A*%
%TO.N,Net-(D302-K)*%
X115000000Y-100000000D03*
%TD*%
D12*
%TO.P,J102,1,Pin_1*%
%TO.N,GND*%
X156849999Y-131724999D03*
D13*
%TO.P,J102,2,Pin_2*%
%TO.N,/VBAT*%
X156849999Y-134264999D03*
%TD*%
D14*
%TO.P,U301,7,EP*%
%TO.N,GND*%
X133500000Y-119450000D03*
D15*
X133499999Y-118899999D03*
D14*
X133500000Y-118350000D03*
%TD*%
D10*
%TO.P,D307,1,K*%
%TO.N,Net-(D307-K)*%
X184999999Y-112499999D03*
D11*
%TO.P,D307,2,A*%
%TO.N,Net-(D307-A)*%
X182460000Y-112500000D03*
%TD*%
D10*
%TO.P,D308,1,K*%
%TO.N,Net-(D308-K)*%
X170459999Y-91999999D03*
D11*
%TO.P,D308,2,A*%
%TO.N,Net-(D308-A)*%
X173000000Y-92000000D03*
%TD*%
D10*
%TO.P,D313,1,K*%
%TO.N,Net-(D309-K)*%
X159539999Y-141999999D03*
D11*
%TO.P,D313,2,A*%
%TO.N,Net-(D305-K)*%
X157000000Y-142000000D03*
%TD*%
D10*
%TO.P,D301,1,K*%
%TO.N,Net-(D301-K)*%
X146459999Y-102999999D03*
D11*
%TO.P,D301,2,A*%
%TO.N,Net-(D301-A)*%
X149000000Y-103000000D03*
%TD*%
D10*
%TO.P,D309,1,K*%
%TO.N,Net-(D309-K)*%
X135459999Y-94999999D03*
D11*
%TO.P,D309,2,A*%
%TO.N,Net-(D301-K)*%
X138000000Y-95000000D03*
%TD*%
D19*
%TO.P,J101,MH1,MH1*%
%TO.N,unconnected-(J101-PadMH1)*%
X144950000Y-141250000D03*
%TO.P,J101,MH2,MH2*%
%TO.N,unconnected-(J101-PadMH2)*%
X150550000Y-141250000D03*
D20*
%TO.P,J101,MH3,MH3*%
%TO.N,unconnected-(J101-PadMH3)*%
X147750000Y-143399000D03*
%TD*%
D21*
%TO.N,GND*%
X123200000Y-113800000D03*
X168400000Y-128600000D03*
X141250000Y-136000000D03*
X150250000Y-132250000D03*
X146224500Y-130500000D03*
X141250000Y-138000000D03*
X154250000Y-138000000D03*
X175525000Y-112000000D03*
X131750000Y-115650000D03*
X175525000Y-109500000D03*
X159025000Y-109400000D03*
X145500000Y-120750000D03*
X144350000Y-130100000D03*
X151250000Y-114750000D03*
X159000000Y-107875500D03*
X155600000Y-97600000D03*
X148844000Y-138938000D03*
X154250000Y-136000000D03*
X171275000Y-108500000D03*
X154525000Y-108500000D03*
X148012500Y-130302000D03*
X142500000Y-116000000D03*
X147828000Y-137922000D03*
X127400000Y-128600000D03*
X147828000Y-138938000D03*
X134700000Y-120800000D03*
X147828000Y-136906000D03*
X123200000Y-112800000D03*
X148844000Y-137922000D03*
X160750000Y-119250000D03*
X154525000Y-110500000D03*
%TO.N,VD*%
X136500000Y-113000000D03*
X135250000Y-113000000D03*
X137750000Y-113000000D03*
X164000000Y-135500000D03*
X136500000Y-116750000D03*
X135250000Y-114250000D03*
X137750000Y-115500000D03*
X176000000Y-94000000D03*
X151500000Y-105000000D03*
X131000000Y-92000000D03*
X136500000Y-114250000D03*
X143500000Y-146500000D03*
X182000000Y-106000000D03*
X137750000Y-114250000D03*
X113000000Y-119000000D03*
X136500000Y-115500000D03*
X137750000Y-116750000D03*
X132000000Y-135000000D03*
%TO.N,/Digital/PD4(T0)*%
X154400000Y-106600000D03*
X118200000Y-112800000D03*
%TO.N,/Digital/PD6(AIN0)\u005CLIGHT*%
X127400000Y-125600000D03*
X163000000Y-115400000D03*
%TO.N,/Digital/PC6(NRST)*%
X164775000Y-102750000D03*
%TO.N,VCC*%
X136500000Y-107500000D03*
X167800000Y-111000000D03*
X162600000Y-108600000D03*
X137750000Y-107500000D03*
X137750000Y-110000000D03*
X136500000Y-110000000D03*
X167700000Y-109400000D03*
X136500000Y-108750000D03*
X151300000Y-108300000D03*
X137750000Y-108750000D03*
X164775000Y-98500000D03*
X139000000Y-108750000D03*
X162600000Y-110200000D03*
X139000000Y-107500000D03*
X139000000Y-110000000D03*
%TD*%
D22*
%TO.N,Net-(D301-K)*%
X144500000Y-103000000D02*
X146460000Y-103000000D01*
X138000000Y-95000000D02*
X138000000Y-96500000D01*
X138000000Y-96500000D02*
X144500000Y-103000000D01*
%TO.N,Net-(D302-K)*%
X115000000Y-100000000D02*
X115000000Y-98500000D01*
X115000000Y-98500000D02*
X121500000Y-92000000D01*
X121500000Y-92000000D02*
X123000000Y-92000000D01*
%TO.N,Net-(D303-K)*%
X114460000Y-123000000D02*
X114460000Y-122960000D01*
X109960000Y-118460000D02*
X109960000Y-112500000D01*
X114460000Y-122960000D02*
X109960000Y-118460000D01*
%TO.N,Net-(D304-K)*%
X133500000Y-142000000D02*
X126000000Y-134500000D01*
X126000000Y-134500000D02*
X126000000Y-133000000D01*
X135460000Y-142000000D02*
X133500000Y-142000000D01*
%TO.N,Net-(D305-K)*%
X157000000Y-142000000D02*
X149000000Y-150000000D01*
%TO.N,Net-(D306-K)*%
X177460000Y-126540000D02*
X171000000Y-133000000D01*
X177460000Y-123000000D02*
X177460000Y-126540000D01*
X171000000Y-133000000D02*
X169540000Y-133000000D01*
%TO.N,Net-(D307-K)*%
X185000000Y-102460000D02*
X182540000Y-100000000D01*
X185000000Y-112500000D02*
X185000000Y-102460000D01*
%TO.N,Net-(D308-K)*%
X163000000Y-92000000D02*
X170460000Y-92000000D01*
X160000000Y-95000000D02*
X163000000Y-92000000D01*
D23*
%TO.N,/Digital/PD4(T0)*%
X118200000Y-102800000D02*
X119600000Y-101400000D01*
X118200000Y-112800000D02*
X118200000Y-102800000D01*
X144800000Y-106600000D02*
X154400000Y-106600000D01*
X119600000Y-101400000D02*
X139600000Y-101400000D01*
X139600000Y-101400000D02*
X144800000Y-106600000D01*
%TO.N,/Digital/PD6(AIN0)\u005CLIGHT*%
X152000000Y-112000000D02*
X142600000Y-112000000D01*
X163000000Y-115400000D02*
X162200000Y-115400000D01*
X162200000Y-115400000D02*
X159600000Y-112800000D01*
X128800000Y-122600000D02*
X127400000Y-124000000D01*
X152800000Y-112800000D02*
X152000000Y-112000000D01*
X142600000Y-112000000D02*
X139800000Y-114800000D01*
X127400000Y-124000000D02*
X127400000Y-125600000D01*
X139800000Y-120800000D02*
X138000000Y-122600000D01*
X159600000Y-112800000D02*
X152800000Y-112800000D01*
X139800000Y-114800000D02*
X139800000Y-120800000D01*
X138000000Y-122600000D02*
X128800000Y-122600000D01*
D24*
%TO.N,/Digital/PC6(NRST)*%
X170995000Y-113000000D02*
X168300000Y-113000000D01*
X174220000Y-116225000D02*
X170995000Y-113000000D01*
X164775000Y-109475000D02*
X164775000Y-102750000D01*
X168300000Y-113000000D02*
X164775000Y-109475000D01*
%TD*%
M02*
