M48
; DRILL file {KiCad (7.0.0)} date Tue May 16 07:50:36 2023
; FORMAT={-:-/ absolute / metric / decimal}
; #@! TF.CreationDate,2023-05-16T07:50:36+02:00
; #@! TF.GenerationSoftware,Kicad,Pcbnew,(7.0.0)
; #@! TF.FileFunction,Plated,1,4,PTH
FMAT,2
METRIC
; #@! TA.AperFunction,Plated,PTH,ComponentDrill
T1C0.300
; #@! TA.AperFunction,Plated,PTH,ViaDrill
T2C0.400
; #@! TA.AperFunction,Plated,PTH,ComponentDrill
T3C0.900
; #@! TA.AperFunction,Plated,PTH,ComponentDrill
T4C1.000
; #@! TA.AperFunction,Plated,PTH,ComponentDrill
T5C1.210
; #@! TA.AperFunction,Plated,PTH,ComponentDrill
T6C1.300
%
G90
G05
T1
X133.5Y-118.35
X133.5Y-119.45
X144.0Y-118.35
X144.0Y-119.45
X147.35Y-133.1
X147.35Y-133.9
X148.15Y-133.1
X148.15Y-133.9
T2
X113.0Y-119.0
X118.2Y-112.8
X123.2Y-112.8
X123.2Y-113.8
X127.4Y-125.6
X127.4Y-128.6
X131.0Y-92.0
X131.75Y-115.65
X132.0Y-135.0
X134.7Y-120.8
X135.25Y-113.0
X135.25Y-114.25
X136.5Y-107.5
X136.5Y-108.75
X136.5Y-110.0
X136.5Y-113.0
X136.5Y-114.25
X136.5Y-115.5
X136.5Y-116.75
X137.75Y-107.5
X137.75Y-108.75
X137.75Y-110.0
X137.75Y-113.0
X137.75Y-114.25
X137.75Y-115.5
X137.75Y-116.75
X139.0Y-107.5
X139.0Y-108.75
X139.0Y-110.0
X141.25Y-136.0
X141.25Y-138.0
X142.5Y-116.0
X143.5Y-146.5
X144.35Y-130.1
X145.5Y-120.75
X146.225Y-130.5
X147.828Y-136.906
X147.828Y-137.922
X147.828Y-138.938
X148.012Y-130.302
X148.844Y-137.922
X148.844Y-138.938
X150.25Y-132.25
X151.25Y-114.75
X151.3Y-108.3
X151.5Y-105.0
X154.25Y-136.0
X154.25Y-138.0
X154.4Y-106.6
X154.525Y-108.5
X154.525Y-110.5
X155.6Y-97.6
X159.0Y-107.875
X159.025Y-109.4
X160.75Y-119.25
X162.6Y-108.6
X162.6Y-110.2
X163.0Y-115.4
X164.0Y-135.5
X164.775Y-98.5
X164.775Y-102.75
X167.7Y-109.4
X167.8Y-111.0
X168.4Y-128.6
X171.275Y-108.5
X175.525Y-109.5
X175.525Y-112.0
X176.0Y-94.0
X182.0Y-106.0
T3
X109.96Y-112.5
X112.46Y-100.0
X112.5Y-112.5
X114.46Y-123.0
X115.0Y-100.0
X117.0Y-123.0
X123.0Y-92.0
X125.54Y-92.0
X126.0Y-133.0
X128.54Y-133.0
X135.46Y-95.0
X135.46Y-142.0
X138.0Y-95.0
X138.0Y-142.0
X146.46Y-103.0
X146.46Y-150.0
X149.0Y-103.0
X149.0Y-150.0
X157.0Y-142.0
X157.46Y-95.0
X159.54Y-142.0
X160.0Y-95.0
X167.0Y-133.0
X169.54Y-133.0
X170.46Y-92.0
X173.0Y-92.0
X177.46Y-123.0
X180.0Y-100.0
X180.0Y-123.0
X182.46Y-112.5
X182.54Y-100.0
X185.0Y-112.5
T4
X156.85Y-131.725
X156.85Y-134.265
X174.22Y-116.225
X174.22Y-118.765
X176.76Y-116.225
X176.76Y-118.765
X179.3Y-116.225
X179.3Y-118.765
T5
X147.75Y-143.399
T6
X144.95Y-141.25
X150.55Y-141.25
T0
M30
