%TF.GenerationSoftware,KiCad,Pcbnew,(7.0.0)*%
%TF.CreationDate,2023-05-16T07:50:31+02:00*%
%TF.ProjectId,MamaGeburtstag2023,4d616d61-4765-4627-9572-747374616732,rev?*%
%TF.SameCoordinates,Original*%
%TF.FileFunction,Profile,NP*%
%FSLAX46Y46*%
G04 Gerber Fmt 4.6, Leading zero omitted, Abs format (unit mm)*
G04 Created by KiCad (PCBNEW (7.0.0)) date 2023-05-16 07:50:31*
%MOMM*%
%LPD*%
G01*
G04 APERTURE LIST*
%TA.AperFunction,Profile*%
%ADD10C,1.984374*%
%TD*%
G04 APERTURE END LIST*
D10*
X165349999Y-143728305D02*
X169593798Y-140077835D01*
X189651741Y-100782500D02*
X189330675Y-99762892D01*
X187531400Y-120621156D02*
X188443275Y-118680309D01*
X178644719Y-87387258D02*
X177732813Y-86948718D01*
X110909663Y-91770528D02*
X110240507Y-92491093D01*
X188963128Y-98758718D02*
X188548640Y-97771832D01*
X153170667Y-155245765D02*
X155082200Y-153207310D01*
X116356624Y-87592108D02*
X115506343Y-88088433D01*
X119947986Y-85983261D02*
X119024350Y-86326760D01*
X128386995Y-84836055D02*
X127572763Y-84798029D01*
X138974793Y-88241388D02*
X138288280Y-87834979D01*
X169935679Y-84923305D02*
X168926819Y-84859985D01*
X107392475Y-96484660D02*
X106932010Y-97353665D01*
X155534764Y-88644604D02*
X154928231Y-89083814D01*
X145818907Y-159813756D02*
X147524158Y-162202611D01*
X140164668Y-153151585D02*
X142128880Y-155297883D01*
X145464100Y-94102516D02*
X144966444Y-93473207D01*
X125755006Y-84822794D02*
X124762448Y-84903388D01*
X136151475Y-86756694D02*
X135415597Y-86445858D01*
X122947580Y-137388051D02*
X131753108Y-145085718D01*
X149558642Y-159755378D02*
X150264313Y-158839480D01*
X181251161Y-88942843D02*
X180405794Y-88384620D01*
X147524158Y-162202611D02*
X147853169Y-161841641D01*
X188548640Y-97771832D02*
X188086753Y-96804087D01*
X190156267Y-102860597D02*
X189926786Y-101815686D01*
X133912288Y-85899981D02*
X133146145Y-85665907D01*
X143353728Y-91694281D02*
X142778385Y-91139252D01*
X130797485Y-85124950D02*
X130000000Y-85000000D01*
X150554837Y-93166687D02*
X150078606Y-93744472D01*
X169593798Y-140077835D02*
X173790525Y-136384757D01*
X110970260Y-125422600D02*
X112050804Y-126818725D01*
X190247061Y-112486450D02*
X190525462Y-110347506D01*
X189202293Y-116667686D02*
X189804780Y-114598122D01*
X148865379Y-160635465D02*
X149558642Y-159755378D01*
X140305325Y-89121771D02*
X139647356Y-88670480D01*
X143910614Y-92268606D02*
X143353728Y-91694281D01*
X151048368Y-92603307D02*
X150554837Y-93166687D01*
X150078606Y-93744472D02*
X149620381Y-94336414D01*
X173790525Y-136384757D02*
X175845159Y-134496562D01*
X113197540Y-128159651D02*
X114406190Y-129441627D01*
X136049266Y-149034066D02*
X138134703Y-151066859D01*
X165900240Y-84930356D02*
X164897719Y-85041588D01*
X122802887Y-85203324D02*
X121838624Y-85420420D01*
X109960188Y-123975026D02*
X110970260Y-125422600D01*
X136875977Y-87092148D02*
X136151475Y-86756694D01*
X151558495Y-92054579D02*
X151048368Y-92603307D01*
X142128880Y-155297883D02*
X144017054Y-157515393D01*
X110240507Y-92491093D02*
X109602707Y-93239204D01*
X104676792Y-107494894D02*
X104746802Y-109250636D01*
X131753108Y-145085718D02*
X136049266Y-149034066D01*
X183528762Y-126426418D02*
X185263774Y-124228185D01*
X180405794Y-88384620D02*
X179536346Y-87865992D01*
X112336563Y-90416522D02*
X111608805Y-91078630D01*
X138134703Y-151066859D02*
X140164668Y-153151585D01*
X105222329Y-112716558D02*
X105619287Y-114419237D01*
X144448401Y-92861743D02*
X143910614Y-92268606D01*
X176802530Y-86550670D02*
X175855771Y-86193416D01*
X155082200Y-153207310D02*
X157054983Y-151230101D01*
X105048316Y-102965479D02*
X104893671Y-103956605D01*
X108426657Y-94813574D02*
X107891148Y-95637589D01*
X160018200Y-86269541D02*
X159082221Y-86651586D01*
X151704796Y-156985850D02*
X152435568Y-156090915D01*
X185050244Y-92317392D02*
X184353798Y-91565690D01*
X150264313Y-158839480D02*
X150980371Y-157909171D01*
X148186544Y-161458343D02*
X148865379Y-160635465D01*
X187577006Y-95857339D02*
X187018941Y-94933441D01*
X164897719Y-85041588D02*
X163901535Y-85197207D01*
X129196289Y-84903540D02*
X128386995Y-84836055D01*
X147853169Y-161841641D02*
X148186544Y-161458343D01*
X183623766Y-90852084D02*
X182862048Y-90176874D01*
X177732813Y-86948718D02*
X176802530Y-86550670D01*
X107395593Y-119361128D02*
X108168576Y-120940539D01*
X108168576Y-120940539D02*
X109024867Y-122479756D01*
X185263774Y-124228185D02*
X186470341Y-122475393D01*
X150980371Y-157909171D02*
X151704796Y-156985850D01*
X166907198Y-84863211D02*
X165900240Y-84930356D01*
X146828307Y-96092666D02*
X146395675Y-95412729D01*
X163901535Y-85197207D02*
X162913590Y-85397512D01*
X189926786Y-101815686D02*
X189651741Y-100782500D01*
X185756020Y-93161613D02*
X185050244Y-92317392D01*
X127572763Y-84798029D02*
X126754235Y-84789945D01*
X142778385Y-91139252D02*
X142185229Y-90604002D01*
X188086753Y-96804087D02*
X187577006Y-95857339D01*
X106131184Y-99152991D02*
X105793564Y-100081067D01*
X135415597Y-86445858D02*
X134668987Y-86160126D01*
X152802703Y-155660779D02*
X153170667Y-155245765D01*
X179814809Y-130585506D02*
X181708963Y-128542101D01*
X152084510Y-91520752D02*
X151558495Y-92054579D01*
X106511123Y-98243483D02*
X106131184Y-99152991D01*
X106710198Y-117745273D02*
X107395593Y-119361128D01*
X147981653Y-96840779D02*
X147624042Y-97499779D01*
X190575928Y-106047136D02*
X190340645Y-103915379D01*
X144966444Y-93473207D02*
X144448401Y-92861743D01*
X115506343Y-88088433D02*
X114677826Y-88620159D01*
X147237977Y-96788510D02*
X146828307Y-96092666D01*
X124762448Y-84903388D02*
X123777952Y-85030606D01*
X118602736Y-133484494D02*
X122947580Y-137388051D01*
X182070546Y-89540361D02*
X181251161Y-88942843D01*
X120886534Y-85680774D02*
X119947986Y-85983261D01*
X104724322Y-105728966D02*
X104676792Y-107494894D01*
X132371201Y-85458388D02*
X131588100Y-85277908D01*
X142185229Y-90604002D02*
X141574905Y-90089016D01*
X161935785Y-85642803D02*
X160970021Y-85933379D01*
X147624042Y-97499779D02*
X147237977Y-96788510D01*
X105619287Y-114419237D02*
X106116670Y-116096726D01*
X112050804Y-126818725D02*
X113197540Y-128159651D01*
X186470341Y-122475393D02*
X187531400Y-120621156D01*
X131588100Y-85277908D02*
X130797485Y-85124950D01*
X149180868Y-94942263D02*
X148760771Y-95561773D01*
X172935647Y-85369402D02*
X171941994Y-85178313D01*
X153750836Y-90011157D02*
X153181387Y-90498792D01*
X148760771Y-95561773D02*
X148360798Y-96194694D01*
X105499632Y-101026588D02*
X105250759Y-101988433D01*
X184353798Y-91565690D02*
X183623766Y-90852084D01*
X118116998Y-86710149D02*
X117227299Y-87132306D01*
X134668987Y-86160126D02*
X133912288Y-85899981D01*
X161142577Y-147418337D02*
X165349999Y-143728305D01*
X106932010Y-97353665D02*
X106511123Y-98243483D01*
X146395675Y-95412729D02*
X145940725Y-94749185D01*
X189330675Y-99762892D02*
X188963128Y-98758718D01*
X119024350Y-86326760D02*
X118116998Y-86710149D01*
X113091565Y-89785326D02*
X112336563Y-90416522D01*
X153181387Y-90498792D02*
X152625709Y-91002073D01*
X157265399Y-87554529D02*
X156388358Y-88076025D01*
X140948056Y-89594778D02*
X140305325Y-89121771D01*
X154333353Y-89539415D02*
X153750836Y-90011157D01*
X189804780Y-114598122D02*
X190247061Y-112486450D01*
X188443275Y-118680309D02*
X189202293Y-116667686D01*
X167916691Y-84839854D02*
X166907198Y-84863211D01*
X137588460Y-87451738D02*
X136875977Y-87092148D01*
X121838624Y-85420420D02*
X120886534Y-85680774D01*
X105793564Y-100081067D02*
X105499632Y-101026588D01*
X186412099Y-94034248D02*
X185756020Y-93161613D01*
X179536346Y-87865992D02*
X178644719Y-87387258D01*
X182862048Y-90176874D02*
X182070546Y-89540361D01*
X152625709Y-91002073D02*
X152084510Y-91520752D01*
X109024867Y-122479756D02*
X109960188Y-123975026D01*
X159082221Y-86651586D02*
X158163987Y-87079816D01*
X170941371Y-85029514D02*
X169935679Y-84923305D01*
X109602707Y-93239204D02*
X108997634Y-94013739D01*
X168926819Y-84859985D02*
X167916691Y-84839854D01*
X138288280Y-87834979D02*
X137588460Y-87451738D01*
X105250759Y-101988433D02*
X105048316Y-102965479D01*
X116480785Y-131485294D02*
X118602736Y-133484494D01*
X117227299Y-87132306D02*
X116356624Y-87592108D01*
X114406190Y-129441627D02*
X116480785Y-131485294D01*
X181708963Y-128542101D02*
X183528762Y-126426418D01*
X149620381Y-94336414D02*
X149180868Y-94942263D01*
X106116670Y-116096726D02*
X106710198Y-117745273D01*
X126754255Y-84789945D02*
X125755006Y-84822794D01*
X157054983Y-151230101D02*
X159078586Y-149303867D01*
X158163987Y-87079816D02*
X157265399Y-87554529D01*
X114677826Y-88620159D02*
X113872443Y-89186164D01*
X133146145Y-85665907D02*
X132371201Y-85458388D01*
X107891148Y-95637589D02*
X107392475Y-96484660D01*
X141574905Y-90089016D02*
X140948056Y-89594778D01*
X144017054Y-157515393D02*
X145818907Y-159813756D01*
X173920428Y-85602482D02*
X172935647Y-85369402D01*
X177856730Y-132566902D02*
X179814809Y-130585506D01*
X154928231Y-89083814D02*
X154333353Y-89539415D01*
X113872443Y-89186164D02*
X113091565Y-89785326D01*
X159078586Y-149303867D02*
X161142577Y-147418337D01*
X104893671Y-103956605D02*
X104724322Y-105728966D01*
X152435568Y-156090915D02*
X152802703Y-155660779D01*
X130000000Y-85000000D02*
X129196289Y-84903540D01*
X145940725Y-94749185D02*
X145464100Y-94102516D01*
X190340645Y-103915379D02*
X190156267Y-102860597D01*
X104930075Y-110992441D02*
X105222329Y-112716558D01*
X175845159Y-134496562D02*
X177856730Y-132566902D01*
X190636309Y-108196123D02*
X190575928Y-106047136D01*
X111608805Y-91078630D02*
X110909663Y-91770528D01*
X160970021Y-85933379D02*
X160018200Y-86269541D01*
X123777952Y-85030606D02*
X122802887Y-85203324D01*
X148360798Y-96194694D02*
X147981653Y-96840779D01*
X187018941Y-94933441D02*
X186412099Y-94034248D01*
X190525462Y-110347506D02*
X190636309Y-108196123D01*
X175855771Y-86193416D02*
X174894436Y-85877253D01*
X104746802Y-109250636D02*
X104930075Y-110992441D01*
X139647356Y-88670480D02*
X138974793Y-88241388D01*
X162913590Y-85397512D02*
X161935785Y-85642803D01*
X174894436Y-85877253D02*
X173920428Y-85602482D01*
X171941994Y-85178313D02*
X170941371Y-85029514D01*
X156388358Y-88076025D02*
X155534764Y-88644604D01*
X108997634Y-94013739D02*
X108426657Y-94813574D01*
M02*
